<svg xmlns="http://www.w3.org/2000/svg" viewBox="0 0 1056.25 205.15"><defs><style>.cls-1{opacity:0.45;}.cls-2{fill:none;stroke:#484949;stroke-linecap:round;stroke-linejoin:round;stroke-width:3px;}</style></defs><g id="Layer_2" data-name="Layer 2"><g id="Layer_1-2" data-name="Layer 1"><g class="cls-1"><path class="cls-2" d="M27.11,17.33s1.48-.9,1.5-.86c.18.31,12.31-1.27,12.45-1S58.45,5,58.62,5.31C59.59,7,.58,43,1.51,44.59c.33.57,27.27-16.65,27.66-16,.07.12,4.75,2.43,4.81,2.54.55.95,6.47-4.64,6.87-4,.24.42-12.27,12.11-12,12.52.62,1.07,49.21-30,49.88-28.79,1.08,1.87-66.48,42-65.42,43.85C14.09,56.2,97.22,4.87,97.85,6c1.16,2-83.26,51.13-82,53.3.8,1.37,54.7-33.39,55.48-32,.4.68-22.64,17.84-22.35,18.34,1,1.67,56.69-35.4,57.84-33.4s-66,41.66-65,43.43c1.24,2.15,89.81-54.27,90.85-52.46C134.34,6,8.8,75.06,10.88,78.67c1.24,2.13,108.05-65,109.18-63,1.24,2.14-90.59,55-89.51,56.87,1.69,2.94,75.69-47,77.13-44.53,1.08,1.86-79.95,49.45-79,51.15,1.33,2.31,92.75-57.74,94.56-54.6,1,1.82-73.92,46.07-73,47.63C51.9,75,156,7.14,157.7,10.13c2.47,4.28-154.52,90.6-152.57,94S170.72,4.36,172.52,7.47c2.34,4.05-161.25,93-158.7,97.37C16,108.62,155.52,19.06,157.24,22c2.2,3.8-139.9,83.16-138.23,86,2.17,3.77,152.33-92.81,154.43-89.16C175.35,22.22,47,93.58,48.72,96.53c2.63,4.54,140.08-85.32,142-82C193.24,18.9,38,103.85,39.83,107c2.68,4.64,173-105.51,175.45-101.3,2,3.47-172.21,100.35-170,104.11,2.82,4.88,146.46-91.31,149.39-86.25C197.27,28.17,11.74,129.9,14.14,134.06S197.19,22.46,199.75,26.89c2,3.55-170.08,98.9-168,102.53C34.43,134,206.3,21.47,209.41,26.86,212.76,32.67,13.43,138.69,16.5,144c2.85,4.93,204.36-124,207-119.48C226.29,29.41,3.63,151.69,6.22,156.18,10,162.8,249.62,8.66,252.64,13.91c2.52,4.35-204.13,117.88-201.77,122,3.25,5.64,199.33-123.47,203-117.18,3.47,6-210.6,120.11-207.34,125.76C49.4,149.49,272,4.7,276.14,11.88,280,18.53-2.63,168.21,1.92,176.09c3.76,6.51,250.29-154.48,254.61-147,2.61,4.53-222.38,126.38-218.87,132.46S292.52,7.4,295.56,12.65C299.45,19.4,2.47,176.86,7.23,185.11c4.63,8,271.4-166.27,275.55-159.09,3.2,5.56-243.4,139.58-240.5,144.6C46.49,177.92,289.16,16.91,294,25.29S10.07,186.22,13.78,192.66C18.69,201.16,337.71-5.75,342.64,2.79c4.7,8.14-319.17,177.86-313.87,187C33.05,197.23,346.56-5.4,351.65,3.41,356.41,11.65,31.5,183.13,36,191,40.05,197.93,359.6-5.76,363.91,1.7,368.09,9,69,166.32,73.93,174.85c3.47,6,281.06-172,285.29-164.72,4.64,8-299.44,166.49-294.4,175.21C68.61,191.9,366.77,1.1,371.06,8.53,374.68,14.79,76.47,176,80,182.06c4.5,7.8,266.54-162.7,270.36-156.09S94,171.71,97.37,177.56C101.48,184.67,370.57,10,374.82,17.38c5,8.68-304.65,171.57-300.53,178.71C79.39,204.92,396,.39,400.34,7.84c4.39,7.6-302.5,171.32-298.48,178.29,3.6,6.22,270.72-164.27,274.17-158.3,4.34,7.52-266,150.84-262.07,157.61,4.63,8,295.72-180.35,299.89-173.14,4.63,8-287.81,162.25-283.69,169.38C133.89,188.14,431.67-2.83,436.19,5S139.73,171.64,144.08,179.18c5,8.61,264.84-164.09,269.68-155.7,4.63,8-274.36,156.32-271.12,161.94C147.67,194.14,449.5.2,453,6.24c4.62,8-324.66,182.37-320.18,190.12C137.8,205,454.47,1.91,458.25,8.47c3.94,6.81-303.11,171.41-299,178.52C164,195.19,473.19-5,477.83,3.06,482.82,11.71,157,185,160.88,191.75c4.8,8.31,276.29-168.88,280.35-161.86C445,36.42,193,169.12,197.17,176.32S484.79,2,488.37,8.2C492.12,14.7,172.19,185.68,177,194c5.16,8.93,280.51-171,284.45-164.23,3.22,5.59-258.78,146.36-255.19,152.57,4.34,7.52,270.65-166,274.86-158.69S180,192.17,184.68,200.29c3.49,6.05,323.65-198.37,328.63-189.74C518.18,19,198,187.2,202.9,195.68c4.25,7.38,316.56-193.81,321.35-185.53,5.09,8.81-322.8,179.67-317.63,188.63,4,7,320.42-195.92,325.15-187.73S240.91,173.47,245.91,182.12C249.87,189,520.72,13.58,525,21c3.7,6.41-282.27,161.21-278.81,167.21C250.9,196.38,540.32,7.3,545.11,15.61c4.18,7.24-286.56,162.07-282.79,168.59C266.56,191.55,550.84,7.12,555.39,15c4,6.89-283.13,159.5-278.9,166.82C281.2,190,535.67,22.69,539.78,29.8,543.53,36.3,296,169.43,298.93,174.51,302.43,180.58,583.21.43,587.52,7.89c4.7,8.14-322,182.61-318.17,189.19C273.93,205,586.81,2.59,591.66,11c4.39,7.6-317.84,178.86-313.41,186.54,3.53,6.11,308.89-188.7,313.38-180.93,4.7,8.15-281.9,161-278.5,166.86C317.89,191.7,619.42-5.14,624.51,3.68,629.9,13,285.87,192.94,291.29,202.34c4.09,7.08,310.52-190.1,315.2-182,3.11,5.39-266.35,149.87-262,157.42,4.87,8.43,295-179.59,299-172.62C648,12.92,326.9,182.9,331.6,191c3.48,6,296-181,300.38-173.43,3.92,6.79-267.85,152.82-264.75,158.19,4.67,8.08,248.86-151.86,252.4-145.73S336.74,190.46,340.74,197.39C345.74,206,666.12-1,670.67,6.91c3.84,6.63-298.6,167.69-293.95,175.73,3.61,6.25,271.86-166.92,276.17-159.45,3,5.19-258.9,147.12-255.52,153,4.14,7.18,267.08-165.51,272-157,4.36,7.55-267.87,151.69-263.86,158.63,4.87,8.45,252.29-155.17,256.4-148,4.25,7.36-277.65,156.07-273.3,163.6C392.52,200.12,713-5,717.75,3.27S406.59,178.89,410.6,185.83C415.38,194.1,687.67,14.48,692.6,23c3.51,6.06-266.28,152.32-262.94,158.11C434.8,190,729.91-.68,733.58,5.67c4.32,7.49-309.93,172.88-305,181.44,3.48,6,299.91-182.26,303.85-175.43,4.69,8.11-280.21,158.61-276.15,165.65C460,183.77,744.57.93,748.88,8.4c5,8.58-296.62,168.32-293,174.49,4.05,7,290-175.95,293.72-169.59,3.53,6.13-290.07,162.55-285.48,170.49,4.69,8.13,273-167.68,277.33-160.11C746.5,32.51,444,189.84,448.78,198.07c4.48,7.74,319.41-192.89,323.08-186.53C775.43,17.73,493,169.7,496.68,176.15c3.5,6,278.36-171.5,283-163.41C784,20.13,484.09,179,488.34,186.35c4.79,8.29,287.9-175.73,292-168.6,3.83,6.62-309.75,174.69-305.7,181.7C478.44,206,785.82,10,790.06,17.35c4.87,8.42-308.47,174.88-304.52,181.72S772.88,22.62,777.46,30.54,494.85,189,499.14,196.45c5,8.66,310.53-188.8,314.65-181.67C819.16,24.08,500,191.13,504.56,199c3.55,6.15,296.07-180.76,300.32-173.4,3.75,6.5-263.44,150.18-260.11,156C549,188.78,802.28,21,807.44,29.88,811.53,37,554,172.47,558,179.34c4.17,7.21,276.08-170,280.66-162,4.27,7.41-300.83,171.39-297.11,177.85,5.17,8.95,286.8-176.78,291.65-168.38,3.52,6.09-296.25,166.47-291.74,174.29,4.66,8.07,303.81-186.89,308.78-178.27,4.47,7.72-280,157-275.4,165,3.9,6.75,297.49-180.73,301.38-174,4.2,7.28-297.08,165.93-292,174.7C588.41,195.88,890,3.23,893.79,9.74c4.33,7.49-289.34,163.52-285.55,170.08,4,7,263.09-161.83,267.39-154.38,5.2,9-303.48,169.59-298.65,178S919.15-2.2,922.64,3.83c5.38,9.32-334,188.49-329.53,196.24C598,208.5,919.74.51,924.49,8.74c3.33,5.76-287.17,162.54-283,169.69,3.92,6.78,254.09-157.28,258.68-149.34,3.63,6.3-280,157.75-275.59,165.42,4.12,7.14,282.53-173.19,286.89-165.63,3.85,6.66-276.8,158.05-273.56,163.68,4.38,7.57,279-172.53,283.94-163.93S631.54,193.7,635.16,200C638.65,206,941.88,11.23,946.93,20c4.35,7.54-273.82,153.31-269.38,161,4.16,7.2,269.51-163.85,273.08-157.66,4.71,8.15-302.93,172-299.37,178.12,4.67,8.1,318.07-193.7,322.43-186.15S659.2,192,663.76,199.9c5.17,8.95,317.87-192.11,321.58-185.67,3.59,6.2-296.62,167.74-292.53,174.82C697.39,197,969.34,17.65,974.42,26.46c4.47,7.74-278.54,157.88-274.57,164.75,4.18,7.24,288.07-177,292.69-169,3.63,6.28-274.33,153.51-269.78,161.39S1010.55,6.47,1015.31,14.72c5,8.67-317.34,178-312.56,186.29,4,7,314.91-193.65,320-184.77,4,6.94-286.94,162.78-283.24,169.18s277.23-168.53,280.9-162.17c4.22,7.32-282.2,159.66-278.28,166.46,4.39,7.6,275-167.53,278.82-161,3.43,5.94-252.8,144.74-249.62,150.26,3.44,5.95,230.77-143.11,235-135.7,3.29,5.69-260.89,147.1-257,153.77,3.95,6.83,252.93-156.62,257.52-148.68,2.91,5-230.64,131-227.23,136.92,3.69,6.4,265.74-163.48,270.09-155.94s-261.08,147.73-257.49,154S1009,49.38,1012.84,56c3,5.16-209.82,120.61-207.17,125.21,3.73,6.44,205.13-126.47,208.61-120.44,2.53,4.37-206.56,119.21-203.84,123.92,3.2,5.55,241.4-146,244.28-141C1057.83,49,821.57,176.74,824.55,181.9s215.89-132.52,219.3-126.61c2.82,4.89-223,126.78-219.4,133S1028.74,64.68,1031.18,68.91s-197,113.61-194.28,118.35S1046.7,60.79,1049,64.8c3.23,5.58-201.15,116.86-198.8,120.93,3,5.25,164.73-100.62,167.12-96.48,2.95,5.11-184.44,105.42-181.54,110.44,2.06,3.58,191.13-116.18,193.65-111.81,2.39,4.13-159.57,93-157.35,96.88,2.67,4.63,157.61-96.19,159.86-92.3,2,3.47-140.38,82.48-138.61,85.53,1.89,3.29,119.4-73.26,121.28-70,2.38,4.13-141.73,82.12-139.41,86.14,1.87,3.23,176.91-106.66,178.86-103.27,2.69,4.65-175.8,101.06-173,105.86,2.22,3.85,152.66-93.32,154.91-89.43,1.61,2.79-113.63,66.55-111.75,69.8s119.43-72.55,121-69.85c2.31,4-136.15,80.37-134.51,83.21,1.47,2.55,133.62-80.67,135.14-78,1.35,2.34-109.41,65.16-107.92,67.75,1.32,2.28,85.92-53.74,87.71-50.64,1.33,2.32-84.08,51-82.77,53.29s97.75-59.22,98.95-57.13-83,50.12-81.63,52.57c1.19,2.08,56.85-35.88,58.18-33.59.88,1.52-49.27,32.71-48.49,34.06.89,1.54,54.18-33.6,55.18-31.86.91,1.56-66.42,42.07-65.62,43.46,1.16,2,75.29-46.1,76.43-44.13S958,194.48,959.27,196.7c.69,1.19,49.82-30.94,50.76-29.3.48.83-36.43,25.1-35.84,26.11s53.9-32.48,54.49-31.46-27.42,20.13-26.94,21c.65,1.13,33.26-20.59,33.87-19.55.81,1.42-59.24,38-58.44,39.36.33.57,39.64-23.94,40.1-23.14.17.3-7.56,9.45-7.41,9.72.27.47,40.78-24.06,41-23.67.9,1.56-52.26,34.24-51.52,35.53.14.23,12.93-7.75,13.06-7.54"/></g></g></g></svg>