<svg xmlns="http://www.w3.org/2000/svg" viewBox="0 0 1251.01 195.75"><defs><style>.cls-1{fill:#ef8194;}.cls-11,.cls-2,.cls-3{fill:none;}.cls-2,.cls-3{stroke:#1e1e1e;}.cls-2{stroke-miterlimit:10;}.cls-11,.cls-2{stroke-width:4px;}.cls-11,.cls-3{stroke-linecap:round;stroke-linejoin:round;}.cls-3{stroke-width:12px;}.cls-10,.cls-4{fill:#fff;}.cls-5{fill:#d4d6d6;}.cls-6{fill:#0073b2;}.cls-7,.cls-9{fill:#fc3759;}.cls-8{fill:#ec2a50;}.cls-9{opacity:0.2;}.cls-10{font-size:72px;font-family:Poppins-Black, Poppins;font-weight:800;}.cls-11{stroke:#d14261;stroke-dasharray:7 8;}</style></defs><g id="Layer_2" data-name="Layer 2"><g id="Layer_1-2" data-name="Layer 1"><path class="cls-1" d="M1250.09,17.54C1163.59,43,1031.3,41,821.7,11.11,680.09-9.09,582.57,2,525.17,15V155c10.49-3.56,30.75-9.4,61.07-13.75,43.22-6.21,116.13-10.55,218.08,4,114.21,16.29,206.86,24.54,283.24,25.2q5,0,10,0c58.68,0,109.32-4.63,153.45-14v-.05c-51.19-15.64-96.4-58.54-96.4-58.54S1213.58,75.25,1250.09,17.54Z"/><polyline class="cls-2" points="523.84 146.29 426.62 84.99 426.62 84.11 523.84 22.81"/><line class="cls-3" x1="523.84" y1="9.03" x2="523.84" y2="156.44"/><line class="cls-2" x1="426.62" y1="84.55" x2="381.67" y2="84.55"/><path class="cls-4" d="M399.22,99.71c0,42.46-78.25,76.88-174.77,76.88S49.68,142.17,49.68,99.71s78.25-76.88,174.77-76.88S399.22,57.25,399.22,99.71Z"/><path class="cls-5" d="M241.14,136.66c-89.14,0-164-24.75-184.68-58.15A43.22,43.22,0,0,0,51,90.31c-18.94,0-34.63,11-34.29,24.59,1.06,41.08,132.61,61.69,207.72,61.69,94.22,0,171-32.8,174.6-73.85C364.84,123.2,306.88,136.66,241.14,136.66Z"/><path class="cls-6" d="M51,90.31h57.72a12,12,0,0,0,12-12V66.88a12,12,0,0,0-12-12H82.48C65.79,65.11,54.66,77.19,51,90.31Z"/><path class="cls-7" d="M139.67,137.25l68.2,42.44a106.29,106.29,0,0,0,63.29,15.82l35-2.34a6.62,6.62,0,0,0,4.18-11.34L249,122h0a68.74,68.74,0,0,0-42.79-11.43l-35.12,2.35a68.81,68.81,0,0,0-31.43,10h0A8.43,8.43,0,0,0,139.67,137.25Z"/><path class="cls-7" d="M323.89,107.8l49.8,31a77.75,77.75,0,0,0,46.22,11.55l25.54-1.71a4.83,4.83,0,0,0,3.05-8.28L403.75,96.64h0a50.21,50.21,0,0,0-31.24-8.35L346.87,90a50.19,50.19,0,0,0-23,7.33h0A6.15,6.15,0,0,0,323.89,107.8Z"/><path class="cls-7" d="M339.36,41.78l52.86-37A6.55,6.55,0,0,1,396,3.57h40.19L394.94,82.73Z"/><rect class="cls-6" x="128.49" y="54.9" width="29.95" height="35.41" rx="7.13"/><rect class="cls-6" x="169.84" y="54.9" width="29.95" height="35.41" rx="7.13"/><rect class="cls-6" x="211.2" y="54.9" width="29.95" height="35.41" rx="7.13"/><rect class="cls-6" x="252.55" y="54.9" width="29.95" height="35.41" rx="7.13"/><rect class="cls-6" x="293.91" y="54.9" width="29.95" height="35.41" rx="7.13"/><path class="cls-8" d="M310.37,181.89c-22.86,1-57.29,1.93-68.16-1.31-13-3.87-72.68-42.69-98.69-59.84-1.29.69-2.57,1.41-3.82,2.17a8.43,8.43,0,0,0,0,14.34l68.2,42.44a106.29,106.29,0,0,0,63.29,15.82l35-2.34A6.61,6.61,0,0,0,310.37,181.89Z"/><path class="cls-8" d="M448.5,140.36l0,0c-13.52.34-34.32.65-43.33-.39-11.42-1.32-62.35-32.23-80.17-43.21-.35.2-.71.39-1.06.61a6.15,6.15,0,0,0,0,10.46l49.8,31a77.75,77.75,0,0,0,46.22,11.55l25.54-1.71A4.83,4.83,0,0,0,448.5,140.36Z"/><path class="cls-8" d="M394.12,3.85a6.4,6.4,0,0,0-1.9.91l-52.86,37,14.13,10.41Z"/><path class="cls-9" d="M50.9,113.21c0,25.85-11.39,46.8-25.45,46.8S0,139.06,0,113.21s11.4-46.8,25.45-46.8S50.9,87.36,50.9,113.21Z"/><path class="cls-7" d="M30.21,113.75c0,8.59-3.57,15.57-8,15.57s-8-7-8-15.57,3.56-15.57,8-15.57S30.21,105.15,30.21,113.75Z"/><text class="cls-10" transform="translate(594.37 92.76) rotate(-5.28)">T</text><text class="cls-10" transform="translate(637.61 88.68) rotate(-0.93)">h</text><text class="cls-10" transform="translate(687 87.98) rotate(2.78)">e</text><text class="cls-10" transform="translate(730.85 90.39) rotate(4.79)"> </text><text class="cls-10" transform="translate(742.71 91.21) rotate(6.41)">L</text><text class="cls-10" transform="matrix(0.99, 0.14, -0.14, 0.99, 778.49, 95.36)">e</text><text class="cls-10" transform="translate(822.2 101.7) rotate(7.47)">a</text><text class="cls-10" transform="translate(870.6 108.01) rotate(6.71)">r</text><text class="cls-10" transform="translate(903.81 111.99) rotate(5.81)">n</text><text class="cls-10" transform="translate(953.54 116.95) rotate(4.85)">i</text><text class="cls-10" transform="translate(976.38 119.05) rotate(3.65)">n</text><text class="cls-10" transform="translate(1027.03 122.34) rotate(1.28)">g</text><path class="cls-11" d="M546.17,130.84s52.67-23.68,165.33-11.49c159,17.2,384.34,53.82,455,23.15"/></g></g></svg>