<svg xmlns="http://www.w3.org/2000/svg" viewBox="0 0 120.26 142.54"><defs><style>.cls-1{fill:#4e4e4e;}.cls-1,.cls-10,.cls-11,.cls-12,.cls-13,.cls-14,.cls-15,.cls-16,.cls-17,.cls-18,.cls-2,.cls-3,.cls-4,.cls-5,.cls-6,.cls-7,.cls-8,.cls-9{fill-rule:evenodd;}.cls-3{fill:#00126b;}.cls-4{fill:#efefef;}.cls-5{fill:#f5f5f5;}.cls-6{fill:#938eac;}.cls-7{fill:#c4c3d8;}.cls-8{fill:#fff;}.cls-9{fill:#cccce0;}.cls-10{fill:#ffccf0;}.cls-11{fill:#00126f;}.cls-12{fill:#3d3294;}.cls-13{fill:#262f64;}.cls-14{fill:#e11648;}.cls-15{fill:#f9f9f9;}.cls-16{fill:#9f97ae;}.cls-17{fill:#4e4576;}.cls-18{fill:#807aa0;}.cls-19{fill:#c2c2c3;}</style></defs><g id="Layer_2" data-name="Layer 2"><g id="Layer_1-2" data-name="Layer 1"><path class="cls-1" d="M84,102.5l7.76-7.59-6-14.39,6.46-2c7.24,4.63,13.61,12.3,14,22.16s-7.06,14.57-14,17.45-11.78-.18-13.18-4.1,1-9.69,5-11.52Z"/><path class="cls-2" d="M84.39,103.29h.17l8.29-8.11L86.92,81l5.23-1.65c8.11,5.4,12.91,13.17,13.26,21.37.44,9.77-7.5,14.13-13.43,16.57-4,1.57-6.81,1-8.47.35a7,7,0,0,1-3.66-3.92c-1.22-3.67,1.05-8.81,4.54-10.47Zm-6.11,11a8.11,8.11,0,0,0,4.54,4.89A9.4,9.4,0,0,0,87,120a14.36,14.36,0,0,0,5.58-1.14c6.45-2.61,15-7.41,14.57-18.23-.44-8.9-5.67-17.18-14.4-22.94l-.35-.18L84.65,80l6.19,14.74-7.24,7.07c-4.27,2.09-6.89,8.11-5.32,12.47Z"/><path class="cls-1" d="M4.83,66.3c6.8-4.8,12.56-1.66,18.14,3.58s9.51,9.24,18.58,11.86l-5.06,17.1C22.19,97,8.23,89.24,4.21,84.27,1.34,80.61-2,71.1,4.83,66.3Z"/><path class="cls-2" d="M1.77,72.75A8.34,8.34,0,0,1,5.35,67c5.32-3.84,10.47-2.79,17,3.49l.44.43C28,75.81,32,79.73,40.51,82.26L35.88,97.88c-14.3-2-27.3-9.6-31-14.22-1.57-2-3.75-6.54-3.14-10.91ZM.11,72.58C-.49,76.94,1.43,82,3.6,84.79c4.46,5.59,19,13.18,32.81,14.92l.69.09,5.59-18.67-.87-.26C33.18,78.42,29.34,74.76,24,69.7l-.53-.43C18.7,64.64,12.15,60.11,4.3,65.6a10.18,10.18,0,0,0-4.19,7Z"/><path class="cls-1" d="M41.55,80.52H88c2.19,3.14,7.77,15.18,8.81,26.08A32.76,32.76,0,0,1,88.92,132c-5,5.5-15.7,8.81-24.16,8.73h0c-8.46.08-19.19-3.23-24.17-8.73a33.16,33.16,0,0,1-7.93-25.39c1.13-10.9,6.62-22.94,8.89-26.08Z"/><path class="cls-3" d="M39.63,82A46.83,46.83,0,0,1,35,80.17c1.57.52,3.14,1,4.8,1.48a.66.66,0,0,1-.18.35Z"/><path class="cls-2" d="M95.91,82.35a22.58,22.58,0,0,0-2.19-1.83,3.3,3.3,0,0,0,1-.35L97,81.83l-1,.52Z"/><path class="cls-4" d="M32.66,106.6a65.16,65.16,0,0,1,3.22-13.69c3.67,2.27,13.35,7.15,28.88,7.15h0c15.53,0,25.21-4.88,28.87-7.15a64.43,64.43,0,0,1,3.14,13.69A32.76,32.76,0,0,1,88.92,132c-5,5.5-15.7,8.81-24.16,8.73h0c-8.46.08-19.19-3.23-24.17-8.73a33.16,33.16,0,0,1-7.93-25.39Z"/><path class="cls-5" d="M33.61,114v-.09a.28.28,0,0,1-.08-.17h0c-.09-.7-.09-1.31-.18-2v-.7a36.06,36.06,0,0,1,.18-4.36,56.59,56.59,0,0,1,3.14-13.35c.26.18.61.35,1,.61A68.57,68.57,0,0,0,33.61,114Z"/><path class="cls-6" d="M88.49,86.28h0a1.53,1.53,0,0,1,.61-.18,1.53,1.53,0,0,0-.61.18Z"/><path class="cls-5" d="M92.59,97.27c-.27-1-.61-2.09-1-3.23.43-.26.87-.44,1.22-.7a23.87,23.87,0,0,1,.87,2.71c-.17.26-.35.43-.52.69s-.44.35-.61.53Z"/><path class="cls-7" d="M33.61,113.93l-.08-.09v-.08h0a.28.28,0,0,0,.08.17Z"/><path class="cls-2" d="M33.53,106.69c1-10.47,6.28-21.9,8.46-25.3H87.53c2.18,3.4,7.41,14.83,8.46,25.3a32.3,32.3,0,0,1-7.68,24.78c-5,5.58-15.88,8.54-23.55,8.37h-.09c-7.59.17-18.41-2.79-23.46-8.37a32,32,0,0,1-7.68-24.78Zm-1.66-.17a33.91,33.91,0,0,0,8,26.08c5.33,5.85,16.41,9,24.35,9h1c7.94,0,19-3.14,24.26-9a33.52,33.52,0,0,0,8.11-26.08c-1.14-11.34-6.81-23.38-9-26.52l-.26-.35H41.12l-.26.35c-2.19,3.14-7.86,15.18-9,26.52Z"/><path class="cls-1" d="M26.29,116.2a9.51,9.51,0,0,1,6.28-4.36,32.07,32.07,0,0,0,8,20.15,24.32,24.32,0,0,0,8.81,5.76c-3.83.7-8.46.17-11.69-.35-3.05,2.35-9.15,5.41-15.52,3.93s-12.48-7.68-12-17.1,8.46-12.83,16.14-8Z"/><path class="cls-8" d="M27.77,126.15c2,4.71.7,9.85-3,11.42s-8.3-1-10.3-5.75-.7-9.78,3-11.43,8.29,1,10.3,5.76Z"/><path class="cls-9" d="M22.54,138a8.52,8.52,0,0,1-6.72-3.84,8.51,8.51,0,0,0,6,2.62A7.75,7.75,0,0,0,27.77,134a8,8,0,0,0,.7-1.05,6.44,6.44,0,0,1-3.66,4.62,5.06,5.06,0,0,1-2.27.44Z"/><path class="cls-2" d="M10.93,124.23c.18-4,1.83-7,4.63-8.47s6.63-1.13,10.29,1.14l.78.52.35-.87a8.71,8.71,0,0,1,4.8-3.67,33.45,33.45,0,0,0,8.11,19.72,23.33,23.33,0,0,0,6.37,4.62,58,58,0,0,1-8.46-.61l-.35-.09-.26.27c-3.49,2.61-9.24,5-14.83,3.66-5.76-1.31-11.78-6.89-11.43-16.22Zm-1.65-.09c-.44,10.29,6.28,16.58,12.73,18a13.13,13.13,0,0,0,3.66.43c5.68,0,10.47-3,12.22-4.18,3,.35,7.76,1,11.69.26l2.88-.52L49.75,137a23.65,23.65,0,0,1-8.54-5.49,32.08,32.08,0,0,1-7.86-19.72v-1l-1,.18a10.36,10.36,0,0,0-6.36,4.1c-3.93-2.27-8-2.53-11.26-.79s-5.32,5.32-5.49,9.86Z"/><path class="cls-2" d="M31.7,129.37c-.27-3.75-2.27-10.2-5.85-12.47l.87-1.4a11,11,0,0,1,3.76,4.19,15.23,15.23,0,0,1,1.22,9.68Z"/><path class="cls-1" d="M103.23,116.2A9.51,9.51,0,0,0,97,111.84a32,32,0,0,1-8,20.15A23.83,23.83,0,0,1,80,137.75c3.84.7,8.46.17,11.77-.35,3,2.35,9.16,5.41,15.53,3.93s12.48-7.68,12-17.1-8.46-12.83-16.14-8Z"/><path class="cls-8" d="M101.75,126.15c-2.09,4.71-.7,9.85,3,11.42s8.29-1,10.3-5.75.7-9.78-3-11.43-8.28,1-10.29,5.76Z"/><path class="cls-9" d="M107,138a5,5,0,0,1-2.27-.44,6.44,6.44,0,0,1-3.66-4.62c.17.35.44.7.61,1.05a7.94,7.94,0,0,0,6,2.79,8.66,8.66,0,0,0,6-2.62A8.55,8.55,0,0,1,107,138Z"/><path class="cls-2" d="M107.07,140.45c-5.5,1.31-11.26-1-14.75-3.66l-.34-.27-.26.09a58,58,0,0,1-8.46.61,21.51,21.51,0,0,0,6.28-4.62,32.92,32.92,0,0,0,8.2-19.72,8.41,8.41,0,0,1,4.71,3.67l.43.87.79-.52c3.57-2.27,7.33-2.71,10.29-1.14,2.79,1.49,4.36,4.45,4.54,8.47.43,9.33-5.58,14.91-11.43,16.22Zm7.68-26.17c-3.32-1.74-7.33-1.48-11.26.79a10.39,10.39,0,0,0-6.36-4.1l-1-.18-.09,1a32,32,0,0,1-7.77,19.72A23.61,23.61,0,0,1,79.76,137l-2.7,1.14,2.88.52c3.93.7,8.63.09,11.6-.26,1.83,1.22,6.54,4.18,12.3,4.18a13.2,13.2,0,0,0,3.67-.43c6.45-1.39,13.17-7.68,12.73-18-.26-4.54-2.18-8.2-5.49-9.86Z"/><path class="cls-2" d="M97.82,129.37c.18-3.75,2.18-10.2,5.85-12.47l-.87-1.4A11.72,11.72,0,0,0,99,119.69a15.5,15.5,0,0,0-1.14,9.68Z"/><path class="cls-1" d="M45.83,16.57A15.53,15.53,0,0,1,20.18,28.26,15.51,15.51,0,0,1,30.38,1.05,15.51,15.51,0,0,1,45.83,16.57Z"/><path class="cls-10" d="M30,1.13v0Zm.08-.08h0Zm.18,0h0Z"/><path class="cls-2" d="M30.38,2.18a14.4,14.4,0,1,0,14.4,14.39A14.41,14.41,0,0,0,30.38,2.18Zm0,31A16.58,16.58,0,1,1,47,16.57,16.57,16.57,0,0,1,30.38,33.15Z"/><path class="cls-1" d="M84,16.57A15.65,15.65,0,1,0,89.54,4.71,15.29,15.29,0,0,0,84,16.57Z"/><path class="cls-10" d="M99.83,1.13h0Zm-.09,0v0Zm-.08-.08h0Z"/><path class="cls-2" d="M99.48,2.18a14.4,14.4,0,1,0,14.39,14.39A14.4,14.4,0,0,0,99.48,2.18Zm0,31a16.58,16.58,0,1,1,16.58-16.58A16.57,16.57,0,0,1,99.48,33.15Z"/><path class="cls-8" d="M110,44.66s-1-42.22-45-42.22-45,42.22-45,42.22c-18.32,40,45,39,45,39s63.25,1,45-39Z"/><path class="cls-11" d="M64.93,2.53C42.25,2.53,31.26,14,26,23.64a52.11,52.11,0,0,0-6,21v.09c-4.27,9.34-4.36,17.19-.34,23.29,5.41,8.29,17.36,12,26.51,13.79a109.52,109.52,0,0,0,18.76,1.74,109.45,109.45,0,0,0,18.76-1.74c9.07-1.75,21.11-5.5,26.52-13.79,4-6.1,3.84-14-.44-23.29v-.09a51.2,51.2,0,0,0-5.93-21C98.61,14,87.62,2.53,64.93,2.53Zm.26,81.3h-.26a110.08,110.08,0,0,1-18.84-1.74c-9.16-1.75-21.2-5.5-26.7-13.87-4.09-6.28-3.92-14.13.35-23.56a51.67,51.67,0,0,1,6-21.19A38.66,38.66,0,0,1,39.2,8.9c7-4.36,15.61-6.63,25.73-6.63S83.6,4.54,90.58,8.9A39.5,39.5,0,0,1,104.1,23.47a54.93,54.93,0,0,1,6,21.19q6.42,14.15.26,23.56C105,76.59,92.85,80.34,83.69,82.09a107.86,107.86,0,0,1-18.5,1.74Z"/><path class="cls-1" d="M47.4,51.47s2.35-7.85,7.06-13.26a8.94,8.94,0,0,0,.88-10.56c-1.4-2.09-3.84-3.75-7.94-3.75-11.17,0-19,14.05-19.28,22.69s4.88,12.73,8.37,13,9-.7,10.91-8.11Z"/><path class="cls-1" d="M82.47,51.47S80,43.62,75.31,38.21a8.81,8.81,0,0,1-.78-10.56c1.39-2.09,3.75-3.75,7.94-3.75,11.16,0,19,14.05,19.19,22.69s-4.89,12.73-8.37,13-9-.7-10.82-8.11Z"/><path class="cls-1" d="M71.3,59.32l-6.37-4.19-6.36,4.19s-4.37-.7-5.59-4.1a5.4,5.4,0,0,1,1.14-5.32.63.63,0,0,1,.43-.18.66.66,0,0,1,.53.44c.34,1.4,1.22,3.84,3.57,3.84h.09c3.49-.09,3-5.41,3-5.41h6.45S67.55,53.91,71,54h.09c2.44,0,3.31-2.44,3.66-3.84a.49.49,0,0,1,.52-.44c.18,0,.27.09.44.18a5.84,5.84,0,0,1,1.14,5.32c-1.31,3.4-5.59,4.1-5.59,4.1Z"/><path class="cls-12" d="M71.39,43.7c-2.36-1.31-6.46-1.31-6.46-1.31s-4.18,0-6.54,1.31a1.78,1.78,0,0,0-.7,2.27,7.25,7.25,0,0,0,7.24,4.71A7.25,7.25,0,0,0,72.17,46a1.82,1.82,0,0,0-.78-2.27Z"/><path class="cls-1" d="M66.15,49.29v.35l.09.35v.61c-.09.43-.09,1-.17,1.39a10.24,10.24,0,0,1-.88,2.62,6.27,6.27,0,0,1-.87,1.22,5.8,5.8,0,0,1-1.13,1,6.58,6.58,0,0,1-1.4.61,3.48,3.48,0,0,1-1.39.26,8.85,8.85,0,0,1-2.62-.08,6.55,6.55,0,0,1-1.4-.44,5.23,5.23,0,0,1-1.22-.7A4.17,4.17,0,0,1,53.59,54a3.88,3.88,0,0,1,.35-2.62.35.35,0,0,1,.35-.17c.09.08.09.17.17.17v.09c.35,1.57.79,2.79,1.75,3.4a4.45,4.45,0,0,0,.87.44c.18,0,.35.08.53.08s.26.09.43.09a5.44,5.44,0,0,0,2.1-.09,3.52,3.52,0,0,0,1-.17c.27-.18.53-.26.79-.44A5.54,5.54,0,0,0,63,53.48a6.82,6.82,0,0,0,.53-1.92,4.15,4.15,0,0,0,.09-1.05,1.2,1.2,0,0,0,.08-.52v-.44l-.08-.09a1.26,1.26,0,0,1,1.21-1.31,1.2,1.2,0,0,1,1.31,1.14Z"/><path class="cls-1" d="M66.15,49.55v1c0,.35.09.7.09,1.05a7.3,7.3,0,0,0,.61,1.92A4.2,4.2,0,0,0,68,54.78c.26.18.52.26.78.44a3,3,0,0,0,.87.17,5.51,5.51,0,0,0,2.1.09c.17,0,.35-.09.52-.09a3.79,3.79,0,0,0,.43-.08,2.79,2.79,0,0,0,.88-.44c1.05-.61,1.48-1.83,1.83-3.4v-.09c0-.09.18-.17.35-.17a2.34,2.34,0,0,1,.17.17A3.77,3.77,0,0,1,76.27,54a4.08,4.08,0,0,1-1.57,2.44,8.26,8.26,0,0,1-1.3.7,7.76,7.76,0,0,1-1.31.44,9.38,9.38,0,0,1-2.71.08A3.76,3.76,0,0,1,68,57.4a8.54,8.54,0,0,1-1.31-.61,6.08,6.08,0,0,1-1.22-1,5.55,5.55,0,0,1-.79-1.22A6.25,6.25,0,0,1,63.8,52a7.33,7.33,0,0,1-.17-1.39v-1c0-.18,0-.26.08-.35A1.16,1.16,0,0,1,65,48.15a1.25,1.25,0,0,1,1.13,1.31Z"/><path class="cls-13" d="M64.93,51a3.48,3.48,0,0,1-.09,1V51Z"/><path class="cls-11" d="M64.76,52a3.48,3.48,0,0,1-.09-1v-.17H65V52Z"/><path class="cls-1" d="M64.93,67.17h-.09c-3.66,0-5.75-1.66-6.8-3.66a13.22,13.22,0,0,1-1.31-7s7.59,2.44,8.11-5.06c.62,7.5,8.21,5.06,8.21,5.06s1.22,10.64-8.12,10.64Z"/><path class="cls-14" d="M64.93,59.58A7.9,7.9,0,0,0,58,63.51c1.05,2,3.14,3.66,6.8,3.66h.09c3.75,0,5.76-1.66,6.9-3.66a7.9,7.9,0,0,0-6.9-3.93Z"/><path class="cls-1" d="M57.78,57.83a10,10,0,0,0,2,6.29A6.36,6.36,0,0,0,64.84,66c2.28,0,4-.61,5.15-1.92a10,10,0,0,0,2-6.29,7.26,7.26,0,0,1-5.67-1,4.89,4.89,0,0,1-1.49-1.48,4.5,4.5,0,0,1-1.39,1.48,7.26,7.26,0,0,1-5.67,1Zm7.06,10.39a8.38,8.38,0,0,1-6.71-2.71C55,62,55.6,56.62,55.68,56.35a.91.91,0,0,1,.44-.78.93.93,0,0,1,1-.09s3.14,1,5.06-.44a4.76,4.76,0,0,0,1.66-3.57V50.6a1.09,1.09,0,0,1,1-1.14h.09a1.09,1.09,0,0,1,1,1.14v.87A4.76,4.76,0,0,0,67.64,55c1.92,1.4,5,.44,5,.44a1,1,0,0,1,1,.09.9.9,0,0,1,.43.78c.09.27.61,5.67-2.44,9.16a8.71,8.71,0,0,1-6.81,2.71Z"/><path class="cls-8" d="M68.68,44.14c0,.35-1.74.61-3.75.61s-3.75-.26-3.75-.61,1.66-.61,3.75-.61,3.75.26,3.75.61Z"/><path class="cls-11" d="M61.27,44.14c.17.18,1.39.44,3.66.44s3.41-.26,3.58-.44c-.17-.17-1.31-.52-3.58-.52s-3.49.35-3.66.52Zm3.66.7c-.43,0-3.92,0-3.92-.7s3.49-.78,3.92-.78,3.84,0,3.84.78-3.49.7-3.84.7Z"/><path class="cls-2" d="M64.93,82.61h0c.35,0,34.46.27,44.49-15.09,3.75-5.85,3.67-13.35-.43-22.33a1.49,1.49,0,0,1-.18-.44A50.57,50.57,0,0,0,103,24c-7.42-13.61-20.24-20.5-38-20.5S34.31,10.38,26.9,24A51.55,51.55,0,0,0,21,44.75a.94.94,0,0,1-.09.44c-4.1,9-4.28,16.48-.44,22.33,10,15.36,44.14,15.09,44.49,15.09Zm.26,2.18h-.26a108.54,108.54,0,0,1-19-1.74c-13.61-2.62-22.78-7.42-27.31-14.31-4.27-6.46-4.19-14.65.17-24.34A52.83,52.83,0,0,1,24.89,23,40.68,40.68,0,0,1,38.67,8.11c7.16-4.53,16-6.8,26.26-6.8S84,3.58,91.1,8.11A39.25,39.25,0,0,1,104.89,23,51.6,51.6,0,0,1,111,44.4c4.35,9.69,4.45,17.88.26,24.34-4.54,6.89-13.79,11.69-27.39,14.31a109.84,109.84,0,0,1-18.68,1.74Z"/><path class="cls-12" d="M44.35,32c-2.8-.26-5.41,2.62-5.76,6.46s1.48,7.15,4.27,7.42,5.41-2.62,5.85-6.46S47.14,32.28,44.35,32Z"/><path class="cls-8" d="M44,33.85a2.08,2.08,0,0,0-2.18,1.91,2.12,2.12,0,0,0,1.74,2.45,2.17,2.17,0,0,0,2.18-2A2.09,2.09,0,0,0,44,33.85Z"/><path class="cls-12" d="M85,32c2.79-.26,5.32,2.62,5.76,6.46s-1.58,7.15-4.36,7.42-5.33-2.62-5.76-6.46S82.21,32.28,85,32Z"/><path class="cls-8" d="M85.35,33.85a2,2,0,0,1,2.09,1.91,2.07,2.07,0,0,1-1.66,2.45,2.12,2.12,0,0,1-2.18-2,2,2,0,0,1,1.75-2.35Z"/><path class="cls-1" d="M84,102.5c3.75-1.66,12.3-5.23,11.25-12.3l10.12,10.56c.44,9.85-6.19,14.48-13.17,17.36s-11.78-.18-13.18-4.1,1-9.69,5-11.52Z"/><path class="cls-5" d="M85.87,101.72c1-.53,1.66-.88,1.66-.88a29,29,0,0,0,5.06-3.57v.09a26.14,26.14,0,0,1-6.72,4.36Z"/><path class="cls-15" d="M92.59,97.36v-.09c.17-.18.43-.35.61-.53l-.61.62Z"/><path class="cls-16" d="M95,93.6v-.08l.26-3.32A7.24,7.24,0,0,1,95,93.6Z"/><path class="cls-17" d="M97.47,115.59v-.09a5.36,5.36,0,0,1,.7-.43h0a4.55,4.55,0,0,0-.7.52Z"/><path class="cls-18" d="M98.17,115.07h0a1.38,1.38,0,0,1,.44-.35,2.11,2.11,0,0,1-.44.35Z"/><path class="cls-3" d="M95.81,116.46c.53-.35,1.14-.61,1.66-1v.09a13.89,13.89,0,0,1-1.66.87Z"/><path class="cls-3" d="M103,110.35a15.67,15.67,0,0,0,2.44-9.59l1.22,1.83c.09,2.27-1.48,5.06-3.66,7.76Z"/><path class="cls-2" d="M83.69,101.81c2.62-1.23,9.51-4.37,10.9-9.08l.7-2.53a7.61,7.61,0,0,1-.78,6.2c-2.36,3-6.46,5.23-10.12,6.89-3.49,1.66-5.76,6.8-4.54,10.47a7,7,0,0,0,3.66,3.92c1.66.7,4.45,1.22,8.47-.35,5.93-2.44,13.87-6.8,13.43-16.57l1.75-.09c.43,10.82-8.12,15.62-14.57,18.23A14.36,14.36,0,0,1,87,120a9.4,9.4,0,0,1-4.19-.87,8.11,8.11,0,0,1-4.54-4.89c-1.57-4.45,1.14-10.56,5.41-12.47Z"/><path class="cls-19" d="M94.94,29.92a3.09,3.09,0,0,1,2.36,1,3,3,0,0,1,.7,2.53c-1.23,9-6.2,14.13-13.61,14.13S72,42.22,70.87,33.24a3.29,3.29,0,0,1,.69-2.45,3,3,0,0,1,2.36-1ZM84.3,49.81a14.75,14.75,0,0,0,10.12-3.66c3.14-2.79,5.15-7,5.84-12.48A5,5,0,0,0,99,29.4a5.69,5.69,0,0,0-4-1.83l-21.11-.09a5.22,5.22,0,0,0-4,1.74A5.37,5.37,0,0,0,68.6,33.5c.69,5.49,2.62,9.77,5.67,12.56a14.74,14.74,0,0,0,10,3.75Z"/><path class="cls-19" d="M55.42,29.66a3,3,0,0,1,2.36,1.05,2.9,2.9,0,0,1,.61,2.44c-1.13,9-6.11,14.22-13.61,14.13S32.39,42.05,31.26,33A3,3,0,0,1,32,30.53a2.59,2.59,0,0,1,2.36-1ZM44.78,49.55a14.25,14.25,0,0,0,10-3.58C58,43.18,60,38.91,60.66,33.41a5.17,5.17,0,0,0-5.24-6l-21-.17A5.41,5.41,0,0,0,30.3,29,5.49,5.49,0,0,0,29,33.24c.7,5.49,2.62,9.77,5.76,12.56a14.45,14.45,0,0,0,10,3.75Z"/><path class="cls-19" d="M59.17,36.47a1.45,1.45,0,0,0,1-.44c1.57-1.92,3-2.88,4.53-2.88s3,1,4.45,3a1.22,1.22,0,0,0,1.66.18A1.2,1.2,0,0,0,71,34.72c-2-2.62-4.1-3.84-6.28-3.93S60.4,32.1,58.3,34.63a1.2,1.2,0,0,0,.18,1.57,1.35,1.35,0,0,0,.69.27Z"/><path class="cls-19" d="M24.89,34.54l5.32.09a1.16,1.16,0,0,0,1.14-1.13,1.23,1.23,0,0,0-1.14-1.22H24.89a1.13,1.13,0,1,0,0,2.26Z"/><path class="cls-19" d="M99.39,35l5.32.09a1.14,1.14,0,1,0,0-2.27l-5.32-.09a1.14,1.14,0,0,0,0,2.27Z"/></g></g></svg>