<svg xmlns="http://www.w3.org/2000/svg" viewBox="0 0 108.74 156.11"><defs><style>.cls-1{fill:none;stroke:#1b1c1c;stroke-miterlimit:10;stroke-width:3px;}.cls-2{fill:#fff;}.cls-3{fill:#ebe4df;}.cls-4{fill:#e7bebe;}.cls-5{fill:#e59fa0;}.cls-6{fill:#e38789;}.cls-7{fill:#564a44;}</style></defs><g id="Layer_2" data-name="Layer 2"><g id="Layer_1-2" data-name="Layer 1"><path class="cls-1" d="M75.37,6.55c4.8-3.23,15.27,3.66,23.47,15.53s10.82,24.17,6,27.48c-4.28,3-13.08-2.27-20.68-11.87a62.9,62.9,0,0,1-6.54,8.2C84.79,51.39,89.25,59.24,89.25,68c0,9.85-5.59,18.58-14.31,24,.52.52,1,1.13,1.48,1.66L86.1,84A9.38,9.38,0,0,1,99.36,97.28l-15,15.09c.17,1.31.26,2.62.35,4a9.1,9.1,0,0,1,6.1.27c6.46,2.87,8.12,13.43,3.67,23.72s-13.26,16.4-19.81,13.52a9.09,9.09,0,0,1-4.79-5,28.57,28.57,0,0,1-31.67,0,9.3,9.3,0,0,1-4.88,5c-6.46,2.88-15.36-3.22-19.81-13.52s-2.79-20.85,3.75-23.72a9.1,9.1,0,0,1,6.11-.27,25.94,25.94,0,0,1,.44-4.62L9.42,97.28A9.22,9.22,0,0,1,9.42,84a9.22,9.22,0,0,1,13.26,0L32,93.27A15,15,0,0,1,33.15,92c-8.73-5.41-14.4-14.14-14.4-24,0-9.69,5.5-18.32,14-23.73a67.87,67.87,0,0,1-7.5-11.69C16.49,41.1,7.15,45.2,3.23,41.8-1.13,38,3.05,26,12.65,15.28S33.41-1.12,37.77,2.71a5.5,5.5,0,0,1,1.4,2.1,96.9,96.9,0,0,1,6.45,13.26,84.78,84.78,0,0,1,5.5,20.32c1-.09,1.92-.17,2.88-.17a33,33,0,0,1,4.27.26,92,92,0,0,1,7.51-17.63,92.57,92.57,0,0,1,8-12.38,4.72,4.72,0,0,1,1.57-1.92Z"/><path class="cls-2" d="M84.79,118c0,19.63-13.78,35.59-30.79,35.59s-30.71-16-30.71-35.59S37.08,82.45,54,82.45s30.79,16,30.79,35.59Z"/><path class="cls-3" d="M54,149.88c-16.4,0-29.75-14-30.62-31.75a13.09,13.09,0,0,0-.09,1.92c0,18.49,13.79,33.58,30.71,33.58s30.79-15.09,30.79-33.58c0-.7-.08-1.31-.08-1.92C83.83,135.84,70.4,149.88,54,149.88Z"/><path class="cls-4" d="M71.53,124.67c0,11.69-7.67,21.11-17.09,21.11s-17.1-9.42-17.1-21.11,7.67-21.2,17.1-21.2,17.09,9.51,17.09,21.2Z"/><path class="cls-5" d="M54.44,142.81c-9,0-16.4-8.72-17-19.71a9.19,9.19,0,0,0-.09,1.57c0,11.69,7.67,21.11,17.1,21.11s17.09-9.42,17.09-21.11V123.1c-.69,11-8,19.71-17.09,19.71Z"/><path class="cls-2" d="M44.14,105.48,30.88,118.74,9.42,97.28A9.22,9.22,0,0,1,9.42,84a9.22,9.22,0,0,1,13.26,0Z"/><path class="cls-2" d="M64.64,105.48,77.9,118.74,99.36,97.28A9.38,9.38,0,0,0,86.1,84Z"/><path class="cls-2" d="M17.27,116.65c6.46-2.8,15.36,3.31,19.81,13.6s2.79,20.86-3.75,23.64S18,150.67,13.52,140.37s-2.79-20.85,3.75-23.72Z"/><path class="cls-4" d="M33.41,134.62c2.27,6.54.52,13.08-4,14.65s-9.86-2.44-12.13-9-.52-13.09,3.93-14.66,10,2.44,12.21,9Z"/><path class="cls-2" d="M90.81,116.65c-6.54-2.8-15.35,3.31-19.8,13.6s-2.79,20.86,3.66,23.64S90,150.67,94.48,140.37s2.79-20.85-3.67-23.72Z"/><path class="cls-4" d="M74.67,134.62c-2.26,6.54-.52,13.08,3.93,14.65s10-2.44,12.21-9,.53-13.09-3.92-14.66-10,2.44-12.22,9Z"/><path class="cls-2" d="M45.62,18.07A89.42,89.42,0,0,0,38.56,3.84L20.59,21a48.26,48.26,0,0,0,1.92,5.41c6.89,17.36,19.62,29.4,25.3,27.13s4.71-18.14-2.19-35.5Z"/><path class="cls-3" d="M25.21,26.18c-1-2.45-1.74-4.88-2.44-7.24L20.59,21a48.26,48.26,0,0,0,1.92,5.41c6.89,17.36,19.62,29.4,25.3,27.13.08,0,.08-.09.17-.09-6.37-1.13-16.75-12.21-22.77-27.3Z"/><path class="cls-5" d="M46.41,52.7h.17c.44-.18,2.1-2.18,1.92-8.81-.26-6.37-2.09-14.31-5.23-22.51-3-7.59-5.84-13.26-9.77-18.23-4.1-5.24-8.9,15.53-5.76,23.64A77.22,77.22,0,0,0,38.38,46.33c4.19,5.15,7.07,6.46,8,6.37Z"/><path class="cls-6" d="M42.05,47.12A76.54,76.54,0,0,1,31.32,27.66a87.41,87.41,0,0,1-3.93-13.09L24.6,17.19a71.54,71.54,0,0,0,3.14,9.6A77.22,77.22,0,0,0,38.38,46.33c4.19,5.15,7.07,6.46,8,6.37h.17l.53-.52a24.38,24.38,0,0,1-5.06-5.06Z"/><path class="cls-2" d="M28.44,29.23C18.84,40.05,7.59,45.63,3.23,41.8S3.05,26,12.65,15.28,33.41-1.12,37.77,2.71,38,18.5,28.44,29.23Z"/><path class="cls-2" d="M65.78,20.85A89.2,89.2,0,0,1,74.5,7.6L90.2,26.88A56.53,56.53,0,0,1,87.67,32c-9,16.32-23.11,26.79-28.44,23.82s-2.44-18.67,6.55-35Z"/><path class="cls-3" d="M85,31.41a63.91,63.91,0,0,0,3.31-7l1.92,2.45A56.53,56.53,0,0,1,87.67,32c-9,16.32-23.11,26.79-28.44,23.82a.25.25,0,0,0-.17-.09C65.51,55.32,77.12,45.63,85,31.41Z"/><path class="cls-5" d="M60.72,55.14a.28.28,0,0,0-.18-.09c-.44-.17-1.83-2.35-.79-8.89,1-6.29,3.76-14,8-21.73,3.83-7.15,7.41-12.47,12-16.92C84.36,2.89,86.54,24,82.44,31.76c-3.84,7.15-8.46,13.61-13,18-4.8,4.63-7.76,5.59-8.72,5.41Z"/><path class="cls-6" d="M65.69,50.17a75.21,75.21,0,0,0,13-18.06,82.61,82.61,0,0,0,5.58-12.56l2.44,3.05c-1.22,3-2.61,6-4.27,9.16-3.84,7.15-8.46,13.61-13,18-4.8,4.63-7.76,5.59-8.72,5.41a.28.28,0,0,0-.18-.09,1.36,1.36,0,0,1-.44-.52,26.31,26.31,0,0,0,5.59-4.36Z"/><path class="cls-2" d="M81.48,34c8.11,11.86,18.58,18.85,23.38,15.53s2.09-15.62-6-27.48S80.17,3.32,75.37,6.55,73.28,22.17,81.48,34Z"/><path class="cls-2" d="M89.33,68c0,16.49-15.79,29.74-35.33,29.74S18.75,84.46,18.75,68,34.55,38.22,54,38.22,89.33,51.57,89.33,68Z"/><path class="cls-3" d="M54,92.57c-18.41,0-33.5-11.95-35.07-27.13A23.9,23.9,0,0,0,18.75,68c0,16.49,15.8,29.74,35.25,29.74S89.25,84.46,89.25,68a23.77,23.77,0,0,0-.09-2.53C87.59,80.62,72.49,92.57,54,92.57Z"/><path class="cls-7" d="M53.82,72.94c-2.18-.09-5.06.78-4.44,2.35S52.52,79,53.82,79s3.84-2,4.54-3.67-2.27-2.44-4.54-2.35Z"/><path class="cls-2" d="M53.65,74.42c.09.26-.43.7-1.22.87S51,75.38,50.77,75s.44-.7,1.22-.87,1.48-.09,1.66.26Z"/><path class="cls-7" d="M48,83.76a6.44,6.44,0,0,1-6.46-6.46.57.57,0,0,1,.53-.52.56.56,0,0,1,.52.52A5.43,5.43,0,0,0,48,82.71,5.36,5.36,0,0,0,53.3,77.3a.56.56,0,0,1,.52-.52.51.51,0,0,1,.53.52A6.43,6.43,0,0,1,48,83.76Z"/><path class="cls-7" d="M59.75,83.76A6.5,6.5,0,0,1,53.3,77.3a.56.56,0,0,1,.52-.52.51.51,0,0,1,.53.52,5.41,5.41,0,1,0,10.82,0,.52.52,0,1,1,1,0,6.44,6.44,0,0,1-6.46,6.46Z"/><path class="cls-7" d="M43.79,76.34c.09.35-.52,1-1.39,1.4s-1.84.52-2,.17.44-1,1.4-1.39,1.83-.53,2-.18Z"/><path class="cls-7" d="M64,76.34c-.09.35.52,1,1.39,1.4s1.83.52,2,.17-.44-1-1.4-1.39-1.83-.53-2-.18Z"/><path class="cls-5" d="M36.46,76.25c0,1.49-1.74,2.71-3.83,2.71s-3.93-1.22-3.93-2.71,1.75-2.61,3.93-2.61,3.83,1.22,3.83,2.61Z"/><path class="cls-5" d="M81,76.25C81,77.74,79.3,79,77.21,79s-3.93-1.22-3.93-2.71,1.74-2.61,3.93-2.61S81,74.86,81,76.25Z"/><path class="cls-7" d="M68.83,65.26a4.86,4.86,0,0,1,4.63,3.67,3.51,3.51,0,0,0,.17-1.31,4.84,4.84,0,1,0-9.68,0,3.51,3.51,0,0,0,.17,1.31,4.86,4.86,0,0,1,4.71-3.67Z"/><path class="cls-7" d="M39.26,65.26a4.94,4.94,0,0,0-4.71,3.67,6.65,6.65,0,0,1-.18-1.31,4.89,4.89,0,1,1,9.77,0A7.47,7.47,0,0,1,44,68.93a4.88,4.88,0,0,0-4.71-3.67Z"/></g></g></svg>