<svg xmlns="http://www.w3.org/2000/svg" viewBox="0 0 127.46 134.57"><defs><style>.cls-1{fill:none;stroke:#000;stroke-linecap:round;stroke-linejoin:round;stroke-width:3px;}.cls-2{fill:#fe8227;}.cls-10,.cls-11,.cls-12,.cls-13,.cls-14,.cls-15,.cls-16,.cls-17,.cls-18,.cls-19,.cls-2,.cls-20,.cls-21,.cls-22,.cls-23,.cls-24,.cls-25,.cls-26,.cls-27,.cls-28,.cls-29,.cls-3,.cls-30,.cls-31,.cls-4,.cls-5,.cls-6,.cls-7,.cls-8,.cls-9{fill-rule:evenodd;}.cls-3{fill:#6c3012;}.cls-4{fill:#45210a;}.cls-5{fill:#75300f;}.cls-6{fill:#feecd4;}.cls-7{fill:#6e5d4b;}.cls-8{fill:#ec5a1f;}.cls-9{fill:#dcba92;}.cls-10{fill:#ffb36d;}.cls-11{fill:#4a3021;}.cls-12{fill:#37251c;}.cls-13{fill:#201612;}.cls-14{fill:#ffe2b5;}.cls-15{fill:#6f5c3f;}.cls-16{fill:#421f0a;}.cls-18{fill:#6c584b;}.cls-19{fill:#78000f;}.cls-20{fill:#460000;}.cls-21{fill:#fe857d;}.cls-22{fill:#9e3837;}.cls-23{fill:#fff;}.cls-24{fill:#cbcbcb;}.cls-25{fill:#656666;}.cls-26{fill:#ffd738;}.cls-27{fill:#ffa62d;}.cls-28{fill:#fe7c7e;}.cls-29{fill:#ea5b5f;}.cls-30{fill:#ffb5b6;}.cls-31{fill:#753033;}</style></defs><g id="Layer_2" data-name="Layer 2"><g id="Layer_1-2" data-name="Layer 1"><path class="cls-1" d="M68.6,118.67a25,25,0,0,0,5-4.62c2.18-2.62,4.11-5.5,4.19-6.28a4.07,4.07,0,0,0-1.48-3h-.09a1.22,1.22,0,0,1-.52.17h-.09l-.17.09-.18.09h-.17l-.18.09H74.8l-.27.08h0l-.26.09H74l-.09.09h-.26l-.17.09H73.4l-.26.08h-.27l-.17.09h-.35l-.17.09h-.53l-.26.08h-.26l-.26.09h-1c-.18,0-.35.09-.52.09H68.17c-4,0-8.64-.87-14.4-2.62-.35,1.48-.7,2.88-1.05,4.1-.43,1.66-.87,3.14-1,4.19a49.12,49.12,0,0,0-.35,5.32c0,3.4,0,7.24-1.75,10.29v.18c.09.61-1,1.83-1.92,2.35a19,19,0,0,1-8.37,2h0c-1.92,0-3.32-.35-4-1a13.17,13.17,0,0,1-1.66.17,4.19,4.19,0,0,1-3.23-1.14.08.08,0,0,1-.09-.08c-2.53-.7-3.23-1.75-3.23-3.14a4.52,4.52,0,0,1-1.13.52A9.29,9.29,0,0,1,20,129.58h0a4.45,4.45,0,0,1-1.92-.44c-3.49-1.83-3.58-6-3.58-6.28a26.6,26.6,0,0,0-1.22-4.27c-1-2.62-1.74-4.81-.52-7.25,1-2.09,3.14-4.27,5.58-6.8A59.68,59.68,0,0,0,28.56,91.45,6.26,6.26,0,0,1,28,90.14V90h0a7.24,7.24,0,0,0-.35,2.09l.08.26-.26-.17a8.78,8.78,0,0,1-2.88-9.42,10.61,10.61,0,0,0-1.31,2.09l-.08.26-.09-.26c-2.44-7.33-.87-10.64.87-14.3v-.18l.09-.09.09-.08V70l.08-.09.09-.17v-.09l.09-.09.09-.17v-.09l.08-.17.09-.09v-.17l.09-.09V68.6l.09-.09.08-.18.09-.26.09-.08v-.18l.08-.09v-.17l.09-.09.09-.17v-.18l.09-.08v-.18l.08-.08.09-.18v-.17l.09-.18v-.09l.08-.17V65.8l.09-.17v-.09l.09-.17v-.18l.09-.17v-.18l.08-.17V64.5l.09-.27.09-.34v-.18l.08-.17v-.26c0-.09.09-.18.09-.36s.09-.6.09-1c-.18,0-.44-.09-.61-.09a2.87,2.87,0,0,0-.87-.09c-1.84-.17-4.19-.44-5.67-2.36-1.23-1.56-1.66-3.92-1.31-7.06A2.82,2.82,0,0,1,18,50.89c-2.87-1.31-6.54-3.67-8-8.38-.09.7-.44,2-.53,2.53l-.08.18-.09-.09c-4.19-3.4-2.88-9-2.44-10.47-.53.44-1.75,1.48-2.53,2.18L4.13,37v-.27A10.76,10.76,0,0,1,6.66,30a18.42,18.42,0,0,1,2.1-2.53c.87-1.05,1.74-2.18,2.53-3.23L11,24.11h0c-5.84-2.8-9.33-7.42-9.51-12.57A9.73,9.73,0,0,1,6.14,2.47a6.29,6.29,0,0,1,3.23-1A18.9,18.9,0,0,1,16.43,2.9l2.36.79c.78.35,1.65.61,2.53,1h.09A16,16,0,0,1,30.3,2.38a34.16,34.16,0,0,1,5,.44h.52a24.53,24.53,0,0,1,2.53-.09c8.55,0,14.83,2,18.75,5.93v.09c.62-.26,1.23-.43,1.84-.7,1.31-.44,2.61-1,4.1-1.31a14.3,14.3,0,0,1,8.2-.08,8.28,8.28,0,0,1,2.62,1c2.61,1.58,4.18,5.67,3.75,9.78a11.78,11.78,0,0,1-7.86,10.2,20.7,20.7,0,0,1-6.89,1.05c.26,1,.62,1.92,1,3l.27.79c1.65,4.62,3.05,9.33-1.23,14l-.17.27v-.35a5.22,5.22,0,0,0-.44-2,10.25,10.25,0,0,1-2.79,5.15c.26,3.66,1.57,11,7.42,12.74a26,26,0,0,0,6.8,1,48.1,48.1,0,0,0,8.9-1.05,47,47,0,0,1,8.55-1,22.43,22.43,0,0,1,12.65,3.93c10.2-6.37,7.59-13.7,4.88-21.38-1.48-4.19-3-8.46-2.35-12.65,1.13-8.2,4.8-13.08,7.76-15.79,3.67-3.31,7.5-4.53,9.69-4.53,1.13,0,1.83.35,2.09,1,.7,1.91-1.57,3.31-3.75,4.62a14.4,14.4,0,0,0-3.49,2.79c-5.84,8.2-3,16.4-.18,24.34a72,72,0,0,1,2.27,7.68c2.1,9.07-7.06,20.59-10.55,22.77,1.3,4.45,1.22,9.33,1.22,13.17,0,1-.09,2.1,0,3,.08,5,4.36,8.81,7.85,12a35.87,35.87,0,0,1,2.62,2.53c2.18,2.27,2.44,7.76,2.79,13.61a79.93,79.93,0,0,0,.87,9.51v.08h0l.09.09h0a3.87,3.87,0,0,1-2.27,3.66,23.49,23.49,0,0,1-7.68,1.57h0c-2.61,0-4-.78-4.62-1.39a4.19,4.19,0,0,1-2.27.61,4,4,0,0,1-2.79-1.05,3.58,3.58,0,0,1-3.23-1.74c-.87-1.57-.26-3.75.53-5.15a8.37,8.37,0,0,0,.69-1.22c1-1.66,1.84-3.05,3.32-3.05a4,4,0,0,1,1.57.34c.08,0,.26-.08.35-.08.17-4.19-.7-10.21-2.1-12.39-.61-.87-2-1.31-4.27-1.92a48.48,48.48,0,0,1-11.08-4.19,6.05,6.05,0,0,0,0,5,4.65,4.65,0,0,1,.52,2.7c-.26,1.66-1.48,3-2.88,4.71a31.94,31.94,0,0,0-4.53,6.37,19.47,19.47,0,0,0-1.4,3.75c-.78,2.62-1.48,5-4.62,5.5a30.11,30.11,0,0,1-7,.87h0c-2.88,0-5-.44-5.76-1.13a3.77,3.77,0,0,1-1.66.34,2.29,2.29,0,0,1-2-.87h0c-1.83,0-3-.35-3.49-1.22s-.35-2.35.69-4.62c1.66-3.4,3.15-5,5-5,.26,0,.43.09.7.09a3.55,3.55,0,0,1,1.57-.44,2.52,2.52,0,0,1,1.74.79Zm-36.46,1.22c.08-.08.08-.08.17-.08a4.49,4.49,0,0,1,2.1-1,35.34,35.34,0,0,0,2.17-10.12c-2.79,3.31-7.59,5.75-9.51,6.71l-.26.18a16.33,16.33,0,0,1,1.84,5.76,3.44,3.44,0,0,1,2.7-1.66,2.8,2.8,0,0,1,.79.17Z"/><path class="cls-2" d="M74.36,103.06s3.75,2.44,3.49,4.71c-.17,1.74-7.42,11.16-10.91,11.78.7,1.3,9.68,10,11.34,10.29,5-.44,4.28-5.33,6.46-9.34,3.05-5.76,6.8-7.93,7.42-11s-3.23-4.19.78-10.12c-2.61-2.7-9.16-3.31-9.16-3.31Z"/><path class="cls-3" d="M83.35,124.17a23.41,23.41,0,0,1,1.22-3.32,11.54,11.54,0,0,1-7.42-2.53c.44,2.53,4.19,4.8,6.2,5.85Z"/><path class="cls-3" d="M81.69,108.81c1,3.58,5,5.24,7.15,5.85.79-1,1.57-1.83,2.18-2.71a15.08,15.08,0,0,1-9.33-3.14Z"/><path class="cls-3" d="M92.07,100.79c-3.84,2.27-6.54,2.18-8.72,2.53a54,54,0,0,0,7.76,1.92,6.82,6.82,0,0,1,1-4.45Z"/><path class="cls-4" d="M92.07,100.79c-3.84,2.27-6.54,2.18-8.72,2.53a54,54,0,0,0,7.76,1.92,6.82,6.82,0,0,1,1-4.45Z"/><path class="cls-3" d="M76.1,111c-.52.7-1,1.4-1.74,2.18a24.62,24.62,0,0,0,5,1.92A30.26,30.26,0,0,1,76.1,111Z"/><path class="cls-5" d="M67.12,119.63c1,1.66,9.5,9.77,11.16,10.12,3.41-.35,4.1-2.7,5-5.5a16.78,16.78,0,0,1,1.39-3.75,31.43,31.43,0,0,1,4.54-6.36c1.39-1.75,2.53-3.06,2.79-4.63a4.62,4.62,0,0,0-.44-2.7c-.6-1.57-1.39-3.49,1.32-7.42-2.53-2.44-8.47-3.14-9-3.23l-9.25,6.9c.61.43,3.58,2.61,3.4,4.71-.26,1.92-7.41,11.08-10.9,11.86Zm11.16,10.29h0c-1.74-.26-10.64-8.81-11.42-10.37l-.09-.09.17-.09c1.4-.17,3.84-2.18,6.63-5.32,2.18-2.62,4.11-5.41,4.19-6.28.18-2.18-3.4-4.63-3.4-4.63l-.17-.08L83.78,96h.09c.26,0,6.54.7,9.16,3.31l.09.09-.09.09c-2.62,3.84-1.92,5.67-1.31,7.33a4.65,4.65,0,0,1,.52,2.7c-.26,1.66-1.48,3-2.88,4.71a31.94,31.94,0,0,0-4.53,6.37,19.47,19.47,0,0,0-1.4,3.75c-.87,2.79-1.57,5.24-5.15,5.58Z"/><path class="cls-6" d="M75,126.43c-2.88-3.31-1.13-8.55-6-7.32a2.84,2.84,0,0,0-3.66-.7c-2.1-.35-3.76,1-5.59,4.8S58.31,129,62.49,129c.27.52,1.75,1.39,3.58.43,1.31,1.4,7.68,1.57,12.74.35,2.09-.52-1.66-.78-3.84-3.32Z"/><path class="cls-7" d="M66.07,129.32h.09c.7.69,2.88,1.13,5.67,1.13h0a30.79,30.79,0,0,0,7-.79,1.14,1.14,0,0,0,.52-.17c0-.09-.43-.35-.87-.52a8.38,8.38,0,0,1-5.5-6.63c-.52-1.84-.87-3.32-2.7-3.32a8.75,8.75,0,0,0-1.31.18v0c-.09,0-.17-.09-.35-.27a2.72,2.72,0,0,0-1.74-.78,2.77,2.77,0,0,0-1.57.44h0a1.73,1.73,0,0,0-.7-.1c-1.66,0-3.23,1.49-4.8,4.8-1,2.19-1.22,3.58-.7,4.45s1.57,1.14,3.32,1.14h.17a2.16,2.16,0,0,0,1.83.87,4.26,4.26,0,0,0,1.66-.43Zm5.76,1.39h0c-2.88,0-5-.44-5.76-1.13a3.77,3.77,0,0,1-1.66.34,2.29,2.29,0,0,1-2-.87h0c-1.83,0-3-.35-3.49-1.22s-.35-2.35.69-4.62c1.66-3.4,3.15-5,5-5,.26,0,.43.09.7.09a3.55,3.55,0,0,1,1.57-.44,2.66,2.66,0,0,1,1.92,1c.08.08.17.08.17.17a8.56,8.56,0,0,1,1.31-.17c2,0,2.44,1.56,2.88,3.4a10.45,10.45,0,0,0,1.92,4.18,9.8,9.8,0,0,0,3.48,2.36c.7.26,1,.44,1,.7s-.17.26-.6.35a31.53,31.53,0,0,1-7.07.87Z"/><path class="cls-7" d="M66,129.49c-1.13-.79-1.13-2.53-1-3.75.53-2.88,2.45-6.28,3.93-6.72l.09.18c-1.4.43-3.32,3.83-3.75,6.54-.18,1.22-.27,2.79.87,3.58Z"/><path class="cls-7" d="M62.41,129.05a5.58,5.58,0,0,1-.7-4.88c.7-3,2.79-5.5,3.75-5.94l.09.18a11.61,11.61,0,0,0-3.67,5.76,5.47,5.47,0,0,0,.7,4.71Z"/><path class="cls-2" d="M29.26,90.49c-5.41,10.47-13.87,15.79-16.4,20.85C11,115.18,14,118.41,14.6,123c2.36-.43,9.86-2.35,12-7.5,2.18-1.13,10.64-5.15,11.69-10.47-.44-1.92,1.22-11.43,1.22-11.43Z"/><path class="cls-8" d="M24.11,118.85l.17-.18a.18.18,0,0,1-.17-.18v.36Z"/><path class="cls-5" d="M26.55,115.62A8.75,8.75,0,0,0,24,113a2,2,0,0,1,1,.52,6.52,6.52,0,0,1,1.75,2Z"/><path class="cls-3" d="M12.51,112.13a7,7,0,0,0-.18,3,42.83,42.83,0,0,1,5.85-1,16.16,16.16,0,0,0-5.67-1.92Z"/><path class="cls-3" d="M19,104c-.87.88-1.66,1.66-2.35,2.45,4,1,6.37,4.88,10.29,4.71C25.07,109.86,21,105.32,19,104Z"/><path class="cls-3" d="M30.65,107.33c-.78-1-4.62-7.33-6.19-9.42-.7.78-1.31,1.57-2,2.35,2,1.57,5,6.55,8.2,7.07Z"/><path class="cls-3" d="M35.45,99.92c-1.75-2.1-6.19-3.93-7.33-7.51a29.09,29.09,0,0,1-1.74,2.79c1.57,1.31,6.11,4.8,9.07,4.72Z"/><path class="cls-3" d="M30.91,101.48c-.35,2.62,3.58,6.72,4.89,7.94A10.58,10.58,0,0,0,38,106.28c-3.57-1.39-5.24-3.31-7.07-4.8Z"/><path class="cls-5" d="M29.26,90.58c-3.14,6.19-7.33,10.56-10.73,14.13-2.45,2.45-4.54,4.63-5.59,6.72-1.13,2.35-.35,4.54.53,7.06a24,24,0,0,1,1.22,4.37c1.83-.35,9.59-2.18,11.86-7.33h0l.44-.26c2.53-1.31,10.21-5.15,11.25-10.21-.43-1.92,1-10.29,1.14-11.34ZM14.51,123.12V123a29.16,29.16,0,0,0-1.22-4.44c-1-2.62-1.74-4.81-.52-7.25,1-2.09,3.14-4.27,5.58-6.8C21.76,101,26,96.6,29.08,90.41l.09-.09,10.47,3.23v.08c0,.09-1.66,9.51-1.22,11.34v.09h0c-1,5.15-8.82,9.08-11.35,10.38l-.34.18c-2.36,5.4-10.47,7.24-12.13,7.5Z"/><path class="cls-6" d="M14.6,122.86s-.09,4.36,3.58,6.19c2,1,5.93-.08,7.76-1.92,4.71-1.39,2.18-11.16-.78-13.35.35,5.77-9.86,7.33-10.56,9.08Z"/><path class="cls-7" d="M14.69,122.86c0,.35.18,4.36,3.57,6.11a3.5,3.5,0,0,0,1.75.35,9,9,0,0,0,5.84-2.27h0a3.65,3.65,0,0,0,2.45-3.15c.61-3.49-1.14-8.28-3.06-9.94.09,3.84-4.27,5.76-7.5,7.15-1.48.7-2.79,1.23-3,1.75ZM20,129.58h0a4.45,4.45,0,0,1-1.92-.44c-3.58-1.83-3.58-6.19-3.58-6.28h0c.27-.61,1.49-1.22,3.14-1.92,3.23-1.39,7.59-3.4,7.42-7.16l-.09-.26.26.18c2,1.48,3.93,6.63,3.32,10.2a3.94,3.94,0,0,1-2.62,3.32A9.29,9.29,0,0,1,20,129.58Z"/><path class="cls-2" d="M109.43,74.18c3.14-1.22,13.26-13.7,11.16-23C118.33,41,110.74,30,118.5,19.05c1.92-2.62,8.29-4.37,7.24-7.33-1-2.71-16.84.87-19.36,19.45-1.66,12,14.21,24.95-4.19,35,1.13,1,7.24,8,7.24,8Z"/><path class="cls-3" d="M115.8,24.63a18.11,18.11,0,0,1,2.7-5.58c1.92-2.62,8.29-4.37,7.24-7.33-.87-2.27-11.6-.18-16.84,10.73a12,12,0,0,1,6.9,2.18Z"/><path class="cls-3" d="M106.46,30.3a14.91,14.91,0,0,1,8.72,1.05,18.4,18.4,0,0,1,0-3c-2.52-1.05-5.58-1.66-7.67-2.53a33.72,33.72,0,0,0-1.05,4.45Z"/><path class="cls-3" d="M106.46,35.79c.18,1,.44,2,.7,3.06a15.5,15.5,0,0,1,9.42-.53c-.26-1-.52-1.92-.78-2.79-3.4-1.65-7.68-.34-9.34.26Z"/><path class="cls-3" d="M109.69,46.35c1.92-.26,6.72-.53,9.86,1-.7-2.09-1.48-4.28-2.18-6.45-2,1.83-6.2,3-8.38,3.48.18.62.44,1.31.7,2Z"/><path class="cls-3" d="M110.82,50.71c.18,1,.27,1.83.35,2.71,2-.53,6.81-1.31,9.69.78a8.83,8.83,0,0,0-.27-3.05c-.08-.35-.17-.7-.26-1-2.79-.78-7.5-.52-9.51.61Z"/><path class="cls-3" d="M110,58.83c3.14.08,7,3,8.46,4.09a23.11,23.11,0,0,0,1.4-3.49A22.25,22.25,0,0,0,110.74,57a8.34,8.34,0,0,1-.7,1.84Z"/><path class="cls-3" d="M108.47,61.27a16.51,16.51,0,0,1-2.8,2.7c3.93.61,6.73,4.63,8,6.55a35.79,35.79,0,0,0,2.7-3.75,14.87,14.87,0,0,0-7.85-5.5Z"/><path class="cls-5" d="M102.36,66.15c1.31,1.23,6.54,7.16,7.16,7.86,1.48-.62,4.79-3.93,7.41-8.38,1.83-3.06,4.8-9.07,3.58-14.48a73.46,73.46,0,0,0-2.36-7.59c-2.79-8-5.58-16.23.26-24.6A13.33,13.33,0,0,1,122,16.17c2.18-1.4,4.28-2.62,3.58-4.45-.09-.44-.79-.7-1.83-.7-2.1,0-5.94,1.13-9.51,4.45-3,2.62-6.63,7.5-7.77,15.7-.52,4.1,1,8.37,2.36,12.48,1.39,3.92,2.88,8,2.35,11.77-.52,4.28-3.4,7.77-8.81,10.73Zm7.07,8.12-.09-.09s-6.1-7.07-7.24-7.94l-.09-.09.18-.09c12-6.54,9.33-14.21,6.45-22.33-1.48-4.19-3-8.46-2.35-12.65,1.13-8.2,4.8-13.08,7.76-15.79,3.67-3.31,7.5-4.53,9.69-4.53,1.13,0,1.83.35,2.09,1,.7,1.91-1.57,3.31-3.75,4.62a14.4,14.4,0,0,0-3.49,2.79c-5.84,8.2-3,16.4-.18,24.34a72,72,0,0,1,2.27,7.68c2.18,9.68-8.2,22-11.16,23.12Z"/><path class="cls-2" d="M26.9,60.57c-.7,11.25-7.76,11.86-3.66,24.16A17.69,17.69,0,0,1,24.9,82.2s-2.36,5.85,2.7,9.86A7.05,7.05,0,0,1,28,89.53s.61,6.11,11.16,9.07c2,.79,13.52,4.46,13.52,4.46,16.23,5.23,23.9,3.4,34-4.46,11.86,8.12,18.84,6.81,20.41,9.34s2.53,10.12,2,14.22c.78,1.48,13.26,7.5,16.22,5.58-1.48-7.85-.26-19.63-3.66-23.12s-10.38-8.2-10.56-14.56,1.58-18.85-7.41-24.78c-14.22-9.34-23,1.14-36.9-2.88-5.06-1.48-7.25-7.33-7.51-13.52C56.91,35.45,26.9,60.57,26.9,60.57Z"/><path class="cls-8" d="M77.24,89c-3.75,7.59-12.39,10.38-20.42,8.2-2.87-.61-5.49-.61-8.28-1a6.4,6.4,0,0,1-2.8-.69c-.26,1.65-.43,3.4-.69,5.14,3.66,1.14,7.67,2.45,7.67,2.45,15.71,5,23.38,3.49,33.07-3.67C82,96.77,77.76,93.9,77.24,89Z"/><path class="cls-3" d="M106.64,92.24c-1.66,1.22-5.67,2.88-6.11,7.41,3.23-4.18,9.25-6.71,11-7.41a17.73,17.73,0,0,1-.35-2.18V87.79c-1.57.87-3.22,3.49-4.53,4.45Z"/><path class="cls-3" d="M103.24,83.86c-3.67,2.36-9.08,5.41-10,11.52,2-3.93,14.4-10.82,18.06-12.74a45.3,45.3,0,0,0-.44-4.8c-1,2.36-4.27,3.93-7.58,6Z"/><path class="cls-3" d="M80.73,92.59A30.89,30.89,0,0,0,83,95.38c1.48-5.32,10.38-9.69,11.16-13.61-3,2.09-9.86,2.53-13.43,10.82Z"/><path class="cls-3" d="M99.22,94.59c-3.4.18-7.15,3.84-8.89,6.28a25.6,25.6,0,0,0,3.14,1.66c.87-2.53,4.1-6.37,5.75-7.94Z"/><path class="cls-3" d="M100.09,105.15c1.57.52,2.8.78,3.93,1.13,1.48-1.66,3.14-4.8,3.23-6-1.84,2.27-5.59,4.1-7.16,4.89Z"/><path class="cls-3" d="M116.32,110.73a23.35,23.35,0,0,1-8.2-.52,25.57,25.57,0,0,1,.7,3.14c5.49,0,6.89-1.92,7.5-2.62Z"/><path class="cls-3" d="M115.89,115.88c.69,1.74,6.71,3.32,8.72,3.75l-.27-3.92c-1.82-.27-5.75,1-8.45.17Z"/><path class="cls-3" d="M115.89,108.46c1.21,2.36,6,3.06,8.11,3.23a23.05,23.05,0,0,0-.7-3.92,14.45,14.45,0,0,1-7.41.69Z"/><path class="cls-3" d="M118.07,101.22l-2.36-2.35a17.81,17.81,0,0,1-6.11,3.75c2.18.78,6.9-.87,8.47-1.4Z"/><path class="cls-3" d="M74.53,63.36H72.35c.26,5.67-3,8.55-5.06,16a21.21,21.21,0,0,0-.7,8.29h1.84a30.16,30.16,0,0,1,2.79-11.08c2-3.93,4-8.55,3.31-13.26Z"/><path class="cls-3" d="M96.26,84.12a24.62,24.62,0,0,1,13.17-11.69,15.37,15.37,0,0,0-2-3.66c-6.63,1.92-11.6,10.91-11.16,15.35Z"/><path class="cls-3" d="M82.73,84c.79-3,4.72-7.85,11-12.47,3-2.27,7.67-3.76,8.11-7.33a20.27,20.27,0,0,0-5.06-2.1c-1.14,6.72-15.7,13.35-14,21.9Z"/><path class="cls-4" d="M96.78,62.05c-.09.09-.09.18-.09.35a16.37,16.37,0,0,1,4.45,3.66,3.63,3.63,0,0,0,.7-1.91,20.27,20.27,0,0,0-5.06-2.1Z"/><path class="cls-3" d="M80.29,78.89c-.44-5.84,2.53-13.78,3.75-16.84-1.57.27-3.22.61-4.88.87-1.48,4.11-1.31,11.78,1.13,16Z"/><path class="cls-3" d="M59.18,74.27c-7.94,4.62-8,11.34-6.37,14.65.35-2.61,2.18-8.46,7.42-11.77,7.94-5.07,9.5-10,9.68-14.05-.87-.18-1.83-.35-2.7-.61-.18,3.49-4.37,9.59-8,11.78Z"/><path class="cls-3" d="M50.72,68.94C44.35,72,38.07,75.49,36.58,82.73,40.25,78.8,44.26,75,52.37,72.35,57,71,63.1,67.81,65.55,61.88a8.19,8.19,0,0,1-2.88-2.27c-4.19,7.24-5.59,6.28-12,9.33Z"/><path class="cls-3" d="M59.53,51.15c-2.09,4.1-5.32,7.76-9.42,8.72a37.59,37.59,0,0,0-8.55,2.79l.69,3.06c1.75-.53,3.76-1.14,5.94-1.66,6.1-1.4,10.29-4.8,12.3-8.73a20.25,20.25,0,0,1-1-4.18Z"/><path class="cls-5" d="M109.26,122.16c.78,1.22,10,5.84,14.48,5.84a3.59,3.59,0,0,0,1.57-.26,79.11,79.11,0,0,1-1-9.59c-.26-5.76-.6-11.26-2.7-13.53-.7-.69-1.65-1.56-2.61-2.44-3.5-3.14-7.77-7.06-7.94-12.12v-3c.08-6.63.26-16.66-7.42-21.72a22.06,22.06,0,0,0-12.56-4,47,47,0,0,0-8.46,1,50,50,0,0,1-9,1.05,22.06,22.06,0,0,1-6.8-1c-4.54-1.31-7.25-6.2-7.68-13.61A4.16,4.16,0,0,0,54.64,45C45.92,45,28,59.87,27,60.66A24.18,24.18,0,0,1,24.2,70.6c-1.75,3.67-3.23,6.81-1,13.87.52-1,1.57-2.27,1.57-2.35l.43-.53L25,82.2c0,.09-2.18,5.68,2.53,9.6A6.58,6.58,0,0,1,28,89.45L28,89l.08.52s.79,6,11.08,9c2,.7,13.44,4.45,13.52,4.45,6.28,2,11.17,2.88,15.45,2.88,6.45,0,11.68-2,18.49-7.33l.09-.09.09.09a46.3,46.3,0,0,0,16,7.33c2.26.61,3.75,1,4.36,2,1.65,2.53,2.53,10.21,2,14.31Zm14.48,6.11c-4.54,0-14-4.8-14.66-6H109v-.09c.61-4.1-.26-11.69-1.92-14.22-.61-.87-2-1.31-4.27-1.92a47.06,47.06,0,0,1-16-7.24c-6.9,5.23-12,7.33-18.58,7.33-4.28,0-9.17-1-15.45-3-.17,0-11.6-3.66-13.61-4.45C30.3,96.25,28.39,91.36,28,90a7.24,7.24,0,0,0-.35,2.09l.08.26-.26-.17a8.78,8.78,0,0,1-2.88-9.42,10.61,10.61,0,0,0-1.31,2.09l-.08.26-.09-.26c-2.44-7.33-.87-10.64.87-14.3a25.49,25.49,0,0,0,2.79-9.95v-.09h0c.18-.17,18.85-15.61,27.83-15.61,2.71,0,4.28,1.3,4.8,4,.17,3.49,1.22,11.6,7.42,13.44a26,26,0,0,0,6.8,1,48.1,48.1,0,0,0,8.9-1.05,47,47,0,0,1,8.55-1,22.2,22.2,0,0,1,12.74,4c7.76,5.06,7.58,15.18,7.5,21.9,0,1-.09,2.1,0,3,.08,5,4.36,8.81,7.85,12a35.87,35.87,0,0,1,2.62,2.53c2.18,2.27,2.44,7.76,2.79,13.61a79.78,79.78,0,0,0,.87,9.59l.09.09h-.09a3.23,3.23,0,0,1-1.74.44Z"/><path class="cls-6" d="M124.87,127.13c-7.85-.52-8.63-5.06-10.56-5a5.06,5.06,0,0,0-5.49-1.57c-3-1.48-3.84,1.13-5.41,3.75-1.4,2.18-2,6.55,2.62,6.81.26.52,2.61,1.74,5,.43,1.48,1.31,5.06,2.44,12.3-.17,2.09-.79,2.7-4.28,1.57-4.28Z"/><path class="cls-7" d="M111.09,131.41v.08a6.54,6.54,0,0,0,4.53,1.4,22.59,22.59,0,0,0,7.59-1.57,3.58,3.58,0,0,0,2.1-3.49c0-.26-.18-.61-.44-.61-5.23-.35-7.33-2.44-8.72-3.84-.79-.7-1.23-1.13-1.84-1.13h-.08a5.32,5.32,0,0,0-3.84-1.84,4.8,4.8,0,0,0-1.57.27h-.09a3.43,3.43,0,0,0-1.48-.44c-1.4,0-2.18,1.31-3.14,3.05a10.86,10.86,0,0,0-.61,1.14c-.88,1.39-1.4,3.57-.61,5,.52,1,1.57,1.57,3.14,1.66h.09a3.32,3.32,0,0,0,2.61,1,5,5,0,0,0,2.27-.53Zm4.53,1.65h0c-2.61,0-4-.78-4.62-1.39a4.19,4.19,0,0,1-2.27.61,4,4,0,0,1-2.79-1.05,3.58,3.58,0,0,1-3.23-1.74c-.87-1.57-.26-3.75.53-5.15a8.37,8.37,0,0,0,.69-1.22c1-1.66,1.84-3.05,3.32-3.05a4,4,0,0,1,1.57.34,5.06,5.06,0,0,1,1.57-.26,5.34,5.34,0,0,1,3.92,1.92h0c.7,0,1.22.44,1.93,1.22a11.82,11.82,0,0,0,8.63,3.67.76.76,0,0,1,.61.78,3.77,3.77,0,0,1-2.18,3.75,23.49,23.49,0,0,1-7.68,1.57Z"/><path class="cls-7" d="M110.91,131.58c-.7-3.49.26-6.89,1.57-8.46a2.26,2.26,0,0,1,1.75-1.05h.08v.18h-.08a2.21,2.21,0,0,0-1.57,1c-1.31,1.57-2.27,5-1.49,8.37Z"/><path class="cls-7" d="M105.94,131.23c-1-4.36,1.22-10.29,3-10.82l.09.18c-1.74.52-3.84,6.37-2.79,10.64Z"/><path class="cls-5" d="M86.92,98.87C80,93.9,77.59,88,76.8,83.86a20.41,20.41,0,0,1-.26-6.71,2.24,2.24,0,0,1,.35-1.05A20,20,0,0,0,77,83.86,24.31,24.31,0,0,0,87,98.69Z"/><path class="cls-6" d="M77.94,87.35c-6.46-.43-18.5,7.42-24,5.5-1.4-.53-12.57,3.66-15.71,3.75-4.88-1.48-5.23-8.2-4.45-11.43C31,77.41,42,64.67,37.37,52.72c-5.76,3.92-10.47,7.85-10.47,7.85-.7,11.25-7.76,11.86-3.66,24.16A17.69,17.69,0,0,1,24.9,82.2s-2.36,5.85,2.7,9.86A7.05,7.05,0,0,1,28,89.53s.61,6.11,11.16,9.07c2,.79,13.52,4.46,13.52,4.46,16.23,5.23,23.9,3.4,34-4.46l.09.09h0a24.26,24.26,0,0,1-8.9-11.34Z"/><path class="cls-9" d="M38.59,60.66c-.17-2.18,0-4.89-1.13-7.94A128.3,128.3,0,0,0,27,60.57c-.09.61-.18.7-.26,1.31,4.36,3.14,10.81-.17,11.86-1.22Z"/><path class="cls-7" d="M28,89l.08.52s.79,6,11.08,9c2,.7,13.44,4.45,13.52,4.45,6.28,2,11.17,2.88,15.45,2.88,6.45,0,11.6-2,18.4-7.25a24.25,24.25,0,0,1-8.72-11.16h-.44c-2.88,0-6.8,1.39-10.55,2.88C62.93,91.71,58.92,93.2,56,93.2a7.81,7.81,0,0,1-2.09-.26c0-.09-.18-.09-.26-.09-1.14,0-4,.87-7.16,1.83a51.53,51.53,0,0,1-8.2,2h0C33.1,95.2,33,88.23,33.7,85.17c-1.21-3.49.27-7.94,1.84-12.74,2-6.1,4.27-12.91,1.83-19.54A124.21,124.21,0,0,0,27,60.66,24.18,24.18,0,0,1,24.2,70.6c-1.75,3.67-3.23,6.81-1,13.87.52-1,1.57-2.27,1.57-2.35l.43-.53L25,82.2c0,.09-2.18,5.68,2.53,9.6A6.58,6.58,0,0,1,28,89.45Zm40.13,17.1c-4.28,0-9.17-1-15.45-3-.17,0-11.6-3.66-13.61-4.45C30.3,96.25,28.39,91.36,28,90a7.24,7.24,0,0,0-.35,2.09l.08.26-.26-.17a8.78,8.78,0,0,1-2.88-9.42,10.61,10.61,0,0,0-1.31,2.09l-.08.26-.09-.26c-2.44-7.33-.87-10.64.87-14.3a25.49,25.49,0,0,0,2.79-9.95v-.09h0c.09,0,4.8-3.92,10.56-7.85h.09v.09c2.61,6.71.35,13.61-1.75,19.8-1.57,4.71-3.05,9.25-1.83,12.65h0c-.7,3-.52,9.86,4.36,11.25,1.49,0,4.89-1,8.2-2a44,44,0,0,1,7.16-1.74H54A4.86,4.86,0,0,0,56,93c3,0,7-1.48,10.82-3s7.76-2.88,10.64-2.88h.53l.08.08a25.08,25.08,0,0,0,8.9,11.34H87l-.09.27-.17-.09c-6.9,5.23-12,7.33-18.58,7.33Z"/><path class="cls-3" d="M34.58,69.64c1.13-1.22,3.84-2.61,7.67-3.92l-.69-3.06a13.62,13.62,0,0,0-7,7Z"/><path class="cls-3" d="M68.6,95.38a37.71,37.71,0,0,1-.17-7.68H66.59a28.36,28.36,0,0,0,2,7.68Z"/><path class="cls-5" d="M33.79,85.52l-.17-.09A9.69,9.69,0,0,1,35,82.9a2.53,2.53,0,0,1,1-1,14.51,14.51,0,0,0-2.27,3.58Z"/><path class="cls-2" d="M52.9,90.32l-14,1.83c-2.62,4.27-.87,18.5-4.53,27.05.69,1,12.82,10.72,14.39,9.15,3.57-4.71,1.92-11.77,2.79-16.57s5.67-17.19,1.31-21.46Z"/><path class="cls-3" d="M42.6,107.33c1.22,2.53,5.85,2.27,9.08,4,.17-.87.43-1.83.69-3-1.74-.18-5,.78-9.77-1Z"/><path class="cls-3" d="M45.66,120c-5.5-1.57-7.94-4.54-9.95-4.8-.26,1-.61,2.1-1,3.14,2.71-.17,7.85,3,10.91,1.66Z"/><path class="cls-3" d="M36.5,110.38c-.18,1.05-.26,2-.44,3.06,2.71.43,6.19-.18,10.9,1.13-1-1-6.63-4.19-10.46-4.19Z"/><path class="cls-3" d="M49.93,104.28c-5.32-1.48-10-4.54-12.65-4.63-.08,1.22-.17,2.53-.26,3.84,5-1.22,10.82,1.66,12.91.79Z"/><path class="cls-3" d="M51.15,98.08c-2.79-2.53-4.53-2.09-5.84-2.53-1.57-.43-4.45-3.14-6.89-2.44a15,15,0,0,0-.79,3.49,55.88,55.88,0,0,1,13.52,1.48Z"/><path class="cls-5" d="M48.28,128.7H48.1c-3.14-.35-13.26-8.63-13.78-9.42l-.09-.08.09-.09c1.92-4.54,2.35-10.74,2.7-16.23.26-4.19.44-7.85,1.4-10.12a1.9,1.9,0,0,1,.52-.61c-1.13,2-1.4,6-1.74,10.82-.35,5.4-.7,11.6-2.71,16.23,1,1.21,10.73,9,13.7,9.24.26,0,.43,0,.52-.09,2.36-3.13,2.36-7.33,2.44-11.25a26.8,26.8,0,0,1,.35-5.41c.18-1,.53-2.44,1-4.1,1.57-5.93,3.75-14,.44-17.27a3,3,0,0,1,.87.78c2.36,3.76.35,11.08-1.05,16.49-.43,1.66-.87,3.14-1,4.19a49.12,49.12,0,0,0-.35,5.32c0,3.84,0,8.12-2.44,11.34a.67.67,0,0,1-.61.26Z"/><path class="cls-6" d="M49.32,127.39c-8.9-2.79-7.68-6.71-10.82-6.71a4.36,4.36,0,0,0-6.28-.7c-1.66-.61-3.83.7-4.62,3.84s-1.05,4.88,2.79,5.93c.26.26,1.31,1.66,4.89,1.05,1.83,1.65,8.46,1.13,12.3-1,1.22-.61,2.44-2.27,1.74-2.45Z"/><path class="cls-7" d="M35.36,130.71h0c.7.61,2,1,3.93,1h0a19.88,19.88,0,0,0,8.29-1.92,3.72,3.72,0,0,0,1.83-2.18l-.09-.09c-5.32-1.66-7.07-3.75-8.29-5.14-.78-1-1.3-1.58-2.53-1.58h-.08v-.08A4.75,4.75,0,0,0,35,119a4.3,4.3,0,0,0-2.8,1v.08l-.08-.08a2.37,2.37,0,0,0-.79-.09c-1.31,0-3,1.13-3.58,3.84-.78,3.23-1,4.8,2.62,5.84h0a.09.09,0,0,1,.09.09,4.37,4.37,0,0,0,3.14,1.05,10.83,10.83,0,0,0,1.66-.09Zm3.93,1.22h0c-1.92,0-3.32-.35-4-1a13.17,13.17,0,0,1-1.66.17,4.19,4.19,0,0,1-3.23-1.14.08.08,0,0,1-.09-.08c-3.92-1.14-3.49-3.06-2.79-6.11.7-2.71,2.44-4,3.84-4a2.8,2.8,0,0,1,.79.17,4.53,4.53,0,0,1,2.88-1,4.47,4.47,0,0,1,3.48,1.65,3.61,3.61,0,0,1,2.71,1.75c1.22,1.31,2.88,3.4,8.11,5,.17.09.26.17.26.35.09.61-1,1.83-1.92,2.35a19,19,0,0,1-8.37,2Z"/><path class="cls-7" d="M35.19,130.8a7.79,7.79,0,0,1,.26-8.2c.87-1.31,2.09-2.19,3-2.1l-.08.26c-.79-.08-1.92.7-2.8,1.92a7.53,7.53,0,0,0-.26,8Z"/><path class="cls-7" d="M30.22,129.75c-1.31-4.89.61-9.25,2.09-10l.09.26c-1.4.7-3.23,5.06-1.92,9.77Z"/><path class="cls-2" d="M51.07,9.54c5.49,1.57,12.73-6,21.28-2.36-2,2.53-19.71,10.65-19.71,10.65Z"/><path class="cls-10" d="M51.07,9.54l.17,1c3.66,2,12.91-4.62,18.93-4-7.59-1.74-14,4.54-19.1,3.06Z"/><path class="cls-5" d="M51.24,9.71l1.48,7.94C54.29,17,69.91,9.71,72.18,7.27A14,14,0,0,0,63,6.92c-1.4.43-2.71.87-4.1,1.4a33.47,33.47,0,0,1-3.49,1.13,8.86,8.86,0,0,1-4.19.26ZM52.55,18,50.89,9.45h.18a8.43,8.43,0,0,0,4.36-.17c1-.36,2.27-.7,3.49-1.23s2.61-1,4.1-1.31a14.14,14.14,0,0,1,9.42.35l.09.09-.09.09c-1.92,2.44-19,10.29-19.8,10.64Z"/><path class="cls-11" d="M54.21,12.68c6.54,2.79,11.25-9.95,19.54-4.89,6.1,3.67,6.63,21.46-11.78,20.85-2.18-2.62-7.76-16-7.76-16Z"/><path class="cls-12" d="M75.84,10a8.09,8.09,0,0,1-.35,5C72.87,20.7,65.55,25.07,59.35,24A26.64,26.64,0,0,0,62,28.64c16,.52,17.71-12.74,13.87-18.67Z"/><path class="cls-13" d="M62.06,28.47a19,19,0,0,0,7.59-1,11.45,11.45,0,0,0,7.76-9.94c.35-4-1.22-8-3.66-9.6a7.16,7.16,0,0,0-6.46-.7,21.86,21.86,0,0,0-4.8,3,19,19,0,0,1-4.36,2.61,5,5,0,0,1-3.75.09c.79,1.83,5.59,13.26,7.68,15.62Zm7.67-.79A21.18,21.18,0,0,1,62,28.73h0v-.09c-2.27-2.53-7.59-15.44-7.85-16L54,12.41l.26.09a4.86,4.86,0,0,0,3.84.09A20.74,20.74,0,0,0,62.41,10a18,18,0,0,1,4.8-3,7.21,7.21,0,0,1,6.63.69c2.61,1.58,4.18,5.67,3.75,9.78a11.78,11.78,0,0,1-7.86,10.2Z"/><path class="cls-14" d="M61.62,25.41s3.4,1.22,10.47-.08c-.61-.35-1.83-1-1.83-1S75,23,75.75,19.83a10.78,10.78,0,0,0-2.09.79,10.08,10.08,0,0,0,1.75-6.2,9,9,0,0,0-1.57,1.4s1.48-4.28-1-7.42c-2.18,2-6.81,3.75-6.81,3.75s.79-1.75,1.23-2.44a8.45,8.45,0,0,0-5.06,5.06,4.37,4.37,0,0,1-.09-2.09c-1.66,1.13-2.09,4.27-4,4.8.17.26,3.57,7.93,3.57,7.93Z"/><path class="cls-15" d="M61.71,25.33c.44.17,3.75,1,10.12-.09-.7-.35-1.57-.7-1.57-.7l-.35-.17.35-.09a.93.93,0,0,0,.44-.17c1.21-.44,4.18-1.75,5-4.2a2.94,2.94,0,0,0-.61.27,12.62,12.62,0,0,0-1.4.52l-.44.27.35-.44a10,10,0,0,0,1.75-5.93c-.52.43-1.4,1.3-1.4,1.3l-.35.44.18-.52c0-.09,1.4-4.19-1-7.24-2.27,1.91-6.72,3.66-6.81,3.75l-.26.08.18-.26a19.88,19.88,0,0,1,1-2.18,7.87,7.87,0,0,0-4.62,4.8l-.09.35-.17-.35a6,6,0,0,1-.18-1.83A7.61,7.61,0,0,0,60.4,15a4.8,4.8,0,0,1-2.18,2.53h0c.52,1,3.23,7.16,3.49,7.77Zm10.73,0-.35.08c-7,1.31-10.47.09-10.47.09h-.09c-1-2.18-3.4-7.76-3.57-7.94l-.09-.17h.18l.08-.09h0c1-.35,1.48-1.31,2.1-2.35A6.85,6.85,0,0,1,62,12.59l.26-.09-.08.26a3.53,3.53,0,0,0,.08,1.66,8.61,8.61,0,0,1,4.89-4.8l.35-.17-.18.35A16.59,16.59,0,0,0,66.16,12c1-.44,4.71-2,6.63-3.66l.08-.09v.09c2.1,2.61,1.49,5.93,1.23,7.15a5.15,5.15,0,0,1,1.31-1.13l.08-.09.09.17a10.77,10.77,0,0,1-1.66,5.93,5.22,5.22,0,0,0,1-.44,5.17,5.17,0,0,1,.78-.17h.18v.09c-.7,2.62-3.84,4-5.15,4.54a.32.32,0,0,0-.26.09,13.78,13.78,0,0,1,1.66.78Z"/><path class="cls-3" d="M60.84,22.62a9.74,9.74,0,0,0,8,0,8.1,8.1,0,0,0-2-.87s3.75.09,5-5.15a7.84,7.84,0,0,1-2.1.88s2-3.14,1.84-5.15a17.62,17.62,0,0,1-5.24,3.49,17.25,17.25,0,0,0,1-1.84c-5.41,4.28-8.11,3.41-8.46,3.85.09.17,2,4.79,2,4.79Z"/><path class="cls-16" d="M60.92,22.53a9.67,9.67,0,0,0,7.33.27h0a.66.66,0,0,1,.35-.18,11.17,11.17,0,0,0-1.74-.7l-.79-.26h.79a3.87,3.87,0,0,0,1.22-.26C69.3,21,71,19.83,71.65,16.86a3.19,3.19,0,0,1-1,.44c-.53.18-.88.26-.88.26l-.26.09.09-.26a11,11,0,0,0,1.83-4.8,17.55,17.55,0,0,1-5.15,3.31l-.26.09.17-.26A14.25,14.25,0,0,0,67,14.34a19.13,19.13,0,0,1-4.88,2.78,6.58,6.58,0,0,1-2.62.62c-.26.09-.44.09-.61.17.26.53,1.83,4.28,2,4.62Zm7.33.44h0a9.35,9.35,0,0,1-7.41-.26h-.09c-.09-.18-1.92-4.62-2-4.8l-.08-.08.08-.09a1.24,1.24,0,0,1,.79-.18A10.64,10.64,0,0,0,62.06,17a20.62,20.62,0,0,0,5.15-3l.35-.35-.18.43a12.26,12.26,0,0,1-.79,1.58,16,16,0,0,0,4.89-3.32l.17-.09v.18c.18,1.65-1.22,4.18-1.65,5a2.19,2.19,0,0,0,.61-.18,5,5,0,0,0,1.22-.61l.17-.17v.26c-.78,3.23-2.53,4.54-3.83,5.06a2.57,2.57,0,0,1-.79.18,6.51,6.51,0,0,1,1.57.69l.17.09-.17.09-.7.26Z"/><path class="cls-2" d="M9.37,1.6c6.45-.26,12.39,4.8,20.93,5-2.09,1-7.85,8.9-7.85,8.9Z"/><path class="cls-10" d="M23.76,6.83h0Z"/><path class="cls-8" d="M29.26,7.35a2.76,2.76,0,0,1,1-.78C22,6.4,16.17,1.6,9.89,1.6,14.42,2,24.11,8.84,29.26,7.35Z"/><path class="cls-5" d="M9.54,1.69l12.91,13.6c.61-.95,5.32-7.15,7.42-8.63a27.58,27.58,0,0,1-8.64-1.83c-.87-.27-1.66-.62-2.53-.88a24.81,24.81,0,0,0-2.35-.87A19.45,19.45,0,0,0,9.54,1.69Zm12.91,14L9.11,1.51h.26A18.9,18.9,0,0,1,16.43,2.9l2.36.79c.78.35,1.65.61,2.53,1a28.5,28.5,0,0,0,9,1.83h.44l-.44.18c-1.91,1-7.76,8.81-7.76,8.81Z"/><path class="cls-11" d="M23.76,9.8C18.18,8.66,13-1.45,6.23,2.56-.32,6.4-.93,18.17,11,24c8,1,12.74-14.22,12.74-14.22Z"/><path class="cls-12" d="M4.83,3.51C-.32,8.05,0,18.61,11,24A6.7,6.7,0,0,0,15,23.23C10.76,21.14,7,18.26,5,14.07c-1.49-2.79-2.88-6-.18-10.56Z"/><path class="cls-13" d="M11.55,2.12a5.8,5.8,0,0,0-5.32.52,10,10,0,0,0-4.54,8.9c.26,5.06,3.67,9.6,9.42,12.39,7.42.87,12-12.65,12.47-14-.17-.09-.43-.09-.69-.18h0a22.08,22.08,0,0,1-5.41-3.66c-1.92-1.57-3.84-3.23-5.93-3.93Zm-.53,22h0c-5.84-2.8-9.33-7.42-9.51-12.57A9.73,9.73,0,0,1,6.14,2.47,6.11,6.11,0,0,1,11.64,2c2.09.69,4,2.35,5.93,3.92s3.58,3,5.41,3.58h0l.78.26h.17l-.08.09a38.27,38.27,0,0,1-3.32,7.5c-2.88,4.89-6.19,7.24-9.51,6.81Z"/><path class="cls-14" d="M13,23.23s-7.59-3.66-8.37-7.5A3.12,3.12,0,0,0,6.14,16S3.08,11.72,4.22,9A6.88,6.88,0,0,0,6,11.11s-1.84-4.71.6-7.94a9.28,9.28,0,0,0,3.67,1.74,3.42,3.42,0,0,0-.61-1.48c3,.08,6.45,4,6.45,4a3.42,3.42,0,0,0-.26-1.92c1.83,1.22,5.94,6.81,6,8C21.15,15,13.9,23.32,13,23.23Z"/><path class="cls-15" d="M4.83,15.9c1,3.58,7.76,7,8.2,7.24.87-.08,7.85-8,8.73-9.59-.09-1.14-3.76-6.2-5.68-7.68a7,7,0,0,1,.18,1.57l-.09.26-.09-.26c-.08,0-2.53-2.79-5.14-3.66a2.28,2.28,0,0,0-1-.27,2.9,2.9,0,0,1,.44,1.4v.18L10.24,5a5.69,5.69,0,0,1-1.13-.35A8.8,8.8,0,0,1,6.57,3.34C4.31,6.48,6.05,11,6.05,11.11l.09.35-.26-.26A5.5,5.5,0,0,1,4.22,9.28c-.87,2.61,2,6.62,2,6.62l.08.18H6.14a2.55,2.55,0,0,1-1.23-.18ZM13,23.41l-.09-.09c-.26-.09-7.58-3.75-8.37-7.59l-.09-.17.26.08c.09,0,.17.09.27.09a2.25,2.25,0,0,0,1,.17C5.36,15,3.08,11.46,4.13,9l.09-.26L4.31,9A6.47,6.47,0,0,0,5.7,10.76c-.34-1.14-1.31-4.89.79-7.59l.08-.09.09.09A8,8,0,0,0,9.19,4.48a2.76,2.76,0,0,0,1,.26,5.37,5.37,0,0,0-.61-1.31l-.09-.18h.18A8.84,8.84,0,0,1,11,3.6a12.78,12.78,0,0,1,5,3.58,3.23,3.23,0,0,0-.27-1.57l-.26-.44.44.27c1.74,1.13,6,6.8,6,8.11h0C21.23,15,14,23.41,13,23.41Z"/><path class="cls-3" d="M13.9,21.14c-2.88-1.23-3.75-2.79-5.84-4.63a5.15,5.15,0,0,1,2.35,0S7.36,13.9,7.8,12l1.74.87s-3-4-1.57-6.72a10.23,10.23,0,0,0,4.28,3.76s-.44-1.4-.18-1.84c2.18,2.79,6.28,5.67,7.42,6.9-.53.61-5.59,6.19-5.59,6.19Z"/><path class="cls-2" d="M35.28,2.9C15.13-.41,15,16.25,13,21.05c-2.27,5.93-8.9,9.33-8.81,15.7,1-1,2.88-2.44,2.88-2.44S4.57,41.2,9.28,45c.17-.7.7-3,.7-3,1.39,5.24,5.75,7.68,8.46,9C16.69,61.88,23.24,61.35,26,61.79s8.9,1.92,12.21-4.36c4.36-3.49,11.25-5.32,11.25-5.32s-.6,1.57-1,2.27c5.93-.79,8.72-6.55,8.72-6.55a25.79,25.79,0,0,1-.35,3.41,9.37,9.37,0,0,0,5.24-7.16,5.2,5.2,0,0,1,.61,2.36c6.71-7.33-.7-15-.79-21.64,0-5.06,1.31-23.38-26.69-21.9Z"/><path class="cls-6" d="M64,32.57c-6.9,10.2-20.77,8.37-29.14,4a9.58,9.58,0,0,0-3.23-1.74c-4.19-1.92-8.72.43-13.08-1.49-2.62-1.13-1.92.18-5-.52-3.05,1.4-6.1,0-6.8-2.71a10.81,10.81,0,0,0-2.53,6.63c1-1,2.88-2.44,2.88-2.44S4.57,41.2,9.28,45c.17-.7.7-3,.7-3,1.39,5.24,5.75,7.68,8.46,9C16.69,61.88,23.24,61.35,26,61.79s8.9,1.92,12.21-4.36c4.36-3.49,11.25-5.32,11.25-5.32s-.6,1.57-1,2.27c5.93-.79,8.72-6.55,8.72-6.55a25.79,25.79,0,0,1-.35,3.41,9.37,9.37,0,0,0,5.24-7.16,5.2,5.2,0,0,1,.61,2.36C67,41.81,65.64,37.1,64,32.57Z"/><path class="cls-5" d="M8.93,27.51a24.51,24.51,0,0,0,4.19-6.37c.35-.79.52-1.83.87-3,1.4-5.84,3.75-15.53,16.31-15.53a33.59,33.59,0,0,1,5,.35v.09h0c1-.09,2.09-.09,3-.09C46.79,3,53,4.91,56.91,8.84c5,5,5,12,5,15.27v.69c0,2.27.88,4.54,1.75,7a5.83,5.83,0,0,0,.35.87l.09-.17-.27-.79a21.4,21.4,0,0,1-1.65-6.89v-.69c0-3.41,0-10.39-5.07-15.45-3.92-3.92-10.2-5.93-18.75-5.93-1,0-2,0-3,.09a34.16,34.16,0,0,0-5-.44c-12.73,0-15.09,9.86-16.57,15.71a27.94,27.94,0,0,1-.79,3,27.37,27.37,0,0,1-4.18,6.37A18.42,18.42,0,0,0,6.66,30l.09.26c.7-.87,1.39-1.83,2.18-2.7Z"/><path class="cls-7" d="M64.07,32.48l-.09.17c1.57,4.45,2.88,9.08-1.14,13.52A4,4,0,0,0,62.23,44l-.17-.26v.35a9.54,9.54,0,0,1-5.06,7,14.48,14.48,0,0,0,.35-3.23v-.52l-.27.44c0,.08-2.7,5.67-8.37,6.45.35-.7.87-2,1-2l.09-.27-.27.09c-.08,0-7,1.83-11.33,5.32v.09a8.29,8.29,0,0,1-7.86,4.71c-1.31,0-2.53-.26-3.57-.35-.27-.08-.44-.08-.7-.17a2.87,2.87,0,0,1-.87-.09c-1.75-.18-4.1-.35-5.5-2.27-1.31-1.66-1.66-4.45-1.13-8.2l.08-.08h-.08c-3-1.4-7.07-3.84-8.38-9L10,41.64l-.09.43s-.44,1.92-.61,2.8C4.83,41,7.18,34.49,7.18,34.4l.18-.35L7,34.23c0,.08-1.65,1.39-2.7,2.35a11.27,11.27,0,0,1,2.44-6.37L6.66,30a10.76,10.76,0,0,0-2.53,6.8V37l.18-.18c.78-.7,2-1.74,2.53-2.18-.44,1.48-1.75,7.07,2.44,10.47l.09.09L9.45,45c.09-.52.44-1.83.53-2.53,1.48,4.89,5.41,7.24,8.37,8.55-.61,3.84-.26,6.63,1.14,8.37,1.48,1.92,3.83,2.19,5.58,2.36a3.17,3.17,0,0,1,1,.09c.17,0,.43.09.7.09a20.2,20.2,0,0,0,3.57.35,8.48,8.48,0,0,0,8-4.8c3.84-3.14,9.86-4.89,11-5.24a19.37,19.37,0,0,1-.87,2l-.17.17h.26c5-.61,7.76-4.88,8.54-6.19a12.48,12.48,0,0,1-.34,3v.26l.17-.09a10.06,10.06,0,0,0,5.32-7,5.22,5.22,0,0,1,.44,2v.35l.17-.27c4.28-4.71,2.88-9.42,1.23-14Z"/><path class="cls-7" d="M38.16,57.87,38,57.78a7.51,7.51,0,0,0,.35-1.92,7.46,7.46,0,0,1,.26-1.92,1.81,1.81,0,0,1,.79-1.13c-.7.69-.79,2-.88,3a4.2,4.2,0,0,1-.34,2Z"/><path class="cls-3" d="M14.51,40.86c-.44-.53-1.22-1.66-1.22-1.66A4.34,4.34,0,0,1,10,41.38Z"/><path class="cls-17" d="M37.11,40.59a17.47,17.47,0,0,0-2.7-2.35,2.33,2.33,0,0,1,1,.52A8.16,8.16,0,0,1,37,40.15c.09.09.09.44.09.44Z"/><path class="cls-11" d="M35.62,39h0s-4.79,3.84-7.32,4.19-6.2-1.57-7.86-1.57c0,.09,0,.09-.08.09-1.48,1.57-1.14,3.66-1.31,4.88-.17,1.83-2.09,5.24,0,6.72,1.83,1.22,4.19,1,7,.87,3.57-.17,6.71.18,8.11-3.75a58.6,58.6,0,0,0,2.71-10.3A7.78,7.78,0,0,0,35.62,39Z"/><path class="cls-18" d="M19.31,50.45a1.7,1.7,0,0,0,1.22,2.27c1.75.52,3.58,0,4.71.17-1.39.09-2.79.53-3.75.53s-3,.26-2.18-3Z"/><path class="cls-13" d="M20.44,41.81a5.41,5.41,0,0,0-1.22,3.93,3.21,3.21,0,0,1-.08.87,6.41,6.41,0,0,1-.35,1.66c-.53,1.74-1.14,3.93.35,5a7.33,7.33,0,0,0,4,1c.61,0,1.22-.09,1.92-.09h1A3.21,3.21,0,0,1,26.9,54c3.14-.09,5.93-.09,7.16-3.66a65.72,65.72,0,0,0,2.7-10.22,12.14,12.14,0,0,1-1.14-1c-.6.52-4.88,3.84-7.32,4.19h-.61a15.9,15.9,0,0,1-4.45-.88,8.24,8.24,0,0,0-2.8-.61Zm2.71,12.57a6.84,6.84,0,0,1-4.1-1C17.39,52.28,18,50,18.53,48.27c.17-.61.35-1.22.43-1.66v-1c.09-1.22.09-2.79,1.31-4l.09-.09h.08a11.19,11.19,0,0,1,2.88.61,15.6,15.6,0,0,0,4.37,1A1.66,1.66,0,0,0,28.3,43c2.44-.26,7.24-4,7.24-4.1l.08-.08.09.08a16.15,16.15,0,0,1,1.22,1.14l.09.08h0a66.75,66.75,0,0,1-2.79,10.3c-1.31,3.66-4.1,3.75-7.33,3.84H25.07a14.37,14.37,0,0,1-1.92.09Z"/><path class="cls-19" d="M35.62,39s-4.79,3.84-7.32,4.19-6.2-1.57-7.86-1.57c0,.09,0,.09-.08.09a4.45,4.45,0,0,0-1.22,3c2.88,2.26-.26,6,1.48,7.41,1.57,1.22,3.66.35,5.15.26s5.06.44,6.63-1.83c1.39-1.92,3.57-8.64,4.1-10.82-.35-.26-.61-.52-.88-.7Z"/><path class="cls-20" d="M35.62,39h0s-4.79,3.84-7.32,4.19A9.12,9.12,0,0,1,25,42.77c0,.09-.43-.08-.43,0a9.58,9.58,0,0,0,.08,9.77c.09,0,1.14-.17,1.14-.17,1.57-.09,5.06.44,6.63-1.83,1.39-1.92,3.57-8.64,4.1-10.82-.35-.26-.61-.52-.88-.7Z"/><path class="cls-21" d="M20.71,52.11c1.48,1.22,3.66.35,5.14.26s5.06.44,6.64-1.83a15,15,0,0,0,1.3-2.62,6.4,6.4,0,0,0-6.45-.35c-3.49-1.4-6.19,2.18-7.16,3.67a1.33,1.33,0,0,0,.53.87Z"/><path class="cls-22" d="M20.18,51.24a1.23,1.23,0,0,0,.53.78,2.87,2.87,0,0,0,2,.61h0a14.33,14.33,0,0,0,1.75-.17,8.75,8.75,0,0,1,1.31-.18h1.39c1.92,0,4-.26,5.15-1.74A21.12,21.12,0,0,0,33.62,48a5.88,5.88,0,0,0-3.49-1,5.46,5.46,0,0,0-2.79.7h-.09a5.06,5.06,0,0,0-1.57-.26c-2.62,0-4.71,2.61-5.5,3.84Zm2.53,1.65h0a3.68,3.68,0,0,1-2.18-.69,1.8,1.8,0,0,1-.52-1h0v-.09c.78-1.22,2.88-4,5.67-4a4.79,4.79,0,0,1,1.57.26,6,6,0,0,1,2.88-.61,6.29,6.29,0,0,1,3.66,1l.09.09-.09.09a19,19,0,0,1-1.3,2.62c-1.14,1.65-3.32,1.83-5.33,1.83H25.77c-.35.08-.79.08-1.22.17a13.14,13.14,0,0,1-1.84.26Z"/><path class="cls-23" d="M21.49,48.36c-.43,0-1,1.57-1.39,2.7a1.24,1.24,0,0,0,.52,1,3.34,3.34,0,0,0,2.36.61c-.18-1.48-.79-4.45-1.49-4.36Z"/><path class="cls-24" d="M23,52.72c-.18-1.4-.79-4.19-1.4-4.36a5,5,0,0,1-.7,3.92,3,3,0,0,0,2.1.44Z"/><path class="cls-25" d="M20.18,51.15a1.15,1.15,0,0,0,.53.87,2.87,2.87,0,0,0,2,.61h.18c-.26-1.92-.87-4.19-1.4-4.19-.08,0-.52.26-1.31,2.71Zm2.53,1.74h0a3.68,3.68,0,0,1-2.18-.69,1.64,1.64,0,0,1-.61-1.05v-.09h0c1-2.79,1.4-2.79,1.57-2.88h0c.88,0,1.49,3.67,1.57,4.54l.09.09H23a.36.36,0,0,1-.27.08Z"/><path class="cls-23" d="M29.17,48.7c-.61.09-1.13,2.71-1.4,3.67a7.68,7.68,0,0,0,3.14-.61c-.17-1.22-1-3.14-1.74-3.06Z"/><path class="cls-24" d="M29.26,48.7a7.24,7.24,0,0,1-.09,3.58,6.4,6.4,0,0,0,1.74-.52c-.17-1.22-1-3-1.65-3.06Z"/><path class="cls-25" d="M29.17,48.79h0c-.35.09-.87,1.4-1.22,3.49a8.7,8.7,0,0,0,2.79-.61c-.18-1.22-1-2.88-1.57-2.88Zm-1.48,3.67v-.09c.35-1.66.87-3.67,1.48-3.75.78-.09,1.66,2,1.83,3.14v.09h-.09a7.17,7.17,0,0,1-3.14.61Z"/><path class="cls-22" d="M26,49a1.82,1.82,0,0,1,.43-.87,4,4,0,0,1,1.23-.88l.08.18A5.15,5.15,0,0,0,26,49Z"/><path class="cls-23" d="M25.85,43c.53,1.49.79,3.58,1.49,3.58s1.83-2.35,1.92-3.66a9.9,9.9,0,0,0-1,.26A7.7,7.7,0,0,1,25.85,43Z"/><path class="cls-24" d="M29.26,43a9.9,9.9,0,0,0-1,.26h-.88a13.59,13.59,0,0,1,.09,3.31c.61-.26,1.66-2.35,1.75-3.57Z"/><path class="cls-25" d="M26,43.12a7.94,7.94,0,0,1,.35,1.31c.26,1,.52,2,1,2.09v0c.52,0,1.57-2.09,1.83-3.4-.35.09-.61.09-.87.18A7.23,7.23,0,0,1,26,43.12Zm1.31,3.58h-.09c-.44,0-.7-1-1.05-2.18C26,44,25.94,43.47,25.77,43l-.09-.17h.26A5.58,5.58,0,0,0,28.3,43a4.33,4.33,0,0,0,1-.17l.17-.09-.09.18c-.08,1.31-1.22,3.75-2,3.75Z"/><path class="cls-13" d="M19.31,44.61c1.57,1.3,1.22,3,1.05,4.62-.26,1.22-.44,2.27.35,2.79a2.87,2.87,0,0,0,2,.61,14.33,14.33,0,0,0,1.75-.17,8.75,8.75,0,0,1,1.31-.18h1.39c1.92,0,4-.26,5.15-1.74,1.39-1.92,3.58-8.55,4-10.73a4.2,4.2,0,0,0-.7-.7c-.6.52-4.88,3.84-7.32,4.19h-.61a15.9,15.9,0,0,1-4.45-.88,8.24,8.24,0,0,0-2.8-.61h0a3.9,3.9,0,0,0-1.13,2.8Zm3.4,8.28a3.68,3.68,0,0,1-2.18-.69c-.78-.61-.61-1.75-.43-3,.26-1.57.52-3.23-1.05-4.53h0v-.09a4.72,4.72,0,0,1,1.22-3l.09-.09h.08a11.19,11.19,0,0,1,2.88.61,15.6,15.6,0,0,0,4.37,1A1.66,1.66,0,0,0,28.3,43c2.44-.26,7.24-4,7.24-4.1l.08-.08.09.08c.26.27.61.53.79.7l.08.09h0c-.52,2.18-2.7,9-4.09,10.91-1.14,1.65-3.32,1.83-5.33,1.83H25.77c-.35.08-.79.08-1.22.17a13.14,13.14,0,0,1-1.84.26Z"/><path class="cls-23" d="M16.69,42.42c.35,1.31,1.31,3.23,1.92,3.23s1-2.35,1.57-3.92c-1.22.08-2.26.78-3.49.69Z"/><path class="cls-24" d="M20.18,41.73a10,10,0,0,0-1.57.34,7.47,7.47,0,0,0,0,3.67c.79-.52,1-2.62,1.57-4Z"/><path class="cls-25" d="M16.87,42.51c.35,1.4,1.31,3.06,1.74,3.06h0c.35,0,.61-1,.88-2,.17-.61.34-1.22.52-1.75-.44.09-.87.26-1.31.35a6.58,6.58,0,0,1-1.83.35Zm1.74,3.23c-.69,0-1.74-2-2-3.32v-.17l.08.09A7,7,0,0,0,18.61,42a5,5,0,0,1,1.57-.35l.18-.09-.09.18a7,7,0,0,0-.52,1.83c-.35,1.22-.61,2.18-1.14,2.18Z"/><path class="cls-6" d="M34.93,36.75c-2.62-2.87-6.72-2.61-7.86-2.61,0,0-8.46-1.14-12.73-1.49-5.58,1.75-1.48,8.73,1.74,9.69,1.57.43,2.8-.61,4.36-.7s5.33,1.83,7.86,1.57S35.62,39,35.62,39Z"/><path class="cls-7" d="M27.69,43.3a16.55,16.55,0,0,1-4.45-.88,8.24,8.24,0,0,0-2.8-.61,6.33,6.33,0,0,0-1.74.35,4.41,4.41,0,0,1-2.62.26c-2.09-.61-4.53-3.66-4.62-6.36a3.5,3.5,0,0,1,2.79-3.49h.09c4.19.35,12.65,1.48,12.73,1.48h.27a11.17,11.17,0,0,1,6.19,1.4,7.55,7.55,0,0,1,1.31,1.39c-2.44-2.61-6.11-2.61-7.5-2.61h-.27c-.17,0-8.54-1.14-12.73-1.4a3.16,3.16,0,0,0-2.62,3.23c0,2.61,2.44,5.58,4.45,6.1A3.9,3.9,0,0,0,18.61,42a13.51,13.51,0,0,1,1.83-.44,11.19,11.19,0,0,1,2.88.61c1.66.53,3.49,1.14,5,.87,2.44-.26,7.24-4,7.24-4.1l.17.18c-.26.17-4.88,3.84-7.41,4.19Z"/><polygon class="cls-7" points="20.27 41.73 19.92 37.45 20.18 37.45 20.53 41.64 20.27 41.73"/><path class="cls-3" d="M51.07,28.81s3.57,2.45,2.09,8.29a5.39,5.39,0,0,0,1.48-9c1.14-2.18,1-4.8-.17-5.76a21.83,21.83,0,0,1-3.4,6.45Z"/><path class="cls-3" d="M23.85,11.63c1.48-3.49,3.31-2.79,7-4.1-.88,4.1-4.8,2.87-7,4.1Z"/><path class="cls-3" d="M22,7.44c4.1-4.8,7.15-1.74,12.21-2.7C31.44,8.49,25.42,6.57,22,7.44Z"/><path class="cls-3" d="M48.28,11.72C45,4.56,38.59,6.66,35.45,4.83c1.4,4.53,9.33,4.09,12.83,6.89Z"/><path class="cls-3" d="M38.5,14.42c.44-3.84-1.48-4.1-4.09-7-1.23,4,2.87,4.89,4.09,7Z"/><path class="cls-3" d="M35,20c1.74-3.4,0-4.79-1.32-8.37-2.61,3.23.88,5.93,1.32,8.37Z"/><path class="cls-5" d="M34,3.87A2.31,2.31,0,0,1,35.8,2.82V3A4.28,4.28,0,0,0,34,3.87Z"/><path class="cls-6" d="M39.46,15.82S34.93,24.72,37,29.16c2.18.7,10.38.7,11.17.53,1.22-1.66,4.8-8.64.7-13.35a12.94,12.94,0,0,0-6.2-3.05Z"/><path class="cls-9" d="M36.5,25.85c-.53-2.18,1.92-7.59,5.58-7.59,4.54,0,6.2,6.54,5.58,9.07-.52,1.92-9.85,3.67-11.16-1.48Z"/><path class="cls-11" d="M38.94,16.69s-.17-3.84,3.14-4.62c2.44-.7,7.41,2,8.2,6.19-.87-.7-3.84-3.14-7.5-3.14a6.67,6.67,0,0,0-3.84,1.57Z"/><path class="cls-12" d="M39.55,14.34c-.52.34-.61,2.35-.61,2.35a6.67,6.67,0,0,1,3.84-1.57c3.14,0,6.11,2.09,7.41,3.05a8.38,8.38,0,0,0-10.64-3.83Z"/><path class="cls-13" d="M42.78,15c3.4,0,6.19,2.09,7.33,3a8.31,8.31,0,0,0-7.24-5.93,2.62,2.62,0,0,0-.79.08c-2.7.7-3,3.49-3,4.28A6.52,6.52,0,0,1,42.78,15Zm7.67,3.49-.26-.17c-1-.79-3.92-3.14-7.41-3.14A6.4,6.4,0,0,0,39,16.78h-.18v-.09c0-.09-.17-3.93,3.14-4.71a3,3,0,0,1,.88-.18c2.53,0,6.8,2.54,7.5,6.46Z"/><path class="cls-6" d="M36.5,28.12c-.09,4.53,3,7.07,7,6.72,4.62-.53,5.75-5.85,3.75-6.64-1,.44-10.73-.08-10.73-.08Z"/><path class="cls-17" d="M36.67,25.41s-2.18,3.32-2.26,3.67c.08.52.87.26,1.48.52,1.74.87,2.79,1.83,5.14,2.09s5.59-.34,6.55-2.09c-3.06,0-10.91-4.19-10.91-4.19Z"/><path class="cls-17" d="M36.5,27.51C36,25.41,38.33,20,42.08,20c4.45,0,6.2,6.46,5.5,9-.44,1.83-9.86,3.49-11.08-1.48Z"/><path class="cls-26" d="M36.5,28c-.53-2.1,1.83-7.33,5.58-7.33,4.45,0,6.2,6.36,5.5,8.72-.44,1.83-9.86,3.49-11.08-1.39Z"/><path class="cls-27" d="M36.5,28.12c1.48,4.71,10.64,3.05,11.08,1.22a7.05,7.05,0,0,0-.09-3c-3,3.49-7.33,2.79-11,1.75Z"/><path class="cls-11" d="M42.43,23.32c-1.48,0-2.7,1.75-2.62,3.83S41,31,42.6,31s2.71-1.75,2.62-3.93S44,23.23,42.43,23.32Z"/><path class="cls-12" d="M41.82,28.64a4.13,4.13,0,0,1-2-1.13c.09,2,1.31,3.49,2.79,3.49s2.62-1.75,2.62-3.85a3.61,3.61,0,0,1-3.4,1.49Z"/><path class="cls-17" d="M42.87,25.33c-1,0-1.75,1.22-1.75,2.62S42,30.65,43,30.56,44.7,29.43,44.7,28s-.88-2.71-1.83-2.62Z"/><path class="cls-23" d="M42.69,25.33a1.19,1.19,0,0,0-1.13,1,1.23,1.23,0,0,0,1,1.22,1.08,1.08,0,0,0,1.13-1.05,1,1,0,0,0-1-1.13Z"/><path class="cls-23" d="M42,29a.55.55,0,0,0-.52.44.48.48,0,0,0,.44.52c.26.09.52-.18.52-.44A.49.49,0,0,0,42,29Z"/><path class="cls-13" d="M42.6,30.82c-1.48,0-2.61-1.66-2.61-3.67s1-3.66,2.44-3.66h.17c1.4.09,2.45,1.66,2.45,3.58.09,2.09-1,3.75-2.45,3.75Zm-.17-7.59c-1.57,0-2.79,1.75-2.79,3.92s1.22,3.76,2.7,3.93h.26c1.57,0,2.8-1.83,2.71-4S44,23.23,42.43,23.23Z"/><path class="cls-17" d="M42.08,20.79A5,5,0,0,0,38.24,23c-1.39,1.75-1.92,3.93-1.66,5,.7,2.79,4.11,3.13,5.59,3.13,2.7,0,5.15-1,5.32-1.74.44-1.57-.17-4.62-1.66-6.63a5,5,0,0,0-3.75-1.92Zm.09,10.47c-1.48,0-5.06-.26-5.85-3.31-.26-1.23.44-3.49,1.75-5.15a5.07,5.07,0,0,1,4-2.27,4.72,4.72,0,0,1,3.84,2.09,8.75,8.75,0,0,1,1.74,6.81c-.26.95-2.88,1.83-5.49,1.83Z"/><path class="cls-6" d="M14.25,21.66c-1,1.31-3.92,8.46,2.18,7.5a12.77,12.77,0,0,0,3.32-1.74Z"/><path class="cls-6" d="M15.65,13.81s-2.62,4.45-1.4,9.07c1.05.7,4.63,3.84,7.77,3.58,1-1.57,2.26-11,1.65-12.21-1-1.14-4.53-2.45-4.53-2.45Z"/><path class="cls-9" d="M22.71,20.53c.09,2.88-2.09,5.32-4.62,5.32A4.23,4.23,0,0,1,14,21.23a5.24,5.24,0,0,1,4.19-5.06,4.11,4.11,0,0,1,4.53,4.36Z"/><path class="cls-17" d="M22.71,22A4.93,4.93,0,0,1,18,27.24a4.36,4.36,0,0,1-4.1-4.71,5.14,5.14,0,0,1,4.19-4.88A4.23,4.23,0,0,1,22.71,22Z"/><path class="cls-26" d="M22.71,22.53c0,2.88-2.18,5.33-4.71,5.24s-4.19-2.18-4.1-4.8a5.08,5.08,0,0,1,4.19-5c2.44-.26,4.54,1.74,4.62,4.53Z"/><path class="cls-24" d="M14.07,24.46A4.1,4.1,0,0,0,18,27.77a4.66,4.66,0,0,0,4.54-4c-3.05,1.32-6,1.93-8.47.71Z"/><path class="cls-11" d="M19.75,20.7c-1.31-.08-2.45,1.31-2.53,3.14s.87,3.23,2.18,3.31,2.36-1.39,2.44-3.13S21,20.7,19.75,20.7Z"/><path class="cls-12" d="M19,25.15A3.74,3.74,0,0,1,17.22,24c.08,1.74,1,3.05,2.18,3.13s2.36-1.3,2.44-3a3,3,0,0,1-2.88,1Z"/><path class="cls-17" d="M19.92,22.36c-.78,0-1.57,1-1.57,2.18s.53,2.27,1.4,2.27,1.57-.87,1.57-2.09-.53-2.27-1.4-2.36Z"/><path class="cls-23" d="M19.83,22.19a.89.89,0,0,0-1,.78A1,1,0,0,0,19.57,24a.94.94,0,0,0,1-.79.89.89,0,0,0-.7-1Z"/><path class="cls-23" d="M19.05,25.41a.41.41,0,0,0-.44.35c-.08.26.09.44.35.53a.59.59,0,0,0,.44-.35.61.61,0,0,0-.35-.53Z"/><path class="cls-13" d="M19.4,27c-1.22-.08-2.1-1.48-2-3.14s1.14-3.05,2.36-3h.08c1.14.17,1.93,1.48,1.84,3.14s-1.05,3.05-2.27,3Zm.35-6.36c-1.31-.09-2.45,1.39-2.62,3.13,0,1.75.87,3.23,2.09,3.4.09.09.09.09.18.09,1.31,0,2.44-1.39,2.53-3.22s-.87-3.32-2.18-3.4Z"/><path class="cls-17" d="M18.09,18.09A5.06,5.06,0,0,0,14,23a4.3,4.3,0,0,0,4,4.71,4.83,4.83,0,0,0,4.54-5.15,4.21,4.21,0,0,0-4.45-4.44ZM18,28a4.57,4.57,0,0,1-4.19-5,5.17,5.17,0,0,1,4.28-5.06,4.36,4.36,0,0,1,4.71,4.62A5.11,5.11,0,0,1,18,28Z"/><path class="cls-17" d="M13.9,22.19s-.09,5,4.36,5.32a6.77,6.77,0,0,1-.78.61s-4.1-.17-3.58-5.93Z"/><path class="cls-2" d="M28,30s-1-13.17-3.67-16.4c-1.57-1.92-1.39,1.31-1.39,1.31S24.37,22,21.67,25C20,25.85,15,29.51,14.6,31.43c2.27,1.83,12.65,2.18,13.35,2.1A4,4,0,0,0,28,30Z"/><path class="cls-3" d="M25.16,18.7c-.09-3.84,1.83-4,4.62-6.63,1,4-3.14,4.62-4.62,6.63Z"/><path class="cls-10" d="M23.93,23.84a.33.33,0,0,1,.27-.09.33.33,0,0,0-.27.09,1.46,1.46,0,0,1-.43.18h0c-.52.17-1.13.52-1.66.7-.08.08-.08.17-.17.26C20,25.85,15,29.51,14.6,31.43c.35.35.35,0,1.05.18,1-2,4.1-4.54,9.42-8.2a7.48,7.48,0,0,0-1.14.43Z"/><path class="cls-8" d="M25.59,33.09c.61,0,2.27.35,2.36.35A3.76,3.76,0,0,0,27.86,30c0,1.48-.7,2.27-2.27,3.14Z"/><path class="cls-5" d="M27.51,33.61c-2.09,0-10.9-.43-13-2.09h0v-.09c.44-2,5.41-5.67,7.07-6.54,2.62-2.88,1.13-9.94,1.13-10l.27-.09c0,.35,1.48,7.33-1.22,10.3h-.09c-1.49.78-6.37,4.44-7,6.36,2.35,1.66,12.12,2,13.17,1.92a3.8,3.8,0,0,0,0-3.4,3.88,3.88,0,0,1,.53,1.31A3.27,3.27,0,0,1,28,33.53v.08h-.53Z"/><path class="cls-11" d="M22.8,15.12c0,.09.78-5.41-2.53-5.32s-4.54,3.4-4.88,4.54c1-.71,3.14-2,4.62-1.75a5.36,5.36,0,0,1,2.79,2.53Z"/><path class="cls-12" d="M15.65,14.16c1-.7,3-1.83,4.36-1.57a5.36,5.36,0,0,1,2.79,2.53,8.76,8.76,0,0,0-.09-3c-3.4-2.36-6.8,1-7.06,2.09Z"/><path class="cls-13" d="M19.57,12.5h.53a5.09,5.09,0,0,1,2.61,2.27c.09-.87.18-3-.78-4.1a1.92,1.92,0,0,0-1.66-.78h0c-2.7,0-4,2.26-4.62,4.18a7.77,7.77,0,0,1,3.92-1.57Zm3.32,2.79h-.18v-.08A5,5,0,0,0,20,12.76a.86.86,0,0,0-.44-.08,8,8,0,0,0-4.1,1.74l-.26.26.09-.34c.87-3,2.62-4.63,4.88-4.63h.09a2.13,2.13,0,0,1,2.1,1.22,6.88,6.88,0,0,1,.52,4.28Z"/><path class="cls-28" d="M20.1,37.45c1.74,0,1.39-1.31,3-1.83,2-.7,4.27.09,4.8-.43a2,2,0,0,0-.26-2.54c-1.23-.35-4.71.27-6.81-.08-2.7-.35-4.71-2-5.93-1.57a2.55,2.55,0,0,0-1.4,2,5.17,5.17,0,0,1,3.84,1.92c.61,1,1.14,2.53,2.71,2.53Z"/><path class="cls-29" d="M28,33c-.35,2.45-3.32.88-5.24,1.57-1.31.44-1.83,1.92-2.7,1.92-1.49-.09-2-3.49-5.85-3.4a5,5,0,0,1,3.14,1.83c.61,1,1.14,2.53,2.71,2.53,1.74,0,1.39-1.31,3-1.83,2-.7,4.27.09,4.8-.43A1.74,1.74,0,0,0,28,33Z"/><path class="cls-30" d="M20.88,32.57c-2.7-.35-4.71-2-5.93-1.57a3.17,3.17,0,0,0-1.4,1.83c1.75-2.45,4.45.43,7.07.61a32.12,32.12,0,0,0,7.07-.7v-.09c-1.23-.35-4.71.27-6.81-.08Z"/><path class="cls-31" d="M13.73,32.83a5.71,5.71,0,0,1,3.75,2c.09.17.17.35.26.52.52,1,1.14,2,2.27,2v.08l.09-.08a1.86,1.86,0,0,0,1.57-.79,2.57,2.57,0,0,1,1.48-1,5.49,5.49,0,0,1,2.18-.34c.35,0,.7.08,1.05.08h.69a1.19,1.19,0,0,0,.79-.17,1.91,1.91,0,0,0,.26-1.57c-.08-.35-.26-.7-.52-.7a4.13,4.13,0,0,0-1.31-.18c-.52,0-1.13.09-1.74.09s-1.49.09-2.18.09-1.05-.09-1.49-.09a15.33,15.33,0,0,1-3.4-1.05A6.06,6.06,0,0,0,15.39,31a.56.56,0,0,0-.35.08c-.79.27-1.23,1.31-1.4,1.75ZM20,37.54c-1.31,0-1.92-1-2.44-2.09A1.87,1.87,0,0,0,17.3,35a5.39,5.39,0,0,0-3.57-1.92h-.35V33A3,3,0,0,1,15,30.91a.78.78,0,0,1,.44-.09,6.42,6.42,0,0,1,2.18.61,12.36,12.36,0,0,0,3.31,1,7.8,7.8,0,0,0,1.49.09,17.74,17.74,0,0,0,2.18-.09h1.74a5.33,5.33,0,0,1,1.4.09,1.16,1.16,0,0,1,.61,1A1.81,1.81,0,0,1,28,35.27a1.27,1.27,0,0,1-1,.26c-.26,0-.52-.08-.78-.08h-1a7.66,7.66,0,0,0-2.18.26,2.71,2.71,0,0,0-1.31.95,2.1,2.1,0,0,1-1.74.88Z"/><path class="cls-5" d="M21.32,25.33l-.17-.18c.26-.17,1.39-.78,2.35-1.22a7.15,7.15,0,0,1,1.57-.52c-.09,0-3.4,1.66-3.75,1.92Z"/><path class="cls-7" d="M24.9,127.31a5.75,5.75,0,0,1-4.19-1.57c-1-1.14-1.4-5.15-1.49-5.33l.27-.08c0,.08.52,4.18,1.39,5.23,1.75,1.92,5,1.49,5,1.49l.09.17a7,7,0,0,1-1,.09Z"/></g></g></svg>