<svg xmlns="http://www.w3.org/2000/svg" viewBox="0 0 657.01 625.32"><defs><style>.cls-1{opacity:0.5;}.cls-2{fill:none;stroke:#fff;stroke-linecap:round;stroke-linejoin:round;stroke-width:3px;}</style></defs><g id="Layer_2" data-name="Layer 2"><g id="Layer_1-2" data-name="Layer 1"><g class="cls-1"><path class="cls-2" d="M163.78,44.55c.05.09,15.79-12.39,17.21-9.94l-53.1,64.14L269.26,17.13c1.23,2.12-206.87,149.07-206,150.55C65.84,172.18,289.83,24.86,295,33.86L44,217.4C51.5,230.32,378.41,6.12,386.3,19.8,392.58,30.67,26,251,30,257.87L474,1.5c5.4,9.37-422.49,280.1-422.49,280.1L416.49,70.9C425.2,86,54.37,317.23,54.37,317.23l431.36-249c9,15.56-420,278.47-419.12,280,8.81,15.26,407.24-235.12,407.24-235.12S-12.23,401.43,1.8,425.72c0,0,500.25-296.4,503.54-290.71L12.21,458.77c3.06,5.3,547.64-319.53,549.08-317,0,0-536.9,348.71-536.75,349,15.55,26.94,564.79-326.09,564.79-326.09S133.61,445.09,141.87,459.4c12,20.83,447.83-258.55,447.83-258.55S88,525.31,88.29,525.82c.45.77,556.31-321.19,556.31-321.19,8.78,15.21-506,332.66-506,332.66s466-302.71,480.6-277.48L151.83,568.11c2.8,4.85,454.27-277.72,461-266.14,2.26,3.91-404.35,248.1-396.74,261.29,4.14,7.17,432.84-264.88,439.33-253.64C664.44,325.31,225.5,593.3,225.5,593.3c2.69,4.66,428.14-247.19,428.14-247.19,6.94,12-395.52,245.49-385.44,262.95,0,0,295.41-185.09,301.71-174.19,2.83,4.91-273.28,176.18-266.16,188.51,6.37,11,311.87-192,317-183,2.08,3.6-196.71,154.3-196.71,154.3S582,502.21,582.52,503.15"/></g></g></g></svg>