<svg xmlns="http://www.w3.org/2000/svg" xmlns:xlink="http://www.w3.org/1999/xlink" viewBox="0 0 135.9 167.99"><defs><style>.cls-1,.cls-2{fill:none;}.cls-1{clip-rule:evenodd;}.cls-2{stroke:#1b1c1c;stroke-linecap:round;stroke-linejoin:round;stroke-width:3px;}.cls-3{fill:#fffdee;}.cls-4{fill:#dae1d1;}.cls-5{fill:#a1a5b2;}.cls-6{fill:#767a8f;}.cls-7{fill:#b97cb2;}.cls-8{fill:#8a32ab;}.cls-9{fill:#f8b8b9;}.cls-10{fill:#f59797;}.cls-11{fill:#6e55b0;}.cls-11,.cls-13,.cls-14,.cls-15,.cls-16,.cls-17,.cls-18,.cls-19,.cls-20,.cls-21,.cls-22,.cls-23,.cls-24,.cls-25,.cls-26,.cls-27,.cls-28,.cls-29,.cls-30,.cls-31,.cls-32,.cls-33,.cls-34,.cls-35,.cls-36,.cls-37,.cls-38,.cls-39,.cls-40,.cls-41,.cls-42,.cls-43,.cls-44,.cls-45,.cls-46,.cls-47,.cls-48,.cls-49,.cls-50,.cls-51,.cls-52,.cls-53,.cls-54,.cls-55,.cls-56,.cls-57,.cls-58,.cls-59,.cls-60,.cls-61,.cls-62,.cls-63,.cls-64,.cls-65,.cls-66,.cls-67,.cls-68,.cls-69,.cls-70,.cls-71,.cls-72,.cls-73,.cls-74,.cls-75,.cls-76,.cls-77,.cls-78,.cls-79,.cls-80,.cls-81,.cls-82,.cls-83,.cls-84,.cls-85,.cls-86,.cls-87,.cls-88,.cls-89,.cls-90,.cls-91,.cls-92,.cls-93,.cls-94{fill-rule:evenodd;}.cls-12{clip-path:url(#clip-path);}.cls-13{fill:#1f3c61;}.cls-14{fill:#1f3d61;}.cls-15{fill:#1f3e62;}.cls-16{fill:#1e3f63;}.cls-17{fill:#1e4063;}.cls-18{fill:#1e4164;}.cls-19{fill:#1e4265;}.cls-20{fill:#1e4365;}.cls-21{fill:#1e4466;}.cls-22{fill:#1d4567;}.cls-23{fill:#1d4667;}.cls-24{fill:#1d4768;}.cls-25{fill:#1d4869;}.cls-26{fill:#1d4969;}.cls-27{fill:#1c4a6a;}.cls-28{fill:#1c4b6b;}.cls-29{fill:#1c4c6b;}.cls-30{fill:#1c4d6c;}.cls-31{fill:#1c4e6d;}.cls-32{fill:#1b4f6d;}.cls-33{fill:#1b506e;}.cls-34{fill:#1b516f;}.cls-35{fill:#1b526f;}.cls-36{fill:#1b5370;}.cls-37{fill:#1b5471;}.cls-38{fill:#1a5571;}.cls-39{fill:#1a5672;}.cls-40{fill:#1a5773;}.cls-41{fill:#1a5873;}.cls-42{fill:#1a5974;}.cls-43{fill:#195a75;}.cls-44{fill:#195b75;}.cls-45{fill:#195c76;}.cls-46{fill:#195d77;}.cls-47{fill:#195e77;}.cls-48{fill:#195f78;}.cls-49{fill:#186079;}.cls-50{fill:#186179;}.cls-51{fill:#18627a;}.cls-52{fill:#18637b;}.cls-53{fill:#18647b;}.cls-54{fill:#17657c;}.cls-55{fill:#17677d;}.cls-56{fill:#17687d;}.cls-57{fill:#17697e;}.cls-58{fill:#176a7f;}.cls-59{fill:#176b7f;}.cls-60{fill:#166c80;}.cls-61{fill:#166d81;}.cls-62{fill:#166e81;}.cls-63{fill:#166f82;}.cls-64{fill:#167083;}.cls-65{fill:#157183;}.cls-66{fill:#157284;}.cls-67{fill:#157385;}.cls-68{fill:#157485;}.cls-69{fill:#157586;}.cls-70{fill:#157687;}.cls-71{fill:#147787;}.cls-72{fill:#147888;}.cls-73{fill:#147989;}.cls-74{fill:#147a89;}.cls-75{fill:#147b8a;}.cls-76{fill:#137c8b;}.cls-77{fill:#137d8b;}.cls-78{fill:#137e8c;}.cls-79{fill:#137f8d;}.cls-80{fill:#13808d;}.cls-81{fill:#13818e;}.cls-82{fill:#12828f;}.cls-83{fill:#12838f;}.cls-84{fill:#138490;}.cls-85{fill:#168690;}.cls-86{fill:#1a8891;}.cls-87{fill:#1e8991;}.cls-88{fill:#228b91;}.cls-89{fill:#268d92;}.cls-90{fill:#298e92;}.cls-91{fill:#2d9092;}.cls-92{fill:#319192;}.cls-93{fill:#359393;}.cls-94{fill:#389593;}.cls-95{fill:#775377;}.cls-96{fill:#94509a;}.cls-97{fill:#e08bb8;}.cls-98{fill:#ef5a70;}.cls-99{fill:#f3f4f4;}.cls-100{fill:#cb3c3f;}</style><clipPath id="clip-path"><path class="cls-1" d="M48.68,41.63a3.49,3.49,0,1,1-3.49-3.49,3.5,3.5,0,0,1,3.49,3.49Z"/></clipPath></defs><g id="Layer_2" data-name="Layer 2"><g id="Layer_1-2" data-name="Layer 1"><path class="cls-2" d="M94,101.13c6.63,4.27,15.88,10.9,19.37,19.54a22.14,22.14,0,0,1,1.31,3.84c7.59-.44,16.14,3.31,19,10.9a12.56,12.56,0,0,1-1.05,10.73c-.87,1.49-4.54,5.67-5.5,8.81h0a3.91,3.91,0,0,0-.17,1.75,3.35,3.35,0,0,0,1.22,1.92.47.47,0,0,1-.35.17c-1.74-.17-2.88,0-4.18-1.31a14.64,14.64,0,0,1-4.8,5,25.08,25.08,0,0,1-13.53,4c-5.32-.26-10.38-2.7-15.35-4.45a40.37,40.37,0,0,0-8-2.1,14.92,14.92,0,0,0-4.37.18l-.52.09a6.23,6.23,0,0,0-3.06,1,7,7,0,0,1,0-1.83A7.8,7.8,0,0,1,75.29,157,19.19,19.19,0,0,1,79,153c-2.88-.18-5.93-.53-9.08-1a18.28,18.28,0,0,1-4-1,144.29,144.29,0,0,1-13.7,10.64l-.08.09a4.15,4.15,0,0,1-1,.09h-.17l-3.49,3.4c-.09,0-.18.09-.26.09l-.09-.09c-6.72-3-10-7.07-11.34-9.34-.27.36-.61.7-.88,1.05a.3.3,0,0,1-.26.09h-.08l-1.57,3.66a.19.19,0,0,1-.18.18,26.92,26.92,0,0,1-7.24,1,40.56,40.56,0,0,1-12.65-2.18l-.17-.18v-.26a6.33,6.33,0,0,1,.61-1,37.55,37.55,0,0,1-11.52-2.09.19.19,0,0,1-.17-.18c-.09,0-.09-.08,0-.17,1.3-2.79,4.8-6.19,6.89-8a3.56,3.56,0,0,1-.78-2.7c.17-1,1.39-1.75,2.26-2.18l.44-.27a26.11,26.11,0,0,0,4.71-3.75l.87-.69a53.15,53.15,0,0,0,13.61-17.8A55.08,55.08,0,0,0,32.8,113,38.74,38.74,0,0,0,35,104.45,27.34,27.34,0,0,1,36.29,99c-.17-1.14-.26-2.27-.35-3.32-.53-5.93.09-11.95.61-17.71.35-3.31.7-6.8.79-10.29a53.15,53.15,0,0,0-.18-6.46c-.87,0-1.66-.08-2.36-.08h-.34c-1.22,0-2.53.17-3.75.26h0c-1.75.26-3.41.52-4.89.78l-1.22.26a28.33,28.33,0,0,1-6.11.79H17.27a10,10,0,0,1-6.89-4.1,17.36,17.36,0,0,1-3-7.68,6.25,6.25,0,0,1,2.88-6.72,37.42,37.42,0,0,1,4.19-2h0c.7-.26,1.48-.61,2.27-1h0a13.78,13.78,0,0,0,3.4-2,7.84,7.84,0,0,1-2.7-1A4.5,4.5,0,0,1,16.23,37a.3.3,0,0,1,.26-.09c3.14,1.14,6.19-1.92,7.06-4.8a4.9,4.9,0,0,0,.35-1c-.35-3.84,0-7.77,2-11.17C22.5,12.85,18.49,3.77,19.36,2.64a.68.68,0,0,1,.44-.18c.44,0,1.57,0,9.86,9.07a45.42,45.42,0,0,1,2.18-6.19c.52-1.31,1.05-2.53,1.4-3.66a.18.18,0,0,1,.17-.18h.26c3,2.27,5.59,4.28,7.77,7.42A20.07,20.07,0,0,1,43,11.36c1,.09,1.91.17,2.88.35a21.49,21.49,0,0,1,8,2.79,23.17,23.17,0,0,0,2.27,1.75v.08c.61-.35,1.31-.78,2-1.13a34.7,34.7,0,0,1,10.3-2.88.31.31,0,0,1,.35.35c-.26,1.13-.35,2.44-.53,3.93a36.73,36.73,0,0,1-1.92,9.85,31.53,31.53,0,0,1,1.75,3.06,57.63,57.63,0,0,1,2.18,6.54A62.61,62.61,0,0,1,71.71,44c.35,2.62,1.22,5.41,4.27,5.49.26,0,.26.27.18.44a3.71,3.71,0,0,1-2.1,1.66,1.13,1.13,0,0,1-1-.09,7.32,7.32,0,0,1,.87,4.1c-.44,2.53-1.66,4.88-2.62,7.24-1.22,2.88-2.44,6.28-1.22,9.42,1,2.53,3.66,5.23,6.63,4.63.35-.09.17.43.09.52A5.24,5.24,0,0,1,74.93,79a6.32,6.32,0,0,1,1.57,1.57c1.31,2,1.58,4.19,2,6.37.53,2.61,1.14,5.23,3.49,6.8,2.53,1.66,5.23,2.18,7.76.18.09-.09.18-.18.27-.18l.17.79a6.21,6.21,0,0,1-1.66,3c-.08.17-.25.25-.34.34,2,1,3.92,2.18,5.75,3.32Z"/><path class="cls-3" d="M89,114.3a14.07,14.07,0,0,0-7.68-3.67c-3.49-.43-8.72-.17-12,1.23a39.31,39.31,0,0,0-8.11,4.71c-1.22,1-2.53,2-3.75,3A35.18,35.18,0,0,1,53,123.11c-1.22.7-3,.53-4.36,1-2.53.87-3.23,4-4.19,6.37-.52.61-1,1.3-1.48,1.92C39.43,136.46,25,143,23,144c-.35,1.66,6.11,11.95,11.6,10.65,5.32-3.49,20-15.1,22.07-19.37.44-.35,3.41,1.39,3.84,1.57,2.71,1.31,5.5,2.7,8.29,3.92,5.32,2.1,11.34,3.58,17.1,3,8.11-.79,13.69-6.54,11.77-14.83a24.86,24.86,0,0,0-3.49-8.63A30.45,30.45,0,0,0,89,114.3Z"/><path class="cls-4" d="M23.29,144.14a15.76,15.76,0,0,0,3.23,5.67c1.39,1.74,4.27,4.62,7.15,4.62a2.87,2.87,0,0,0,.87-.09c5.59-3.66,20-15.18,21.9-19.28l.09-.08c.09-.09.17-.09.35-.09a11,11,0,0,1,3.4,1.48c.17.09.26.18.35.18l1.4.7c2.26,1.13,4.62,2.26,7,3.22a38.13,38.13,0,0,0,16.93,3c4.27-.44,7.76-2.27,9.86-5.15A11.05,11.05,0,0,0,97.44,129,24.59,24.59,0,0,0,94,120.41a28.55,28.55,0,0,0-5.14-5.85,14.15,14.15,0,0,0-7.51-3.66c-1-.09-2.09-.17-3.22-.17a24.21,24.21,0,0,0-8.64,1.39,42.73,42.73,0,0,0-8,4.71c-1.3,1-2.61,2.09-3.75,3a16.58,16.58,0,0,0-1.39,1.13,21,21,0,0,1-3.15,2.44,8.62,8.62,0,0,1-2.61.7,14.74,14.74,0,0,0-1.83.35c-1.92.7-2.71,2.7-3.49,4.71-.18.52-.35,1.05-.53,1.49-.52.69-1,1.3-1.57,2-2.18,2.53-9,6.46-19.63,11.43ZM33.67,155c-3.14,0-6.1-3-7.59-4.88-2-2.45-3.58-5.33-3.32-6.28a.2.2,0,0,1,.18-.18l.26-.17c10.47-4.8,17.36-8.82,19.46-11.26.52-.7,1-1.3,1.48-1.92.17-.43.35-.87.52-1.39.79-2,1.66-4.28,3.84-5.06a7.83,7.83,0,0,1,1.92-.44,6.34,6.34,0,0,0,2.36-.61,26.83,26.83,0,0,0,3.14-2.36,9,9,0,0,1,1.39-1.13c1-1,2.45-2,3.75-3a39,39,0,0,1,8.12-4.79,26.37,26.37,0,0,1,8.9-1.49,20.94,20.94,0,0,1,3.31.26,15,15,0,0,1,7.85,3.76,30.39,30.39,0,0,1,5.23,5.93,27.37,27.37,0,0,1,3.58,8.72,12.24,12.24,0,0,1-1.74,9.86c-2.18,3.05-5.85,4.89-10.38,5.32-5.06.53-11.08-.52-17.19-3-2.36-1-4.71-2.1-7-3.23l-1.39-.7c-.09,0-.18-.09-.44-.17a12.26,12.26,0,0,0-3-1.49c-2.27,4.45-16.75,16-22.08,19.46h-.08a4.79,4.79,0,0,1-1,.17Z"/><path class="cls-5" d="M31,147.45c-1.48-1.83-3.58-3.66-5.93-3.75a51.37,51.37,0,0,0-7.25,3.66s2.45,6.63,12,10.82l4.44-4.27A29.07,29.07,0,0,0,31,147.45Z"/><path class="cls-6" d="M18.14,147.45c.53,1.22,3.4,6.72,11.61,10.38l4.18-4a38.28,38.28,0,0,0-3.22-6.19c-1.05-1.31-3.14-3.58-5.59-3.67a68.73,68.73,0,0,0-6.19,3Zm11.61,11h-.09c-9.51-4.18-12-10.73-12.13-11s0-.35.09-.35l1.05-.61A48.57,48.57,0,0,1,25,143.44H25c2.79,0,5.06,2.44,6.19,3.84a35.87,35.87,0,0,1,3.31,6.63.35.35,0,0,1-.08.26L30,158.35a.32.32,0,0,1-.26.09Z"/><path class="cls-5" d="M26.17,151.38a11.44,11.44,0,0,0-4.45-3.67,5.59,5.59,0,0,0-3.14-.52,2.1,2.1,0,0,0-.7.09s-.09,0-.09.08,2.45,6.63,12,10.82h.08a21.5,21.5,0,0,0-3.66-6.8Z"/><path class="cls-5" d="M10.29,146.49s-6.54,5.32-8.46,9.34c0,0,10.47,3.84,19.71,1l3.84-9.51Z"/><path class="cls-6" d="M2.18,155.65A39.63,39.63,0,0,0,14,157.57h0a24.31,24.31,0,0,0,7.33-1l3.67-9-14.48-.79c-.79.61-6.37,5.32-8.29,8.9ZM14,158.18h0a36.43,36.43,0,0,1-12.21-2.09.19.19,0,0,1-.17-.18c-.09,0-.09-.08,0-.17,1.92-4,8.29-9.25,8.55-9.51.08,0,.17-.09.26-.09l15,.79a.18.18,0,0,1,.18.17.32.32,0,0,1,.09.26l-3.84,9.51a.19.19,0,0,1-.18.18A24.13,24.13,0,0,1,14,158.18Z"/><path class="cls-3" d="M47.37,95.72c-2.71-2.62-6.37-3-9.08.17-1.74,2-2.61,5.85-3,8.56a48.49,48.49,0,0,1-2.18,8.63,63.27,63.27,0,0,1-3.32,7.41,53.29,53.29,0,0,1-13.7,17.8,44.86,44.86,0,0,1-5.58,4.54c-.78.43-2.44,1.13-2.61,2.27-.18,1.31.69,2.44,1.39,3.31a14.76,14.76,0,0,0,5,2.79A26.86,26.86,0,0,0,23.38,153a30.21,30.21,0,0,0,2.88-3.75C43.44,127,54.43,102.61,47.37,95.72Z"/><path class="cls-4" d="M42.75,94a5.34,5.34,0,0,0-4.2,2.1c-2,2.27-2.7,6.63-3,8.46a39.65,39.65,0,0,1-2.18,8.64,70.69,70.69,0,0,1-3.31,7.41,54.24,54.24,0,0,1-13.79,18,7.36,7.36,0,0,1-.87.7,29.41,29.41,0,0,1-4.8,3.84,1.89,1.89,0,0,1-.44.26c-.78.44-1.83,1-2,1.83-.18,1,.61,2.1,1.4,3a13.12,13.12,0,0,0,4.79,2.79,28.12,28.12,0,0,0,8.81,1.74h.09c.61-.69,1.22-1.56,1.75-2.26a16.43,16.43,0,0,1,1-1.4c8.55-11.08,15.53-22.59,19.54-32.37,4.19-10.2,4.8-17.53,1.57-20.67a6.46,6.46,0,0,0-4.44-2ZM23.2,153.21a26.29,26.29,0,0,1-9-1.75,13.68,13.68,0,0,1-5.06-2.87c-.7-.79-1.75-2.1-1.48-3.58.17-1,1.39-1.75,2.26-2.18.18-.09.26-.18.44-.27a26.11,26.11,0,0,0,4.71-3.75c.26-.26.61-.43.87-.69a53.15,53.15,0,0,0,13.61-17.8A55.08,55.08,0,0,0,32.8,113,38.74,38.74,0,0,0,35,104.45c.26-1.84,1.05-6.38,3.14-8.82a6,6,0,0,1,4.63-2.27,7.31,7.31,0,0,1,4.88,2.19c2.36,2.35,4.1,7.93-1.48,21.28-4,9.86-11,21.37-19.63,32.54-.35.44-.7.87-1.05,1.4a15.5,15.5,0,0,1-1.83,2.35.28.28,0,0,1-.18.09Z"/><path class="cls-3" d="M93.78,101.39c-11.43-7.33-27-10.91-34.2-23.38-6.89-11.86-1.83-25.73-3-38.64-.53-3.06-1.75-5.76-4.54-6.11-1.83-.27-3.84,1.39-5.24,2.44-3.57,2.7-8,6-10.11,10.2-1.66,3.41-.79,7.16,0,10.65a47.8,47.8,0,0,1,.87,11.08c-.26,9.33-2.19,18.58-1.4,27.92a92.88,92.88,0,0,0,8.11,30.53c3.32,7.06,7.6,14.74,13.61,19.89a25.88,25.88,0,0,0,12,5.76c35.25,5.06,44.41-5.32,45.63-11.35,1.31-6.63-.61-15-2.53-19.54-3.32-8.11-11.78-14.65-19.28-19.45Z"/><path class="cls-4" d="M51.73,33.52c-1.48,0-3.14,1.22-4.36,2.09l-.35.26c-3.58,2.71-8,6-10,10.13-1.49,3.13-.79,6.62-.09,9.94l.09.61a47.05,47.05,0,0,1,1,11.08c-.18,3.49-.53,7-.79,10.38a90.88,90.88,0,0,0-.61,17.54,89.59,89.59,0,0,0,8,30.35c3.05,6.46,7.33,14.48,13.52,19.81,3.66,3,8,5.23,11.86,5.75a121.53,121.53,0,0,0,16.92,1.31c24,0,27.84-9.59,28.36-12.47,1.31-6.28-.35-14.4-2.44-19.37-3.49-8.55-12.57-15.09-19.2-19.28a99.81,99.81,0,0,0-11.25-6c-8.81-4.27-17.89-8.72-22.94-17.45-4.63-7.85-4-16.75-3.32-25.3a88.34,88.34,0,0,0,.18-13.51c-.61-3.58-2-5.5-4.19-5.85ZM86.88,153.38h0a122.75,122.75,0,0,1-17-1.31,25.81,25.81,0,0,1-12.12-5.93c-6.37-5.32-10.64-13.52-13.7-20a91.42,91.42,0,0,1-8.11-30.53c-.53-5.93.09-11.95.61-17.71.35-3.31.7-6.8.79-10.29a46.24,46.24,0,0,0-1-11L36.29,56c-.7-3.41-1.49-7,.17-10.3,2.09-4.19,6.63-7.59,10.21-10.29l.35-.26c1.39-1,3.31-2.54,5.14-2.27,2.45.43,4,2.53,4.72,6.46A80.45,80.45,0,0,1,56.62,53c-.62,8.46-1.23,17.19,3.22,25,5,8.55,14,12.92,22.77,17.19a99.5,99.5,0,0,1,11.34,6c6.63,4.27,15.88,10.9,19.37,19.54,2.09,5.06,3.84,13.35,2.53,19.71-.61,3.06-4.54,13-29,13Z"/><path class="cls-3" d="M106.34,121.19a14.84,14.84,0,0,0-7.68-3.75c-3.48-.43-8.72-.08-12,1.31a34,34,0,0,0-8,4.71c-1.31,1-2.53,1.92-3.84,3a36.28,36.28,0,0,1-4.45,3.49c-1.31.7-3,.61-4.36,1.05-2.62.95-3.23,4-4.28,6.36a15.54,15.54,0,0,1-1.48,1.92c-3.49,4-17.88,10.64-19.8,11.52-.35,1.65,6,11.95,11.6,10.64,5.32-3.49,20-15.09,22.07-19.37.44-.35,3.4,1.4,3.75,1.57,2.79,1.4,5.59,2.8,8.38,3.93,5.32,2.18,11.34,3.58,17.1,3.05,8-.87,13.61-6.54,11.78-14.83a26.26,26.26,0,0,0-3.49-8.72,30.32,30.32,0,0,0-5.24-5.85Z"/><path class="cls-4" d="M114.8,141.52a11.21,11.21,0,0,1-1.66,3.66c-2.09,2.88-5.58,4.63-9.94,5.06-5,.53-10.91-.52-16.92-3-2.36-1-4.63-2.1-6.9-3.23l-1.39-.7c-.09,0-.18-.09-.35-.17a10.88,10.88,0,0,0-3.4-1.49c-.18,0-.27.09-.35.09s-.09.09-.09.18c-2,4-16.31,15.52-21.89,19.19a3,3,0,0,1-.88.09c-2.88,0-5.76-2.89-7.15-4.63-2-2.35-3.23-4.8-3.23-5.58l.18-.09c10.64-5,17.44-8.9,19.62-11.51a17.42,17.42,0,0,0,1.49-2,10.61,10.61,0,0,0,.61-1.4c.78-2,1.57-4.1,3.49-4.8a11.25,11.25,0,0,1,1.83-.35,6.71,6.71,0,0,0,2.62-.69,28.79,28.79,0,0,0,3.14-2.44c.43-.35.87-.79,1.39-1.14,1-.87,2.44-1.92,3.76-2.88a34,34,0,0,1,8-4.71,22.27,22.27,0,0,1,8.64-1.48,18,18,0,0,1,3.22.26,14.6,14.6,0,0,1,7.51,3.58,16.15,16.15,0,0,1,1.3,1.22,13.38,13.38,0,0,0-3.31-3.32c-.61-.35-1.13-.69-1.83-1a12.91,12.91,0,0,0-3.58-1,21.09,21.09,0,0,0-3.31-.17,25.81,25.81,0,0,0-8.9,1.39,40.49,40.49,0,0,0-8.11,4.8c-1.31,1-2.71,2.1-3.85,3-.43.35-.87.79-1.39,1.14a16,16,0,0,1-3,2.35,6.57,6.57,0,0,1-2.36.7,13.39,13.39,0,0,0-1.92.35c-2.18.79-3,3.05-3.83,5.06-.18.52-.36,1-.53,1.4-.44.61-1,1.31-1.48,1.92-2.18,2.44-9.07,6.45-19.46,11.25l-.35.17c-.08.09-.08.18-.17.27-.17,1,1.4,3.84,3.4,6.28,1.48,1.74,4.45,4.8,7.59,4.8a4.15,4.15,0,0,0,1-.09l.08-.09c5.33-3.49,19.81-14.92,22.08-19.36a13.34,13.34,0,0,1,3.05,1.39,1.39,1.39,0,0,0,.44.18l1.39.69c2.27,1.14,4.63,2.27,7,3.23,6.11,2.44,12,3.58,17.19,3,4.45-.43,8.2-2.35,10.38-5.32a8.69,8.69,0,0,0,1-2,16.89,16.89,0,0,0,.08-2Z"/><path class="cls-5" d="M48.33,154.34c-1.49-1.92-3.58-3.75-5.93-3.84-1.66.62-4.28,2.1-7.25,3.67,0,0,2.45,6.63,12,10.82l4.44-4.19c-.08-.88-2.35-5.24-3.22-6.46Z"/><path class="cls-6" d="M35.5,154.34c.53,1.14,3.4,6.63,11.61,10.3l4.18-4a41.22,41.22,0,0,0-3.22-6.1c-1-1.4-3.15-3.58-5.67-3.67a43.14,43.14,0,0,0-6.11,3.06Zm11.61,11a.09.09,0,0,1-.09-.09c-9.51-4.19-12-10.73-12.22-11a.34.34,0,0,1,.18-.35l1-.53a53,53,0,0,1,6.37-3.14h.09c2.79.09,5.05,2.44,6.1,3.93a31.73,31.73,0,0,1,3.41,6.54c0,.09-.1.18-.1.26l-4.44,4.28c-.09,0-.18.09-.26.09Z"/><path class="cls-6" d="M35.5,154.34c.53,1.14,3.4,6.63,11.61,10.3l4.18-4a41.22,41.22,0,0,0-3.22-6.1c-1-1.4-3.15-3.58-5.67-3.67a43.14,43.14,0,0,0-6.11,3.06Zm11.61,11a.09.09,0,0,1-.09-.09c-9.51-4.19-12-10.73-12.22-11a.34.34,0,0,1,.18-.35l1-.53a53,53,0,0,1,6.37-3.14h.09c2.79.09,5.05,2.44,6.1,3.93a31.73,31.73,0,0,1,3.41,6.54c0,.09-.1.18-.1.26l-4.44,4.28c-.09,0-.18.09-.26.09Z"/><path class="cls-5" d="M43.53,158.27a13,13,0,0,0-4.45-3.75,5.6,5.6,0,0,0-3.14-.53c-.17,0-.44.09-.7.09l-.09.09s2.45,6.63,12,10.82h0a18.68,18.68,0,0,0-3.58-6.72Z"/><path class="cls-5" d="M21.54,150.07s-6.63,5.32-8.63,9.25c0,0,10.38,4,19.71,1.3l3.93-9.5Z"/><path class="cls-6" d="M13.35,159.23a39.91,39.91,0,0,0,12.12,2,25.52,25.52,0,0,0,7-.88l3.67-9-14.49-1c-.69.61-6.37,5.14-8.28,8.81Zm12.12,2.62h0a40.56,40.56,0,0,1-12.65-2.18l-.17-.18v-.26c2-4,8.46-9.16,8.72-9.34a.34.34,0,0,1,.26-.08l14.92,1c.18,0,.18.08.26.17a.16.16,0,0,1,0,.26l-3.92,9.51a.19.19,0,0,1-.18.18,26.92,26.92,0,0,1-7.24,1Z"/><path class="cls-3" d="M59.41,99.91c-2.71-2.62-6.46-3.06-9.16,0-1.75,2-2.71,5.84-3.06,8.54a41.52,41.52,0,0,1-2.35,8.64,55.42,55.42,0,0,1-3.4,7.33,54.48,54.48,0,0,1-14,17.62,39.82,39.82,0,0,1-5.67,4.37c-.79.52-2.45,1.13-2.62,2.26-.18,1.31.7,2.45,1.4,3.32a14.77,14.77,0,0,0,4.88,2.88,27.41,27.41,0,0,0,9.07,1.92,40,40,0,0,0,3-3.75C55,131.22,66.3,106.89,59.41,99.91Z"/><path class="cls-4" d="M60.45,111.33a53.49,53.49,0,0,1-3.14,9.43c-4.19,9.77-11.34,21.11-20.06,32.1a17,17,0,0,0-1,1.4,21.59,21.59,0,0,1-1.74,2.18,26.53,26.53,0,0,1-8.9-1.83,14.22,14.22,0,0,1-4.8-2.8c-.7-.87-1.48-1.92-1.22-3.05.09-.78,1.13-1.4,1.92-1.83l.52-.27a31.26,31.26,0,0,0,4.8-3.66,7.57,7.57,0,0,0,.87-.78A53.58,53.58,0,0,0,41.7,124.51a56,56,0,0,0,3.4-7.33,41.24,41.24,0,0,0,2.35-8.63,30.82,30.82,0,0,1,.7-3.5,9.71,9.71,0,0,1,.18-2.27,26.15,26.15,0,0,0-1.49,5.67,39.43,39.43,0,0,1-2.26,8.47,56.07,56.07,0,0,1-3.41,7.33A52.16,52.16,0,0,1,27.3,141.78c-.26.26-.61.53-.87.78a35,35,0,0,1-4.8,3.58,2,2,0,0,1-.43.27c-.88.52-2.1,1.13-2.27,2.26-.26,1.49.78,2.71,1.39,3.49a16.45,16.45,0,0,0,5.06,3.06,27.94,27.94,0,0,0,9.16,1.83h0a.3.3,0,0,0,.26-.09,24.36,24.36,0,0,0,1.93-2.35,14.82,14.82,0,0,1,1-1.4c8.81-11,16-22.42,20.15-32.19a47.54,47.54,0,0,0,3.83-12.91c-.35,1-.78,2.18-1.22,3.22Z"/><path class="cls-7" d="M57.31,56.81c0,.09.09.17.09.26v.18a8.76,8.76,0,0,0,1.92-1.66A20.21,20.21,0,0,0,63,48.87c1.66-4.53,3.32-9.25,2.71-14.13a.29.29,0,0,1,.43-.26c2.45,1.13,3.75,3.66,4.63,6.28-.35-1.83-.88-3.58-1.4-5.41a23.31,23.31,0,0,0-2.27-6.28,40.73,40.73,0,0,0-4.27-5.85,12.22,12.22,0,0,0-5.5-4.09,6.94,6.94,0,0,0-4.44-.44c-1,.35-1.92.79-2.88,1.13l-2.71.79c-.78.26-1,.7-.87,1.13.09,0,.09,0,.17.09,1.66,3.05,4.62,5.58,6.54,8.37,2.36,3.41,3.5,7.33,4.8,11.26,1.92,5.76,1.14,13.52-4.53,16.83a3.93,3.93,0,0,0,3.23-1.13,2.81,2.81,0,0,0,.69-.35Z"/><path class="cls-8" d="M127.1,155c1-3.14,4.63-7.32,5.5-8.81a12.56,12.56,0,0,0,1.05-10.73c-2.88-7.59-11.43-11.34-19-10.9-.17,0-.35.26-.26.35v.08c.35,1.66.78,3.41,1.22,5.06a21,21,0,0,1,.35,5.67,11.3,11.3,0,0,1-1.66,5.59,27.18,27.18,0,0,1-3.75,3.31,3.17,3.17,0,0,0-1,.09c-2.62.17-5.24-.09-7.85,0a37.78,37.78,0,0,0-7.68.7,8.68,8.68,0,0,0-4.8,3,13.08,13.08,0,0,0-1.92.61,26.09,26.09,0,0,0-7,3.23,16.54,16.54,0,0,0-5,4.8A7.8,7.8,0,0,0,74,159.32a7,7,0,0,0,0,1.83,6.23,6.23,0,0,1,3.06-1,1.23,1.23,0,0,1,.52-.09,14.92,14.92,0,0,1,4.37-.18,40.37,40.37,0,0,1,8,2.1c5,1.75,10,4.19,15.35,4.45a25.08,25.08,0,0,0,13.53-4,14.64,14.64,0,0,0,4.8-5c1.3,1.31,2.44,1.14,4.18,1.31a.47.47,0,0,0,.35-.17,3.35,3.35,0,0,1-1.22-1.92,3.91,3.91,0,0,1,.17-1.75Z"/><path class="cls-8" d="M90,93.71c-.09,0-.18.09-.27.18-2.53,2-5.23,1.48-7.76-.18-2.35-1.57-3-4.19-3.49-6.8-.43-2.18-.7-4.36-2-6.37A6.32,6.32,0,0,0,74.93,79a5.24,5.24,0,0,0,1.84-1.57c.08-.09.26-.61-.09-.52-3,.6-5.58-2.1-6.63-4.63-1.22-3.14,0-6.54,1.22-9.42,1-2.36,2.18-4.71,2.62-7.24a7.32,7.32,0,0,0-.87-4.1,1.13,1.13,0,0,0,1,.09,3.71,3.71,0,0,0,2.1-1.66c.08-.17.08-.44-.18-.44-3-.08-3.92-2.87-4.27-5.49a62.61,62.61,0,0,0-1.4-7.94,57.63,57.63,0,0,0-2.18-6.54,28.93,28.93,0,0,0-4.19-6.11c-2.79-3.4-6.8-6.63-11.42-5.15-1.14.35-2.19,1-3.41,1.23a11.72,11.72,0,0,0-2.79,1c-1,.79-.17,1.83.44,2.53v.09l.08.08h0a6.23,6.23,0,0,1,.53.88c1,1.39,2.09,2.61,3.14,3.92A31,31,0,0,1,56,38c1.23,3.66,2.45,7.15,2.18,11.08a10.78,10.78,0,0,1-4.27,8.2c-.52.43-1.13.87-1.66,1.31,0,.08,0,.17.09.17,1.31,1,3.32.18,4.45-1-.7,2.88-2.79,5.32-4.71,7.59-2.27,2.71-4.45,5.06-6,8.2a16.65,16.65,0,0,0-1.57,4.1A18.18,18.18,0,0,0,44.4,82a12.56,12.56,0,0,0,1.22,3,5.6,5.6,0,0,0,2.53,2.35.55.55,0,0,0,.18-.43,6.09,6.09,0,0,1-.26-5.23,7.94,7.94,0,0,0,.87,4.88c1.31,2.44,4.18,3.4,6.63,4.28,1.48.52,3,.78,4.54,1.39a32.17,32.17,0,0,1,4.44,2.44,9,9,0,0,1,3.23,3.58c.44,1.31,1.22,3.31.09,4.36a3.71,3.71,0,0,1-.79,1.22,5.58,5.58,0,0,0,2.71-1.31c.26-.08.43-.34.61-.52,0-.09.09-.09.09-.18a1.33,1.33,0,0,0,.43-.6c.35.34.7.6,1.14,1a10.69,10.69,0,0,0,5.32,1.65,10,10,0,0,0,9.24-5.23,3.73,3.73,0,0,0,1.92-1.13,6.21,6.21,0,0,0,1.66-3c-.09-.26-.09-.53-.17-.79Z"/><path class="cls-3" d="M33.5,1.76a32.18,32.18,0,0,1,7.67,7.33c2.45,3.32,4.72,7.76,2.45,11.87A7.4,7.4,0,0,1,42,22.88c-2.44-1.49-8.64-.35-10.47,1.22-5.5-7.59.35-16.84,2-22.34Z"/><path class="cls-4" d="M33.67,2.29c-.35,1-.78,2.09-1.31,3.31-2.18,5.41-4.88,12.13-.78,18.06a14.49,14.49,0,0,1,7.06-1.74,7,7,0,0,1,3.32.61,5.47,5.47,0,0,0,1.4-1.75c1.74-3.14,1-6.89-2.36-11.52a31,31,0,0,0-7.33-7ZM31.49,24.45h0c-.09-.09-.17-.09-.26-.18-4.54-6.19-1.57-13.52.61-18.93.52-1.31,1.05-2.53,1.4-3.66a.18.18,0,0,1,.17-.18h.26c3,2.27,5.59,4.28,7.77,7.42,3.48,4.8,4.27,8.81,2.44,12.21a7.59,7.59,0,0,1-1.75,2,.17.17,0,0,1-.26,0,6.3,6.3,0,0,0-3.23-.7c-2.61,0-5.75.87-7,1.92a.27.27,0,0,1-.17.09Z"/><path class="cls-9" d="M31.93,21.74v.09c-.09-.09-.09-.27-.18-.35a20,20,0,0,1,.18-6.81c.52-2.87,1.65-5.67,2.18-8.54a4,4,0,0,1-.53-1.4c0-.09.09-.17.09-.09C34.28,5.78,35,6.82,35.5,8a28.18,28.18,0,0,1,1.84,5c.52,2.18.78,5.49-.09,7.68-.09.17-.18-.09-.18-.27s.09-.52.18-.78a2.19,2.19,0,0,1-.26.43c-.7,1-1.66.62-2.45.79a4,4,0,0,0-1.74.78c-.18.18-.44.35-.61.27s-.18-.09-.26-.18Z"/><path class="cls-9" d="M36.46,12.75C36,11.19,35.5,9.7,35,8.31c-.26-.79-.61-1.4-.87-2.18h0A.09.09,0,0,0,34,6c-.09-.44-.26-.87-.35-1.31C34.28,5.86,35,6.82,35.5,8a28.18,28.18,0,0,1,1.84,5c.52,2.18.78,5.49-.09,7.68-.09.08-.18,0-.18-.09a15.75,15.75,0,0,0-.61-7.86Z"/><path class="cls-3" d="M63.77,39.45a18.65,18.65,0,0,0-2-9.42,20.93,20.93,0,0,0-7-7.15,30.31,30.31,0,0,0-9.25-4.19,18.71,18.71,0,0,0-5.4-.44,14.48,14.48,0,0,0-6.28,2c-3.58,2.35-5.59,6-7.24,9.85-1.49,3.58-3,6.9-5.94,9.51s-6.89,3.32-10.2,5.24A6.14,6.14,0,0,0,7.68,51.4a16.93,16.93,0,0,0,3,7.51,9,9,0,0,0,6.63,3.92c2.88.26,5.67-.44,8.46-1a49,49,0,0,1,8.73-1c4.88-.08,10,1.57,14.91.7a12.41,12.41,0,0,0,6.46-3.58,27.22,27.22,0,0,0,7.5-14.13,24,24,0,0,0,.44-4.36Z"/><path class="cls-4" d="M41.17,18.51h-1a14.6,14.6,0,0,0-6.19,2c-3.66,2.36-5.67,6.19-7.15,9.68-1.58,3.75-3.06,7.07-6,9.69a21.59,21.59,0,0,1-6.2,3.4,41.94,41.94,0,0,0-4.1,1.83A5.88,5.88,0,0,0,8,51.31a18.26,18.26,0,0,0,2.79,7.42,9,9,0,0,0,6.55,3.84h1.13a28.88,28.88,0,0,0,6-.78,5.75,5.75,0,0,0,1.14-.18,58.59,58.59,0,0,1,8.81-1.14h.34a41.66,41.66,0,0,1,5.67.53,43.25,43.25,0,0,0,5.76.52h0a17,17,0,0,0,3.06-.26,11.89,11.89,0,0,0,6.28-3.58,26.51,26.51,0,0,0,7.5-14c.18-1.49.35-2.88.44-4.28a18.15,18.15,0,0,0-2-9.25,19.53,19.53,0,0,0-6.89-7.06A28.27,28.27,0,0,0,45.45,19a25.7,25.7,0,0,0-4.28-.44ZM18.49,63.18H17.27a10,10,0,0,1-6.89-4.1,17.36,17.36,0,0,1-3-7.68,6.25,6.25,0,0,1,2.88-6.72,37.42,37.42,0,0,1,4.19-2,20.38,20.38,0,0,0,6-3.23c2.79-2.53,4.27-5.76,5.85-9.42s3.57-7.59,7.32-10a14.86,14.86,0,0,1,6.46-2.1h1a19.09,19.09,0,0,1,4.36.53A26.24,26.24,0,0,1,55,22.7,19.29,19.29,0,0,1,62,29.94a18.26,18.26,0,0,1,2,9.51,27.56,27.56,0,0,1-.44,4.45A27.05,27.05,0,0,1,56,58.12a12.35,12.35,0,0,1-6.63,3.67,18,18,0,0,1-3.14.25h0a42,42,0,0,1-5.76-.43,43,43,0,0,0-5.67-.52h-.34a64.83,64.83,0,0,0-8.64,1l-1.22.26a28.33,28.33,0,0,1-6.11.79Z"/><path class="cls-9" d="M24.6,45.64A16.1,16.1,0,0,0,16.83,42c-2.09,1-4.36,1.75-6.36,2.88A6.14,6.14,0,0,0,7.68,51.4a16.93,16.93,0,0,0,3,7.51,9,9,0,0,0,6.63,3.92c2.88.26,5.67-.44,8.46-1,1.66-.26,3.31-.61,4.89-.78.17-5.67-1.66-11.61-6-15.45Z"/><path class="cls-10" d="M16.92,42.33c-.79.35-1.48.61-2.27,1a41.94,41.94,0,0,0-4.1,1.83A5.88,5.88,0,0,0,8,51.31a18.26,18.26,0,0,0,2.79,7.42,9,9,0,0,0,6.55,3.84h1.13a28.88,28.88,0,0,0,6-.78,5.75,5.75,0,0,0,1.14-.18c1.48-.26,3.05-.61,4.71-.79.08-6.1-2.1-11.6-5.93-14.92a16.27,16.27,0,0,0-7.51-3.57Zm1.57,20.85H17.27a10,10,0,0,1-6.89-4.1,17.36,17.36,0,0,1-3-7.68,6.25,6.25,0,0,1,2.88-6.72,37.42,37.42,0,0,1,4.19-2c.7-.26,1.48-.61,2.27-1h.17a16.22,16.22,0,0,1,7.85,3.66c4.1,3.58,6.37,9.25,6.2,15.71a.23.23,0,0,1-.26.26c-1.75.26-3.41.52-4.89.78l-1.22.26a28.33,28.33,0,0,1-6.11.79Z"/><path class="cls-9" d="M17.18,50.62a3.43,3.43,0,0,0-1.57.87,3.44,3.44,0,0,0-1.39,1.92c.17,0,.35,0,.43.09.61-.26,1.22-.53,1.75-.79s2-.78,2.18-1.48-1-.7-1.4-.61Z"/><path class="cls-9" d="M14.22,53.15s1.83-2,3.23-1.92S15.61,53,14.22,53.15Z"/><path class="cls-3" d="M42.75,37.18a10.48,10.48,0,0,0-2.28,1,10.71,10.71,0,0,0-4.09,6.54c1.65,4.1,7.58,3.84,11,2.1,2-1,4.79-4.72,5.32-7.59-2.88-1.92-6.72-3.23-9.94-2.1Z"/><path class="cls-4" d="M36.73,44.68c1,2.71,3.92,3.14,5.58,3.14a10.43,10.43,0,0,0,4.88-1.21,12.69,12.69,0,0,0,5.15-7.24,13.31,13.31,0,0,0-7-2.36,8.19,8.19,0,0,0-2.53.43,10.69,10.69,0,0,0-2.18,1.05,10.52,10.52,0,0,0-3.92,6.19Zm5.58,3.67h0c-3.05,0-5.32-1.22-6.19-3.49v-.18a10.82,10.82,0,0,1,4.18-6.62,9.45,9.45,0,0,1,2.36-1.14,6.73,6.73,0,0,1,2.7-.43A13.36,13.36,0,0,1,52.78,39a.25.25,0,0,1,.17.27c-.43,3-3.4,6.72-5.5,7.85a11.51,11.51,0,0,1-5.14,1.22Z"/><path class="cls-11" d="M45.1,35.87a5.66,5.66,0,0,0-5.67,5.67h0a5.64,5.64,0,0,0,5.67,5.59h0a5.64,5.64,0,0,0,5.67-5.59h0a5.72,5.72,0,0,0-5.67-5.67Z"/><g class="cls-12"><polyline class="cls-13" points="48.68 38.14 48.68 38.14 41.7 38.14 41.7 38.14"/><polyline class="cls-14" points="48.68 38.05 48.68 38.23 41.7 38.23 41.7 38.14"/><polyline class="cls-15" points="48.68 38.14 48.68 38.32 41.7 38.32 41.7 38.23"/><polyline class="cls-16" points="48.68 38.23 48.68 38.4 41.7 38.4 41.7 38.32"/><polyline class="cls-17" points="48.68 38.32 48.68 38.49 41.7 38.49 41.7 38.4"/><polyline class="cls-18" points="48.68 38.4 48.68 38.58 41.7 38.58 41.7 38.49"/><polyline class="cls-19" points="48.68 38.49 48.68 38.66 41.7 38.66 41.7 38.58"/><polyline class="cls-20" points="48.68 38.58 48.68 38.75 41.7 38.75 41.7 38.66"/><polyline class="cls-21" points="48.68 38.66 48.68 38.84 41.7 38.84 41.7 38.75"/><polyline class="cls-22" points="48.68 38.75 48.68 38.93 41.7 38.93 41.7 38.84"/><polyline class="cls-23" points="48.68 38.84 48.68 39.01 41.7 39.01 41.7 38.93"/><polyline class="cls-24" points="48.68 38.93 48.68 39.1 41.7 39.1 41.7 39.01"/><polyline class="cls-25" points="48.68 39.01 48.68 39.19 41.7 39.19 41.7 39.1"/><polyline class="cls-26" points="48.68 39.1 48.68 39.28 41.7 39.28 41.7 39.19"/><polyline class="cls-27" points="48.68 39.19 48.68 39.37 41.7 39.37 41.7 39.28"/><polyline class="cls-28" points="48.68 39.28 48.68 39.45 41.7 39.45 41.7 39.37"/><polyline class="cls-29" points="48.68 39.37 48.68 39.54 41.7 39.54 41.7 39.45"/><polyline class="cls-30" points="48.68 39.45 48.68 39.62 41.7 39.62 41.7 39.54"/><polyline class="cls-31" points="48.68 39.54 48.68 39.71 41.7 39.71 41.7 39.62"/><polyline class="cls-32" points="48.68 39.62 48.68 39.8 41.7 39.8 41.7 39.71"/><polyline class="cls-33" points="48.68 39.71 48.68 39.89 41.7 39.89 41.7 39.8"/><polyline class="cls-34" points="48.68 39.8 48.68 39.97 41.7 39.97 41.7 39.89"/><polyline class="cls-35" points="48.68 39.89 48.68 40.06 41.7 40.06 41.7 39.97"/><polyline class="cls-36" points="48.68 39.97 48.68 40.15 41.7 40.15 41.7 40.06"/><polyline class="cls-37" points="48.68 40.06 48.68 40.24 41.7 40.24 41.7 40.15"/><polyline class="cls-38" points="48.68 40.15 48.68 40.32 41.7 40.32 41.7 40.24"/><polyline class="cls-39" points="48.68 40.24 48.68 40.41 41.7 40.41 41.7 40.32"/><polyline class="cls-40" points="48.68 40.32 48.68 40.5 41.7 40.5 41.7 40.41"/><polyline class="cls-41" points="48.68 40.41 48.68 40.58 41.7 40.58 41.7 40.5"/><polyline class="cls-42" points="48.68 40.5 48.68 40.67 41.7 40.67 41.7 40.58"/><polyline class="cls-43" points="48.68 40.58 48.68 40.76 41.7 40.76 41.7 40.67"/><polyline class="cls-44" points="48.68 40.67 48.68 40.85 41.7 40.85 41.7 40.76"/><polyline class="cls-45" points="48.68 40.76 48.68 40.93 41.7 40.93 41.7 40.85"/><polyline class="cls-46" points="48.68 40.85 48.68 41.02 41.7 41.02 41.7 40.93"/><polyline class="cls-47" points="48.68 40.93 48.68 41.11 41.7 41.11 41.7 41.02"/><polyline class="cls-48" points="48.68 41.02 48.68 41.2 41.7 41.2 41.7 41.11"/><polyline class="cls-49" points="48.68 41.11 48.68 41.28 41.7 41.28 41.7 41.2"/><polyline class="cls-50" points="48.68 41.2 48.68 41.37 41.7 41.37 41.7 41.28"/><polyline class="cls-51" points="48.68 41.28 48.68 41.46 41.7 41.46 41.7 41.37"/><polyline class="cls-52" points="48.68 41.37 48.68 41.54 41.7 41.54 41.7 41.46"/><polyline class="cls-53" points="48.68 41.46 48.68 41.63 41.7 41.63 41.7 41.54"/><polyline class="cls-54" points="48.68 41.54 48.68 41.72 41.7 41.72 41.7 41.63"/><polyline class="cls-55" points="48.68 41.63 48.68 41.8 41.7 41.8 41.7 41.72"/><polyline class="cls-56" points="48.68 41.72 48.68 41.89 41.7 41.89 41.7 41.8"/><polyline class="cls-57" points="48.68 41.8 48.68 41.98 41.7 41.98 41.7 41.89"/><polyline class="cls-58" points="48.68 41.89 48.68 42.07 41.7 42.07 41.7 41.98"/><polyline class="cls-59" points="48.68 41.98 48.68 42.15 41.7 42.15 41.7 42.07"/><polyline class="cls-60" points="48.68 42.07 48.68 42.24 41.7 42.24 41.7 42.15"/><polyline class="cls-61" points="48.68 42.15 48.68 42.33 41.7 42.33 41.7 42.24"/><polyline class="cls-62" points="48.68 42.24 48.68 42.42 41.7 42.42 41.7 42.33"/><polyline class="cls-63" points="48.68 42.33 48.68 42.5 41.7 42.5 41.7 42.42"/><polyline class="cls-64" points="48.68 42.42 48.68 42.59 41.7 42.59 41.7 42.5"/><polyline class="cls-65" points="48.68 42.5 48.68 42.68 41.7 42.68 41.7 42.59"/><polyline class="cls-66" points="48.68 42.59 48.68 42.77 41.7 42.77 41.7 42.68"/><polyline class="cls-67" points="48.68 42.68 48.68 42.85 41.7 42.85 41.7 42.77"/><polyline class="cls-68" points="48.68 42.77 48.68 42.94 41.7 42.94 41.7 42.85"/><polyline class="cls-69" points="48.68 42.85 48.68 43.02 41.7 43.02 41.7 42.94"/><polyline class="cls-70" points="48.68 42.94 48.68 43.12 41.7 43.12 41.7 43.02"/><polyline class="cls-71" points="48.68 43.02 48.68 43.2 41.7 43.2 41.7 43.12"/><polyline class="cls-72" points="48.68 43.12 48.68 43.29 41.7 43.29 41.7 43.2"/><polyline class="cls-73" points="48.68 43.2 48.68 43.38 41.7 43.38 41.7 43.29"/><polyline class="cls-74" points="48.68 43.29 48.68 43.46 41.7 43.46 41.7 43.38"/><polyline class="cls-75" points="48.68 43.38 48.68 43.55 41.7 43.55 41.7 43.46"/><polyline class="cls-76" points="48.68 43.46 48.68 43.64 41.7 43.64 41.7 43.55"/><polyline class="cls-77" points="48.68 43.55 48.68 43.73 41.7 43.73 41.7 43.64"/><polyline class="cls-78" points="48.68 43.64 48.68 43.81 41.7 43.81 41.7 43.73"/><polyline class="cls-79" points="48.68 43.73 48.68 43.9 41.7 43.9 41.7 43.81"/><polyline class="cls-80" points="48.68 43.81 48.68 43.99 41.7 43.99 41.7 43.9"/><polyline class="cls-81" points="48.68 43.9 48.68 44.07 41.7 44.07 41.7 43.99"/><polyline class="cls-82" points="48.68 43.99 48.68 44.16 41.7 44.16 41.7 44.07"/><polyline class="cls-83" points="48.68 44.07 48.68 44.25 41.7 44.25 41.7 44.16"/><polyline class="cls-84" points="48.68 44.16 48.68 44.34 41.7 44.34 41.7 44.25"/><polyline class="cls-85" points="48.68 44.25 48.68 44.42 41.7 44.42 41.7 44.34"/><polyline class="cls-86" points="48.68 44.34 48.68 44.51 41.7 44.51 41.7 44.42"/><polyline class="cls-87" points="48.68 44.42 48.68 44.6 41.7 44.6 41.7 44.51"/><polyline class="cls-88" points="48.68 44.51 48.68 44.69 41.7 44.69 41.7 44.6"/><polyline class="cls-89" points="48.68 44.6 48.68 44.77 41.7 44.77 41.7 44.69"/><polyline class="cls-90" points="48.68 44.69 48.68 44.86 41.7 44.86 41.7 44.77"/><polyline class="cls-91" points="48.68 44.77 48.68 44.95 41.7 44.95 41.7 44.86"/><polyline class="cls-92" points="48.68 44.86 48.68 45.03 41.7 45.03 41.7 44.95"/><polyline class="cls-93" points="48.68 44.95 48.68 45.12 41.7 45.12 41.7 45.03"/><polyline class="cls-94" points="48.68 45.03 48.68 45.12 41.7 45.12 41.7 45.12"/></g><path class="cls-3" d="M44.31,40a1.53,1.53,0,1,1-3.05,0,1.53,1.53,0,0,1,3.05,0Z"/><path class="cls-3" d="M42.83,42.5a.94.94,0,0,1-.87.88.88.88,0,0,1-.87-.88.82.82,0,0,1,.87-.87.87.87,0,0,1,.87.87Z"/><path class="cls-95" d="M52.78,37.79c-1.49-.78-5.24-3.31-10-1.92s-6.71,4.89-6.45,8.73v.17s1.91-6.28,7.67-7.15c6-.88,8.11,2.18,9.43,1.83a12.5,12.5,0,0,0,2.7-1.31,5.58,5.58,0,0,1-3.4-.35Z"/><path class="cls-96" d="M61.32,26a19.22,19.22,0,0,0-2.26-6.53c-.09-.18-.26-.35-.35-.53a14.84,14.84,0,0,0-2.53-2.7,23.17,23.17,0,0,1-2.27-1.75,21.49,21.49,0,0,0-8-2.79,22,22,0,0,0-11.61.78,16.72,16.72,0,0,0-8,6.9C23.9,22.88,23.46,27,23.9,31.08a4.9,4.9,0,0,1-.35,1c-.87,2.88-3.92,5.94-7.06,4.8a.3.3,0,0,0-.26.09,4.5,4.5,0,0,0,1.22,1.66,8.69,8.69,0,0,0,7.76.61.27.27,0,0,0,.17-.09c2.1,1.22,4.8.52,6.89-.44,2.62-1.22,4-3.49,5.68-5.76a13.17,13.17,0,0,1,3.22-3.75,14.25,14.25,0,0,1,3.23-1.65A14.54,14.54,0,0,1,46.23,27a28.83,28.83,0,0,1,7.25-1.4A11.32,11.32,0,0,1,60,27.15c.35.18.78.44,1.22.7a.27.27,0,0,1,.17-.09c0-.61-.09-1.22-.09-1.75Z"/><path class="cls-97" d="M32.1,35.61A24,24,0,0,0,34.72,31a17.94,17.94,0,0,1,1.4-2.27,20.72,20.72,0,0,0-2.45,3.05c-1.31,2-2.44,4.19-4.18,5.76a6.31,6.31,0,0,0,2.61-1.92Z"/><path class="cls-97" d="M31.66,24.88a1.29,1.29,0,0,0-.34.26,9.2,9.2,0,0,0-2.62,3.14,47.59,47.59,0,0,1-3.93,6.46,10.49,10.49,0,0,1-4.45,3.4c3.06-.17,6-2.79,7.42-5.67,1.13-2.27,2.09-5.41,3.92-7.59Z"/><path class="cls-7" d="M23.38,34a4.78,4.78,0,0,0,.7-.61c1.57-1.57,2.09-3.75,3.14-5.58a26.91,26.91,0,0,1,3.66-4.71,34.5,34.5,0,0,1,3.4-2.71,23.33,23.33,0,0,0-3.49,2,16.91,16.91,0,0,0-4.53,4.1c-.27.35-.44.7-.7,1.05A41.12,41.12,0,0,1,24.43,32,13.19,13.19,0,0,1,23.38,34Z"/><path class="cls-9" d="M38.55,22S20.76,1.15,19.63,2.81,30.1,28,30.1,28s.87,2.18,3.83,1.4,7.24-5.24,4.62-7.42Z"/><path class="cls-98" d="M19.8,3c-.61,1,4.89,13.43,10.56,24.86a2.62,2.62,0,0,0,2.44,1.48,4.79,4.79,0,0,0,1.05-.17c1.92-.44,4.62-2.71,5.14-4.8a2,2,0,0,0-.61-2.1C32,14.76,21.37,3,19.8,3Zm13,26.87a3,3,0,0,1-3-1.75C27.91,24.18,18.14,4.38,19.36,2.64a.68.68,0,0,1,.44-.18c.44,0,1.57,0,10.47,9.68,4.36,4.8,8.46,9.6,8.46,9.69a2.41,2.41,0,0,1,.79,2.62c-.53,2.35-3.4,4.79-5.5,5.32a6,6,0,0,1-1.22.09Z"/><path class="cls-98" d="M22.59,4.3c-.09-.09-.17,0-.17.08A25.55,25.55,0,0,1,23.2,8c.18,1.75-.08,3.49,0,5.15,0,.18.18,0,.18,0a14.07,14.07,0,0,0-.79-8.89Z"/><path class="cls-98" d="M26.26,8c-.09-.08-.27,0-.18.09A16.82,16.82,0,0,1,26.87,14a19.66,19.66,0,0,1-.26,3.14,22.7,22.7,0,0,0-.44,2.44c0,.17.26,0,.26,0,1.22-3.31,1.74-8.37-.17-11.52Z"/><path class="cls-98" d="M29.92,23.75a21.08,21.08,0,0,0,1-4.1c.26-2.45.52-5.06-.61-7.33-.09-.09-.26.09-.17.17a16.83,16.83,0,0,1,.34,7.24c-.17,1.14-.43,2.19-.69,3.23a10.89,10.89,0,0,1-1.05,2.8c-.09.25.26.17.34.08a9.82,9.82,0,0,0,.88-2.09Z"/><path class="cls-98" d="M34.8,23c.27-2.18.27-5.06-1.22-6.89,0-.09-.17,0-.17.09,2.09,4.1.78,9.33-.79,13.35-.08.26.18.17.27.08A13.92,13.92,0,0,0,34.8,23Z"/><path class="cls-98" d="M37.16,20.26c-.09-.09-.26.09-.26.17a7.85,7.85,0,0,1,.79,3.41c0,1-.27,2.09-.27,3.14,0,.17.27,0,.27-.09a8.07,8.07,0,0,0-.53-6.63Z"/><path class="cls-9" d="M38.55,22S23.9,4.73,20.32,2.9c2.27,2.35,4.11,5.41,6,8,2.35,3.32,4.7,6.81,6.8,10.21,1.39,2.18,3.05,5.15.61,7.24a5.26,5.26,0,0,1-2.1,1.05,4,4,0,0,0,2.27,0c3-.7,7.24-5.24,4.62-7.42Z"/><path class="cls-9" d="M25,15.55c-1.14-2.62-2.28-5.24-3.32-7.94-.52-1.22-1-2.53-1.57-3.75a9.43,9.43,0,0,1-.35-1.14.27.27,0,0,0-.17.09C18.4,4.56,30.1,28,30.1,28a2.09,2.09,0,0,0,.61.79C29,24.36,27,19.91,25,15.55Z"/><path class="cls-3" d="M68.48,12.67a33.44,33.44,0,0,0-10.21,2.79c-3.66,1.92-7.76,4.8-7.68,9.51a8,8,0,0,0,.61,2.44c2.89-.26,7.86,3.75,8.73,5.93,8.46-4.18,7.5-15.09,8.55-20.67Z"/><path class="cls-99" d="M64.55,13.37a2.14,2.14,0,0,1,2.45,2,28.53,28.53,0,0,1-1.57,9.34A42.91,42.91,0,0,1,63.16,31c5-5.06,4.45-13.61,5.32-18.32-1.31.18-2.62.43-3.93.7Z"/><path class="cls-99" d="M57.92,15.63c-.78.44-1.65,1-2.44,1.49.79-.44,1.57-1,2.44-1.49Z"/><path class="cls-4" d="M68.74,12.41a.3.3,0,0,0-.26-.09,34.7,34.7,0,0,0-10.3,2.88c-5.4,2.7-7.93,5.93-7.85,9.77a5.77,5.77,0,0,0,.53,2.36c.09-.27.17-.62.26-.88A9.31,9.31,0,0,1,51,24.88c-.09-3.57,2.35-6.54,7.5-9.16A31.34,31.34,0,0,1,68.13,13c-.17,1-.26,2.27-.44,3.49-.52,5.75-1.31,12.82-7.32,16.31l-.53.79H60c6.89-3.41,7.67-11.26,8.28-17,.18-1.49.27-2.8.53-3.93a.3.3,0,0,0-.09-.26Z"/><path class="cls-9" d="M60.19,30.9h0c.18,0,.26-.09.44-.09a12.09,12.09,0,0,0,3.14-6c.78-3,.61-6.1,1.31-8.89A6.37,6.37,0,0,0,66.56,15c.09-.08,0-.17-.09-.17-1.39.61-3,1.05-4.36,1.66A26.51,26.51,0,0,0,57,19.65c-1.83,1.48-3.92,4.19-3.75,6.71,0,.18.27,0,.35-.08a2.59,2.59,0,0,1,.18-.88,1.2,1.2,0,0,0,.08.53c.53,1.31,2,1.66,3.14,2.44a5.77,5.77,0,0,1,2,1.83c.26.27.44.61.87.7Z"/><path class="cls-9" d="M58.45,20a36.54,36.54,0,0,1,4.36-2.88c.7-.44,1.57-.79,2.27-1.22h0c.09-.09.09-.09.17-.09a6,6,0,0,0,1.22-.87c-1.48.52-3,1-4.36,1.57A26.51,26.51,0,0,0,57,19.65c-1.83,1.48-3.92,4.19-3.75,6.71,0,.09.18.09.27,0,.43-2.79,2.7-4.8,5-6.36Z"/><path class="cls-100" d="M19.89,55c0,.09,0,.09-.09.17a3,3,0,0,0,.09,1.75,2.4,2.4,0,0,0,.43,1c-1,1.13-1.65,2.35-3.22,2.88a3.9,3.9,0,0,1-4.28-1.66,3.32,3.32,0,0,0,2.44,2.44,9.73,9.73,0,0,0,1.66-.09,6.08,6.08,0,0,0,3.67-3.22,2.3,2.3,0,0,0,2,.78c.09,0,.09-.08.17-.08A5.09,5.09,0,0,1,19.89,55Z"/></g></g></svg>