<svg xmlns="http://www.w3.org/2000/svg" xmlns:xlink="http://www.w3.org/1999/xlink" viewBox="0 0 510.28 757.74"><defs><style>.cls-1,.cls-26{fill:none;}.cls-1{clip-rule:evenodd;}.cls-2,.cls-21{fill:#fefefe;}.cls-3{fill:#fe8786;}.cls-22,.cls-4{fill:#eaebeb;}.cls-5{fill:#bb5f79;}.cls-6{fill:#eeecf3;}.cls-7{fill:#ebe9f3;}.cls-8{fill:#343433;}.cls-9{fill:#403294;}.cls-10{fill:#4e4e4e;}.cls-11{fill:#e11648;}.cls-12{fill:#3d3294;}.cls-13{fill:#c2c2c3;}.cls-14,.cls-23{fill:#fbb244;}.cls-15{fill:#e4a23d;}.cls-16{fill:#b67a1e;}.cls-17{fill:#b34125;}.cls-18{fill:#9e2c17;}.cls-19,.cls-20,.cls-21,.cls-22,.cls-23,.cls-24,.cls-27,.cls-28,.cls-29{fill-rule:evenodd;}.cls-20{fill:#f08025;}.cls-24{fill:#69172c;}.cls-25{clip-path:url(#clip-path);}.cls-26{stroke:#4e4e4e;stroke-miterlimit:10;stroke-width:1.5px;}.cls-27{fill:#f86d70;}.cls-28{fill:#e55452;}.cls-29{fill:#e3e4e4;}</style><clipPath id="clip-path"><path class="cls-1" d="M359.74,357.66s19.59,41.56,19,61.34S367,498.13,367,498.13s3.57,30.47,4.53,34.59S267,574.25,200.08,525.44a8.15,8.15,0,0,1-2.64-9.05c1.93-5.79,22.9-47.21,22.9-47.21s-1.74-7.94.15-13.29L214.33,425s19.37-37.26,1.48-71.66Z"/></clipPath></defs><g id="Layer_2" data-name="Layer 2"><g id="Layer_1-2" data-name="Layer 1"><path class="cls-2" d="M378.48,123l17.7,15.18,18.11,15.52a67.92,67.92,0,0,1,3.57-13.22c3.12-8.42,8.87-18.63,18.89-23.6a29.67,29.67,0,0,1,8.35-2.6h0c.07.74,3.93,28.69,33.33,30.25a22.25,22.25,0,0,0,11.28-2.38c22.12-11.28,27.95-59.15-7.35-83.54-36.81-25.46-80.16,8.72-98.83,50.85a116,116,0,0,0-5,13.54Z"/><path class="cls-3" d="M396.18,138.2l18.11,15.52s4.79-35.37,30.81-39.42a44.68,44.68,0,0,1,1.45-25.72s-35.19-.92-50.37,49.62Z"/><path class="cls-4" d="M467.48,139.58a35.39,35.39,0,0,0,6.9,1.82,20.53,20.53,0,0,0,8.95-2.19,24.32,24.32,0,0,0,5.68-4.13,28.08,28.08,0,0,1-9.47-1.92c-5.12-2-10.8-5.72-16.48-12.47-12.88-15.29-6.75-38-1.85-50.52a3.33,3.33,0,0,0-2-4.34,3.37,3.37,0,0,0-3.23.48c-5.34,4.09-11.84,11.14-15.92,23a30.13,30.13,0,0,1,6.46-.78,44.84,44.84,0,0,0-2,23c.07,0,.11,0,.14,0a3,3,0,0,1,1.41.15,6.29,6.29,0,0,1,.67.37,2.82,2.82,0,0,1,1.08,1.86c.11.89,2.63,19.07,19.67,25.61Z"/><path class="cls-5" d="M436.64,113.93a32,32,0,0,1,7.87-2.3,44.84,44.84,0,0,1,2-23,30.13,30.13,0,0,0-6.46.78,74.93,74.93,0,0,0-3.6,18.22s0,2.45.15,6.35Z"/><path class="cls-4" d="M386.05,111.07C402.6,75.78,440.57,47.94,469,58.89a34.74,34.74,0,0,1,7.65,4c28.87,20.11,27.57,57.3,12.4,72.14a27,27,0,0,0,6.16-.59A35.46,35.46,0,0,0,502.25,122c6.16-18,2.08-44.87-21.41-61.16A49.32,49.32,0,0,0,470.6,55.4c-9.84-3.78-20.3-3.74-31.22.08C418,62.9,397.33,84.8,385.87,110.93a.94.94,0,0,1,.18.14Z"/><path class="cls-6" d="M474.38,141.4a36.13,36.13,0,0,0,4.19.44c6.24.33,12-2.34,16.6-7.35a27,27,0,0,1-6.16.59,24.32,24.32,0,0,1-5.68,4.13,20.53,20.53,0,0,1-8.95,2.19Z"/><path class="cls-7" d="M385.46,112.37c.18-.44.41-.85.59-1.3a.94.94,0,0,0-.18-.14c-.19.44-.38.89-.6,1.33l.19.11Z"/><path class="cls-8" d="M447.73,113.67c-.07-.29-.15-.78-.22-1.18l-.18-1.34c-.15-.89-.23-1.78-.3-2.67-.15-1.82-.26-3.64-.26-5.46a60.36,60.36,0,0,1,1.11-10.87,51.11,51.11,0,0,1,1.38-5.31,50.28,50.28,0,0,1,1.93-5.16,60.48,60.48,0,0,1,5.38-9.76l0,0a.61.61,0,0,0-.19-.78.58.58,0,0,0-.71.08,39.67,39.67,0,0,0-7.34,9.09,49.13,49.13,0,0,0-2.68,5.27,58,58,0,0,0-2,5.6,53.88,53.88,0,0,0-2,11.73,45.29,45.29,0,0,0,0,5.94c0,1,.11,2,.22,3,.08.48.11,1,.19,1.52s.19,1,.3,1.56a2.73,2.73,0,0,0,5.34-1.12v0Z"/><path d="M446.06,111.74a3,3,0,0,0-1.41-.15c-22,3.42-29.76,26.76-32.14,37l-30.88-26.47c9.91-30.91,33.44-58.19,57.75-66.65,14.81-5.2,28.77-3.38,41.46,5.38C504.33,77.15,508.41,104,502.25,122c-4.34,12.77-13.43,20.38-23.68,19.82-27.09-1.45-30.65-26.8-30.76-27.87a2.82,2.82,0,0,0-1.08-1.86,6.29,6.29,0,0,0-.67-.37Zm-32.73,44.54a2.68,2.68,0,0,0,1.93,0,2.65,2.65,0,0,0,1.74-2.19c0-.34,4.5-31,25.95-36.56a43.43,43.43,0,0,0,5.34,12.77c4.53,7.27,13.44,16.11,30,17,12.8.66,24-8.35,29.13-23.5,6.83-19.93,2.38-49.54-23.49-67.39-14-9.69-30-11.81-46.36-6.09C424.24,55,411.22,64.57,399.9,78.08a127.9,127.9,0,0,0-24,44.17,2.67,2.67,0,0,0,.82,2.85l35.85,30.7a2.09,2.09,0,0,0,.78.48Z"/><path class="cls-2" d="M164.56,67.43a179.36,179.36,0,0,1,49.25,50.07l1.67,2.63c2.86,4.45,5.53,9.09,8.05,14l32.14-20.48,5.53-3.49s-1.48-5.42-4.64-13.81c-6.68-17.92-20.93-49.43-44.31-70.59C177.88-5.35,158.4.1,145.74,12.91s-9.91,35,18.82,54.52Z"/><path class="cls-3" d="M179.44,63.83c11.92,9.17,30.4,32,42.13,47.24,6.64,8.61,11.13,14.81,11.13,14.81l13.47-14.77s-20.3-43-44.87-65S164.63,23.89,157.58,32.5a8,8,0,0,0-2,6.2c.78,6.42,9.5,14.07,23.86,25.13Z"/><path class="cls-5" d="M231.85,107.92l.74-.56a6.47,6.47,0,0,0,.67-.37c2.44-1.41,4.89-2.74,7.38-4l1.11-.55C234.48,88.69,219,61.94,201.3,46.13,184.19,30.8,173.13,26.05,165.6,27.5a13.43,13.43,0,0,0-8,5,8,8,0,0,0-2,6.2.14.14,0,0,1,.11,0c1.74-.33,32-4.86,76.16,69.26Z"/><path class="cls-4" d="M253.63,97.34a1.15,1.15,0,0,0,.37-.15c-6.64-17.7-20.74-48.8-43.61-69.47C188.61,8,173.73,3.85,163.19,5.86c-6.72,1.3-11.69,5.08-15.52,9a21.24,21.24,0,0,0-6.38,14.62,26.22,26.22,0,0,1,4.9-6.94c4.6-4.64,10.13-8.35,17-9.65,11.88-2.26,27.69,2.75,49.55,22.46,20,18.11,33.32,43.75,40.93,62Z"/><path class="cls-7" d="M254.37,99.08l.26-.1c-.18-.56-.41-1.16-.63-1.79a1.15,1.15,0,0,1-.37.15c.26.6.49,1.19.74,1.74Z"/><path d="M258,108.88l-33.44,21.31a183,183,0,0,0-58.49-65c-14.84-10-23.6-21.71-24.68-32.8a21.34,21.34,0,0,1,6.27-17.52c9.84-9.95,27-19.41,62.72,12.88C240.16,54.59,255,99.16,258,108.88Zm-34,27.88a3.36,3.36,0,0,0,1-.37l37.63-24a2.78,2.78,0,0,0,1.19-3c-.63-2.19-15.22-54.49-49.77-85.7C184.64-2.9,161.67-7.06,143.81,11A26.94,26.94,0,0,0,136,32.91c1.23,12.7,10.84,25.76,27,36.78a177.66,177.66,0,0,1,58.12,65.66,2.68,2.68,0,0,0,1.71,1.37,2.79,2.79,0,0,0,1.22,0Z"/><path class="cls-2" d="M166.79,235.92c-6.68,72,52.33,114.28,129.26,121.4s142.67-23.57,149.35-95.57-48.25-158-125.19-165.19S173.47,163.92,166.79,235.92Z"/><path class="cls-9" d="M320.17,97C398.38,104.25,451.48,191.5,445,261.72c-6.09,65.65-64.54,103-148.9,95.19s-135-55.3-128.9-121c6.54-70.22,74.75-146.23,153-138.95ZM296,357.73c39.72,3.67,74.75-2.6,101.25-18.19,28.58-16.77,45.39-43.64,48.54-77.75,3.27-35.22-8.46-75.3-31.32-107.18-24.6-34.33-58.08-55.08-94.23-58.45s-72.89,10.91-103.4,40.12c-28.31,27.16-47.21,64.38-50.47,99.61-3.16,34.1,8.38,63.61,33.4,85.36,23.23,20.19,56.49,32.8,96.23,36.48Z"/><path class="cls-4" d="M296.09,356.91c84.36,7.8,142.81-29.54,148.9-95.19a135.31,135.31,0,0,0,.29-19.86c-16.44,57-76.45,81.06-145.48,74.67S176.21,275.45,170.54,216.4A138.2,138.2,0,0,0,167.19,236c-6.08,65.65,44.5,113.12,128.9,121Z"/><path class="cls-9" d="M296.05,357.32c76.94,7.13,142.67-23.57,149.35-95.57a133.81,133.81,0,0,0,.22-21.11c-.11.4-.22.81-.34,1.22a135.31,135.31,0,0,1-.29,19.86c-6.09,65.65-64.54,103-148.9,95.19s-135-55.3-128.9-121a138.2,138.2,0,0,1,3.35-19.56c0-.4-.08-.85-.12-1.3a140.13,140.13,0,0,0-3.63,20.82c-6.68,72,52.33,114.28,129.26,121.4Z"/><path d="M320.17,100.09c76.5,7.12,128.46,92.6,122.07,161.44-5.94,63.8-63.05,100.1-145.6,92.45s-132-53.85-126.14-117.65C176.88,167.52,243.65,93,320.17,100.09ZM296,360.85c40.35,3.71,76-2.71,103.07-18.6,29.47-17.29,46.76-45,50-80.09,3.3-35.92-8.61-76.75-31.88-109.22a154.16,154.16,0,0,0-41.94-40.45c-17.11-11-35.44-17.49-54.48-19.23a120.43,120.43,0,0,0-57.12,8.87A155,155,0,0,0,215,134.2c-28.83,27.64-48.06,65.58-51.4,101.5-3.23,35.11,8.69,65.51,34.44,87.92,23.72,20.6,57.57,33.48,97.94,37.23Z"/><path class="cls-10" d="M323.11,286.36a23.84,23.84,0,0,0,10-1.22c7.8-2.71,13.44-9.32,15.81-18.52a3.45,3.45,0,0,0-6.68-1.75c-1.78,6.94-5.83,11.8-11.39,13.77A17,17,0,0,1,310,270.07a18.32,18.32,0,0,1-1.53-9.61,26.32,26.32,0,0,1,.75-4.16,3.49,3.49,0,0,0-2.49-4.19,3.4,3.4,0,0,0-4.19,2.48,29.54,29.54,0,0,0-.93,5.2A24.85,24.85,0,0,0,303.77,273a23.71,23.71,0,0,0,19.34,13.36Z"/><path class="cls-10" d="M272,278.12s-1,16.22,5.71,22.31a30.09,30.09,0,0,1,46.88,4.34L332,292.15l.78-8.39-.85-1.89c-9.43,3.3-20.63-.89-25.05-10.36-1.93-.14-3.86-.33-5.75-.51a20.48,20.48,0,0,1-27,5.3L272,278.12Z"/><path class="cls-11" d="M276.83,301.58c10.58,14.29,34.66,15.29,47.73,3.19-3-8.87-12.33-14.29-22.23-15.18s-20.94,3.82-25.5,12Z"/><path class="cls-10" d="M282.36,282.54A23.89,23.89,0,0,0,303.92,273a25,25,0,0,0,4.56-12.54,36.08,36.08,0,0,0,0-5.31,3.44,3.44,0,1,0-6.87.44,30.73,30.73,0,0,1,0,4.2,18.29,18.29,0,0,1-3.27,9.16,17.08,17.08,0,0,1-22.41,4.42c-3.45-2.12-7.72-6.5-8.32-15.4a3.44,3.44,0,0,0-3.67-3.19,3.48,3.48,0,0,0-3.23,3.67c.67,9.21,4.79,16.63,11.65,20.78a23.41,23.41,0,0,0,10,3.31Z"/><path class="cls-10" d="M299.76,317.31a33.26,33.26,0,0,0,25.8-8.76c7.05-6.49,11.35-16,12.43-27.5a3.45,3.45,0,0,0-6.87-.63c-.92,9.76-4.45,17.74-10.24,23.09a26.58,26.58,0,0,1-39.34-3.64c-4.71-6.31-6.75-14.81-5.83-24.57a3.48,3.48,0,0,0-3.11-3.75,3.43,3.43,0,0,0-3.75,3.12c-1.08,11.47,1.41,21.6,7.16,29.32a33.5,33.5,0,0,0,23.75,13.32Z"/><path class="cls-10" d="M351.87,260.05a59.47,59.47,0,0,1,.22,6.79c-.26,8.28,5.79,15.4,13.36,15.21a20.68,20.68,0,0,0,2.23-.11c21.42-1.81,37.08-22.78,35-46.8s-21.09-42-42.46-40.15a36.14,36.14,0,0,0-23.2,11.39,15.36,15.36,0,0,0,.6,21.23c7.64,7.39,13.06,19,14.21,32.44Z"/><path class="cls-10" d="M259.35,247.69a59.42,59.42,0,0,0-1.41,6.6c-1.3,8.24-8.54,14.11-16,12.55-.74-.15-1.45-.34-2.19-.52-20.67-5.75-32.25-29.21-25.8-52.44s28.4-37.41,49.11-31.66a36.08,36.08,0,0,1,20.7,15.44c4.38,6.75,2.27,16.29-4.49,20.78-8.87,5.87-16.36,16.26-20,29.25Z"/><path class="cls-2" d="M345.45,118.68c10.43-46.39-37.15-60.34-28.35-22-4.87-11.55-23.46-11.77-10.51,10-13.28-18.18-25.46-2.74-13.8,7.31Z"/><path class="cls-9" d="M292.49,114.34l.56-.63c-4.27-3.71-5-7.91-4.27-10.62a5.73,5.73,0,0,1,4.49-4.3c3.93-.71,8.68,2.26,13,8.17l.67-.49c-5.64-9.46-4.75-13.66-3.71-15.33a4.32,4.32,0,0,1,4.2-1.85s.07,0,.11,0c3,.26,7.16,2.71,9.13,7.46l.81-.26c-2.26-9.73-.92-17.08,3.57-20.16,3.45-2.33,8.46-1.85,13.06,1.3,8.05,5.46,15.74,19.45,10.91,40.9l.82.19c4.9-21.86-3-36.15-11.25-41.79-4.93-3.31-10.28-3.82-14-1.26-4.34,3-5.94,9.57-4.45,18.29a12.42,12.42,0,0,0-8.5-5.53h-.11a5.15,5.15,0,0,0-5,2.23c-1.6,2.6-1,6.94,1.7,12.51-3.78-4-7.71-5.87-11.13-5.24a6.6,6.6,0,0,0-5.16,4.9c-.78,3,0,7.5,4.53,11.47Z"/><path class="cls-12" d="M248.06,230c2.16.18,4.12-2.08,4.42-5.13s-1.26-5.6-3.41-5.79-4.12,2.08-4.38,5.09,1.22,5.6,3.37,5.83Zm7.5-20.19c8.31.78,14.29,9.61,13.32,19.78s-8.42,17.77-16.73,17-14.29-9.61-13.36-19.78,8.46-17.77,16.77-17Z"/><path class="cls-2" d="M244.69,224.16c-.3,3,1.22,5.6,3.37,5.83s4.12-2.08,4.42-5.13-1.26-5.6-3.41-5.79-4.12,2.08-4.38,5.09Z"/><path class="cls-9" d="M249.07,219.26c2,.19,3.48,2.71,3.23,5.6s-2.16,5.09-4.24,4.9-3.45-2.71-3.19-5.6,2.16-5.09,4.2-4.9Zm-1,10.91c2.26.19,4.34-2.15,4.64-5.27s-1.34-5.83-3.57-6.05-4.34,2.15-4.63,5.27,1.33,5.83,3.56,6Z"/><path class="cls-12" d="M355.43,239.93c2.16.19,4.16-2.08,4.42-5.12s-1.26-5.6-3.41-5.79-4.12,2.08-4.39,5.08,1.23,5.61,3.38,5.83Zm7.5-20.19c8.31.78,14.29,9.65,13.36,19.78s-8.46,17.78-16.77,17-14.29-9.61-13.33-19.78,8.43-17.78,16.74-17Z"/><path class="cls-2" d="M352.05,234.1c-.29,3,1.23,5.61,3.38,5.83s4.16-2.08,4.42-5.12-1.26-5.6-3.41-5.79-4.12,2.08-4.39,5.08Z"/><path class="cls-9" d="M356.44,229.21c2,.18,3.48,2.71,3.23,5.6s-2.16,5.12-4.2,4.9S352,237,352.24,234.1s2.15-5.08,4.2-4.89Zm-1,10.91c2.27.22,4.35-2.16,4.61-5.27s-1.3-5.83-3.57-6-4.34,2.16-4.6,5.24,1.3,5.83,3.56,6.05Z"/><path class="cls-13" d="M409.06,205a9.89,9.89,0,0,1,7.35,4,10,10,0,0,1,1.52,8.2c-6.46,29.1-24.12,44.5-48.43,42.24s-38.86-20.64-39.86-50.4a9.75,9.75,0,0,1,10.95-10.39Zm-40.27,61.87c12.7,1.15,24.43-1.93,33.89-9,11-8.24,18.63-21.38,22.56-39.08a17.16,17.16,0,0,0-15.47-21.27l-68.51-6.35a17.2,17.2,0,0,0-19.12,18.08c.63,18.11,5.68,32.44,15,42.53,8,8.69,18.93,13.88,31.62,15.07Z"/><path class="cls-13" d="M280.28,193a9.69,9.69,0,0,1,8.87,12.21c-6.5,29.06-24.16,44.46-48.43,42.2s-38.86-20.6-39.9-50.4a10.17,10.17,0,0,1,3-7.79,10,10,0,0,1,7.94-2.57ZM240,254.89c12.69,1.19,24.42-1.93,33.89-9,11-8.24,18.59-21.38,22.56-39A17.26,17.26,0,0,0,281,185.56l-68.51-6.35a17.26,17.26,0,0,0-19.11,18.08c.63,18.11,5.68,32.44,15,42.53,8,8.68,19,13.88,31.66,15.07Z"/><path class="cls-13" d="M290.74,216.29a3.78,3.78,0,0,0,3.05-1.11c5.71-5.94,10.95-8.72,15.62-8.28s9.32,4.12,13.81,11a3.75,3.75,0,0,0,6.27-4.12c-5.83-8.84-12.36-13.66-19.41-14.33s-14.32,2.89-21.67,10.54a3.74,3.74,0,0,0,.11,5.27,3.59,3.59,0,0,0,2.22,1Z"/><path class="cls-13" d="M179.55,200.41,196.81,202a3.74,3.74,0,0,0,4.05-3.38,3.7,3.7,0,0,0-3.38-4.08L180.22,193a3.73,3.73,0,0,0-.67,7.43Z"/><path class="cls-13" d="M421.94,222.9l17.26,1.59a3.75,3.75,0,0,0,.7-7.46l-17.25-1.59a3.75,3.75,0,1,0-.71,7.46Z"/><path class="cls-2" d="M346.9,86.5c8.68-38.52-30.81-50.1-23.53-18.29-4.05-9.58-19.49-9.76-8.69,8.35-11.06-15.07-21.15-2.3-11.5,6.09Z"/><path class="cls-9" d="M303,82.91l.44-.52c-3.52-3.09-4.16-6.57-3.56-8.84A4.78,4.78,0,0,1,303.59,70c3.26-.59,7.2,1.85,10.8,6.76l.59-.38C310.3,68.5,311.05,65,311.9,63.64a3.54,3.54,0,0,1,3.49-1.52h.07a9.85,9.85,0,0,1,7.57,6.2l.67-.22c-1.85-8.06-.78-14.14,3-16.7,2.86-2,7-1.56,10.84,1.07,6.68,4.53,13.06,16.15,9.05,34l.67.15c4.08-18.15-2.45-30-9.31-34.7-4.09-2.75-8.54-3.16-11.62-1-3.64,2.45-4.94,7.94-3.71,15.18a10.2,10.2,0,0,0-7.09-4.57s0,0-.07,0a4.23,4.23,0,0,0-4.12,1.85c-1.34,2.15-.82,5.79,1.41,10.36-3.16-3.27-6.39-4.83-9.24-4.31a5.35,5.35,0,0,0-4.27,4.08c-.67,2.42,0,6.2,3.75,9.51Z"/><path d="M302.92,85.47a2.78,2.78,0,0,0,2.45-1,2.9,2.9,0,0,0-.3-4c-2.67-2.31-3.19-4.72-2.78-6.24a2.27,2.27,0,0,1,1.78-1.74c1.71-.34,4.82,1,8.31,5.75a2.79,2.79,0,0,0,3.86.7,2.84,2.84,0,0,0,.89-3.85C313.5,69,313.46,65.87,314,65c.19-.3.56-.41,1.16-.33,1.85.11,4.37,1.81,5.56,4.64a2.86,2.86,0,0,0,5.42-1.75c-1.59-6.9-.85-12.17,1.93-14.07,2-1.37,5.05-.92,8,1.08,6,4.08,11.76,14.74,8,31.32a2.85,2.85,0,1,0,5.56,1.27c4.38-19.41-2.86-32.22-10.35-37.34-5-3.34-10.51-3.75-14.48-1-2.08,1.45-5,4.64-5.23,11.32a11.27,11.27,0,0,0-4-1.15,6.74,6.74,0,0,0-6.46,3,8.78,8.78,0,0,0-1.07,5.41,9.73,9.73,0,0,0-5.09-.52,8,8,0,0,0-6.23,5.91c-1.08,4,.67,8.68,4.56,12.06a2.68,2.68,0,0,0,1.6.67Z"/><path class="cls-14" d="M296.87,95.34c4.53-46.47,27.5-82.25,35-81.5S355,54.11,350.5,100.57L331.09,75.11,320.4,76.37l-4.75,13.22-9.21-.3Z"/><path class="cls-15" d="M315.2,65.39c1,.48,2.86-.93,4.83-3A37.44,37.44,0,0,0,330,41c.67-5.23.82-10.57-1-11.39a1.41,1.41,0,0,0-1.11,0C323.44,31,310,54.85,314.68,64.79a1,1,0,0,0,.52.6Z"/><path class="cls-16" d="M332.91,78.26a43.25,43.25,0,0,1,14.92-4.93c-.12-1.63-.23-3.23-.37-4.79a72.5,72.5,0,0,1-15.37,9,9.77,9.77,0,0,1,.82.74Zm-9.39-5.52c.55.18,1.11.41,1.63.63A65.1,65.1,0,0,0,346.6,61,153.12,153.12,0,0,0,343,42.15a91.92,91.92,0,0,0-6.83-18.85,176.3,176.3,0,0,1,3.46,27.28,22,22,0,0,1-16.07,22.16Z"/><path d="M295.57,98.23a2.68,2.68,0,0,0,1,.26A3.13,3.13,0,0,0,300,95.64a169.37,169.37,0,0,1,15.52-56.16c7.75-16.07,14.29-22,16-22.45,1.6.82,6.87,7.83,11.39,25.12a169.18,169.18,0,0,1,4.38,58.12,3.17,3.17,0,1,0,6.31.6c4.38-45-10.21-89.11-21.49-90.19-8.38-.81-18.78,18.78-21.74,24.79A176.18,176.18,0,0,0,293.71,95a3.19,3.19,0,0,0,1.86,3.19Z"/><path d="M304.85,56.66a2.71,2.71,0,0,0,1.48.3c1.08-.07,26.84-1.59,40.79-18.41a3.13,3.13,0,0,0-.45-4.45,3.17,3.17,0,0,0-4.45.41c-12.13,14.66-36,16.11-36.22,16.11a3.16,3.16,0,0,0-1.15,6Z"/><path d="M292.45,117.46a3.45,3.45,0,0,0,2.56-6c-3.19-2.79-3.82-5.72-3.34-7.5a2.74,2.74,0,0,1,2.15-2.12c2.08-.4,5.83,1.23,10,6.95a3.43,3.43,0,0,0,5.71-3.79c-4.34-7.35-4.38-11.13-3.71-12.21.19-.33.67-.48,1.37-.41,2.19.19,5.24,2.19,6.68,5.64a3.45,3.45,0,0,0,6.53-2.11c-1.89-8.32-1-14.66,2.34-17,2.38-1.64,6.09-1.15,9.65,1.3,7.28,4.89,14.14,17.74,9.65,37.7a3.45,3.45,0,0,0,2.6,4.12,3.41,3.41,0,0,0,4.12-2.6c5.27-23.34-3.41-38.82-12.47-44.94-6-4-12.66-4.53-17.44-1.26-2.53,1.71-6.05,5.56-6.31,13.62a12.53,12.53,0,0,0-4.83-1.37A8,8,0,0,0,300,89.1a10,10,0,0,0-1.3,6.5,11.7,11.7,0,0,0-6.13-.6,9.58,9.58,0,0,0-7.53,7.09c-1.34,4.9.78,10.47,5.49,14.55a3.55,3.55,0,0,0,1.93.82Z"/><path class="cls-12" d="M282,246.39c-.67,7.39,9.54,14.36,22.86,15.59s24.65-3.75,25.32-11.14-9.84-11.28-23.12-12.51-24.39.67-25.06,8.06Z"/><path class="cls-17" d="M200.86,534.06s-15.14,29-48.07,22.41c-32.21-6.42-40.71-51.55-61-68.51-27.54-23-67.73-24.09-85.29,14.47-17.81,39.12,24.94,67.07,47.84,59.2,13.51-4.6,17.6-14.66,9.39-25.87s-25.57-3.34-30-14.62,10.09-28.62,30.2-18.48,37.64,48.58,55.79,64.91c16.92,15.29,43,18.85,64,10.2,25-10.31,35.26-27.39,35.26-27.39Z"/><path class="cls-18" d="M199.6,566.45c-2-3.26-3.79-6.45-5.39-9.53A104.41,104.41,0,0,1,175,568.24a66.35,66.35,0,0,1-46.39,3.15c15.66,9.8,36.4,11.62,54.26,4.27a88.14,88.14,0,0,0,16.74-9.21Z"/><path class="cls-18" d="M63.09,553.61a10.69,10.69,0,0,0,2.08-3.74c1.19-3.75,0-8.17-3.3-12.77a14,14,0,0,0-8.24-5.16c3.6,6.53,3,12.69-1.19,17.67A27.4,27.4,0,0,1,41.19,557a26.51,26.51,0,0,1-6.9,1.6c6.83,2.33,13.77,2.78,19.3.89,4.27-1.45,7.46-3.45,9.5-5.87Z"/><path d="M216,550.72c-3.15,4.34-13.51,16.85-33.1,24.94-20.82,8.57-45.58,4.64-61.61-9.8-7.39-6.64-14.62-17-22.31-28-10.69-15.33-21.75-31.14-34-37.3-10.17-5.12-20.56-4.23-27.8,2.37-5.75,5.24-8,12.88-5.57,19,2.75,7,9.32,7.91,15.66,8.8,5.76.81,11.18,1.56,14.63,6.31s4.49,9,3.3,12.77c-1.3,4.11-5.31,7.45-11.58,9.61-11.36,3.89-28.5-2.12-39-13.66-6.31-7-15.47-21.71-6-42.42,6.94-15.25,18-25,31.92-28.13,16-3.64,34.59,1.78,49.81,14.47,7.38,6.16,13.21,16.33,19.41,27.13,10.13,17.63,21.6,37.67,42.64,41.87,17.89,3.56,30.69-3,38.26-9.25a53.4,53.4,0,0,0,10.77-11.87Zm1,6.16a39.57,39.57,0,0,0,3.94-5.34l1-1.6-21.75-19.6L198.82,533c-.6,1.11-14.78,27.39-45.58,21.23-19-3.79-29.43-22-39.56-39.64-6.39-11.13-12.44-21.68-20.41-28.39-16.34-13.59-36.41-19.38-53.78-15.4C24.09,474.27,12,484.92,4.42,501.47c-7.72,16.89-5.24,34.18,6.79,47.43,11.84,13,30.69,19.45,43.87,14.92,7.72-2.64,12.73-7,14.47-12.58,1.67-5.2.26-11-4-16.85-4.6-6.31-11.55-7.28-17.67-8.17-6.38-.89-10.35-1.67-12-5.94s.11-10,4.38-13.95c5.75-5.23,14.21-5.86,22.64-1.63,11.17,5.64,21.89,21,32.25,35.81,7.83,11.17,15.25,21.79,23,28.76,17.33,15.63,44,19.9,66.43,10.62a84.37,84.37,0,0,0,32.4-23Z"/><path class="cls-19" d="M133.57,445.09q8.56-16,17.26-32c4-7.28,7.94-14.55,12.06-21.72,1.41-2.45,2.82-4.93,4.3-7.34,1.6-2.6,3.23-5.39,6.76-5.65,4-.33,11.8,3.53,15.14,5.61a27.22,27.22,0,0,1,7.79,6.83c3.64,5.08,2.79,15.55,2.23,21.52s-1.48,12.4-2.63,18.41l-.56,2.86-53.37,29.88-10-16.6Z"/><path class="cls-20" d="M139.06,448l1.34,9.53,49.95-28s5.68-29.24,1.49-35.11-15.78-10-17.41-9.87S139.06,448,139.06,448Z"/><path class="cls-19" d="M222.42,346.45a132.34,132.34,0,0,1,12.1,18.67c3.67,6.93,8.2,17.29,4.9,25.08-2.45,5.83-5.53,11.66-8.5,17.26q-5.46,10.35-11.17,20.6l-.82,1.48L176.77,453.7c-8.76,5-15.29,3-20.3,2L172.91,442c11.91-9.91,10.43-40.72-3.38-50L167,390.35l-1.86-23.68,36.12-19.15,18.14-4.93Z"/><path class="cls-21" d="M217.52,350.27l-45.83,20.3L173,386.86c17.19,11.51,17,44.76,4.64,59.16l36.71-21s14.81-26.46,19.37-37.26-16.18-37.48-16.18-37.48Z"/><path class="cls-22" d="M217.52,350.27l-21.08,9.31a198.33,198.33,0,0,0,37.52,21c-2.56-12.43-16.44-30.28-16.44-30.28Z"/><path class="cls-19" d="M422.83,433.51a10.28,10.28,0,0,0,2.12-3.6c2.37-7-3.05-14.36-7.54-19.26a71.73,71.73,0,0,0-10.8-9.8,6.18,6.18,0,0,0-4.52-1.07c-33.33,5-56.83,28.2-63.84,60.87-2.82,13-2.78,27.24,1,40,3.3,11.32,9.87,22.34,20.63,27.95,9.13,4.75,19.26,4.41,28.8,1,27.09-9.8,39.41-31.7,39.75-59.57A119.42,119.42,0,0,0,425,441.53c-.59-2.6-1.3-5.34-2.15-8Z"/><path class="cls-23" d="M403,405.94c5,3.52,24.39,20.56,12.47,25.24,0,0,27.32,72.29-28.94,92.6S319.88,418.41,403,405.94Z"/><path class="cls-21" d="M343.48,466.51c3.12-19.93,13.77-40,33.52-51.59,10.91,2.93,20,5.83,20,5.83,1.19,4.12,8.21,22.9-1.37,20.08,0,0,8.46,25.38-12.54,43.49-15.7,13.55-32.44-3.26-39.57-17.81Z"/><path class="cls-24" d="M424.05,490.56A37,37,0,0,1,414,505.36a43.89,43.89,0,0,0-7-13.24c-9.76-12.1-12.17-27,4.45-17,6.39,3.79,10.58,10.88,12.69,15.48Z"/><path class="cls-24" d="M422.28,456.89a79,79,0,0,1,.74,21.75,37.64,37.64,0,0,0-7.69-10.09c-9.87-8.8-13.91-21,1.41-14.92a24.17,24.17,0,0,1,5.54,3.26Z"/><path class="cls-19" d="M360.37,348.82a22.53,22.53,0,0,0-11.51,5.64c-12.69,11.81-9.42,35.71-5.34,50.59A106.86,106.86,0,0,0,356,434c4.19,6.5,11.28,15,20,13.74a11.81,11.81,0,0,0,3-.86c7.65-3.26,15-9.35,20.64-15.36,8.09-8.65,22-27.73,13.47-39.75a67.93,67.93,0,0,0-9.24-9.87c-4.27-4-8.72-7.84-13.21-11.58-4.12-3.49-8.32-6.91-12.55-10.32s-8.5-6.72-12.8-10l-2.19-1.71Z"/><path class="cls-21" d="M361.48,354.91S400.6,385,408,395.4s-14.17,38.41-31.51,45.8-49.69-79.83-15-86.29Z"/><path class="cls-22" d="M361.48,354.91s-4.41-3.86,5.24,4c5.71,14.77,21,64.8,36,58.82-6.65,9.84-17,19.56-26.21,23.46-3.41,1.48-7.42-.78-11.39-5.35-10.47-21.78-13.84-60.05-14.7-73.59a16.27,16.27,0,0,1,11.06-7.35Z"/><path class="cls-19" d="M282.88,592.66c1.48,0,3,0,4.6-.12.67,13.92,3,35.49,10.43,42.69,7.68,7.42,24.23,8.53,34.14,7,17.52-2.75,30.58-13.44,36.45-30.28,4.75-13.74,6.57-29.1,6.94-43.69a12.55,12.55,0,0,0,3.23-5.9c.85-3.49.33-7.35-.52-10.76a62.15,62.15,0,0,0-3.53-9.87c-.37-4.31-.82-8.72-1.48-12.92a6,6,0,0,0-1.45-3.08L354.54,506a6,6,0,0,0-4.64-2.15c-25.12-.15-50.4.11-75.49.78-16.84.41-33.84,1-50.65,2.41-5.87.49-12,1.08-17.78,2.16-4.16.81-9.76,2-11.92,6.08a145.6,145.6,0,0,0-7.72,18.89c-1.44,4.16-2.82,8.35-4,12.55a70.76,70.76,0,0,0-2.38,9.54,16.64,16.64,0,0,0,4.05,13.8c-.11,4.9,0,9.84.22,14.7.52,11,1.53,22.27,3,33.21a6.52,6.52,0,0,0,.52,1.82c9.32,19.93,55.37,26.17,69.4,9.32,4-4.75,7.65-9.8,11.21-14.85,5-7,9.91-14.32,14.59-21.63Z"/><path class="cls-23" d="M367,529.82s.82,5.27,1.49,13.59h0s5.64,11.35,4.12,17.48c-.63,2.52-2,3.6-3.34,4-.15,14.25-1.71,30.7-6.68,45-11.81,34-52.11,28.8-60.35,20.86s-8.8-45.28-8.8-45.28-7.94,1.53-13.84.71c0,0-16.33,25.76-27.28,38.93s-51.59,8-59-7.94c0,0-4-30.55-3-49.92a9.76,9.76,0,0,1-4.27-10c1.11-7,8.83-30.17,13.51-39s150.31-8.09,150.31-8.09Z"/><path class="cls-20" d="M212.88,630.33c-9-2.53-16.7-7.05-19.56-13.14,0,0-4-30.55-3-49.92a9.76,9.76,0,0,1-4.27-10c1.11-7,8.83-30.17,13.51-39,4.3-8.13,126.92-8.17,147.37-8.09,2.75,9.13,20.31,39,20.31,39s-60,22.9-123.7,15.33c-45.69-5.42-38.42,39.82-30.66,65.88Z"/><path class="cls-21" d="M300.62,628.66c-6.68-10.95-7.17-43.17-7.17-43.17s-7.94,1.53-13.84.71c0,0-16.33,25.76-27.28,38.93a16,16,0,0,1-4.82,3.82c-5.23-3.41-9.47-7.75-5-9.16,8.31-2.57,11.73-22.38,11.17-28.13s-9.57-19.19,6.61-15,39.41,1.93,48.84-1.23,14.18-3.89,13.06.23-7.72,10.46-12.65,15.06-4.12,14.7-4.05,18.26a6.44,6.44,0,0,0,3.31,5.27s-.23,12.07-.78,14l-7.35.37Z"/><path class="cls-24" d="M187.57,564.6c5.23,1,12.8,2.3,19.49,3.15,25.27,3.16,22.93,20,.92,21.12a55,55,0,0,1-17.44-2.3,188.1,188.1,0,0,1-.22-19.3,9.49,9.49,0,0,1-2.75-2.67Z"/><path class="cls-24" d="M190.87,592c3.68.7,9.36,1.7,14.33,2.33,17.89,2.27,16.22,14.29.67,15.11a39.22,39.22,0,0,1-13.66-2c-.45-4.31-1-9.69-1.34-15.4Z"/><path class="cls-19" d="M214.11,455.6a33.41,33.41,0,0,0-.26,12.65c-3.68,7.28-7.31,14.59-10.95,21.93q-3.61,7.31-7.13,14.67c-3.64,7.64-8.57,21.74-4.86,29.54,17.22,36.29,131.57,29.32,165.49,11.73a111.58,111.58,0,0,0,13.32-4.87,31.64,31.64,0,0,0,4.2-2.22c2.59-1.75,4.45-4.42,3.67-7.76a58.06,58.06,0,0,1-.93-5.83c-.48-3.52-.93-7-1.37-10.53-.67-5.54-1.37-11-2-16.56,2.63-13.84,5-27.76,7.2-41.68,1-6.38,2-12.8,2.82-19.22h0s.29-16.18-.64-21.27a.72.72,0,0,0-.85-.55c-.7.11-2.26,8.9-4.64,20.56s-8.13-1-11.17-7.57c-2.34-5.09-13.47-55.3-18.33-77.57l-105.37-3.16C236.86,374.28,227,421.42,226,422.68c-1.37,1.78-9.54,3.26-11.43,3.41A22.62,22.62,0,0,0,209.1,428Z"/><path class="cls-21" d="M359.74,357.66s19.59,41.56,19,61.34S367,498.13,367,498.13s3.57,30.47,4.53,34.59S267,574.25,200.08,525.44a8.15,8.15,0,0,1-2.64-9.05c1.93-5.79,22.9-47.21,22.9-47.21s-1.74-7.94.15-13.29L214.33,425s19.37-37.26,1.48-71.66Z"/><g class="cls-25"><path class="cls-26" d="M298.21,362s11.46,118.39,9,188.61"/></g><path class="cls-22" d="M222.72,375.4a66.45,66.45,0,0,0-6.91-22l112,3.34,27.5,10.76c-48.06,36.6-97.64,25.46-132.6,7.95Z"/><path class="cls-19" d="M275.94,685.66a12.81,12.81,0,0,0-2.3,5.83c-1.27,10.17-1.38,22.38,8.27,28.8,6.61,4.41,21,6,28.88,7,4.3.56,8.68,1,13,1.64a94.73,94.73,0,0,1,9.76,1.67c5.75,1.44,11.8,3.64,17.44,5.45,9.17,3,18.33,5.87,27.61,8.5,7.5,2.15,15.11,4.16,22.79,5.68,6.27,1.26,13.25,2.41,19.67,2.23,8.72-.19,18.93-2,23.9-10,2.78-4.46,2.9-8.61,3.05-13.36a36.17,36.17,0,0,0,4.93-8.69c3.71-9.2,3.68-19.19,1.15-28.69-3.15-11.8-11.43-20.6-22.12-26-6.35-3.23-15.66-6.09-23.2-5.64L373.43,644c.19-3.83.34-7.65.49-11.47.18-4.94.48-10.24.37-15.14a16.55,16.55,0,0,0-5.24-11.1c-.07-.07-.63-14-3.93-4.79-12.8,17.59-65.13,20.19-70.48,2.6a11.37,11.37,0,0,0-9.43,8.09c-.37,1.67-.59,3.64-.85,5.35-.41,2.78-.74,5.56-1.11,8.34-.56,4.24-1.08,8.47-1.63,12.7a17.21,17.21,0,0,0,1.14,8,13.45,13.45,0,0,0-2.11,5c-.89,4.56-1.6,9.2-2.41,13.77-.74,4.34-1.38,9-2.38,13.32a17.11,17.11,0,0,0,.08,7Z"/><path class="cls-27" d="M407.73,666.44c9-1.38,34.59,5.19,40.34,26.87s-6.2,33.33-6.2,33.33c-.41,7.83,1.52,19.07-21,19.63S347.08,727.6,335,724.59s-41.42-4-49.66-9.46-6-19.08-5.53-22.86a5.23,5.23,0,0,1,3.34-4.57s-2-4-1.22-7.68,4.12-23.75,4.78-27.31a6.72,6.72,0,0,1,3.64-4.79s-3.08-4.86-2.59-8.58,3-23.45,3.49-25.71S295,611,295,611c3.49,9.43,43.64,18.82,69.77-2a14.37,14.37,0,0,1,3.3,8.54c.15,5.08-1,30.36-1,30.36Z"/><path class="cls-28" d="M449.52,708c-1,12.21-7.65,18.67-7.65,18.67-.41,7.83,1.52,19.07-21,19.63S347.08,727.6,335,724.59s-41.42-4-49.66-9.46-6-19.08-5.53-22.86a5.23,5.23,0,0,1,3.34-4.57s-2-4-1.22-7.68,4.12-23.75,4.78-27.31a6.72,6.72,0,0,1,3.64-4.79s-3.08-4.86-2.59-8.58,3-23.45,3.49-25.71S295,611,295,611c1.37,3.71,8.46,7.46,18.18,9.32h0s-4.08,1.78-4.9,5.64-2.26,15.47-2.82,19,.52,7.8,2.27,8.32l-.34,3s-7.2.85-7.35,9.91-.4,18.11-.4,18.11,1.22,20.56,22.37,25.5,11.06-6.54,11.06-6.54,17.19.52,43.8,6.83,67.28,10.69,72.67-2.11Z"/><path class="cls-19" d="M283,674.19c.56-1.41-3.45,4.94-4.41,3.75s1.52,7.43-.11,7.91c-3.53,1-2.34,2.37-2.79,5.9-.66,5.31-1.11,10.39.12,15.66,1.07,4.53,3.3,8.54,7.23,11.17,6.2,4.12,20.53,5.75,28,6.68,4.34.56,8.68,1,13,1.64a97.49,97.49,0,0,1,9.95,1.7c2.34.6,4.68,1.34,6.94,2.08,3.56,1.11,7.13,2.26,10.69,3.42,9.13,2.93,18.26,5.82,27.5,8.46,7.46,2.15,15,4.12,22.64,5.64,6.12,1.22,12.95,2.37,19.22,2.23,7.91-.23,17.63-1.71,22.2-9.06,2.89-4.71,2.56-9.32,2.82-14.51.07-1.71,4.75-6.46,3.23-7.2s-1.45-1.23-2.75-.11c-6.94,7.57-22.83,8.05-32.14,6.45A160.92,160.92,0,0,1,398,722.22c-7-1.86-14-3.9-20.93-6-9.13-2.71-18.23-5.49-27.32-8.27-3.41-1-6.83-2.08-10.28-3.05-2.08-.59-4.3-1.26-6.46-1.67-3-.55-6.05-.89-9.05-1.26-3.57-.44-7.16-.89-10.73-1.41a85.11,85.11,0,0,1-14.25-3,27,27,0,0,1-9.09-4.9c-.71-.59-8-8.75-6.91-18.52Z"/><path class="cls-21" d="M441.87,726.64c-.41,7.83,1.52,19.07-21,19.63S347.08,727.6,335,724.59s-41.42-4-49.66-9.46-6-19.08-5.53-22.86a5.23,5.23,0,0,1,3.34-4.57c-1.82,3.53,4.42,10.58,14.59,13.88s26.35,4.24,34.55,5.76,61.05,19.33,81.35,22.75,28.21-3.45,28.21-3.45Z"/><path class="cls-29" d="M328.56,723.33c-13.92-2.15-36.18-3.56-43.2-8.2-8.24-5.49-6-19.08-5.53-22.86a5.23,5.23,0,0,1,3.34-4.57c-1.82,3.53,4.42,10.58,14.59,13.88s26.35,4.24,34.55,5.76c.93.15,2.38.52,4.27,1-.3,0-8.87-2-9.65,1.07-.63,2.41-1.63,9.17,1.63,13.88Z"/><path class="cls-19" d="M256.49,657.16a14.57,14.57,0,0,0,2.3-4.57c1.3-4.38,2.67-8.72,3.93-13.1.82-2.78,1.6-5.6,2.34-8.42a34.47,34.47,0,0,0,1.26-6.46,12.78,12.78,0,0,0-2.63-8.09c-.82-1.08,4.12-3.12,3-3.9-2.71-1.85-.64-5.71-2.64-3.11-11.51,11.76-36,14.29-54.26,8-10.24-3.52-14.84-8.94-17.92-13.4-1.38.6-3.16-.22-4.64,1-3.31,2.67-6.17,8.28-6.69,11.76-.66,4.61-1.55,9.21-2.26,13.81a87.18,87.18,0,0,0-1.22,13.18,65.65,65.65,0,0,0,.63,7.42c-.52,1.37-1.23,2.86-1.86,4.23-1.52.41-3.12.82-4.38,1.15-8.35,2.23-16.74,4.38-25.12,6.53-16.48,4.27-32.29,13.21-37.56,30.43a41.23,41.23,0,0,0-1,19.42,32.76,32.76,0,0,0-1.41,6.6A27.38,27.38,0,0,0,110.45,738c4.93,7.57,15.66,12.13,24,14.7a123.69,123.69,0,0,0,35.3,5c12,0,22.93-3.86,33.1-10a123.5,123.5,0,0,0,11.25-7.84c2.41-1.81,4.86-3.89,7.38-5.56A98.27,98.27,0,0,1,234,727.68c3.52-1.68,7.09-3.27,10.65-4.94a57.43,57.43,0,0,0,7.76-4.12c4.27-3,8.27-8.2,8.27-13.62a96.21,96.21,0,0,0-.44-12.25,14.67,14.67,0,0,0-1.67-5.27,12.44,12.44,0,0,0,1.26-6.9c-.48-3.45-.82-6.94-1.23-10.39s-.77-7.13-1.44-10.47c-.19-.82-.41-1.67-.67-2.56Z"/><path class="cls-27" d="M186.72,617.78c-.56,3.68-3.57,19.45-3.42,25.91s.86,7.46.67,8.35-3,7.2-3,7.2c-.45,1.3,10.5-1.3-33.1,10s-33.59,44.17-33.59,44.17-5.09,11.35,1.33,21.26,30.47,16.85,54.08,16.85,40-16.85,48.28-22.34,26.72-12.77,30.84-15.66,5.65-6.57,5.65-8.5,0-8.09-.41-11.51a10.72,10.72,0,0,0-3.05-5.9s3.05-3.15,2.64-6.2S251.89,665,251,661s-2.19-5.49-2.19-5.49a7,7,0,0,0,4-4.68c1.08-3.67,6.94-21.78,7.09-25.2a33.45,33.45,0,0,0-.33-6.27c-10.39,13.29-57.6,7.42-67.62-5.83-3.72-4.86-5.09,3.12-5.27,4.27Z"/><path class="cls-28" d="M114.61,696a33.23,33.23,0,0,0-.3,17.41s-5.09,11.35,1.33,21.26,30.47,16.85,54.08,16.85,40-16.85,48.28-22.34,26.72-12.77,30.84-15.66,5.65-6.57,5.65-8.5,0-8.09-.41-11.51a10.72,10.72,0,0,0-3.05-5.9s3.05-3.15,2.64-6.2S251.89,665,251,661s-2.19-5.49-2.19-5.49a7,7,0,0,0,4-4.68c1.08-3.67,6.94-21.78,7.09-25.2a33.45,33.45,0,0,0-.33-6.27c-4,5-13.25,7.35-23.79,7.5h0c2.26.44,5.16,3.9,5.3,6s-.33,4.38-1.22,13.18-5.57,11.91-6.46,13.17.74,1.63.74,1.63c7.69,1.3,10.84,18.52.15,22.23s-14.55,9.17-42.53,24.13-37.86,12.21-58.3,7.53c-20-4.56-19-18.22-18.89-18.74Z"/><path class="cls-19" d="M253,676.16c1.11,7.65-7.31,10.69-7.76,10.87-2.71,1.12-5.42,2.16-8.09,3.31-4.27,1.78-8.5,3.67-12.58,5.75a80.65,80.65,0,0,0-12.18,7.42c-10.87,8.39-27.57,19-41.38,21-8.05,1.15-18.37.08-26.35-1.44-10.65-2-28.39-7.06-31.36-19.45-1.56.15-2.22,6.68-2.85,8.09a29.51,29.51,0,0,0-2.08,8.2,25.54,25.54,0,0,0,3.78,17c4.64,7.08,15,11.43,22.86,13.8a120.19,120.19,0,0,0,34.67,4.94c11.62,0,22.19-3.75,32-9.72a122.54,122.54,0,0,0,11.06-7.69c2.45-1.89,4.93-3.93,7.49-5.64a101.25,101.25,0,0,1,12.81-6.83c3.56-1.67,7.09-3.26,10.65-4.93a53.53,53.53,0,0,0,7.46-3.94c3.67-2.56,7.42-7.2,7.42-11.91a109.67,109.67,0,0,0-.44-12c-.37-3,.52-8.77-1.67-10.88-1.27-1.19.44-6.49-1.15-5.72-1,.49-2-1.18-2.34-.22Z"/><path class="cls-21" d="M114.31,713.39s-5.09,11.35,1.33,21.26,30.47,16.85,54.08,16.85,40-16.85,48.28-22.34,26.72-12.77,30.84-15.66,5.65-6.57,5.65-8.5,0-8.09-.41-11.51a10.72,10.72,0,0,0-3.05-5.9s.15,1.49-4.15,3.27-22.31,8.53-31.92,15.92-27.69,19.63-43.35,21.82-49.21-3.15-57.3-15.21Z"/><path class="cls-29" d="M214.92,731.39c1.11-.86,2.16-1.64,3.08-2.23,8.21-5.49,26.72-12.77,30.84-15.66s5.65-6.57,5.65-8.5,0-8.09-.41-11.51a10.72,10.72,0,0,0-3.05-5.9s.15,1.49-4.15,3.27c-3.34,1.37-14.81,5.71-24.27,11,6.79-2.52,10.5,12.51,3.89,17.74a75.44,75.44,0,0,0-11.58,11.77Z"/><path class="cls-19" d="M334.5,511a37,37,0,0,0-1,7.28c-.26,5.64.93,11.17,4.27,15.55-1.3,7,.74,14.7,6.16,19.6a17.57,17.57,0,0,0,8.87,4.15,22.14,22.14,0,0,0,4.75.26,45.58,45.58,0,0,0,7.68-1.11c.86-.15,2.45-.56,3.46-.63.26.11.52.26.81.37,4.9,2.37,10.25,4.75,15.14.7,5.2-4.23,8.73-9.09,8.95-15.7,3.82-6.08,5.64-14,4.23-21.08,3-8,3.93-18.11.67-26.09a27.08,27.08,0,0,0,0-9.16c-1.56-9.54-7.57-17.6-14.66-23.87a30.06,30.06,0,0,0-8.17-5.27,24.23,24.23,0,0,0-20.41.08c-7.16,3.37-12.54,9.61-15.85,16.7-2.19,4.71-3.89,10.91-3.45,16.4a35.6,35.6,0,0,0-2.3,6.09A23.33,23.33,0,0,0,334.5,511Z"/><path class="cls-21" d="M379.56,465.91s-9.84-9.68-21.71-4.15-17.19,21.38-15.44,28.69c0,0-7,10.54-1.26,20,0,0-5.09,14.48,3.48,21.75,0,0-3.86,10.13,3.42,16.67s18.74-.3,22.49,1.33,7.64,4.31,10.13,2.26,7.16-5.89,6.64-12.76c0,0,7.17-9.61,3.94-19.67,0,0,6.46-14.59.59-25,0,0,5.35-13.65-12.28-29.06Z"/><path class="cls-21" d="M377,658.72c8.09-.89,6.79-13.21-1.34-12.36-.07,0-23.79,2.38-31.73,24.35a6.19,6.19,0,1,0,11.65,4.19c5.27-14.59,21.34-16.18,21.42-16.18Z"/><path class="cls-19" d="M383.71,654.9a7.21,7.21,0,0,1-6.57,5.34h0a28.84,28.84,0,0,0-12.73,5.23,21.54,21.54,0,0,0-7.38,10v0a7.54,7.54,0,0,1-3.9,4.34l-.07.08a7.75,7.75,0,0,1-5.9.26h0a7.77,7.77,0,0,1-4.34-3.9l0-.08a7.79,7.79,0,0,1-.3-5.86v-.07c7.94-21.9,30.92-25.09,32.92-25.35.08,0,.19,0,.26,0a7.29,7.29,0,0,1,7.43,3.9,7.93,7.93,0,0,1,.89,3,8.26,8.26,0,0,1-.23,3.16Zm-6.9,2.26a4.28,4.28,0,0,0,3.9-3.12,5.3,5.3,0,0,0,.15-2,5.59,5.59,0,0,0-.56-1.89,4.27,4.27,0,0,0-4.45-2.23h-.08c-1.11.11-22.86,2.78-30.36,23.23,0,.08,0,.15-.07.19a4.6,4.6,0,0,0,.22,3.45v.07a4.66,4.66,0,0,0,2.49,2.27l.26.11a4.66,4.66,0,0,0,3.41-.23l.08,0a4.75,4.75,0,0,0,2.33-2.6h0A24.4,24.4,0,0,1,362.56,663a31.23,31.23,0,0,1,14.25-5.83Z"/><path class="cls-21" d="M388.84,663.69a6.22,6.22,0,0,0-1.19-12.39s-23.79,2-32.14,23.78a6.21,6.21,0,1,0,11.61,4.42c5.53-14.51,21.64-15.81,21.72-15.81Z"/><path class="cls-19" d="M394.22,662.43a7.78,7.78,0,0,1-5.09,2.78h-.22c-.82.12-15.29,1.64-20.34,14.85h0a7.64,7.64,0,0,1-4.08,4.3,7.81,7.81,0,0,1-5.94.19h0a7.84,7.84,0,0,1-4.34-4.08,7.64,7.64,0,0,1-.15-5.94c8.5-22.2,32.21-24.65,33.4-24.76.08,0,.15,0,.19,0h0a7.92,7.92,0,0,1,5.57,1.78A7.71,7.71,0,0,1,396,656.6c0,.11,0,.23,0,.3h0a7.84,7.84,0,0,1-1.78,5.53Zm-5.42-.3a4.72,4.72,0,0,0,3-1.67,4.77,4.77,0,0,0,1-3.41h0a4.66,4.66,0,0,0-1.67-3.16,4.73,4.73,0,0,0-3.38-1h0c-.34,0-22.9,2-30.85,22.79a4.79,4.79,0,0,0,.12,3.57,4.66,4.66,0,0,0,2.6,2.44h0a4.66,4.66,0,0,0,3.56-.11,4.71,4.71,0,0,0,2.45-2.6v0c5.9-15.33,22.86-16.78,23-16.78Z"/><path class="cls-21" d="M401.38,670.26c8.17-.15,7.91-12.58-.26-12.39,0,0-23.9.29-33.7,21.52a6.19,6.19,0,0,0,11.25,5.16c6.53-14.07,22.67-14.29,22.71-14.29Z"/><path class="cls-19" d="M377.26,683.92v0Zm0,0,2.07-.74a1.61,1.61,0,0,0-2.07.74Zm23.9-24.49.18,9.31c-.26,0-17.18.34-24.08,15.18v0a4.61,4.61,0,0,1-2.6,2.41,4.55,4.55,0,0,1-3.49-.11l-.08,0a4.63,4.63,0,0,1-2.3-6.08l0-.08c9-19.48,30.44-20.56,32.22-20.6h.07v0Zm7.23,7.64a7.21,7.21,0,0,1-6.82,4.79h-.19c-.67,0-15.33.48-21.3,13.4h0A7.74,7.74,0,0,1,369.91,689s-.08,0-.11,0A7.75,7.75,0,0,1,366,678.83l0-.11c9.76-21.08,32.81-22.34,34.92-22.41h.19a7.27,7.27,0,0,1,7.16,4.49,8,8,0,0,1,.63,3.11,8.19,8.19,0,0,1-.52,3.12Zm-7.05,1.67h.15a4.19,4.19,0,0,0,4-2.78,5.82,5.82,0,0,0,.33-2,5,5,0,0,0-.4-1.93,4.27,4.27,0,0,0-4.27-2.63h0Z"/><path class="cls-21" d="M176.66,662.73a6.2,6.2,0,1,1-.19-12.4c.08,0,23.9-.59,34.52,20.23a6.2,6.2,0,1,1-11.06,5.6c-7.05-13.8-23.2-13.43-23.27-13.43Z"/><path class="cls-19" d="M176.66,661.17h0a32,32,0,0,1,14.88,4,24.67,24.67,0,0,1,9.76,10.28h0a4.51,4.51,0,0,0,2.71,2.3,4.55,4.55,0,0,0,3.53-.26h0a4.43,4.43,0,0,0,2.3-2.68,4.54,4.54,0,0,0-.23-3.48l0-.08c-9.73-19.07-31.1-19.41-33-19.41,0,0-.11,0-.15,0h0a4.56,4.56,0,0,0-3.26,1.41,4.69,4.69,0,0,0-1.3,3.19v.15h0a4.77,4.77,0,0,0,1.41,3.23,4.64,4.64,0,0,0,3.23,1.3Zm0,3.12h-.11a7.55,7.55,0,0,1-5.35-2.19,7.66,7.66,0,0,1-2.37-5.42h0v0h0v-.15a7.73,7.73,0,0,1,7.61-7.72h.15c2,0,25.12.34,35.73,21,0,.07.08.11.08.18a7.74,7.74,0,0,1-3.34,10.25l-.22.11a7.72,7.72,0,0,1-5.79.41,7.82,7.82,0,0,1-4.53-3.86h0a21.61,21.61,0,0,0-8.54-9,27.65,27.65,0,0,0-13.28-3.59Z"/><path class="cls-21" d="M166.38,670.63a6.21,6.21,0,1,1-.89-12.39c.07,0,23.82-2,35.63,18.18a6.23,6.23,0,0,1-10.77,6.27c-7.83-13.39-23.93-12.06-24-12.06Z"/><path class="cls-19" d="M166.42,672.19a7.8,7.8,0,0,1-8.24-7.2v0a7.8,7.8,0,0,1,7.2-8.27h0c.66-.45,25.42-2.9,37.07,19h0a7.83,7.83,0,0,1-2.82,10.65A7.8,7.8,0,0,1,189,683.47l0-.07c-7.35-12.4-22.31-11.25-22.49-11.21Zm-.23-3.12h.15c1.3-.07,17.26-.81,25.27,12.73,0,0,.08.08.08.11a4.71,4.71,0,0,0,2.86,2.16,4.58,4.58,0,0,0,3.52-.49,4.64,4.64,0,0,0,1.67-6.38h0c-11.2-19.15-33.77-17.44-34.14-17.41h0a4.57,4.57,0,0,0-3.19,1.56,4.84,4.84,0,0,0-1.12,3.34v.15a4.64,4.64,0,0,0,4.9,4.23Z"/><path class="cls-21" d="M155,678.2A6.2,6.2,0,0,1,153,666c.07,0,23.57-4.09,37.11,15A6.19,6.19,0,0,1,180,688.08c-9-12.62-24.9-9.88-24.94-9.88Z"/><path class="cls-19" d="M151.27,675.86a4.67,4.67,0,0,0,3.38.82l.22,0c1.49-.23,17.26-2.27,26.35,10.53h0a4.7,4.7,0,0,0,3,1.9,4.48,4.48,0,0,0,3.45-.78h0a4.68,4.68,0,0,0,1.89-3,4.61,4.61,0,0,0-.74-3.38l-.08-.07c-12.65-17.85-34.47-14.51-35.51-14.36h-.08a4.68,4.68,0,0,0-3.78,5.34v0a4.5,4.5,0,0,0,1.85,3Zm3.94,3.86a7.62,7.62,0,0,1-5.72-1.33,7.76,7.76,0,0,1-3.15-5h0a7.7,7.7,0,0,1,6.38-8.91h0c1.15-.18,24.72-3.75,38.52,15.48a1.5,1.5,0,0,0,.15.26,7.55,7.55,0,0,1,1.22,5.64,7.65,7.65,0,0,1-3.08,5s-.11.08-.14.12a7.84,7.84,0,0,1-5.72,1.26,7.65,7.65,0,0,1-5-3.16h0c-8.39-11.8-23.27-9.31-23.42-9.28Z"/><path class="cls-24" d="M363.89,344.55c-.66-.11-1.4-.29-2.11-.44-1.74-.37-3.49-.78-5.23-1.15-5.64-1.26-11.32-2.49-17-3.64-16.48-3.41-33.07-6.53-49.73-8.94-8.76-1.27-17.56-2.34-26.39-3.08a214.26,214.26,0,0,0-23.9-.86c-9.5.26-26.32,1.53-31,11.51a12.78,12.78,0,0,0-1.19,5.49c0,13.06,15.26,21.23,25.68,25.39,16,6.45,35.22,9.72,52.41,10.83,15.88,1.08,33.4.52,48.88-3.38,11.95-3,25.9-8.87,31.47-20.7a23.79,23.79,0,0,0,2-6.16,4,4,0,0,0-3.86-4.87Z"/><path class="cls-28" d="M363.71,348.67c-8,44.5-152.16,28.65-152.24-5.23,0-32.14,152.17,5.72,152.24,5.23Z"/><path class="cls-24" d="M279.17,461.09a23.22,23.22,0,0,0-.3,9.35c1.34,7.09,6.2,11.54,13.14,13.1,12.43,2.75,32.95,9.1,44.12.78s8.06-25.68,7.58-37.52c-.08-2.11-.45-4.34-.71-6.42-.52-3.41-1-6.83-1.6-10.24q-2.28-13.69-4.78-27.32-4-22.1-8.17-44.24a4.17,4.17,0,0,0-5.16-3.23l-19.52,5.31a4.06,4.06,0,0,0-3,3.12Z"/><path class="cls-28" d="M304.85,364.67l-21.68,97.38s-3.82,14.4,9.77,17.41,31.54,8.39,40.71,1.52,6.31-24.12,5.9-34-15.18-87.63-15.18-87.63Z"/><path class="cls-24" d="M332.68,363.3l-25.38,2.59a4.07,4.07,0,0,0-3.68,3.79c-.92,11.43-1.85,22.9-2.82,34.33-.59,6.94-1.15,13.92-1.78,20.89-.33,4.09-.67,8.28-1.15,12.36-1.33,11,.56,22.08,10.95,28.1,5.68,3.3,14.84,3.63,21.27,3.45,5.6-.19,18.77-1.34,23.49-4.34,7.9-5.05,8.94-14.59,8.09-23.12a43.74,43.74,0,0,0-1.3-6.24c-.78-3-1.67-5.94-2.56-8.87-2.38-7.61-4.9-15.14-7.46-22.68C346,391,341.59,378.44,337,366a4.11,4.11,0,0,0-4.35-2.67Z"/><path class="cls-27" d="M333.13,367.41s23.31,63.66,24.42,74.34-1.67,16.33-6.2,19.19-31,6.31-40.45.85-9.87-16.06-8.91-24S307.74,370,307.74,370Z"/><path class="cls-24" d="M319.47,384.93a22.53,22.53,0,1,0-22.56-22.52,22.58,22.58,0,0,0,22.56,22.52Z"/><path class="cls-27" d="M319.47,380.63a18.23,18.23,0,1,0-18.26-18.22,18.26,18.26,0,0,0,18.26,18.22Z"/><path class="cls-19" d="M299,589.21c1.3-.75,5.42-3.31,3.79-5.31-1.3-1.49-4.16,0-5.9.52-1.15.37-2.23.66-3.45,1a38.79,38.79,0,0,1-7.5.89c-.89,0-1.11,2.53-1.11,3.12s.26,3.12,1.33,3.08a35.77,35.77,0,0,0,8.84-1.59,23,23,0,0,0,4-1.67Z"/><path class="cls-19" d="M274.71,585.12c-1.71-.44-5.38-1.93-6.46-.15-1.11,2.27,3.2,4.27,4.61,5A24.93,24.93,0,0,0,277,591.5a26,26,0,0,0,9.57.86c1.23-.15,1.19-2.45,1-3.27s-.78-3-1.74-2.89a23.8,23.8,0,0,1-7.57-.26c-1.23-.22-2.38-.52-3.57-.82Z"/><path class="cls-19" d="M416.37,426.24a7.94,7.94,0,0,0-2.33-1.56c-.78-.33-1.78-.74-2.27.19-.41.78.15,1.33.67,2s.93,1.19,1.37,1.79a24,24,0,0,1,1.6,2.33,24.63,24.63,0,0,1,2,5.16c.22.74,1.74.6,2.26.48s2-.77,1.71-1.63a21.59,21.59,0,0,0-2.78-6,14.71,14.71,0,0,0-2.27-2.71Z"/><path class="cls-19" d="M303.14,655.86c.86.11,7.94,1.26,7.94-.85-.07-1.52-6-2.26-7.27-2.56-1.78-.45-3.45-.93-5.2-1.49a35.07,35.07,0,0,1-6.71-3,16.6,16.6,0,0,1-3.64-3c-.63-.71-1.89-.48-2.64,0a1.81,1.81,0,0,0-.44,2.78,19.05,19.05,0,0,0,4.64,3.64,35.07,35.07,0,0,0,7.64,3.19,46.8,46.8,0,0,0,5.68,1.3Z"/><path class="cls-19" d="M244.13,657.42c-1.22.3-4.31.59-4.53,1.85-.18,1.82,4.2,1.68,5.12,1.56a17.92,17.92,0,0,0,4.38-1,15.73,15.73,0,0,0,5.72-3.6c.6-.63-.6-1.67-1.08-2-.22-.15-1.74-1.07-2-.78a12.39,12.39,0,0,1-4.12,2.78,27.49,27.49,0,0,1-3.49,1.23Z"/><path class="cls-19" d="M367.09,481.76l1.59.45a33.46,33.46,0,0,1,7.24,3.52c1,.63,2.67,2.3,3.79,1.78,1.55-.89-.71-3.71-1.34-4.49a21.07,21.07,0,0,0-7.87-5.53c-.26-.15-1.52-.59-1.85-.74a27.68,27.68,0,0,0-9.32-1.48,25.56,25.56,0,0,0-12.51,3.41,30.28,30.28,0,0,0-9,7.91c-1.11,1.41-1.41,3.86.34,4.93,1.48,1,3.56.19,4.56-1.11a26.11,26.11,0,0,1,7.13-6.57,20.25,20.25,0,0,1,9.65-2.89,24.67,24.67,0,0,1,7.61.81Z"/><path class="cls-19" d="M367.87,505.85a28.21,28.21,0,0,1,3.78,1.67c2,1.15,7.68,6.16,8.76,5.79,3.26-1.78-5.34-9.21-6.27-9.87a26.81,26.81,0,0,0-4.27-2.42,33.08,33.08,0,0,0-8.76-2.48,29.34,29.34,0,0,0-14.84,1.63,26,26,0,0,0-10.14,7.24c-1.18,1.41-1.63,3.93.15,5,1.45.93,3.53.23,4.61-1a19.53,19.53,0,0,1,7.68-5.68,24,24,0,0,1,11.87-1.63,32.07,32.07,0,0,1,7.43,1.71Z"/><path class="cls-19" d="M367,528.45a41.91,41.91,0,0,1,4.08,1.41c1.7.74,6.9,4.16,8.2,3.3,2.49-2-5.16-6.94-6.12-7.53a30.63,30.63,0,0,0-4.49-2.12,32.34,32.34,0,0,0-7.43-1.85,25.44,25.44,0,0,0-13.39,1.74,21,21,0,0,0-8.84,7.43c-1,1.52-1,3.86.86,4.71a3.6,3.6,0,0,0,4.27-1.19,15.21,15.21,0,0,1,6.23-5.45,19.53,19.53,0,0,1,10.28-1.64,38,38,0,0,1,6.35,1.19Z"/><path class="cls-19" d="M79.16,423.79q10.47-25.16,21-50.36c4.9-11.66,9.76-23.31,14.7-35,1.63-3.86,3.26-7.76,4.93-11.62.41-.93.89-2.23,1.49-3.45-.12-.74-.26-1.52-.38-2.23-.37-2.26-.7-4.53-1-6.83a104.13,104.13,0,0,1-.85-18.92,62.61,62.61,0,0,1,.78-7c2.78-15.88,14.84-26.09,30.47-28.28,11.32-1.6,27.61,1.52,32.4,13.43a16.53,16.53,0,0,1,.89,9.36,129,129,0,0,0,2.93,60.42c.56,2,1.19,4,1.86,6a51.62,51.62,0,0,1-4.27,43.5A62.26,62.26,0,0,1,172.8,407c-.78,15.44-4.57,31.51-14.4,43.72a45.22,45.22,0,0,1-32.14,17.14,48,48,0,0,1-5.75.11,55,55,0,0,1-16.37-3.45c-11.36-4.15-24.5-12.5-33.51-20.74l-1.82-6.46Z"/><path class="cls-21" d="M84.58,427l-9.72,12.21s23.6,21.64,45.9,22.57S165.6,446,166.67,404c0,0,26.69-20.19,15.82-52.62s-7.2-57.86-5-69.56c3.71-19.85-45.8-24.9-51.52,7.73-2.75,15.73,2.3,34.58,1.6,35.25S84.58,427,84.58,427Z"/><path class="cls-22" d="M76,437.71l-1.15,1.48s23.6,21.64,45.9,22.57S165.6,446,166.67,404c0,0,16-12.13,18.19-32.73-.11.52-2.26,7.87-11.62,8.79-9.68,1-10.13-17.29-9.35-21.71l-9.31-28.61-5.24-3.12s7.17,16.29-8.76,20.41a30.42,30.42,0,0,1-1,4.94c-.41.67,4.53.89,4.53.89l.07,3.08s13.85,12.88-.15,29.21l-14.14-4.94-2.67.71s18.33,7.53,17.63,19.74a16.61,16.61,0,0,1-11.36,15.22l-1.82,2.89s7.17,5.5-1.48,18.52-29.36,4.27-29.36,4.27l-8-.3s2.3,2.08-1.52,3.31c-2.34.7-9.36-2-15.33-6.83Z"/><path class="cls-19" d="M157.32,398.44a39.92,39.92,0,0,1,0,10.13c-1.07,8-4.86,14.67-11.28,19a27.61,27.61,0,0,1-.33,5.53c-1.38,8-6.46,13.85-13.62,17.37a26,26,0,0,1-11.81,2.6,35.4,35.4,0,0,1-7.12-.82c-7.17-1.74-17.63-9.13-19-10.05S92,440.46,92,439.93s.52-.63.52-.63l6.53-4-15.26-4.78s-11,6.27-8.9,8.64,9.9,7.8,9.94,7.83c-5.3.78-10.65.64-14.55-3.63-6.38-7-10.68-14.63-8.68-24a50.06,50.06,0,0,1-2.75-9.2c-1.41-7.5-.74-15.1,2.75-21.82a63.32,63.32,0,0,1-.93-12.25c.23-9,2.6-18,8.39-24.9a37.49,37.49,0,0,1,9.13-25.35c9.2-10.58,23.6-15.55,37.26-16.11,15.25-.63,32.4,4.23,42.2,16.63,9.31,11.76,8.94,26.24,4,39.64a36.46,36.46,0,0,1,2.26,9.46,32.28,32.28,0,0,1-6.53,23Z"/><path class="cls-21" d="M154.84,366.16s8.83,16.14-4.16,30.58c0,0,5,20-11.4,27.57,0,0,4.09,13.73-9.94,20.64s-30.51-6.68-37.19-5.61-13.88,3.6-17.29-.15-9.76-10.8-6.68-20.45c0,0-8.58-16.1,0-29.35,0,0-5.79-22.94,7.16-35.89-3.53-54.52,105.44-49.29,79.5,12.66Z"/><path class="cls-22" d="M81,441.16c-2.53.07-4.72-.37-6.16-2-2.49-2.74-6.5-7.16-7.35-13.06,2,6.46,7.94,11.8,13.51,15Zm73.82-75s8.83,16.14-4.16,30.58c0,0,5,20-11.4,27.57,0,0,4.09,13.73-9.94,20.64-9.5,4.63-20.15-.08-28.1-3.27,2.82,1.11,21,7.57,29-4.42,8.65-13,1.48-18.52,1.48-18.52l1.82-2.89a16.61,16.61,0,0,0,11.36-15.22c.7-12.21-17.63-19.74-17.63-19.74l2.67-.71,14.14,4.94c14-16.33.15-29.21.15-29.21l-.07-3.08s-4.94-.22-4.53-.89a30.42,30.42,0,0,0,1-4.94c15.55-4,9.1-19.59,8.76-20.41,9.17,8.35,13,21.56,5.5,39.57Z"/><path class="cls-19" d="M226.13,473.89c1.41.9,5.09,2.49,4.64,4.35-.67,2.26-5.57.18-6.76-.34a23.7,23.7,0,0,1-4.48-2.63,14.06,14.06,0,0,1-4.24-4.87,9.42,9.42,0,0,1-1-3.26,8.14,8.14,0,0,1-.07-1.67c.11-1.41,1.93-1.52,3-1.22.44.14,2.45,1,2.41,1.63v.7a4.3,4.3,0,0,0,.41,1.52,10.36,10.36,0,0,0,2.63,3.31,30.63,30.63,0,0,0,3.49,2.48Z"/><path class="cls-19" d="M219.78,407.54c.38-1.64,2.23-13.14,4-13.22,2.33.15.63,12.92.44,14.1a57.54,57.54,0,0,1-2.89,11.06c-2,4.83-4.12,8.73-7.91,12.36a2.44,2.44,0,0,1-3.67-.33,2.71,2.71,0,0,1,0-3.56,29.79,29.79,0,0,0,6.9-10.36,68.6,68.6,0,0,0,3.19-10Z"/><path class="cls-19" d="M133.38,349.6c-.81-.37-1.63-.7-2.48-1-2-.67-11.1-2.41-11.39-3.78-.15-3.57,11.61-1.23,12.91-.93a27.45,27.45,0,0,1,2.89.89,51.2,51.2,0,0,1,10.28,5.08A52.86,52.86,0,0,1,156.51,359a33.6,33.6,0,0,1,5.12,7.53,2.89,2.89,0,0,1-1.75,4.2,3.33,3.33,0,0,1-3.89-1.56,27.46,27.46,0,0,0-4.05-6.16,48.69,48.69,0,0,0-9.5-8.39,58.6,58.6,0,0,0-9.06-5Z"/><path class="cls-19" d="M123.62,379.78c-3.45-1-6.79-1.67-10.28-2.46-.92-.33-4.82-.55-4.82-2.11s4.15-1.6,5.2-1.63a51.7,51.7,0,0,1,11.13,1.11,65.52,65.52,0,0,1,14.29,4.75,44.23,44.23,0,0,1,11.21,7.35,28.31,28.31,0,0,1,5.53,7.16c.85,1.63.63,4.08-1.38,4.71a3.61,3.61,0,0,1-4.15-1.85,21,21,0,0,0-4.24-5.6,38.17,38.17,0,0,0-9.53-6.57,72.53,72.53,0,0,0-13-4.86Z"/><path class="cls-19" d="M111,411.54c-1.94-.37-14.92-1.7-15.11-4,0-3.15,14.7-1.37,16-1.18a74.07,74.07,0,0,1,12.77,2.82,43.6,43.6,0,0,1,14,7,24.07,24.07,0,0,1,5.12,5.45,18.34,18.34,0,0,1,1.48,2.79c.75,1.78.41,4.45-1.81,4.82a4,4,0,0,1-3.9-2.37,17.38,17.38,0,0,0-1-1.9,17.78,17.78,0,0,0-3.72-4.08,38.52,38.52,0,0,0-11.95-6.27A89.22,89.22,0,0,0,111,411.54Z"/><path class="cls-19" d="M97.72,446.65a2.25,2.25,0,0,1-.45.11c-1,.3-2.08.86-2.93.15-1.19-1.11.71-2.56,1.52-3.15.08-.08.56-.3.67-.37a8.62,8.62,0,0,1,2.64-.74,10.44,10.44,0,0,1,6,1.11c.67.37-.07,1.78-.37,2.19s-1.26,1.63-1.63,1.44a6.84,6.84,0,0,0-3.68-.92,10.39,10.39,0,0,0-1.74.18Z"/><path class="cls-19" d="M69.11,410.91c1.52-.63,4.34-1.37,4.71,1,.29,1.78-.93,2.52-2.16,3.56-.59.48-1.15,1-1.7,1.49a18.53,18.53,0,0,0-3,3.56c-.29.41-2.67-1-3-1.15s-2.59-1.71-2.15-2.38a20.6,20.6,0,0,1,4.6-4.53,14.51,14.51,0,0,1,2.72-1.52Z"/><path class="cls-19" d="M71.89,379.55c1.48-.59,5.3-1.82,5.71.71.26,2-1.82,2.89-3.3,3.93-1,.67-1.86,1.26-2.78,2a26.42,26.42,0,0,0-4.46,4.38c-.37.49-2.63-1-3-1.26s-2.48-1.93-1.85-2.67a27.25,27.25,0,0,1,5.94-5.12,19.36,19.36,0,0,1,3.71-2Z"/><path class="cls-19" d="M79.83,344.11c1.49-.37,6.27-1.12,6.12,1.63-.14,1.89-2.67,2.49-4.34,3.27-.7.37-1.37.7-2,1.11a26.63,26.63,0,0,0-6,5.38c-.64.78-2.72-.52-3.23-.93-.67-.52-2.27-2.19-1.49-3.11a25.64,25.64,0,0,1,8-6.24,15.79,15.79,0,0,1,2.93-1.11Z"/><path class="cls-19" d="M165.71,401.08s0-.11,0-.15c-.14-1.63-1.59-4-.14-5.31,2-1.78,4.3,2.19,5,3.56a.9.9,0,0,1,.08.19,20.46,20.46,0,0,1,1.48,5.34,58.93,58.93,0,0,1,.37,7.24c0,.63-2.71.67-3.12.67s-3.11-.08-3.11-.82a53.33,53.33,0,0,0,.07-6.45,24.05,24.05,0,0,0-.63-4.27Z"/><path class="cls-24" d="M364.08,605.28A30.34,30.34,0,0,1,354,606.65c-13.73-.82-15.22-12.66.59-14.88,4.53-.67,9.69-1.71,12.92-2.38a119,119,0,0,1-3.38,15.89Zm6.09-40.76a4.68,4.68,0,0,1-.89.41c-.08,5.72-.34,11.81-1,18a43.58,43.58,0,0,1-17.9,3.23c-18.44-1-20.37-16.29.79-19.18,6.94-1,14.95-1.56,19-2.42Z"/></g></g></svg>