<svg xmlns="http://www.w3.org/2000/svg" xmlns:xlink="http://www.w3.org/1999/xlink" viewBox="0 0 508.55 755.17"><defs><style>.cls-1,.cls-26{fill:none;}.cls-1{clip-rule:evenodd;}.cls-2,.cls-21{fill:#fefefe;}.cls-3{fill:#fe8786;}.cls-22,.cls-4{fill:#eaebeb;}.cls-5{fill:#bb5f79;}.cls-6{fill:#eeecf3;}.cls-7{fill:#ebe9f3;}.cls-8{fill:#343433;}.cls-9{fill:#403294;}.cls-10{fill:#4e4e4e;}.cls-11{fill:#e11648;}.cls-12{fill:#3d3294;}.cls-13{fill:#c2c2c3;}.cls-14,.cls-23{fill:#fbb244;}.cls-15{fill:#e4a23d;}.cls-16{fill:#b67a1e;}.cls-17{fill:#b34125;}.cls-18{fill:#9e2c17;}.cls-19,.cls-20,.cls-21,.cls-22,.cls-23,.cls-24,.cls-27,.cls-28,.cls-29{fill-rule:evenodd;}.cls-20{fill:#f08025;}.cls-24{fill:#69172c;}.cls-25{clip-path:url(#clip-path);}.cls-26{stroke:#4e4e4e;stroke-miterlimit:10;stroke-width:1.5px;}.cls-27{fill:#f86d70;}.cls-28{fill:#e55452;}.cls-29{fill:#e3e4e4;}</style><clipPath id="clip-path"><path class="cls-1" d="M358.52,356.44s19.53,41.43,19,61.15-11.73,78.85-11.73,78.85,3.55,30.37,4.51,34.47S266.09,572.3,199.4,523.67a8.15,8.15,0,0,1-2.63-9c1.93-5.77,22.83-47.05,22.83-47.05s-1.74-7.92.14-13.24l-6.14-30.77s19.31-37.14,1.48-71.43Z"/></clipPath></defs><g id="Layer_2" data-name="Layer 2"><g id="Layer_1-2" data-name="Layer 1"><path class="cls-2" d="M377.2,122.61l17.64,15.13,18.05,15.46A68.12,68.12,0,0,1,416.44,140c3.11-8.4,8.84-18.57,18.83-23.53a29.13,29.13,0,0,1,8.32-2.58h0c.08.74,3.92,28.59,33.22,30.14a22.1,22.1,0,0,0,11.24-2.37c22.05-11.24,27.85-58.95-7.32-83.26-36.69-25.37-79.9,8.7-98.5,50.68a117.11,117.11,0,0,0-5,13.5Z"/><path class="cls-3" d="M394.84,137.74l18.05,15.46s4.77-35.25,30.7-39.28A44.55,44.55,0,0,1,445,88.28s-35.06-.92-50.19,49.46Z"/><path class="cls-4" d="M465.9,139.11a35.71,35.71,0,0,0,6.88,1.81,20.35,20.35,0,0,0,8.91-2.19,24.37,24.37,0,0,0,5.66-4.1,27.92,27.92,0,0,1-9.43-1.92c-5.11-2-10.77-5.7-16.43-12.43-12.83-15.24-6.73-37.91-1.85-50.34a3.35,3.35,0,0,0-5.17-3.85c-5.33,4.07-11.8,11.1-15.87,23a29.9,29.9,0,0,1,6.43-.78,44.84,44.84,0,0,0-2,23,.22.22,0,0,0,.15,0,3,3,0,0,1,1.4.14,6.29,6.29,0,0,1,.67.37,2.82,2.82,0,0,1,1.07,1.85c.11.89,2.63,19,19.61,25.53Z"/><path class="cls-5" d="M435.16,113.55a31.84,31.84,0,0,1,7.84-2.3,44.84,44.84,0,0,1,2-23,29.9,29.9,0,0,0-6.43.78A74.91,74.91,0,0,0,435,107.22s0,2.44.15,6.33Z"/><path class="cls-4" d="M384.74,110.7c16.5-35.18,54.34-62.92,82.63-52a34.23,34.23,0,0,1,7.62,4c28.78,20,27.49,57.11,12.36,71.91a26.79,26.79,0,0,0,6.14-.59,35.48,35.48,0,0,0,7.06-12.43c6.14-18,2.07-44.72-21.34-61A48.71,48.71,0,0,0,469,55.22c-9.8-3.78-20.23-3.74-31.1.07-21.27,7.4-41.91,29.22-53.34,55.26a.71.71,0,0,1,.18.15Z"/><path class="cls-6" d="M472.78,140.92a35.78,35.78,0,0,0,4.17.44c6.22.33,12-2.33,16.54-7.32a26.79,26.79,0,0,1-6.14.59,24.37,24.37,0,0,1-5.66,4.1,20.35,20.35,0,0,1-8.91,2.19Z"/><path class="cls-7" d="M384.15,112c.19-.44.41-.85.59-1.29a.71.71,0,0,0-.18-.15c-.18.44-.37.89-.59,1.33l.18.11Z"/><path class="cls-8" d="M446.22,113.29c-.08-.3-.15-.78-.22-1.19l-.19-1.33c-.15-.89-.22-1.77-.29-2.66-.15-1.81-.26-3.63-.26-5.44a59.22,59.22,0,0,1,1.1-10.84c.38-1.77.82-3.55,1.38-5.29a54.28,54.28,0,0,1,1.92-5.14A61.3,61.3,0,0,1,455,71.67l0,0a.6.6,0,0,0-.19-.78.55.55,0,0,0-.7.08A39.43,39.43,0,0,0,446.85,80a50.66,50.66,0,0,0-2.67,5.25c-.74,1.81-1.4,3.7-2,5.59a54,54,0,0,0-2,11.68,45,45,0,0,0,0,5.92c0,1,.11,2,.22,3,.07.48.11,1,.18,1.51s.19,1,.3,1.56a2.72,2.72,0,1,0,5.33-1.11v0Z"/><path d="M444.55,111.36a3,3,0,0,0-1.4-.14c-21.9,3.4-29.66,26.66-32,36.87l-30.78-26.37c9.88-30.81,33.33-58,57.56-66.43,14.75-5.18,28.66-3.37,41.31,5.36,23.41,16.24,27.48,43,21.34,61-4.32,12.72-13.39,20.31-23.6,19.75-27-1.44-30.55-26.7-30.66-27.78a2.82,2.82,0,0,0-1.07-1.85,6.29,6.29,0,0,0-.67-.37Zm-32.62,44.39a2.73,2.73,0,0,0,3.66-2.18c0-.34,4.48-30.89,25.86-36.44a43.58,43.58,0,0,0,5.32,12.73c4.52,7.25,13.39,16,29.89,16.94,12.76.66,23.89-8.32,29-23.41,6.8-19.87,2.36-49.39-23.42-67.18-13.94-9.65-29.92-11.76-46.2-6.06-13.27,4.62-26.26,14.2-37.54,27.67a127.47,127.47,0,0,0-23.93,44,2.68,2.68,0,0,0,.81,2.85l35.73,30.59a2.17,2.17,0,0,0,.78.48Z"/><path class="cls-2" d="M164,67.2a178.82,178.82,0,0,1,49.08,49.9c.56.88,1.12,1.74,1.67,2.62,2.85,4.44,5.51,9.06,8,13.91l32-20.42,5.51-3.47s-1.48-5.4-4.62-13.76C249,78.11,234.83,46.71,211.53,25.63c-34.25-31-53.67-25.52-66.28-12.76S135.37,47.74,164,67.2Z"/><path class="cls-3" d="M178.84,63.61c11.87,9.14,30.29,31.89,42,47.09,6.62,8.58,11.09,14.76,11.09,14.76l13.43-14.73S225.11,67.83,200.62,46,164.08,23.81,157.05,32.4a7.89,7.89,0,0,0-2,6.17c.78,6.4,9.47,14,23.79,25Z"/><path class="cls-5" d="M231.06,107.55c.26-.18.48-.37.74-.55a6.47,6.47,0,0,0,.67-.37c2.44-1.41,4.88-2.74,7.36-4l1.11-.55C233.69,88.39,218.26,61.73,200.62,46,183.57,30.69,172.55,26,165,27.4a13.36,13.36,0,0,0-8,5,7.89,7.89,0,0,0-2,6.17.16.16,0,0,1,.11,0c1.74-.33,31.89-4.84,75.9,69Z"/><path class="cls-4" d="M252.77,97a1.15,1.15,0,0,0,.37-.15c-6.62-17.64-20.67-48.63-43.46-69.24C188,8,173.14,3.84,162.63,5.84c-6.69,1.29-11.65,5.06-15.46,9a21.16,21.16,0,0,0-6.36,14.57,26.23,26.23,0,0,1,4.88-6.91c4.59-4.63,10.1-8.33,16.91-9.62,11.83-2.26,27.59,2.74,49.38,22.38,19.93,18,33.21,43.61,40.79,61.8Z"/><path class="cls-7" d="M253.51,98.75c.08,0,.19-.07.26-.11-.18-.56-.41-1.15-.63-1.78a1.15,1.15,0,0,1-.37.15c.26.6.48,1.19.74,1.74Z"/><path d="M257.14,108.51l-33.33,21.24a182.45,182.45,0,0,0-58.29-64.81c-14.8-10-23.53-21.63-24.6-32.69a21.28,21.28,0,0,1,6.25-17.46c9.8-9.91,26.89-19.35,62.51,12.83,29.67,26.78,44.46,71.2,47.46,80.89Zm-33.85,27.78a2.87,2.87,0,0,0,1-.37L261.76,112a2.75,2.75,0,0,0,1.18-3c-.62-2.18-15.16-54.3-49.6-85.41C184-2.89,161.12-7,143.33,10.94a26.83,26.83,0,0,0-7.81,21.86c1.22,12.65,10.8,25.67,26.93,36.66a176.86,176.86,0,0,1,57.92,65.43,2.66,2.66,0,0,0,2.92,1.4Z"/><path class="cls-2" d="M166.22,235.13c-6.66,71.75,52.15,113.88,128.83,121s142.18-23.49,148.84-95.24S395.8,103.37,319.13,96.24,172.88,163.37,166.22,235.13Z"/><path class="cls-9" d="M319.09,96.68C397,103.89,450,190.85,443.48,260.83c-6.07,65.43-64.32,102.64-148.39,94.87S160.56,300.59,166.63,235.16c6.51-70,74.49-145.73,152.46-138.48ZM295,356.52c39.58,3.66,74.5-2.59,100.9-18.13,28.49-16.72,45.24-43.49,48.38-77.49,3.26-35.1-8.43-75-31.21-106.82-24.52-34.21-57.89-54.89-93.91-58.25s-72.65,10.87-103,40c-28.22,27.08-47.05,64.18-50.31,99.28-3.14,34,8.36,63.39,33.29,85.07,23.16,20.12,56.3,32.7,95.91,36.36Z"/><path class="cls-4" d="M295.09,355.7c84.07,7.77,142.32-29.44,148.39-94.87a135.71,135.71,0,0,0,.3-19.79c-16.39,56.82-76.2,80.78-145,74.42S175.62,274.52,170,215.67a138.87,138.87,0,0,0-3.33,19.49C160.56,300.59,211,347.9,295.09,355.7Z"/><path class="cls-9" d="M295.05,356.11c76.67,7.1,142.18-23.49,148.84-95.24a133.06,133.06,0,0,0,.22-21.05l-.33,1.22a135.71,135.71,0,0,1-.3,19.79c-6.07,65.43-64.32,102.64-148.39,94.87S160.56,300.59,166.63,235.16A138.87,138.87,0,0,1,170,215.67c0-.41-.08-.85-.11-1.3a140.66,140.66,0,0,0-3.63,20.76c-6.66,71.75,52.15,113.88,128.83,121Z"/><path d="M319.09,99.75c76.23,7.1,128,92.28,121.65,160.9-5.92,63.58-62.84,99.75-145.1,92.13S164,299.11,169.92,235.53C176.28,167,242.82,92.68,319.09,99.75ZM295,359.63c40.21,3.69,75.75-2.71,102.72-18.53,29.37-17.24,46.6-44.84,49.86-79.82,3.29-35.81-8.58-76.5-31.78-108.86A153.72,153.72,0,0,0,374,112.1c-17-11-35.32-17.42-54.3-19.16s-38.13,1.19-56.92,8.84a154.82,154.82,0,0,0-48.5,32c-28.73,27.56-47.89,65.36-51.22,101.16-3.22,35,8.65,65.29,34.32,87.63,23.64,20.53,57.37,33.36,97.61,37.1Z"/><path class="cls-10" d="M322,285.39a23.52,23.52,0,0,0,9.95-1.22c7.77-2.7,13.39-9.28,15.76-18.46a3.44,3.44,0,0,0-6.66-1.74c-1.77,6.92-5.8,11.77-11.35,13.73A16.89,16.89,0,0,1,309,269.15a18.17,18.17,0,0,1-1.52-9.58,25,25,0,0,1,.74-4.14,3.48,3.48,0,0,0-2.48-4.18,3.41,3.41,0,0,0-4.18,2.48,30.05,30.05,0,0,0-.92,5.18,24.75,24.75,0,0,0,2.14,13.16A23.63,23.63,0,0,0,322,285.39Z"/><path class="cls-10" d="M271.05,277.18s-1,16.16,5.69,22.23a30,30,0,0,1,46.72,4.33l7.43-12.58.78-8.36-.85-1.89c-9.4,3.3-20.57-.88-25-10.31-1.92-.15-3.85-.34-5.73-.52a20.41,20.41,0,0,1-26.89,5.29l-2.18,1.81Z"/><path class="cls-11" d="M275.89,300.56c10.54,14.24,34.55,15.23,47.57,3.18-3-8.84-12.28-14.24-22.16-15.13s-20.86,3.81-25.41,11.95Z"/><path class="cls-10" d="M281.4,281.58a23.79,23.79,0,0,0,21.49-9.51,24.84,24.84,0,0,0,4.55-12.5,35.79,35.79,0,0,0,0-5.29,3.43,3.43,0,1,0-6.85.45,30.45,30.45,0,0,1,0,4.18,18.18,18.18,0,0,1-3.26,9.13,17,17,0,0,1-22.34,4.4c-3.44-2.1-7.69-6.47-8.28-15.34a3.45,3.45,0,0,0-6.88.48c.66,9.17,4.77,16.57,11.61,20.71a23.35,23.35,0,0,0,9.95,3.29Z"/><path class="cls-10" d="M298.75,316.24a33.17,33.17,0,0,0,25.7-8.73c7-6.47,11.32-15.94,12.4-27.41a3.44,3.44,0,0,0-6.85-.63c-.92,9.73-4.43,17.68-10.21,23a26.47,26.47,0,0,1-39.2-3.63c-4.7-6.28-6.73-14.75-5.81-24.48a3.47,3.47,0,0,0-3.11-3.74,3.42,3.42,0,0,0-3.73,3.11c-1.07,11.43,1.4,21.53,7.14,29.22a33.4,33.4,0,0,0,23.67,13.28Z"/><path class="cls-10" d="M350.68,259.17a59,59,0,0,1,.22,6.76c-.26,8.25,5.77,15.36,13.32,15.17.74,0,1.48,0,2.22-.11,21.34-1.81,36.95-22.71,34.91-46.64s-21-41.84-42.31-40a36,36,0,0,0-23.12,11.35,15.33,15.33,0,0,0,.59,21.16c7.62,7.36,13,18.94,14.17,32.33Z"/><path class="cls-10" d="M258.47,246.85a64,64,0,0,0-1.41,6.58c-1.29,8.21-8.5,14.06-15.9,12.5-.74-.14-1.44-.33-2.18-.51-20.61-5.74-32.15-29.11-25.71-52.27s28.3-37.28,48.93-31.55A36,36,0,0,1,282.84,197c4.37,6.73,2.26,16.24-4.47,20.71-8.84,5.85-16.31,16.2-19.9,29.15Z"/><path class="cls-2" d="M344.28,118.28c10.39-46.23-37-60.14-28.26-22-4.84-11.5-23.37-11.72-10.46,10-13.25-18.12-25.38-2.73-13.76,7.29Z"/><path class="cls-9" d="M291.5,114l.55-.63c-4.25-3.69-5-7.87-4.25-10.57a5.72,5.72,0,0,1,4.48-4.3c3.92-.7,8.65,2.26,13,8.14l.66-.48c-5.62-9.43-4.73-13.61-3.69-15.27A4.26,4.26,0,0,1,306.4,89s.08,0,.12,0c3,.26,7.13,2.7,9.09,7.44l.82-.26c-2.26-9.69-.93-17,3.55-20.09,3.44-2.33,8.43-1.85,13,1.3,8,5.44,15.68,19.38,10.87,40.76l.82.19c4.88-21.79-3-36-11.21-41.65-4.92-3.29-10.25-3.81-14-1.26-4.33,3-5.92,9.54-4.44,18.23a12.37,12.37,0,0,0-8.47-5.51h-.11a5.13,5.13,0,0,0-5,2.22c-1.59,2.59-1,6.92,1.7,12.47-3.77-4-7.69-5.85-11.09-5.22a6.54,6.54,0,0,0-5.14,4.88c-.78,3,0,7.48,4.51,11.43Z"/><path class="cls-12" d="M247.22,229.21c2.15.18,4.11-2.08,4.41-5.11s-1.26-5.58-3.41-5.77-4.1,2.07-4.36,5.07,1.22,5.58,3.36,5.81Zm7.48-20.12c8.28.77,14.24,9.58,13.27,19.71s-8.39,17.72-16.68,16.94S237.05,236.16,238,226s8.43-17.72,16.72-16.94Z"/><path class="cls-2" d="M243.86,223.4c-.3,3,1.22,5.58,3.36,5.81s4.11-2.08,4.41-5.11-1.26-5.58-3.41-5.77-4.1,2.07-4.36,5.07Z"/><path class="cls-9" d="M248.22,218.52c2,.18,3.48,2.7,3.22,5.58s-2.14,5.07-4.22,4.88-3.44-2.7-3.18-5.58,2.15-5.07,4.18-4.88Zm-1,10.87c2.25.19,4.33-2.14,4.62-5.25s-1.33-5.81-3.55-6-4.33,2.14-4.62,5.25,1.33,5.81,3.55,6Z"/><path class="cls-12" d="M354.23,239.12c2.15.18,4.14-2.07,4.4-5.11s-1.26-5.58-3.4-5.77-4.11,2.08-4.37,5.07,1.22,5.59,3.37,5.81ZM361.7,219c8.29.78,14.24,9.61,13.32,19.71s-8.44,17.72-16.72,16.94-14.24-9.58-13.28-19.71,8.4-17.72,16.68-16.94Z"/><path class="cls-2" d="M350.86,233.31c-.29,3,1.22,5.59,3.37,5.81s4.14-2.07,4.4-5.11-1.26-5.58-3.4-5.77-4.11,2.08-4.37,5.07Z"/><path class="cls-9" d="M355.23,228.43c2,.18,3.48,2.7,3.22,5.58s-2.15,5.11-4.18,4.89-3.48-2.67-3.22-5.59,2.14-5.07,4.18-4.88Zm-1,10.87c2.26.23,4.33-2.14,4.59-5.25s-1.3-5.81-3.55-6-4.33,2.15-4.59,5.22,1.29,5.8,3.55,6Z"/><path class="cls-13" d="M407.68,204.28a9.84,9.84,0,0,1,7.32,3.95,10,10,0,0,1,1.52,8.18c-6.44,29-24,44.35-48.27,42.09s-38.73-20.57-39.73-50.23a9.7,9.7,0,0,1,10.91-10.35Zm-40.13,61.65c12.65,1.15,24.33-1.92,33.77-8.95,11-8.21,18.56-21.3,22.48-38.94a17.1,17.1,0,0,0-15.42-21.2l-68.28-6.32a17.14,17.14,0,0,0-19.05,18c.63,18.05,5.66,32.33,15,42.39,8,8.65,18.87,13.83,31.52,15Z"/><path class="cls-13" d="M279.33,192.37a9.65,9.65,0,0,1,8.84,12.17c-6.47,29-24.08,44.31-48.27,42.05s-38.73-20.53-39.76-50.23a10.22,10.22,0,0,1,3-7.77,10,10,0,0,1,7.92-2.55ZM239.2,254c12.65,1.18,24.34-1.93,33.77-9,11-8.21,18.53-21.3,22.49-38.91A17.21,17.21,0,0,0,280,184.93l-68.28-6.32a17.17,17.17,0,0,0-19,18c.62,18,5.65,32.33,14.94,42.39,8,8.65,18.9,13.83,31.55,15Z"/><path class="cls-13" d="M289.76,215.56a3.77,3.77,0,0,0,3-1.11c5.7-5.92,10.92-8.69,15.58-8.25s9.28,4.11,13.76,11a3.74,3.74,0,0,0,5.17,1.07,3.79,3.79,0,0,0,1.08-5.18c-5.81-8.8-12.32-13.61-19.35-14.27s-14.28,2.88-21.6,10.5a3.73,3.73,0,0,0,.11,5.25,3.59,3.59,0,0,0,2.22,1Z"/><path class="cls-13" d="M179,199.73l17.19,1.63a3.74,3.74,0,0,0,4-3.37,3.7,3.7,0,0,0-3.37-4.07l-17.2-1.59a3.71,3.71,0,1,0-.66,7.4Z"/><path class="cls-13" d="M420.51,222.14l17.2,1.59a3.73,3.73,0,1,0,.7-7.43l-17.2-1.59a3.73,3.73,0,0,0-.7,7.43Z"/><path class="cls-2" d="M345.72,86.21C354.38,47.82,315,36.28,322.27,68c-4-9.55-19.41-9.73-8.65,8.32-11-15-21.09-2.3-11.47,6.07Z"/><path class="cls-9" d="M301.93,82.63l.44-.52c-3.51-3.07-4.14-6.55-3.55-8.81a4.8,4.8,0,0,1,3.74-3.55c3.25-.59,7.17,1.85,10.76,6.73l.59-.37c-4.66-7.84-3.92-11.31-3.07-12.68a3.53,3.53,0,0,1,3.48-1.52h.07a9.83,9.83,0,0,1,7.55,6.18l.67-.22c-1.85-8-.78-14.1,3-16.65,2.84-2,7-1.55,10.8,1.08,6.65,4.51,13,16.08,9,33.84l.67.15c4.06-18.09-2.45-29.93-9.29-34.59-4.07-2.73-8.51-3.14-11.57-1-3.63,2.44-4.93,7.91-3.7,15.12a10.17,10.17,0,0,0-7.07-4.54s0,0-.07,0a4.25,4.25,0,0,0-4.11,1.85c-1.33,2.14-.81,5.77,1.41,10.32-3.15-3.26-6.36-4.81-9.21-4.29a5.34,5.34,0,0,0-4.26,4.07c-.66,2.4,0,6.17,3.74,9.47Z"/><path d="M301.89,85.18a2.75,2.75,0,0,0,2.44-1,2.9,2.9,0,0,0-.29-4c-2.66-2.29-3.18-4.69-2.78-6.21A2.3,2.3,0,0,1,303,72.23c1.7-.33,4.81,1,8.28,5.73a2.79,2.79,0,0,0,3.85.71,2.84,2.84,0,0,0,.89-3.85c-3.63-6.07-3.66-9.17-3.11-10.06.19-.3.56-.41,1.15-.33,1.85.11,4.36,1.81,5.55,4.62a2.84,2.84,0,0,0,5.4-1.74c-1.59-6.88-.85-12.13,1.92-14,2-1.37,5-.92,8,1.08,6,4.06,11.72,14.68,8,31.21a2.85,2.85,0,1,0,5.55,1.26c4.36-19.34-2.85-32.1-10.32-37.21-5-3.33-10.47-3.73-14.43-1-2.07,1.44-5,4.62-5.21,11.28a11.22,11.22,0,0,0-4-1.15,6.71,6.71,0,0,0-6.43,3,8.81,8.81,0,0,0-1.08,5.4,9.51,9.51,0,0,0-5.06-.52,8,8,0,0,0-6.22,5.88c-1.07,4,.67,8.66,4.55,12a2.68,2.68,0,0,0,1.59.67Z"/><path class="cls-14" d="M295.86,95c4.52-46.3,27.41-82,34.88-81.22s23.08,40.13,18.57,86.44L330,74.86l-10.66,1.25-4.73,13.17L305.41,89Z"/><path class="cls-15" d="M314.14,65.17c1,.48,2.84-.93,4.8-3a37.28,37.28,0,0,0,9.92-21.34c.66-5.22.81-10.55-1-11.36a1.46,1.46,0,0,0-1.11,0c-4.4,1.37-17.79,25.19-13.13,35.1a1,1,0,0,0,.52.6Z"/><path class="cls-16" d="M331.78,78a43,43,0,0,1,14.87-4.92c-.11-1.63-.22-3.22-.37-4.77a72,72,0,0,1-15.32,9,7.21,7.21,0,0,1,.82.74Zm-9.36-5.51c.56.18,1.11.41,1.63.63a64.75,64.75,0,0,0,21.38-12.36A154.16,154.16,0,0,0,341.8,42,91.63,91.63,0,0,0,335,23.22a175.19,175.19,0,0,1,3.44,27.19,21.89,21.89,0,0,1-16,22.08Z"/><path d="M294.57,97.9a2.83,2.83,0,0,0,1,.26A3.14,3.14,0,0,0,299,95.31a168.86,168.86,0,0,1,15.46-56c7.73-16,14.24-21.9,16-22.38,1.59.82,6.84,7.81,11.35,25a168.6,168.6,0,0,1,4.37,57.92,3.16,3.16,0,0,0,6.29.6c4.36-44.87-10.18-88.81-21.42-89.88-8.36-.82-18.72,18.71-21.68,24.7a175.71,175.71,0,0,0-16.64,59.37,3.18,3.18,0,0,0,1.85,3.18Z"/><path d="M303.82,56.47a2.69,2.69,0,0,0,1.48.3C306.37,56.7,332,55.18,346,38.42A3.12,3.12,0,0,0,345.5,34a3.16,3.16,0,0,0-4.44.4C329,49,305.18,50.44,305,50.44a3.2,3.2,0,0,0-3,3.33,3.16,3.16,0,0,0,1.85,2.7Z"/><path d="M291.46,117.06a3.43,3.43,0,0,0,2.55-6c-3.18-2.77-3.8-5.69-3.32-7.47a2.69,2.69,0,0,1,2.14-2.11c2.07-.41,5.81,1.22,10,6.92a3.42,3.42,0,0,0,5.69-3.77c-4.32-7.33-4.36-11.1-3.69-12.18.18-.33.66-.48,1.36-.4,2.19.18,5.22,2.18,6.66,5.62a3.44,3.44,0,0,0,6.51-2.11c-1.89-8.28-1-14.61,2.33-16.9,2.37-1.63,6.07-1.15,9.62,1.29,7.25,4.89,14.09,17.69,9.61,37.58a3.44,3.44,0,0,0,6.7,1.52c5.25-23.27-3.4-38.69-12.43-44.79-5.95-4-12.61-4.51-17.38-1.26-2.52,1.7-6,5.55-6.29,13.57a12.65,12.65,0,0,0-4.81-1.36A8,8,0,0,0,299,88.8a10,10,0,0,0-1.29,6.47,11.71,11.71,0,0,0-6.11-.59,9.53,9.53,0,0,0-7.5,7.07c-1.34,4.88.77,10.43,5.47,14.5a3.4,3.4,0,0,0,1.92.81Z"/><path class="cls-12" d="M281.07,245.56c-.67,7.36,9.5,14.31,22.78,15.53s24.56-3.74,25.23-11.1-9.8-11.24-23.05-12.46-24.3.66-25,8Z"/><path class="cls-17" d="M200.18,532.25s-15.09,28.88-47.9,22.34c-32.11-6.4-40.58-51.38-60.81-68.28-27.44-22.9-67.5-24-85,14.42-17.75,39,24.86,66.84,47.68,59,13.46-4.59,17.53-14.61,9.36-25.78S38,530.62,33.62,519.37,43.68,490.86,63.73,501s37.5,48.42,55.59,64.7c16.87,15.23,42.87,18.79,63.77,10.17,25-10.28,35.14-27.3,35.14-27.3Z"/><path class="cls-18" d="M198.92,564.54c-2-3.26-3.77-6.44-5.37-9.51a104,104,0,0,1-19.15,11.28,66.22,66.22,0,0,1-46.24,3.15c15.61,9.76,36.29,11.57,54.08,4.25a88.06,88.06,0,0,0,16.68-9.17Z"/><path class="cls-18" d="M62.88,551.74A10.82,10.82,0,0,0,65,548c1.18-3.73,0-8.14-3.29-12.72a14,14,0,0,0-8.21-5.14c3.58,6.51,3,12.65-1.19,17.6a27.15,27.15,0,0,1-11.2,7.36,26.05,26.05,0,0,1-6.88,1.59c6.8,2.33,13.72,2.78,19.23.89,4.25-1.44,7.43-3.44,9.47-5.84Z"/><path d="M215.23,548.85c-3.14,4.33-13.46,16.8-33,24.86-20.75,8.54-45.42,4.62-61.4-9.77-7.36-6.62-14.57-17-22.23-27.88C88,520.78,76.93,505,64.73,498.88c-10.14-5.1-20.49-4.21-27.71,2.37-5.73,5.21-8,12.84-5.54,19,2.73,7,9.28,7.88,15.6,8.77,5.74.81,11.14,1.56,14.58,6.29s4.47,9,3.29,12.72c-1.3,4.11-5.29,7.44-11.54,9.58C42.09,561.47,25,555.47,14.57,544c-6.28-7-15.42-21.64-6-42.28,6.92-15.2,17.94-24.89,31.81-28C56.29,470,74.82,475.43,90,488.08c7.36,6.14,13.17,16.28,19.34,27,10.1,17.57,21.53,37.54,42.5,41.72,17.83,3.55,30.59-3,38.14-9.21a53.14,53.14,0,0,0,10.72-11.83Zm1,6.14a37.51,37.51,0,0,0,3.92-5.32l1-1.59-21.68-19.53-1.37,2.62c-.59,1.11-14.72,27.3-45.42,21.16-18.94-3.77-29.33-21.93-39.43-39.5-6.36-11.1-12.39-21.6-20.34-28.3C76.67,471,56.66,465.22,39.35,469.18,24,472.66,11.91,483.27,4.4,499.77-3.29,516.6-.81,533.84,11.17,547c11.8,13,30.59,19.38,43.72,14.87,7.69-2.63,12.69-6.95,14.42-12.54,1.67-5.18.26-11-4-16.79-4.59-6.29-11.51-7.25-17.61-8.14-6.36-.89-10.32-1.66-12-5.92s.11-10,4.36-13.9c5.73-5.22,14.17-5.85,22.56-1.63,11.14,5.62,21.83,20.9,32.15,35.69,7.8,11.14,15.2,21.71,22.93,28.67C135,582.92,161.63,587.17,184,577.93A84.2,84.2,0,0,0,216.27,555Z"/><path class="cls-19" d="M133.12,443.59q8.53-16,17.2-31.92c4-7.25,7.91-14.5,12-21.64,1.4-2.44,2.81-4.92,4.29-7.32,1.59-2.59,3.22-5.37,6.73-5.63,4-.33,11.76,3.52,15.09,5.59a27.33,27.33,0,0,1,7.77,6.8c3.62,5.07,2.77,15.5,2.22,21.46s-1.48,12.35-2.63,18.34l-.55,2.85L142.07,461.9l-9.91-16.54Z"/><path class="cls-20" d="M138.59,446.51l1.33,9.5,49.79-27.92s5.66-29.15,1.48-35-15.72-10-17.35-9.84-35.25,63.25-35.25,63.25Z"/><path class="cls-19" d="M221.67,345.28a131.63,131.63,0,0,1,12.05,18.6c3.67,6.91,8.18,17.24,4.89,25-2.44,5.81-5.52,11.62-8.47,17.2Q224.7,416.4,219,426.61l-.81,1.48-42,24.08c-8.73,5-15.24,3-20.23,2l16.38-13.68c11.88-9.88,10.4-40.58-3.36-49.79L166.44,389l-1.85-23.6,36-19.08,18.09-4.92Z"/><path class="cls-21" d="M216.78,349.08l-45.67,20.24,1.29,16.23c17.12,11.47,16.9,44.61,4.62,59l36.58-20.93s14.76-26.38,19.31-37.14-16.13-37.36-16.13-37.36Z"/><path class="cls-22" d="M216.78,349.08l-21,9.29a197.82,197.82,0,0,0,37.39,20.89c-2.55-12.39-16.39-30.18-16.39-30.18Z"/><path class="cls-19" d="M421.4,432.05a10.3,10.3,0,0,0,2.11-3.59c2.37-7-3-14.32-7.51-19.2a71.13,71.13,0,0,0-10.76-9.76,6.19,6.19,0,0,0-4.52-1.08c-33.21,5-56.62,28.11-63.62,60.66-2.81,12.95-2.77,27.15,1,39.91,3.29,11.29,9.83,22.27,20.56,27.86,9.1,4.73,19.2,4.4,28.7,1,27-9.76,39.28-31.58,39.62-59.36A119,119,0,0,0,423.54,440c-.59-2.59-1.29-5.33-2.14-8Z"/><path class="cls-23" d="M401.65,404.57c5,3.51,24.3,20.49,12.42,25.15,0,0,27.23,72-28.84,92.28S318.8,417,401.65,404.57Z"/><path class="cls-21" d="M342.32,464.93c3.11-19.86,13.72-39.87,33.4-51.41,10.87,2.92,19.9,5.8,19.9,5.8,1.18,4.11,8.17,22.82-1.37,20,0,0,8.43,25.3-12.5,43.35-15.65,13.5-32.33-3.25-39.43-17.75Z"/><path class="cls-24" d="M422.62,488.9a37,37,0,0,1-10.06,14.75,43.53,43.53,0,0,0-7-13.2c-9.73-12.06-12.13-26.93,4.44-17,6.36,3.78,10.54,10.84,12.65,15.43Z"/><path class="cls-24" d="M420.85,455.35a78.81,78.81,0,0,1,.74,21.67A37.94,37.94,0,0,0,413.93,467c-9.84-8.76-13.87-20.93,1.4-14.87a23.68,23.68,0,0,1,5.52,3.26Z"/><path class="cls-19" d="M359.15,347.64a22.45,22.45,0,0,0-11.47,5.62c-12.65,11.76-9.39,35.59-5.32,50.42a106.42,106.42,0,0,0,12.46,28.88c4.18,6.48,11.25,14.91,19.9,13.69a11.67,11.67,0,0,0,3-.85c7.62-3.26,14.91-9.32,20.57-15.31,8.06-8.62,22-27.63,13.42-39.62a68.54,68.54,0,0,0-9.21-9.84c-4.25-3.95-8.69-7.8-13.17-11.54-4.1-3.47-8.28-6.88-12.5-10.28s-8.47-6.69-12.76-10l-2.18-1.7Z"/><path class="cls-21" d="M360.26,353.71s39,30,46.38,40.35-14.13,38.28-31.4,45.64-49.53-79.56-15-86Z"/><path class="cls-22" d="M360.26,353.71s-4.4-3.85,5.21,4c5.7,14.72,21,64.58,35.88,58.63-6.62,9.8-16.94,19.49-26.11,23.37-3.4,1.48-7.4-.77-11.36-5.32-10.43-21.72-13.79-59.85-14.64-73.35a16.24,16.24,0,0,1,11-7.32Z"/><path class="cls-19" d="M281.92,590.65c1.48,0,3,0,4.59-.11.66,13.87,2.95,35.36,10.39,42.53,7.66,7.4,24.15,8.51,34,7,17.46-2.74,30.47-13.4,36.32-30.19,4.73-13.68,6.55-29,6.92-43.53a12.47,12.47,0,0,0,3.22-5.88c.85-3.48.33-7.33-.52-10.73a60.8,60.8,0,0,0-3.52-9.84c-.37-4.29-.81-8.69-1.48-12.87a5.88,5.88,0,0,0-1.44-3.07l-17.09-19.64a6.06,6.06,0,0,0-4.62-2.15c-25-.14-50.23.12-75.23.78-16.8.41-33.74,1-50.49,2.41-5.85.48-11.91,1.07-17.72,2.14-4.14.82-9.73,2-11.87,6.07a143.18,143.18,0,0,0-7.7,18.82c-1.44,4.15-2.81,8.33-4,12.51a70.51,70.51,0,0,0-2.36,9.5,16.55,16.55,0,0,0,4,13.76c-.11,4.88,0,9.8.22,14.65.52,11,1.52,22.19,3,33.1a6.06,6.06,0,0,0,.52,1.81c9.28,19.87,55.18,26.08,69.16,9.29,4-4.74,7.62-9.77,11.17-14.8,5-7,9.88-14.27,14.54-21.56Z"/><path class="cls-23" d="M365.77,528s.81,5.25,1.48,13.54h0s5.62,11.32,4.11,17.42c-.63,2.51-2,3.59-3.33,4-.15,14.2-1.7,30.59-6.66,44.83-11.76,33.92-51.93,28.7-60.14,20.79s-8.77-45.13-8.77-45.13-7.91,1.52-13.8.7c0,0-16.27,25.67-27.18,38.8s-51.41,8-58.81-7.91c0,0-4-30.44-3-49.75a9.74,9.74,0,0,1-4.25-10c1.11-7,8.8-30.07,13.46-38.91s149.8-8.06,149.8-8.06Z"/><path class="cls-20" d="M212.16,628.19c-9-2.51-16.64-7-19.49-13.09,0,0-4-30.44-3-49.75a9.74,9.74,0,0,1-4.25-10c1.11-7,8.8-30.07,13.46-38.91,4.29-8.1,126.5-8.13,146.88-8.06,2.74,9.1,20.23,38.87,20.23,38.87s-59.81,22.82-123.28,15.28c-45.53-5.4-38.28,39.69-30.55,65.65Z"/><path class="cls-21" d="M299.6,626.53c-6.66-10.91-7.14-43-7.14-43s-7.91,1.52-13.8.7c0,0-16.27,25.67-27.18,38.8a16,16,0,0,1-4.81,3.81c-5.22-3.4-9.43-7.73-5-9.13,8.29-2.55,11.69-22.31,11.13-28s-9.54-19.12,6.59-14.9,39.28,1.92,48.67-1.23,14.13-3.88,13,.23-7.69,10.43-12.61,15-4.11,14.65-4,18.2a6.43,6.43,0,0,0,3.29,5.25s-.22,12-.78,13.95l-7.32.37Z"/><path class="cls-24" d="M186.94,562.69c5.21,1,12.76,2.29,19.41,3.14,25.19,3.15,22.86,19.9.93,21a55,55,0,0,1-17.39-2.3,189.59,189.59,0,0,1-.22-19.23,9.47,9.47,0,0,1-2.73-2.66Z"/><path class="cls-24" d="M190.23,590c3.66.7,9.32,1.7,14.27,2.33,17.83,2.26,16.17,14.24.67,15a38.7,38.7,0,0,1-13.61-2c-.45-4.29-1-9.65-1.33-15.35Z"/><path class="cls-19" d="M213.38,454.05a33.66,33.66,0,0,0-.26,12.62q-5.49,10.88-10.91,21.86-3.6,7.26-7.1,14.61c-3.63,7.62-8.55,21.67-4.85,29.44,17.17,36.17,131.12,29.22,164.93,11.69a110.88,110.88,0,0,0,13.28-4.85,31.4,31.4,0,0,0,4.18-2.22c2.59-1.74,4.44-4.4,3.66-7.73-.44-1.77-.66-4-.92-5.8-.48-3.52-.93-7-1.37-10.51-.67-5.51-1.37-11-2-16.5,2.63-13.79,5-27.66,7.18-41.53,1-6.36,2-12.76,2.81-19.16h0s.29-16.13-.63-21.2a.72.72,0,0,0-.85-.55c-.71.11-2.26,8.88-4.63,20.49s-8.09-1-11.13-7.55c-2.33-5.06-13.43-55.11-18.27-77.3l-105-3.14C236.05,373,226.22,420,225.22,421.25c-1.37,1.77-9.51,3.25-11.4,3.4a22.21,22.21,0,0,0-5.43,1.92Z"/><path class="cls-21" d="M358.52,356.44s19.53,41.43,19,61.15-11.73,78.85-11.73,78.85,3.55,30.37,4.51,34.47S266.09,572.3,199.4,523.67a8.15,8.15,0,0,1-2.63-9c1.93-5.77,22.83-47.05,22.83-47.05s-1.74-7.92.14-13.24l-6.14-30.77s19.31-37.14,1.48-71.43Z"/><g class="cls-25"><path class="cls-26" d="M297.2,360.77s11.42,118,9,188"/></g><path class="cls-22" d="M222,374.12a66.27,66.27,0,0,0-6.88-22l111.63,3.33,27.41,10.73c-47.9,36.47-97.32,25.37-132.16,7.91Z"/><path class="cls-19" d="M275,683.34a12.83,12.83,0,0,0-2.29,5.81c-1.26,10.13-1.37,22.3,8.25,28.7,6.58,4.4,20.9,6,28.77,7,4.3.56,8.66,1,12.95,1.63a96.41,96.41,0,0,1,9.73,1.66c5.73,1.45,11.76,3.63,17.38,5.44,9.14,3,18.27,5.84,27.52,8.47,7.47,2.14,15.05,4.14,22.71,5.66,6.25,1.26,13.21,2.4,19.6,2.22,8.7-.19,18.87-2,23.82-10,2.78-4.44,2.89-8.58,3-13.31A36,36,0,0,0,451.4,718c3.7-9.17,3.66-19.12,1.14-28.59-3.14-11.76-11.39-20.53-22-25.93-6.33-3.22-15.61-6.06-23.12-5.62l-35.21-16.05c.18-3.81.33-7.62.48-11.43.18-4.92.48-10.21.37-15.09a16.51,16.51,0,0,0-5.21-11.06c-.08-.08-.63-14-3.93-4.77C351.12,617,299,619.54,293.65,602a11.31,11.31,0,0,0-9.4,8.07c-.37,1.66-.59,3.62-.85,5.32-.41,2.78-.74,5.55-1.11,8.33-.56,4.21-1.07,8.43-1.63,12.65a17.23,17.23,0,0,0,1.15,8,13.21,13.21,0,0,0-2.11,5c-.89,4.55-1.59,9.17-2.4,13.72-.74,4.33-1.37,9-2.37,13.28a17.18,17.18,0,0,0,.07,7Z"/><path class="cls-27" d="M406.35,664.18c9-1.37,34.47,5.18,40.2,26.78s-6.18,33.21-6.18,33.21c-.4,7.81,1.52,19-20.89,19.57s-73.57-18.6-85.59-21.6-41.28-4-49.49-9.43-6-19-5.51-22.79a5.18,5.18,0,0,1,3.33-4.54s-2-4-1.23-7.66,4.11-23.67,4.77-27.22a6.72,6.72,0,0,1,3.63-4.78s-3.07-4.84-2.59-8.54,3-23.38,3.48-25.63,3.7-2.63,3.7-2.63c3.47,9.4,43.5,18.75,69.53-2a14.29,14.29,0,0,1,3.3,8.5c.14,5.07-1,30.26-1,30.26Z"/><path class="cls-28" d="M448,705.57c-1,12.17-7.62,18.6-7.62,18.6-.4,7.81,1.52,19-20.89,19.57s-73.57-18.6-85.59-21.6-41.28-4-49.49-9.43-6-19-5.51-22.79a5.18,5.18,0,0,1,3.33-4.54s-2-4-1.23-7.66,4.11-23.67,4.77-27.22a6.72,6.72,0,0,1,3.63-4.78s-3.07-4.84-2.59-8.54,3-23.38,3.48-25.63,3.7-2.63,3.7-2.63c1.36,3.7,8.43,7.44,18.12,9.29h0s-4.07,1.77-4.88,5.62-2.26,15.42-2.81,18.9.52,7.77,2.25,8.28l-.33,3s-7.17.85-7.32,9.87S298.6,682,298.6,682s1.22,20.49,22.3,25.41,11-6.51,11-6.51,17.12.52,43.64,6.81,67.06,10.65,72.42-2.11Z"/><path class="cls-19" d="M282.07,671.91c.55-1.4-3.44,4.92-4.41,3.74s1.52,7.39-.11,7.87c-3.51,1-2.32,2.37-2.77,5.89-.67,5.29-1.11,10.35.11,15.6,1.07,4.52,3.29,8.51,7.22,11.14,6.17,4.1,20.45,5.73,27.88,6.66,4.33.55,8.66,1,13,1.62a100.07,100.07,0,0,1,9.91,1.71c2.33.59,4.66,1.33,6.92,2.07q5.32,1.66,10.65,3.4c9.1,2.92,18.19,5.81,27.4,8.43,7.44,2.15,15,4.11,22.57,5.62,6.1,1.23,12.91,2.37,19.16,2.22,7.88-.22,17.57-1.7,22.12-9,2.88-4.7,2.55-9.28,2.81-14.46.07-1.7,4.73-6.44,3.22-7.18s-1.45-1.22-2.74-.11c-6.92,7.55-22.75,8-32,6.44a163.35,163.35,0,0,1-16.28-3.78c-7-1.85-13.94-3.88-20.86-5.95-9.1-2.7-18.16-5.48-27.22-8.25-3.41-1-6.81-2.07-10.25-3-2.07-.59-4.29-1.26-6.43-1.67-3-.55-6-.89-9-1.25-3.55-.45-7.14-.89-10.69-1.41a85.31,85.31,0,0,1-14.2-3,27,27,0,0,1-9.06-4.88c-.71-.59-8-8.73-6.88-18.46Z"/><path class="cls-21" d="M440.37,724.17c-.4,7.81,1.52,19-20.89,19.57s-73.57-18.6-85.59-21.6-41.28-4-49.49-9.43-6-19-5.51-22.79a5.18,5.18,0,0,1,3.33-4.54c-1.82,3.51,4.4,10.54,14.53,13.83s26.26,4.21,34.44,5.73,60.84,19.27,81.07,22.67,28.11-3.44,28.11-3.44Z"/><path class="cls-29" d="M327.45,720.88c-13.87-2.14-36.06-3.55-43.05-8.17-8.21-5.48-6-19-5.51-22.79a5.18,5.18,0,0,1,3.33-4.54c-1.82,3.51,4.4,10.54,14.53,13.83s26.26,4.21,34.44,5.73c.92.15,2.36.52,4.25,1-.3,0-8.84-2-9.62,1.07-.62,2.4-1.62,9.14,1.63,13.83Z"/><path class="cls-19" d="M255.62,654.93a14.44,14.44,0,0,0,2.29-4.55c1.3-4.36,2.67-8.69,3.92-13,.82-2.78,1.6-5.59,2.34-8.4a35.11,35.11,0,0,0,1.25-6.43,12.86,12.86,0,0,0-2.62-8.07c-.82-1.07,4.1-3.1,3-3.88-2.7-1.85-.63-5.7-2.62-3.11-11.47,11.73-35.92,14.24-54.08,8-10.21-3.51-14.79-8.91-17.86-13.35-1.37.59-3.15-.22-4.63,1-3.29,2.66-6.14,8.25-6.66,11.73-.66,4.58-1.55,9.17-2.25,13.76a86.53,86.53,0,0,0-1.22,13.13,65.12,65.12,0,0,0,.63,7.39c-.52,1.37-1.22,2.85-1.85,4.22l-4.37,1.15c-8.32,2.22-16.68,4.36-25,6.51-16.42,4.25-32.18,13.16-37.43,30.33a41.14,41.14,0,0,0-1,19.34,33.38,33.38,0,0,0-1.4,6.58,27.37,27.37,0,0,0,4.06,18.35c4.92,7.55,15.61,12.1,23.9,14.65a123.14,123.14,0,0,0,35.17,5c12,0,22.86-3.85,33-10a122.35,122.35,0,0,0,11.2-7.8c2.41-1.81,4.85-3.88,7.36-5.55a98.93,98.93,0,0,1,12.51-6.62c3.51-1.66,7.06-3.25,10.61-4.92a57,57,0,0,0,7.73-4.1c4.26-3,8.25-8.18,8.25-13.58a95.65,95.65,0,0,0-.44-12.21,14.63,14.63,0,0,0-1.67-5.25,12.46,12.46,0,0,0,1.26-6.88c-.48-3.44-.81-6.91-1.22-10.35s-.78-7.1-1.44-10.43c-.19-.82-.41-1.67-.67-2.56Z"/><path class="cls-27" d="M186.08,615.69c-.55,3.66-3.55,19.38-3.4,25.82s.85,7.43.67,8.32-3,7.17-3,7.17c-.45,1.3,10.47-1.29-33,10s-33.48,44-33.48,44-5.07,11.32,1.33,21.19S145.62,749,169.14,749s39.91-16.8,48.12-22.27S243.9,714,248,711.08s5.62-6.54,5.62-8.47,0-8.06-.4-11.46a10.69,10.69,0,0,0-3-5.89s3-3.14,2.63-6.17-1.78-16.39-2.63-20.35-2.18-5.47-2.18-5.47a7,7,0,0,0,4-4.66c1.07-3.66,6.91-21.71,7.06-25.12a33.23,33.23,0,0,0-.33-6.25c-10.36,13.25-57.41,7.4-67.39-5.8-3.7-4.85-5.07,3.1-5.26,4.25Z"/><path class="cls-28" d="M114.22,693.62a33.13,33.13,0,0,0-.3,17.35s-5.07,11.32,1.33,21.19S145.62,749,169.14,749s39.91-16.8,48.12-22.27S243.9,714,248,711.08s5.62-6.54,5.62-8.47,0-8.06-.4-11.46a10.69,10.69,0,0,0-3-5.89s3-3.14,2.63-6.17-1.78-16.39-2.63-20.35-2.18-5.47-2.18-5.47a7,7,0,0,0,4-4.66c1.07-3.66,6.91-21.71,7.06-25.12a33.23,33.23,0,0,0-.33-6.25c-4,5-13.21,7.33-23.71,7.47h0c2.26.45,5.14,3.89,5.29,6s-.34,4.36-1.22,13.13-5.55,11.87-6.44,13.13.74,1.63.74,1.63c7.66,1.29,10.8,18.45.15,22.15s-14.5,9.14-42.39,24S153.42,717,133,712.3c-20-4.55-18.9-18.16-18.82-18.68Z"/><path class="cls-19" d="M252.18,673.87c1.11,7.62-7.28,10.65-7.73,10.84-2.7,1.11-5.4,2.15-8.06,3.29-4.26,1.78-8.47,3.66-12.54,5.73a79.56,79.56,0,0,0-12.13,7.4c-10.84,8.36-27.48,19-41.24,20.9-8,1.15-18.31.07-26.27-1.44-10.61-2-28.29-7-31.25-19.38-1.55.14-2.22,6.65-2.85,8.06a30,30,0,0,0-2.07,8.17,25.42,25.42,0,0,0,3.77,17c4.63,7.06,15,11.39,22.79,13.76a119.69,119.69,0,0,0,34.54,4.92c11.58,0,22.12-3.74,31.92-9.69a119.8,119.8,0,0,0,11-7.66c2.44-1.88,4.92-3.92,7.47-5.62a99.83,99.83,0,0,1,12.76-6.81c3.55-1.66,7.06-3.25,10.61-4.92a51.62,51.62,0,0,0,7.44-3.92c3.66-2.55,7.4-7.17,7.4-11.87a106.62,106.62,0,0,0-.45-12c-.37-3,.52-8.73-1.66-10.84-1.26-1.18.44-6.47-1.15-5.7-1,.49-2-1.18-2.33-.22Z"/><path class="cls-21" d="M113.92,711s-5.07,11.32,1.33,21.19S145.62,749,169.14,749s39.91-16.8,48.12-22.27S243.9,714,248,711.08s5.62-6.54,5.62-8.47,0-8.06-.4-11.46a10.69,10.69,0,0,0-3-5.89s.15,1.48-4.14,3.26-22.23,8.51-31.81,15.87S186.64,724,171,726.14,122,723,113.92,711Z"/><path class="cls-29" d="M214.2,728.91c1.1-.85,2.14-1.63,3.06-2.22,8.18-5.47,26.64-12.72,30.74-15.61s5.62-6.54,5.62-8.47,0-8.06-.4-11.46a10.69,10.69,0,0,0-3-5.89s.15,1.48-4.14,3.26c-3.33,1.37-14.76,5.69-24.19,11,6.77-2.51,10.47,12.47,3.89,17.68a74.92,74.92,0,0,0-11.54,11.73Z"/><path class="cls-19" d="M333.37,509.31a36.74,36.74,0,0,0-1,7.25c-.26,5.63.93,11.14,4.26,15.5-1.3,7,.74,14.65,6.14,19.53a17.42,17.42,0,0,0,8.84,4.14,22,22,0,0,0,4.73.26,44.49,44.49,0,0,0,7.66-1.11c.85-.15,2.44-.55,3.44-.63.26.11.52.26.81.37,4.88,2.37,10.21,4.74,15.09.71,5.18-4.22,8.69-9.07,8.92-15.65,3.81-6.07,5.62-14,4.21-21,3-8,3.92-18,.67-26a27.22,27.22,0,0,0,0-9.14c-1.55-9.5-7.55-17.53-14.61-23.78a29.61,29.61,0,0,0-8.14-5.25,24.15,24.15,0,0,0-20.34.07c-7.14,3.37-12.5,9.58-15.8,16.65-2.18,4.69-3.88,10.87-3.43,16.35a34.51,34.51,0,0,0-2.3,6.06,23.31,23.31,0,0,0,.89,15.68Z"/><path class="cls-21" d="M378.27,464.34s-9.8-9.66-21.63-4.15-17.13,21.31-15.39,28.6c0,0-7,10.5-1.26,19.89,0,0-5.07,14.43,3.48,21.68,0,0-3.85,10.1,3.4,16.61s18.68-.3,22.41,1.33,7.62,4.29,10.1,2.25,7.14-5.88,6.62-12.72c0,0,7.14-9.58,3.92-19.6,0,0,6.44-14.54.6-24.93,0,0,5.32-13.61-12.25-29Z"/><path class="cls-21" d="M375.72,656.49c8.06-.89,6.77-13.17-1.33-12.32-.08,0-23.71,2.37-31.63,24.26a6.18,6.18,0,1,0,11.62,4.19c5.25-14.54,21.27-16.13,21.34-16.13Z"/><path class="cls-19" d="M382.41,652.68a7.18,7.18,0,0,1-6.54,5.32h0a28.7,28.7,0,0,0-12.69,5.22,21.44,21.44,0,0,0-7.36,9.95v0a7.49,7.49,0,0,1-3.88,4.33l-.08.07a7.65,7.65,0,0,1-5.88.26h0a7.69,7.69,0,0,1-4.33-3.88l0-.08a7.78,7.78,0,0,1-.3-5.84v-.07c7.92-21.83,30.81-25,32.81-25.27l.26,0a7.24,7.24,0,0,1,7.4,3.88,7.88,7.88,0,0,1,.89,3,8.41,8.41,0,0,1-.23,3.15Zm-6.88,2.25a4.25,4.25,0,0,0,3.89-3.1,5.31,5.31,0,0,0,.15-2,5.65,5.65,0,0,0-.56-1.89,4.25,4.25,0,0,0-4.44-2.22h-.07c-1.11.11-22.79,2.78-30.26,23.16,0,.07,0,.15-.07.18a4.57,4.57,0,0,0,.22,3.44v.08a4.6,4.6,0,0,0,2.48,2.25c.07,0,.19.08.26.11a4.63,4.63,0,0,0,3.4-.22l.07,0a4.72,4.72,0,0,0,2.34-2.58h0a24.3,24.3,0,0,1,8.39-11.36,31.25,31.25,0,0,1,14.2-5.81Z"/><path class="cls-21" d="M387.52,661.44a6.2,6.2,0,0,0-1.18-12.35s-23.71,2-32,23.71a6.19,6.19,0,0,0,11.58,4.4c5.51-14.46,21.57-15.76,21.64-15.76Z"/><path class="cls-19" d="M392.88,660.19a7.74,7.74,0,0,1-5.07,2.77h-.22c-.81.11-15.24,1.63-20.27,14.79h0a7.59,7.59,0,0,1-4.07,4.3,7.78,7.78,0,0,1-5.91.18h0a7.81,7.81,0,0,1-4.33-4.07,7.58,7.58,0,0,1-.15-5.92c8.47-22.11,32.11-24.56,33.29-24.67.07,0,.15,0,.19,0h0a7.87,7.87,0,0,1,5.54,1.77,7.69,7.69,0,0,1,2.74,5.07c0,.11,0,.22,0,.29h0a7.86,7.86,0,0,1-1.78,5.52Zm-5.4-.3a4.75,4.75,0,0,0,3-1.66,4.81,4.81,0,0,0,1-3.41h0a4.63,4.63,0,0,0-5-4.18h0c-.33,0-22.82,2-30.73,22.71a4.66,4.66,0,0,0,2.7,6h0a4.67,4.67,0,0,0,6-2.7v0c5.88-15.28,22.78-16.72,22.93-16.72Z"/><path class="cls-21" d="M400,668c8.14-.15,7.88-12.54-.26-12.35,0,0-23.82.29-33.58,21.45a6.17,6.17,0,0,0,11.21,5.14C383.89,668.21,400,668,400,668Z"/><path class="cls-19" d="M376,681.6v0Zm0,0,2.07-.73a1.62,1.62,0,0,0-2.07.73Zm23.82-24.41.18,9.29c-.25,0-17.12.33-24,15.12v0a4.61,4.61,0,0,1-6.07,2.3l-.07,0a4.59,4.59,0,0,1-2.29-6.07l0-.07c9-19.42,30.33-20.49,32.11-20.53h.07v0Zm7.21,7.62a7.19,7.19,0,0,1-6.8,4.77H400c-.66,0-15.28.49-21.23,13.36h0a7.65,7.65,0,0,1-4.33,4,7.57,7.57,0,0,1-5.81-.18s-.07,0-.11,0a7.65,7.65,0,0,1-4-4.33,7.57,7.57,0,0,1,.18-5.81l0-.11c9.73-21,32.7-22.26,34.81-22.34h.18a7.27,7.27,0,0,1,7.14,4.48,8,8,0,0,1,.63,3.11,8.12,8.12,0,0,1-.52,3.1Zm-7,1.67h.15a4.2,4.2,0,0,0,4-2.78,5.76,5.76,0,0,0,.33-2,4.83,4.83,0,0,0-.41-1.92,4.25,4.25,0,0,0-4.25-2.63h0Z"/><path class="cls-21" d="M176.06,660.48a6.18,6.18,0,1,1-.18-12.35c.07,0,23.82-.59,34.39,20.16a6.18,6.18,0,1,1-11,5.58c-7-13.76-23.12-13.39-23.19-13.39Z"/><path class="cls-19" d="M176.06,658.93h0a31.86,31.86,0,0,1,14.83,4,24.71,24.71,0,0,1,9.73,10.25h0a4.66,4.66,0,0,0,6.21,2h0a4.36,4.36,0,0,0,2.3-2.66,4.54,4.54,0,0,0-.23-3.48l0-.07c-9.69-19-31-19.34-32.85-19.34,0,0-.11,0-.14,0h0a4.56,4.56,0,0,0-3.26,1.41,4.64,4.64,0,0,0-1.29,3.18v.15h0a4.75,4.75,0,0,0,1.4,3.21,4.57,4.57,0,0,0,3.22,1.3Zm0,3.11H176a7.5,7.5,0,0,1-5.33-2.19,7.58,7.58,0,0,1-2.36-5.4h0v0h0v-.15a7.68,7.68,0,0,1,7.58-7.69H176c2,0,25,.33,35.62,20.93,0,.07.07.11.07.18a7.71,7.71,0,0,1-3.33,10.21l-.22.11a7.66,7.66,0,0,1-5.77.41,7.81,7.81,0,0,1-4.51-3.84h0a21.53,21.53,0,0,0-8.51-9A27.55,27.55,0,0,0,176.1,662Z"/><path class="cls-21" d="M165.81,668.36a6.19,6.19,0,1,1-.88-12.35c.07,0,23.74-2,35.51,18.12a6.21,6.21,0,0,1-10.73,6.25c-7.81-13.35-23.86-12-23.9-12Z"/><path class="cls-19" d="M165.85,669.91A7.73,7.73,0,0,1,160.3,668a7.82,7.82,0,0,1-2.66-5.29v0a7.8,7.8,0,0,1,7.18-8.25h0c.66-.44,25.33-2.88,37,18.9h0a7.75,7.75,0,0,1-13.39,7.81l0-.07c-7.32-12.36-22.23-11.21-22.41-11.18Zm-.22-3.1h.15c1.29-.08,17.2-.82,25.19,12.68,0,0,.07.08.07.12a4.74,4.74,0,0,0,2.85,2.14,4.64,4.64,0,0,0,5.18-6.84h0c-11.17-19.09-33.66-17.39-34-17.35h0a4.52,4.52,0,0,0-3.18,1.55,4.76,4.76,0,0,0-1.11,3.33v.15a4.62,4.62,0,0,0,4.88,4.22Z"/><path class="cls-21" d="M154.5,675.91a6.19,6.19,0,0,1-2-12.21c.08,0,23.49-4.07,37,14.94a6.18,6.18,0,0,1-10.1,7.11c-8.95-12.58-24.82-9.84-24.85-9.84Z"/><path class="cls-19" d="M150.76,673.58a4.68,4.68,0,0,0,3.37.81c.07,0,.14,0,.22,0,1.48-.22,17.2-2.25,26.26,10.51h0a4.63,4.63,0,0,0,3,1.88,4.42,4.42,0,0,0,3.44-.77h0a4.69,4.69,0,0,0,1.89-3,4.58,4.58,0,0,0-.74-3.36l-.08-.08c-12.61-17.79-34.36-14.46-35.39-14.31h-.08a4.69,4.69,0,0,0-3.77,5.32v0a4.56,4.56,0,0,0,1.85,3Zm3.92,3.84a7.59,7.59,0,0,1-5.69-1.33,7.74,7.74,0,0,1-3.15-5h0a7.68,7.68,0,0,1,6.36-8.88h0c1.15-.18,24.64-3.73,38.39,15.43a2,2,0,0,0,.15.26,7.55,7.55,0,0,1,1.22,5.62,7.66,7.66,0,0,1-3.07,5s-.11.08-.15.12a7.7,7.7,0,0,1-5.69,1.25,7.6,7.6,0,0,1-5-3.14h0c-8.36-11.76-23.2-9.28-23.34-9.25Z"/><path class="cls-24" d="M362.66,343.39c-.66-.11-1.4-.3-2.1-.45l-5.22-1.14c-5.62-1.26-11.28-2.48-16.94-3.63-16.42-3.4-33-6.51-49.56-8.91-8.73-1.26-17.5-2.33-26.3-3.07a212.82,212.82,0,0,0-23.82-.85c-9.47.26-26.23,1.51-30.89,11.46a12.87,12.87,0,0,0-1.18,5.48c0,13,15.2,21.15,25.59,25.3,16,6.43,35.11,9.69,52.23,10.8,15.83,1.07,33.29.52,48.71-3.37,11.91-3,25.82-8.84,31.37-20.64a23.91,23.91,0,0,0,2-6.14,4,4,0,0,0-3.85-4.84Z"/><path class="cls-28" d="M362.48,347.49c-8,44.35-151.65,28.56-151.72-5.21,0-32,151.64,5.69,151.72,5.21Z"/><path class="cls-24" d="M278.22,459.53a23.25,23.25,0,0,0-.29,9.32c1.33,7.06,6.17,11.5,13.09,13.06,12.39,2.73,32.84,9.06,44,.77,11-8.21,8-25.59,7.54-37.39-.07-2.11-.44-4.33-.7-6.4-.52-3.4-1-6.81-1.59-10.21Q338,415,335.48,401.46c-2.63-14.68-5.37-29.41-8.14-44.09a4.15,4.15,0,0,0-5.14-3.22l-19.46,5.29a4.05,4.05,0,0,0-3,3.11Z"/><path class="cls-28" d="M303.82,363.43l-21.6,97.06s-3.81,14.35,9.72,17.35,31.44,8.36,40.58,1.52,6.29-24.05,5.88-33.89-15.13-87.32-15.13-87.32Z"/><path class="cls-24" d="M331.56,362.07l-25.3,2.59a4,4,0,0,0-3.66,3.77c-.93,11.39-1.85,22.82-2.82,34.21-.59,6.92-1.14,13.87-1.77,20.82-.33,4.07-.67,8.25-1.15,12.32-1.33,11,.56,22,10.91,28,5.66,3.29,14.8,3.63,21.2,3.44,5.58-.18,18.71-1.33,23.41-4.32,7.88-5,8.91-14.54,8.06-23a43.6,43.6,0,0,0-1.29-6.21c-.78-3-1.66-5.92-2.55-8.84-2.37-7.59-4.89-15.09-7.44-22.6-4.29-12.5-8.73-25-13.27-37.47a4.08,4.08,0,0,0-4.33-2.66Z"/><path class="cls-27" d="M332,366.17s23.23,63.44,24.34,74.09-1.67,16.27-6.18,19.12-30.88,6.29-40.31.85-9.84-16-8.88-23.93,5.73-67.54,5.73-67.54Z"/><path class="cls-24" d="M318.39,383.63a22.45,22.45,0,1,0-22.49-22.45,22.51,22.51,0,0,0,22.49,22.45Z"/><path class="cls-27" d="M318.39,379.34a18.16,18.16,0,1,0-18.2-18.16,18.19,18.19,0,0,0,18.2,18.16Z"/><path class="cls-19" d="M298,587.21c1.3-.74,5.4-3.29,3.77-5.29-1.29-1.48-4.14,0-5.88.52-1.14.37-2.21.66-3.44,1a40.1,40.1,0,0,1-7.47.89c-.88,0-1.11,2.51-1.11,3.11s.26,3.1,1.33,3.06a35.08,35.08,0,0,0,8.81-1.59,22.1,22.1,0,0,0,4-1.66Z"/><path class="cls-19" d="M273.78,583.14c-1.7-.44-5.36-1.92-6.43-.15-1.11,2.26,3.18,4.26,4.58,5A24.83,24.83,0,0,0,276,589.5a25.87,25.87,0,0,0,9.54.85c1.22-.14,1.18-2.44,1-3.25s-.78-3-1.74-2.89a23.13,23.13,0,0,1-7.55-.26c-1.22-.22-2.36-.51-3.55-.81Z"/><path class="cls-19" d="M415,424.8a7.94,7.94,0,0,0-2.33-1.56c-.77-.33-1.77-.74-2.25.19-.41.78.15,1.33.66,2s.93,1.18,1.37,1.77a25.15,25.15,0,0,1,1.59,2.33,24.33,24.33,0,0,1,2,5.15c.22.74,1.73.59,2.25.48s2-.78,1.7-1.63a21.17,21.17,0,0,0-2.77-6,14.27,14.27,0,0,0-2.26-2.7Z"/><path class="cls-19" d="M302.11,653.64c.86.11,7.92,1.26,7.92-.85-.07-1.52-6-2.26-7.25-2.55-1.78-.45-3.44-.93-5.18-1.48a34.89,34.89,0,0,1-6.69-3,16.22,16.22,0,0,1-3.63-3,2.16,2.16,0,0,0-2.62,0,1.81,1.81,0,0,0-.45,2.78,18.87,18.87,0,0,0,4.63,3.62,35.33,35.33,0,0,0,7.61,3.19,48.87,48.87,0,0,0,5.66,1.29Z"/><path class="cls-19" d="M243.3,655.19c-1.22.3-4.29.59-4.51,1.85-.18,1.82,4.18,1.67,5.11,1.56a17.87,17.87,0,0,0,4.36-1A15.85,15.85,0,0,0,254,654c.59-.63-.6-1.66-1.08-2-.22-.14-1.73-1.07-2-.77a12.33,12.33,0,0,1-4.11,2.77,25.9,25.9,0,0,1-3.48,1.22Z"/><path class="cls-19" d="M365.84,480.13c.56.15,1.08.29,1.59.45a32.83,32.83,0,0,1,7.22,3.51c1,.63,2.66,2.29,3.77,1.77,1.55-.88-.7-3.69-1.33-4.47a21.08,21.08,0,0,0-7.84-5.51c-.26-.15-1.52-.59-1.85-.74a27.26,27.26,0,0,0-9.29-1.48,25.46,25.46,0,0,0-12.46,3.4,30.07,30.07,0,0,0-9,7.88c-1.11,1.41-1.4,3.85.33,4.92,1.48,1,3.55.18,4.55-1.11a26.11,26.11,0,0,1,7.11-6.55,20.16,20.16,0,0,1,9.61-2.88,24.72,24.72,0,0,1,7.58.81Z"/><path class="cls-19" d="M366.62,504.14a27.48,27.48,0,0,1,3.77,1.66c2,1.15,7.66,6.14,8.73,5.77,3.26-1.78-5.32-9.17-6.25-9.84a26.51,26.51,0,0,0-4.25-2.4,32.5,32.5,0,0,0-8.73-2.48,29.21,29.21,0,0,0-14.8,1.63A25.85,25.85,0,0,0,335,505.69c-1.19,1.41-1.63,3.92.14,5,1.45.92,3.52.22,4.59-1a19.49,19.49,0,0,1,7.66-5.66,23.9,23.9,0,0,1,11.83-1.63,31.71,31.71,0,0,1,7.4,1.71Z"/><path class="cls-19" d="M365.73,526.66a40,40,0,0,1,4.07,1.41c1.7.74,6.88,4.14,8.18,3.29,2.47-2-5.15-6.92-6.11-7.51a28.93,28.93,0,0,0-4.47-2.11,32.1,32.1,0,0,0-7.4-1.85,25.29,25.29,0,0,0-13.35,1.74,20.94,20.94,0,0,0-8.81,7.4c-1,1.52-1,3.84.86,4.7a3.59,3.59,0,0,0,4.25-1.19,15.23,15.23,0,0,1,6.21-5.43,19.43,19.43,0,0,1,10.25-1.63,36.66,36.66,0,0,1,6.32,1.18Z"/><path class="cls-19" d="M78.89,422.36q10.44-25.08,20.94-50.2c4.88-11.61,9.73-23.23,14.65-34.84,1.62-3.85,3.25-7.73,4.92-11.58.4-.92.88-2.22,1.47-3.44-.11-.74-.25-1.51-.37-2.21-.37-2.26-.7-4.52-1-6.81a103.47,103.47,0,0,1-.85-18.86,62.24,62.24,0,0,1,.77-7c2.78-15.83,14.8-26,30.37-28.18,11.28-1.59,27.52,1.51,32.29,13.39A16.4,16.4,0,0,1,183,282a128.37,128.37,0,0,0,2.92,60.21c.55,2,1.18,4,1.85,6a51.43,51.43,0,0,1-4.26,43.35,61.76,61.76,0,0,1-11.28,14.05c-.77,15.39-4.55,31.4-14.35,43.57a45.06,45.06,0,0,1-32,17.09,49.82,49.82,0,0,1-5.73.11,54.93,54.93,0,0,1-16.31-3.44c-11.32-4.14-24.42-12.46-33.4-20.68l-1.82-6.43Z"/><path class="cls-21" d="M84.29,425.54,74.6,437.71s23.53,21.56,45.76,22.48S165,444.51,166.11,402.6c0,0,26.6-20.12,15.76-52.44s-7.18-57.67-5-69.32c3.69-19.79-45.65-24.82-51.34,7.69-2.74,15.69,2.29,34.48,1.59,35.14S84.29,425.54,84.29,425.54Z"/><path class="cls-22" d="M75.75,436.23l-1.15,1.48s23.53,21.56,45.76,22.48S165,444.51,166.11,402.6c0,0,16-12.09,18.13-32.62-.12.52-2.26,7.84-11.58,8.77-9.66,1-10.1-17.24-9.32-21.64l-9.29-28.52-5.21-3.1s7.14,16.23-8.73,20.34a31.36,31.36,0,0,1-1,4.92c-.41.66,4.51.89,4.51.89l.07,3.07s13.8,12.83-.14,29.11l-14.1-4.92-2.66.7s18.27,7.51,17.57,19.68a16.55,16.55,0,0,1-11.32,15.16l-1.81,2.89s7.14,5.47-1.48,18.45S100.53,440,100.53,440l-8-.3s2.3,2.07-1.51,3.29c-2.33.7-9.32-2-15.28-6.8Z"/><path class="cls-19" d="M156.79,397.09a40.14,40.14,0,0,1,0,10.1c-1.07,8-4.84,14.61-11.24,19a26.77,26.77,0,0,1-.34,5.51c-1.37,7.95-6.43,13.79-13.57,17.31a26,26,0,0,1-11.76,2.59,35.31,35.31,0,0,1-7.11-.82c-7.13-1.74-17.57-9.1-18.93-10s-2.15-1.78-2.19-2.3.52-.62.52-.62l6.51-4-15.2-4.77s-11,6.25-8.88,8.62,9.88,7.76,9.92,7.8c-5.29.78-10.62.63-14.5-3.62-6.37-7-10.66-14.58-8.66-23.94a49.73,49.73,0,0,1-2.74-9.17c-1.4-7.47-.74-15,2.74-21.75a62,62,0,0,1-.92-12.2c.22-9,2.59-17.91,8.36-24.82a37.28,37.28,0,0,1,9.1-25.26c9.17-10.55,23.52-15.5,37.13-16.06,15.2-.63,32.29,4.22,42.06,16.57C166.37,337,166,351.41,161,364.77a36.66,36.66,0,0,1,2.26,9.43,32.22,32.22,0,0,1-6.51,22.89Z"/><path class="cls-21" d="M154.31,364.91s8.81,16.09-4.14,30.48c0,0,5,20-11.36,27.48,0,0,4.07,13.69-9.91,20.57s-30.4-6.66-37.06-5.59S78,441.44,74.6,437.71,64.88,426.94,68,417.33c0,0-8.55-16.06,0-29.26,0,0-5.77-22.86,7.13-35.77-3.51-54.33,105.09-49.12,79.23,12.61Z"/><path class="cls-22" d="M80.74,439.67c-2.51.07-4.69-.37-6.14-2-2.47-2.74-6.47-7.14-7.32-13,2,6.43,7.92,11.76,13.46,15Zm73.57-74.76s8.81,16.09-4.14,30.48c0,0,5,20-11.36,27.48,0,0,4.07,13.69-9.91,20.57-9.47,4.62-20.08-.08-28-3.26,2.81,1.11,20.94,7.55,28.89-4.4,8.62-13,1.48-18.45,1.48-18.45l1.81-2.89a16.55,16.55,0,0,0,11.32-15.16c.7-12.17-17.57-19.68-17.57-19.68l2.66-.7,14.1,4.92c13.94-16.28.14-29.11.14-29.11l-.07-3.07s-4.92-.23-4.51-.89a31.36,31.36,0,0,0,1-4.92c15.5-4,9.06-19.53,8.73-20.34,9.13,8.32,13,21.48,5.47,39.42Z"/><path class="cls-19" d="M225.37,472.29c1.4.89,5.06,2.48,4.62,4.33-.67,2.25-5.55.18-6.73-.34a23.65,23.65,0,0,1-4.48-2.62,13.91,13.91,0,0,1-4.21-4.85,9,9,0,0,1-1-3.25,7.45,7.45,0,0,1-.08-1.67c.11-1.4,1.93-1.51,3-1.22.44.15,2.44,1,2.41,1.63v.7a4.28,4.28,0,0,0,.4,1.52,10.29,10.29,0,0,0,2.63,3.29,30.81,30.81,0,0,0,3.48,2.48Z"/><path class="cls-19" d="M219,406.16c.37-1.63,2.22-13.1,4-13.17,2.33.15.63,12.87.44,14.05a58.05,58.05,0,0,1-2.88,11c-2,4.81-4.11,8.7-7.88,12.32a2.44,2.44,0,0,1-3.66-.33,2.69,2.69,0,0,1,0-3.55,29.67,29.67,0,0,0,6.88-10.32,69.41,69.41,0,0,0,3.18-10Z"/><path class="cls-19" d="M132.93,348.42c-.81-.37-1.62-.7-2.48-1-2-.66-11-2.4-11.35-3.77-.15-3.55,11.58-1.22,12.87-.93a27.45,27.45,0,0,1,2.89.89,50.58,50.58,0,0,1,10.24,5.07A52.75,52.75,0,0,1,156,357.78a33.12,33.12,0,0,1,5.1,7.5,2.86,2.86,0,0,1-1.74,4.18,3.32,3.32,0,0,1-3.88-1.55,27.25,27.25,0,0,0-4-6.14,48.66,48.66,0,0,0-9.47-8.36,57.83,57.83,0,0,0-9-5Z"/><path class="cls-19" d="M123.21,378.49c-3.44-1-6.77-1.67-10.25-2.44-.92-.34-4.81-.56-4.81-2.11s4.14-1.59,5.18-1.63a51.43,51.43,0,0,1,11.1,1.11,65.24,65.24,0,0,1,14.24,4.73,44,44,0,0,1,11.17,7.33,28.13,28.13,0,0,1,5.51,7.14c.85,1.63.63,4.07-1.37,4.7a3.62,3.62,0,0,1-4.14-1.85,21.28,21.28,0,0,0-4.22-5.59,38.52,38.52,0,0,0-9.51-6.55,73.42,73.42,0,0,0-12.9-4.84Z"/><path class="cls-19" d="M110.63,410.15c-1.92-.37-14.87-1.7-15.06-4,0-3.14,14.65-1.37,15.91-1.18a74.22,74.22,0,0,1,12.72,2.81,43.46,43.46,0,0,1,14,7,23.51,23.51,0,0,1,5.1,5.44,17.64,17.64,0,0,1,1.48,2.77c.74,1.78.41,4.44-1.81,4.81a4,4,0,0,1-3.88-2.37,15.39,15.39,0,0,0-4.7-5.95,38.17,38.17,0,0,0-11.91-6.25,87.65,87.65,0,0,0-11.8-3.11Z"/><path class="cls-19" d="M97.39,445.14a2.25,2.25,0,0,1-.45.11c-1,.3-2.07.85-2.92.15-1.18-1.11.7-2.55,1.52-3.15.07-.07.55-.29.66-.36a8.72,8.72,0,0,1,2.63-.74,10.44,10.44,0,0,1,6,1.1c.67.38-.07,1.78-.36,2.19-.19.26-1.26,1.63-1.63,1.44a6.79,6.79,0,0,0-3.66-.92,9.35,9.35,0,0,0-1.74.18Z"/><path class="cls-19" d="M68.87,409.52c1.52-.63,4.33-1.37,4.7,1,.29,1.78-.93,2.52-2.15,3.55-.59.48-1.14,1-1.7,1.48a18.67,18.67,0,0,0-3,3.55c-.3.41-2.66-1-3-1.14s-2.59-1.7-2.15-2.37A20.46,20.46,0,0,1,66.17,411a14.65,14.65,0,0,1,2.7-1.52Z"/><path class="cls-19" d="M71.64,378.27c1.48-.6,5.29-1.82,5.7.7.26,2-1.81,2.88-3.29,3.92-1,.67-1.85,1.26-2.78,2a26.12,26.12,0,0,0-4.43,4.36c-.37.48-2.63-1-3-1.25-.48-.34-2.48-1.93-1.85-2.67a26.57,26.57,0,0,1,5.92-5.1,18.9,18.9,0,0,1,3.69-2Z"/><path class="cls-19" d="M79.56,342.94c1.48-.37,6.25-1.11,6.1,1.63-.14,1.89-2.66,2.48-4.32,3.26-.71.37-1.37.7-2,1.1a27,27,0,0,0-6,5.37c-.63.78-2.71-.52-3.22-.93-.67-.51-2.26-2.18-1.48-3.1a25.61,25.61,0,0,1,8-6.22,16.42,16.42,0,0,1,2.92-1.11Z"/><path class="cls-19" d="M165.15,399.72s0-.11,0-.15c-.15-1.63-1.59-4-.15-5.29,2-1.77,4.3,2.18,5,3.55a.9.9,0,0,1,.08.19,20.42,20.42,0,0,1,1.48,5.32,60.63,60.63,0,0,1,.37,7.22c0,.62-2.7.66-3.11.66s-3.11-.07-3.11-.81a53.13,53.13,0,0,0,.08-6.44,24.93,24.93,0,0,0-.63-4.25Z"/><path class="cls-24" d="M362.85,603.22a29.67,29.67,0,0,1-10.1,1.37c-13.68-.81-15.17-12.61.59-14.83,4.52-.66,9.66-1.7,12.88-2.36a119.52,119.52,0,0,1-3.37,15.82Zm6.06-40.61a4.34,4.34,0,0,1-.88.41c-.08,5.69-.34,11.76-1,17.9a43.77,43.77,0,0,1-17.83,3.22c-18.38-1-20.31-16.24.78-19.12,6.91-1,14.9-1.56,18.93-2.41Z"/></g></g></svg>