<svg xmlns="http://www.w3.org/2000/svg" viewBox="0 0 1930 1290.1"><defs><style>.cls-1{fill:#de641f;}.cls-2{fill:#f99564;}</style></defs><g id="Layer_2" data-name="Layer 2"><g id="Layer_1-2" data-name="Layer 1"><rect class="cls-1" width="1930" height="1290.1"/><circle class="cls-2" cx="201.14" cy="127.43" r="62.14" transform="translate(-17.15 222.55) rotate(-55.9)"/><path class="cls-2" d="M282.85,209.48a19.58,19.58,0,1,1-19.57-19.58A19.58,19.58,0,0,1,282.85,209.48Z"/><path class="cls-2" d="M1492.14,326.87A62.14,62.14,0,1,1,1416,370.78,62.14,62.14,0,0,1,1492.14,326.87Z"/><path class="cls-2" d="M628.11,104.4a28.07,28.07,0,1,1-34.39,19.83A28.08,28.08,0,0,1,628.11,104.4Z"/><path class="cls-2" d="M371.62,537.44a28.07,28.07,0,1,1-34.39,19.84A28.07,28.07,0,0,1,371.62,537.44Z"/><path class="cls-2" d="M109.45,373.11a28.07,28.07,0,1,1-34.39,19.83A28.06,28.06,0,0,1,109.45,373.11Z"/><path class="cls-2" d="M1844.73,389.33a28.08,28.08,0,1,1-34.39,19.84A28.07,28.07,0,0,1,1844.73,389.33Z"/><path class="cls-2" d="M1559.08,722.52a28.07,28.07,0,1,1-34.39,19.83A28.07,28.07,0,0,1,1559.08,722.52Z"/><path class="cls-2" d="M1576.46,329.23a19.58,19.58,0,1,1-24,13.84A19.59,19.59,0,0,1,1576.46,329.23Z"/><path class="cls-2" d="M471.72,388.36a9.45,9.45,0,1,1-9.45-9.44A9.45,9.45,0,0,1,471.72,388.36Z"/><path class="cls-2" d="M630.28,652.34a9.45,9.45,0,1,1-9.45-9.45A9.45,9.45,0,0,1,630.28,652.34Z"/><path class="cls-2" d="M130.26,645a9.45,9.45,0,1,1-9.45-9.44A9.45,9.45,0,0,1,130.26,645Z"/><path class="cls-2" d="M425.56,551a9.45,9.45,0,1,1-9.44-9.44A9.44,9.44,0,0,1,425.56,551Z"/><path class="cls-2" d="M1720.57,661.78a9.45,9.45,0,1,1-9.45-9.44A9.45,9.45,0,0,1,1720.57,661.78Z"/><path class="cls-2" d="M1794.1,91.77a9.45,9.45,0,1,1-9.44-9.45A9.45,9.45,0,0,1,1794.1,91.77Z"/><path class="cls-2" d="M1261.4,490.64a9.45,9.45,0,1,1-9.44-9.44A9.45,9.45,0,0,1,1261.4,490.64Z"/><path class="cls-2" d="M745.41,292.46a17.86,17.86,0,1,1-17.86-17.85A17.86,17.86,0,0,1,745.41,292.46Z"/><circle class="cls-2" cx="462.27" cy="742.08" r="17.85" transform="translate(-411.25 778.73) rotate(-60.48)"/><path class="cls-2" d="M1653.41,180.75a17.86,17.86,0,1,1-17.85-17.86A17.85,17.85,0,0,1,1653.41,180.75Z"/><path class="cls-2" d="M1422.29,624.9a17.86,17.86,0,1,1-17.86-17.85A17.86,17.86,0,0,1,1422.29,624.9Z"/></g></g></svg>