<svg xmlns="http://www.w3.org/2000/svg" viewBox="0 0 57.7 50.13"><defs><style>.cls-1{fill:none;stroke:#4c4c4c;stroke-linecap:round;stroke-linejoin:round;stroke-width:3px;}</style></defs><g id="Layer_2" data-name="Layer 2"><g id="Layer_1-2" data-name="Layer 1"><path class="cls-1" d="M14.76,6.06c.13.23,7.73-4.83,7.89-4.55.39.68-21.13,17.35-20.73,18s29.9-18,30.23-17.46-31,23.27-30.65,24c.61,1,39.94-24.4,40.52-23.4.69,1.2-39.58,26.7-38.9,27.89.49.85,39.5-24,40-23.1S2.77,35.8,3.3,36.71,45,11,45.72,12.22c.55,1-34.25,24.1-33.64,25.17S50.45,14.07,51,14.94,8.14,44.26,8.77,45.34,54.25,17.56,54.91,18.7,12.65,46.87,13.4,48.16c.55,1,42.3-25.57,42.8-24.71S22.77,47.68,23.3,48.6,52.17,30.92,52.61,31.68c.22.39-16.49,14.78-16.22,15.24.14.25,10-6.16,10.13-5.85"/></g></g></svg>