<svg xmlns="http://www.w3.org/2000/svg" viewBox="0 0 2112 2274.4"><defs><style>.cls-1{fill:#3e9b94;}</style></defs><g id="Layer_2" data-name="Layer 2"><g id="Layer_1-2" data-name="Layer 1"><path class="cls-1" d="M2112,58.12c0-21.26-23.65-39-52-39s-52,17.74-52,39c0,.1,0,.2,0,.3a23.16,23.16,0,0,0-8-1.42,22.72,22.72,0,0,0-10.39,2.45c-5.53-7.66-16.37-13-28.61-13a41.57,41.57,0,0,0-6.17.46C1951,29.86,1930.76,16.5,1907,16.5c-20.54,0-38.44,10-45.4,23.75A45.25,45.25,0,0,0,1851,39c-19.35,0-35.5,12.11-35.5,26.62a20,20,0,0,0,.45,4.17,27.27,27.27,0,0,0-16-4.92,29,29,0,0,0-7.24.91,20.72,20.72,0,0,0,.24-3.16c0-15.94-17.74-29.25-39-29.25a46.79,46.79,0,0,0-25.44,7.24c-9.2-21-35.82-36.49-66.56-36.49-31.14,0-58.07,15.91-66.92,37.32-10.14-8.58-24.88-14.07-41.08-14.07-15.67,0-30,5.13-40.07,13.24-7.74-8.82-21-14.74-35.93-14.74-23.44,0-43,14.67-43,32.25a23.82,23.82,0,0,0,.18,2.81A80.42,80.42,0,0,0,1404,54.75c-2.55,0-5.07.13-7.55.35,0-.49,0-1,0-1.48,0-25.55-28.43-46.87-62.5-46.87-33.18,0-61,20.23-62.43,44.88-7-5.45-16.85-8.88-27.57-8.88-21,0-38.5,13.13-38.5,28.87a19.42,19.42,0,0,0,.14,2.29c-11.17-7.46-25.8-12-41.64-12a79.69,79.69,0,0,0-23.06,3.38c-1.35-24.92-29.43-45.38-62.94-45.38-29.48,0-54.75,15.84-61.32,36.62a77.33,77.33,0,0,0-24.68-4,74.94,74.94,0,0,0-36.52,9.21c0-.2,0-.39,0-.59,0-14.51-16.15-26.62-35.5-26.62-18.48,0-34,11-35.39,24.67A35.56,35.56,0,0,0,876,58.12c-10.49,0-19.78,4.51-24.57,11.05,0-.69.07-1.36.07-2C851.5,35.44,816.25,9,774,9s-77.5,26.44-77.5,58.12a43,43,0,0,0,.62,7.1A71.87,71.87,0,0,0,670,69a71.1,71.1,0,0,0-29.84,6.41,22.08,22.08,0,0,0,2.34-9.79c0-15.74-17.51-28.87-38.5-28.87s-38.5,13.13-38.5,28.87a21.72,21.72,0,0,0,1.65,8.24c-11.84-12.61-31.38-21-53.15-21a79.84,79.84,0,0,0-36.54,8.63C476.64,29.5,440.84,3,398,3c-41.56,0-76.49,24.94-79.3,55.65-10.77-15.36-32.32-26-56.7-26a81.72,81.72,0,0,0-13,1C234.34,13.74,206,0,174,0c-39.23,0-73,20.66-82.69,48-3.06-.27-6.17-.42-9.31-.42-44.7,0-82,28-82,61.5,0,18.82,11.77,35.9,30,47.25v2118H2090V89.8C2103.24,82.67,2112,71.05,2112,58.12Z"/></g></g></svg>