<svg xmlns="http://www.w3.org/2000/svg" xmlns:xlink="http://www.w3.org/1999/xlink" viewBox="0 0 353.34 355.82"><defs><style>.cls-1{isolation:isolate;}.cls-2{mix-blend-mode:multiply;fill:url(#radial-gradient);}.cls-3{fill:#fff;}.cls-4{fill:#aceafd;}.cls-5{fill:#81b0be;}</style><radialGradient id="radial-gradient" cx="2591.07" cy="390.26" r="114.46" gradientTransform="matrix(0.96, -0.28, 0.18, 0.62, -2315.51, 610.36)" gradientUnits="userSpaceOnUse"><stop offset="0" stop-color="#d1d3d4"/><stop offset="0.1" stop-color="#d3d5d6" stop-opacity="0.96"/><stop offset="0.26" stop-color="#d8dadb" stop-opacity="0.84"/><stop offset="0.46" stop-color="#e1e2e3" stop-opacity="0.66"/><stop offset="0.69" stop-color="#edeeee" stop-opacity="0.39"/><stop offset="0.95" stop-color="#fcfcfc" stop-opacity="0.07"/><stop offset="1" stop-color="#fff" stop-opacity="0"/></radialGradient></defs><g class="cls-1"><g id="Layer_2" data-name="Layer 2"><g id="Layer_1-2" data-name="Layer 1"><path class="cls-2" d="M351.32,89.1c11.61,39.41-28.13,85.84-88.77,103.71s-119.2.39-130.81-39S159.87,68,220.5,50.08,339.71,49.69,351.32,89.1Z"/><polygon class="cls-3" points="336.05 43.36 188.71 0 208.41 42.41 336.05 43.36"/><polygon class="cls-4" points="208.41 42.41 185.75 89.6 336.05 43.36 208.41 42.41"/><polygon class="cls-5" points="185.75 89.6 216.07 62.28 336.05 43.36 185.75 89.6"/><polygon class="cls-3" points="336.05 43.36 230.5 119.2 216.07 62.28 336.05 43.36"/><path class="cls-3" d="M168.31,92.07a2.64,2.64,0,0,1-.64.19c-2.73.4-5.53.89-8.31,1.48a2.29,2.29,0,0,1-.93-4.49c2.87-.6,5.75-1.11,8.58-1.52a2.29,2.29,0,0,1,1.3,4.34Z"/><path class="cls-3" d="M148.44,293a74.05,74.05,0,0,1-9.29,3.6,2.29,2.29,0,0,1-1.35-4.38,68.61,68.61,0,0,0,15.4-7,2.29,2.29,0,0,1,2.4,3.9A74.49,74.49,0,0,1,148.44,293ZM169,278.3a2.29,2.29,0,0,1-2.64-3.65A59.51,59.51,0,0,0,176,260.92,2.29,2.29,0,0,1,180.1,263a64.22,64.22,0,0,1-10.46,14.79A2.39,2.39,0,0,1,169,278.3Zm-46.72,21.28a2.17,2.17,0,0,1-.85.21,70.45,70.45,0,0,1-7.12,0,64.65,64.65,0,0,1-10.91-1.52,2.29,2.29,0,0,1,1-4.47,59.52,59.52,0,0,0,10.13,1.42,64.13,64.13,0,0,0,6.65,0,2.29,2.29,0,0,1,1.08,4.36Zm62.16-52.14a2.33,2.33,0,0,1-1.31.19,2.29,2.29,0,0,1-1.92-2.61,56.86,56.86,0,0,0,0-16.78,2.29,2.29,0,0,1,4.53-.67,61.28,61.28,0,0,1,0,18.14A2.31,2.31,0,0,1,184.39,247.44ZM88.44,292.05a2.27,2.27,0,0,1-2-.05,82.62,82.62,0,0,1-14.94-10,2.29,2.29,0,0,1,2.93-3.51,78.63,78.63,0,0,0,14.12,9.46,2.29,2.29,0,0,1,1,3.09A2.32,2.32,0,0,1,88.44,292.05ZM3.49,330A2.29,2.29,0,0,1,.24,328a166.63,166.63,0,0,1,0-17.75,2.29,2.29,0,1,1,4.57.22,163.09,163.09,0,0,0,0,17.28A2.3,2.3,0,0,1,3.49,330Zm58.13-60.11a2.29,2.29,0,0,1-2.75-.62A102.94,102.94,0,0,1,48.81,254.4a2.29,2.29,0,0,1,4-2.23,97.79,97.79,0,0,0,9.61,14.15,2.3,2.3,0,0,1-.32,3.22A1.91,1.91,0,0,1,61.62,269.84ZM5.08,295a2.25,2.25,0,0,1-1.26.2,2.28,2.28,0,0,1-2-2.57c.74-5.65,1.72-11.51,2.9-17.43a2.29,2.29,0,1,1,4.49.9c-1.16,5.82-2.13,11.58-2.86,17.13A2.26,2.26,0,0,1,5.08,295Zm174.48-81.81-.07,0a2.28,2.28,0,0,1-3-1.2c-.3-.68-.6-1.36-.92-2A71.62,71.62,0,0,0,168,197.35a2.29,2.29,0,1,1,3.66-2.75A76.1,76.1,0,0,1,179.72,208c.34.72.66,1.45,1,2.18A2.27,2.27,0,0,1,179.56,213.17ZM11.91,260.63A2.29,2.29,0,0,1,8.72,258c1.39-5.33,3-10.84,4.69-16.36l.19-.62A2.29,2.29,0,0,1,18,242.42l-.18.56c-1.7,5.46-3.26,10.89-4.63,16.15A2.27,2.27,0,0,1,11.91,260.63Zm32.7-21.24-.22.09a2.29,2.29,0,0,1-2.92-1.41,99.12,99.12,0,0,1-4.35-17.38,2.29,2.29,0,0,1,4.52-.7,94.55,94.55,0,0,0,4.15,16.57A2.29,2.29,0,0,1,44.61,239.39Zm114.09-54a2.3,2.3,0,0,1-2.42-.3,63.52,63.52,0,0,0-14.35-8.88,2.29,2.29,0,0,1,1.86-4.18,68,68,0,0,1,15.38,9.51,2.3,2.3,0,0,1-.47,3.85ZM24.43,228.08a2.29,2.29,0,0,1-2.9-3.31,116.67,116.67,0,0,1,10.8-14.23,2.29,2.29,0,1,1,3.44,3,111.9,111.9,0,0,0-10.38,13.67A2.24,2.24,0,0,1,24.43,228.08ZM127,171.52a2.28,2.28,0,0,1-1.27.2,69.27,69.27,0,0,0-16.91,0,2.29,2.29,0,0,1-.54-4.55,74,74,0,0,1,18,0,2.29,2.29,0,0,1,.68,4.34Zm-79.6,30.23A2.29,2.29,0,0,1,44.94,198,147,147,0,0,1,59,187a2.29,2.29,0,1,1,2.59,3.77A145.19,145.19,0,0,0,48,201.39,2.17,2.17,0,0,1,47.42,201.75Zm-8.07,3.19a2.21,2.21,0,0,1-1.06.21,2.28,2.28,0,0,1-2.19-2.38A84.35,84.35,0,0,1,38.74,185a2.29,2.29,0,0,1,4.43,1.15A81.32,81.32,0,0,0,40.67,203,2.29,2.29,0,0,1,39.35,204.94Zm53.11-29.65a1.08,1.08,0,0,1-.27.1A112.08,112.08,0,0,0,76.36,182a2.29,2.29,0,1,1-2.07-4.08A116.18,116.18,0,0,1,90.78,171a2.29,2.29,0,0,1,1.68,4.25Zm-44.34-4a2.25,2.25,0,0,1-2,0,2.28,2.28,0,0,1-1-3.07A106,106,0,0,1,54.5,153a2.29,2.29,0,0,1,3.69,2.71,101.17,101.17,0,0,0-9,14.57A2.29,2.29,0,0,1,48.12,171.28Zm20.54-28.23a2.29,2.29,0,0,1-2.61-3.67,156.93,156.93,0,0,1,13.12-12,2.29,2.29,0,0,1,2.9,3.55,149.35,149.35,0,0,0-12.73,11.65A2.47,2.47,0,0,1,68.66,143.05Zm27-22.22a2.29,2.29,0,0,1-2.23-4c4.87-3.23,10-6.3,15.22-9.11a2.29,2.29,0,1,1,2.17,4c-5.11,2.75-10.11,5.74-14.86,8.89A2.28,2.28,0,0,1,95.7,120.83Zm47.23-22.76-.27.1c-5.39,1.74-10.85,3.78-16.21,6.07a2.28,2.28,0,0,1-3-1.2,2.26,2.26,0,0,1,1.2-3c5.49-2.35,11.08-4.45,16.61-6.23a2.29,2.29,0,0,1,1.67,4.26Z"/><path class="cls-3" d="M8.26,355.6l-.07,0a2.3,2.3,0,0,1-3-1.21,50.09,50.09,0,0,1-2.62-8.6,2.29,2.29,0,1,1,4.47-1,47,47,0,0,0,2.36,7.8A2.28,2.28,0,0,1,8.26,355.6Z"/></g></g></g></svg>