<svg xmlns="http://www.w3.org/2000/svg" xmlns:xlink="http://www.w3.org/1999/xlink" viewBox="0 0 2291.41 1233.77"><defs><style>.cls-1{isolation:isolate;}.cls-2{fill:#6561ab;}.cls-3{fill:#7873b7;}.cls-11,.cls-14,.cls-17,.cls-4,.cls-5,.cls-8{mix-blend-mode:multiply;}.cls-4{fill:url(#linear-gradient);}.cls-5{fill:url(#linear-gradient-2);}.cls-6{fill:#4eb9f3;}.cls-7{fill:#71c7f5;}.cls-8{fill:url(#linear-gradient-3);}.cls-9{fill:#48d2b0;}.cls-10{fill:#6ddbc0;}.cls-11{fill:url(#linear-gradient-4);}.cls-12{fill:#ffca05;}.cls-13{fill:#f6d965;}.cls-14{fill:url(#linear-gradient-5);}.cls-15{fill:#ff8343;}.cls-16{fill:#ff9664;}.cls-17{fill:url(#linear-gradient-6);}.cls-18{fill:#ef3d5a;}.cls-19{fill:#f2507a;}</style><linearGradient id="linear-gradient" x1="4419.22" y1="4598.02" x2="4484.5" y2="4598.02" gradientTransform="translate(-3306.16 -3594.35)" gradientUnits="userSpaceOnUse"><stop offset="0" stop-color="#fff" stop-opacity="0"/><stop offset="1" stop-color="#bcbec0"/></linearGradient><linearGradient id="linear-gradient-2" x1="4221.75" y1="4598.02" x2="4287.03" y2="4598.02" gradientTransform="translate(-3108.69 -3396.88)" xlink:href="#linear-gradient"/><linearGradient id="linear-gradient-3" x1="4615.06" y1="4598.02" x2="4680.34" y2="4598.02" gradientTransform="translate(-3501.99 -3790.19)" xlink:href="#linear-gradient"/><linearGradient id="linear-gradient-4" x1="4810.89" y1="4598.02" x2="4876.18" y2="4598.02" gradientTransform="translate(-3697.83 -3986.03)" xlink:href="#linear-gradient"/><linearGradient id="linear-gradient-5" x1="5006.73" y1="4598.02" x2="5072.01" y2="4598.02" gradientTransform="translate(-3893.67 -4181.86)" xlink:href="#linear-gradient"/><linearGradient id="linear-gradient-6" x1="5202.57" y1="4598.02" x2="5267.85" y2="4598.02" gradientTransform="translate(-4089.51 -4377.7)" xlink:href="#linear-gradient"/></defs><g class="cls-1"><g id="Layer_2" data-name="Layer 2"><g id="Layer_1-2" data-name="Layer 1"><rect class="cls-2" x="1047.78" y="-68.6" width="195.84" height="2291.41" transform="translate(68.6 2222.81) rotate(-90)"/><rect class="cls-3" x="1142.44" y="26.06" width="6.53" height="2291.41" transform="translate(-26.06 2317.46) rotate(-90)"/><rect class="cls-4" x="1113.06" y="-142.04" width="65.28" height="2291.41" transform="translate(142.04 2149.37) rotate(-90)"/><rect class="cls-5" x="1113.06" y="55.43" width="65.28" height="2291.41" transform="translate(-55.43 2346.84) rotate(-90)"/><rect class="cls-6" x="1047.79" y="-264.44" width="195.84" height="2291.41" transform="translate(264.44 2026.97) rotate(-90)"/><rect class="cls-7" x="1142.44" y="-169.78" width="6.53" height="2291.41" transform="translate(169.78 2121.62) rotate(-90)"/><rect class="cls-8" x="1113.06" y="-337.88" width="65.28" height="2291.41" transform="translate(337.88 1953.53) rotate(-90)"/><rect class="cls-9" x="1047.79" y="-460.27" width="195.84" height="2291.41" transform="translate(460.27 1831.13) rotate(-90)"/><rect class="cls-10" x="1142.44" y="-365.62" width="6.53" height="2291.41" transform="translate(365.62 1925.79) rotate(-90)"/><rect class="cls-11" x="1113.06" y="-533.71" width="65.28" height="2291.41" transform="translate(533.71 1757.69) rotate(-90)"/><rect class="cls-12" x="1047.78" y="-656.11" width="195.84" height="2291.41" transform="translate(656.11 1635.3) rotate(-90)"/><rect class="cls-13" x="1142.44" y="-561.46" width="6.53" height="2291.41" transform="translate(561.46 1729.95) rotate(-90)"/><rect class="cls-14" x="1113.06" y="-729.55" width="65.28" height="2291.41" transform="translate(729.55 1561.86) rotate(-90)"/><rect class="cls-15" x="1047.79" y="-851.95" width="195.84" height="2291.41" transform="translate(851.95 1439.46) rotate(-90)"/><rect class="cls-16" x="1142.44" y="-757.29" width="6.53" height="2291.41" transform="translate(757.29 1534.11) rotate(-90)"/><rect class="cls-17" x="1113.06" y="-925.39" width="65.28" height="2291.41" transform="translate(925.39 1366.02) rotate(-90)"/><rect class="cls-18" x="1047.78" y="-1047.78" width="195.84" height="2291.41" transform="translate(1047.78 1243.62) rotate(-90)"/><rect class="cls-19" x="1142.44" y="-953.13" width="6.53" height="2291.41" transform="translate(953.13 1338.28) rotate(-90)"/></g></g></g></svg>