<svg xmlns="http://www.w3.org/2000/svg" viewBox="0 0 253.93 296.78"><defs><style>.cls-1{fill:#212121;}.cls-2{fill:#fff;}</style></defs><g id="Layer_2" data-name="Layer 2"><g id="Layer_1-2" data-name="Layer 1"><polygon class="cls-1" points="253.93 140.81 239.66 293.19 3.82 285.14 3.71 133.03 253.93 140.81"/><path d="M243.85,287.65a9.53,9.53,0,0,1-10,9.12L9.33,289.12A9.54,9.54,0,0,1,0,279.34H0a9.55,9.55,0,0,1,10-9.12l224.55,7.66a9.54,9.54,0,0,1,9.32,9.77Z"/><path class="cls-2" d="M204.78,278.64l-10.33-.35c-3.88-24.51-20.57-119.68-25.4-145-1-5.17-2.24-9.87-3.46-14.76C160.35,97.28,157.81,84,170.84,74c11.44-8.73,15.86-24.3,11.27-39.82-4.46-15.1-19-31.92-46.23-34.19-.07,0-.17,1-.24,1s-.12,1-.16,1h-.12c-.08,0-.11-1-.18-1-27.35.4-42.94,15.73-48.42,30.49-5.64,15.17-2.29,30.85,8.52,40.34,12.35,10.81,8.88,24,2.22,44.76-1.54,4.81-3.11,9-4.44,14.08-6.54,25-29.69,118.73-35.23,142.92l-10.32-.35a6.09,6.09,0,0,0-.42,12.17l15.29.52c2.89.1,5.42-1.12,6.1-3.93.29-1.2,29-119.81,36.36-147.94,1.25-4.78,2.78-9.41,4.28-14.06,6.48-20.22,13.19-41.05-5.78-57.67-7-6.13-9-16.75-5.15-27.15,5.25-14.13,19-22.66,36.95-23,17.83,1.57,31,11.06,35.29,25.51,3.14,10.64.4,21.15-7,26.78-20.06,15.3-14.79,36.63-9.69,57.26,1.17,4.73,2.37,9.63,3.29,14.49,5.45,28.56,26,148.48,26.21,149.7.48,2.85,2.92,4.25,5.81,4.34l15.3.53a6.09,6.09,0,0,0,.41-12.18Z"/></g></g></svg>