<svg xmlns="http://www.w3.org/2000/svg" viewBox="0 0 65.04 65.04"><g id="Layer_2" data-name="Layer 2"><g id="Layer_1-2" data-name="Layer 1"><path d="M65,32.52A32.52,32.52,0,1,1,32.52,0,32.52,32.52,0,0,1,65,32.52Z" style="fill:#de641f"/><path d="M41.59,21.43c0,.16,0,.31,0,.46s0,.31,0,.46,0,.45-.09.67-.1.48-.16.71A8.12,8.12,0,0,1,40.83,25a1.42,1.42,0,0,1-.08.18c-.09.21-.2.42-.31.62s-.07.12-.11.17a8.87,8.87,0,0,1-1.52,1.92l-.17.16a3.88,3.88,0,0,1-.31.26l-.2.17c-.15.12-.31.23-.47.34l-.07.05c-.21.14-.43.27-.65.4l-.63.31,0,0A9.67,9.67,0,0,1,35,30.1l-.29.08a9,9,0,0,1-1.39.21l-.46,0h-.46l-.46,0a9.14,9.14,0,0,1-1.39-.21l-.29-.08a9.53,9.53,0,0,1-1.3-.46l0,0c-.19-.09-.38-.18-.56-.28s-.48-.28-.72-.43l-.07-.05-.46-.34-.21-.17-.3-.26-.32-.3A8.84,8.84,0,0,1,24.87,26a1,1,0,0,1-.1-.17c-.12-.2-.22-.41-.32-.62L24.37,25a9.21,9.21,0,0,1-.46-1.31c-.06-.23-.11-.47-.16-.71s-.07-.44-.09-.67,0-.3,0-.46,0-.3,0-.46,0-.31,0-.46v-.28h0c0-.06,0-.12,0-.18a.86.86,0,0,0,0-.17c0-.17,0-.34.08-.5s.1-.48.16-.71a8.47,8.47,0,0,1,.46-1.31l0-.09,0-.09c.1-.21.2-.41.32-.62l.1-.17a8.62,8.62,0,0,1,1.53-1.92,1.29,1.29,0,0,1,.17-.16l.3-.26.21-.17.46-.34.07-.05a10,10,0,0,1,1.28-.71h0a8.39,8.39,0,0,1,1.3-.47l.29-.07a9.15,9.15,0,0,1,1.39-.22l.46,0h.46l.46,0a9,9,0,0,1,1.39.22l.29.07a8.51,8.51,0,0,1,1.31.47h0a9.32,9.32,0,0,1,1.28.71l.07.05c.16.11.32.22.47.34l.2.17a3.88,3.88,0,0,1,.31.26c0,.05.11.1.16.16a8.62,8.62,0,0,1,1.53,1.92l.11.17c.11.21.22.41.31.62a1.42,1.42,0,0,1,.08.18,8.47,8.47,0,0,1,.46,1.31c.06.23.12.47.16.71s.07.44.09.67a1.49,1.49,0,0,1,0,.21c0,.08,0,.17,0,.25S41.59,21.28,41.59,21.43Z" style="fill:#fff"/><path d="M23.64,20.68h0Zm-.16-.08h0a.61.61,0,0,0,.14.07l0,0Z" style="fill:#fff"/><path d="M23.48,20.6l.13.06-.11-.05Z" style="fill:#fff"/><polygon points="23.65 20.68 23.65 20.69 23.65 20.69 23.64 20.68 23.65 20.68" style="fill:#fff"/><path d="M47.54,38.49V47.8c0,.19-.07.15-.26.15H17.92c-.18,0-.36,0-.36-.15V38.49c0-.15,0-.3,0-.44A9.07,9.07,0,0,1,20,32.31l.13-.13a8.84,8.84,0,0,1,2.39-1.77l.16-.08.76-.31.17-.05a5.75,5.75,0,0,1,.71-.2,11.45,11.45,0,0,0,.91.79,12.47,12.47,0,0,0,2.62,1.57c.18.08.36.16.53.22a11.35,11.35,0,0,0,2.12.6A11.17,11.17,0,0,0,35,32.87c.1,0,1.52-.37,1.9-.52.14-.06.29-.19.44-.25a6.07,6.07,0,0,0,2.07-1.25h0a.47.47,0,0,0,.22-.1,12.81,12.81,0,0,0,1.22-1A8.86,8.86,0,0,1,47.54,38Z" style="fill:#fff"/><path d="M27.8,32.13a12.47,12.47,0,0,1-2.62-1.57,12,12,0,0,0,2.62,1.57c.18.08.35.16.53.22a11.35,11.35,0,0,0,2.12.6" style="fill:#fff"/></g></g></svg>