<svg xmlns="http://www.w3.org/2000/svg" viewBox="0 0 1003.96 548.96"><defs><style>.cls-1,.cls-4{fill:none;stroke-linecap:round;stroke-linejoin:round;}.cls-1{stroke:#54332c;stroke-width:10px;}.cls-2{fill:#caefe9;}.cls-3{font-size:104px;fill:#0d6b5d;font-family:parangroydtri, parangroyd tri;}.cls-4{stroke:#fff;stroke-width:3px;stroke-dasharray:7 8;}</style></defs><title>Asset 1</title><g id="Layer_2" data-name="Layer 2"><g id="Layer_1-2" data-name="Layer 1"><line class="cls-1" x1="97.2" y1="119.14" x2="245.18" y2="543.96"/><line class="cls-1" x1="904.66" y1="119.14" x2="756.68" y2="543.96"/><path class="cls-2" d="M1003.94,97.08l0,0C890,47.18,766.21,16.18,636.09,4.89,532.65-4.09,425-.69,316,15,130.21,41.69,5.23,94.63,0,96.87H0l82.78,50.89-41.35,105,.14.49c1.14-.49,116.91-49.52,289-74.27,158.48-22.79,396.61-28.43,631,74.11V253L917.48,146Z"/><text class="cls-3" transform="matrix(0.98, -0.18, 0.18, 0.98, 188.92, 167.14)">W</text><text class="cls-3" transform="matrix(0.99, -0.13, 0.13, 0.99, 305.81, 146.47)">E</text><text class="cls-3" transform="translate(390.95 136.13) rotate(-4.43)">L</text><text class="cls-3" transform="translate(474.11 130.23) rotate(-1.26)">C</text><text class="cls-3" transform="translate(557.61 128.68) rotate(2.98)">O</text><text class="cls-3" transform="translate(661.56 135.07) rotate(8.68)">M</text><text class="cls-3" transform="translate(757.83 151.13) rotate(15.34)">E</text><path class="cls-4" d="M45.45,98.55S317,9.25,514.78,13.74s403.34,57.48,444,78.14c0,0-56,40.67-65.33,51.34l30.67,77.33s-172.67-70.67-402-66.67-422.67,58.71-451.34,72l39.34-84Z"/></g></g></svg>