<svg xmlns="http://www.w3.org/2000/svg" xmlns:xlink="http://www.w3.org/1999/xlink" viewBox="0 0 2119 858.7"><defs><style>.cls-1,.cls-5{fill:none;}.cls-2{fill:#7cd6cb;}.cls-3{clip-path:url(#clip-path);}.cls-4{fill:#59cebf;}.cls-5{stroke:#fff;stroke-linecap:round;stroke-linejoin:round;stroke-width:3px;stroke-dasharray:7 8;}</style><clipPath id="clip-path" transform="translate(88.12 98.57)"><rect class="cls-1" width="1930" height="674"/></clipPath></defs><g id="Layer_2" data-name="Layer 2"><g id="Layer_1-2" data-name="Layer 1"><rect class="cls-2" x="88.12" y="182.57" width="1930" height="676.13"/><g class="cls-3"><path class="cls-4" d="M1735.5,51.6s-63,26.47-35,84.24,97.5,56,97.5,112,45.17,136.29,162.84,97S2028,92.18,1954.5,57.34,1735.5,51.6,1735.5,51.6Z" transform="translate(88.12 98.57)"/><path class="cls-5" d="M1636,144.67c27.25,57.45,150.61,128,295.9-19.25S1424.61-301,1636,144.67Z" transform="translate(88.12 98.57)"/><path class="cls-4" d="M-28,635.11c12,42.34,468,22.06,480-6.17s-56-73.22-149.33-45.87S206,554.84,199.48,524,124,499.27,113,471s3-88.21-70-101.44S-28,419-28,419" transform="translate(88.12 98.57)"/><path class="cls-5" d="M-54,407.66c-1-3-20-105.37,81-125.44S203.28,362.5,171.64,420.7,75,555.17,131,572.23s143.55-26.78,156.93,26.09-274,135.47-344,19.06S-54,407.66-54,407.66Z" transform="translate(88.12 98.57)"/></g></g></g></svg>