<svg xmlns="http://www.w3.org/2000/svg" xmlns:xlink="http://www.w3.org/1999/xlink" viewBox="0 0 2539.67 1739.57"><defs><style>.cls-1,.cls-5{fill:none;}.cls-2{fill:#fcb924;}.cls-3{clip-path:url(#clip-path);}.cls-4{opacity:0.5;}.cls-5{stroke:#fff;stroke-linecap:round;stroke-linejoin:round;stroke-width:3px;}</style><clipPath id="clip-path" transform="translate(479.67 448.76)"><rect class="cls-1" width="2060" height="848.14"/></clipPath></defs><g id="Layer_2" data-name="Layer 2"><g id="Layer_1-2" data-name="Layer 1"><rect class="cls-2" x="479.67" y="448.76" width="2060" height="848.14"/><g class="cls-3"><g class="cls-4"><path class="cls-5" d="M-210.21-370.22c.08.16,26.08-22.16,28.42-17.78l-87.68,114.79L-36-419.28c2,3.78-341.6,266.76-340.18,269.42,4.29,8.05,374.14-255.59,382.72-239.48L-407.93-60.88C-395.61-37.76,144.19-439,157.23-414.51,167.59-395-437.73-.83-431.13,11.54L302.1-447.26C311-430.5-395.53,54-395.53,54L207.08-323.06c14.38,27-597.95,440.84-597.95,440.84L321.4-327.91c14.84,27.85-693.51,498.35-692.06,501.08C-356.11,200.48,301.8-247.6,301.8-247.6s-802.64,516-779.48,559.53c0,0,826-530.43,831.46-520.27L-460.49,371.07c5.05,9.48,904.28-571.83,906.68-567.34,0,0-886.56,624-886.32,624.48,25.68,48.21,932.61-583.57,932.61-583.57S-260,346.59-246.38,372.2c19.85,37.26,739.46-462.7,739.46-462.7S-335.34,490.15-334.86,491.05c.74,1.38,918.6-574.78,918.6-574.78,14.5,27.22-835.58,595.32-835.58,595.32S517.69-30.15,541.76,15l-771.7,551.71c4.61,8.68,750.11-497,761.15-476.27,3.73,7-667.67,444-655.1,467.6C-117,570.88,590.83,84,601.54,104.14c15,28.09-709.83,507.68-709.83,507.68,4.44,8.35,707-442.36,707-442.36C610.13,191-54.43,608.77-37.78,640c0,0,487.79-331.24,498.18-311.73,4.69,8.79-451.24,315.29-439.48,337.36,10.51,19.73,515-343.62,523.52-327.58,3.43,6.45-324.82,276.13-324.82,276.13S480.34,448.8,481.24,450.5" transform="translate(479.67 448.76)"/></g><g class="cls-4"><path class="cls-5" d="M1125.35,292.53c.08.15,25.08-21.32,27.32-17.1l-84.3,110.37,224.46-140.45c2,3.64-328.46,256.51-327.1,259.06,4.12,7.74,359.76-245.76,368-230.27L935.24,590c11.84,22.23,530.89-363.56,543.42-340,10,18.71-572.08,397.77-565.74,409.67l705-441.16c8.59,16.12-670.8,482-670.8,482L1526.6,337.87c13.82,25.94-575,423.89-575,423.89l684.89-428.55C1650.79,360,969.68,812.4,971.07,815c14,26.27,646.6-404.59,646.6-404.59s-771.78,496.2-749.5,538c0,0,794.28-510,799.49-500.26l-783,557.13c4.87,9.12,869.52-549.84,871.82-545.52,0,0-852.47,600-852.24,600.46C929,1106.61,1801,499.13,1801,499.13s-723.58,482.64-710.46,507.27c19.09,35.83,711-444.91,711-444.91S1005,1119.81,1005.5,1120.68C1006.21,1122,1888.78,568,1888.78,568c13.94,26.17-803.46,572.43-803.46,572.43s740-520.91,763.08-477.48l-742,530.5c4.44,8.34,721.27-477.89,731.88-457.95,3.59,6.73-642,426.91-629.9,449.61,6.56,12.33,687.23-455.79,697.53-436.46,14.39,27-682.54,488.16-682.54,488.16,4.28,8,679.78-425.36,679.78-425.36,11,20.69-628,422.43-612,452.47,0,0,469-318.5,479-299.74,4.5,8.45-433.89,303.17-422.58,324.39,10.1,19,495.16-330.42,503.39-315,3.3,6.2-312.33,265.52-312.33,265.52s250.69-159,251.56-157.42" transform="translate(479.67 448.76)"/></g></g></g></g></svg>